<svg width="500" height="410" viewBox="0 0 500 410" fill="none" xmlns="http://www.w3.org/2000/svg">
<g clip-path="url(#clip0_0_1)">
<path d="M252.774 379.884C258.241 382.939 253.819 390.738 252.05 396.607C251.327 399.099 251.889 401.913 252.211 404.486C252.372 405.853 254.703 407.541 254.221 408.908C254.141 409.069 252.693 409.069 252.211 409.149H239.347C225.117 401.351 210.323 394.758 196.093 387.04C184.354 380.608 172.375 374.658 160.798 367.985C157.34 365.975 155.009 363.161 155.491 358.82C156.456 350.78 153.803 344.428 147.371 339.524C145.441 338.318 144.798 335.826 145.763 333.816C149.22 326.419 153.16 319.344 158.546 313.073C162.084 312.832 164.496 315.163 167.069 316.932C173.42 321.273 179.289 326.339 185.4 331.163C187.41 332.771 189.5 334.057 191.51 335.584C192.314 336.308 218.845 339.122 219.328 340.087" fill="#C4E9CE"/>
<path d="M256.151 378.598C253.578 384.467 252.533 384.547 248.513 379.321C247.869 378.517 247.628 377.392 246.422 376.99C244.493 377.07 244.171 375.301 243.447 374.176C237.739 364.206 230.664 355.041 224.715 345.232C220.534 338.398 217.318 331.002 212.976 324.329C210.404 320.309 207.268 316.61 204.695 312.59C200.836 305.435 195.208 299.485 190.304 293.054C179.932 279.547 168.114 267.165 158.305 253.176C154.607 247.869 155.25 246.02 160.235 241.92C171.893 232.272 184.998 224.875 197.861 217.157C203.248 213.941 209.358 211.77 215.147 209.117C218.685 208.956 221.579 207.027 224.715 205.74C233.719 201.801 243.287 199.63 252.854 197.781C255.829 196.977 258.884 197.54 261.939 197.459C263.628 197.299 265.155 198.424 265.557 200.032C266.281 203.087 267.487 205.499 270.863 206.303C271.346 206.464 271.587 207.027 271.426 207.509V207.59C269.175 209.278 266.602 208.394 264.19 208.554C262.663 208.715 261.055 208.394 259.527 208.956C249.879 211.127 240.473 214.343 231.146 217.479C222.061 220.453 213.459 224.554 205.499 229.699C201.801 232.192 201.158 233.8 202.846 237.9C205.258 244.01 205.901 250.281 205.74 256.794C205.66 262.582 203.891 267.487 199.63 271.507C195.53 275.366 195.449 275.848 198.424 280.351C209.921 297.797 220.373 315.806 232.674 332.69C239.669 342.338 246.744 351.905 254.623 360.83C257.196 363.724 258.804 367.342 261.859 369.915C259.929 372.729 258.08 375.703 256.151 378.598Z" fill="#194E4F"/>
<path d="M205.499 328.911C201.319 324.007 196.495 318.058 192.555 312.912C187.329 306.078 182.505 298.842 176.717 292.41C174.626 291.365 173.259 291.526 171.812 293.858C167.953 300.37 163.692 306.641 158.948 312.59V313.394C163.29 315.083 166.908 317.897 170.687 320.63C177.521 325.615 183.068 330.841 185.239 332.047C185.802 332.369 190.143 335.584 195.61 339.765C196.253 338.157 202.605 330.117 205.499 328.911Z" fill="#C4E9CE"/>
<path d="M196.736 340.81C197.379 340.006 198.103 339.202 198.826 338.157C199.148 337.755 199.469 337.273 199.871 336.871C200.273 336.388 200.595 335.906 200.997 335.424C201.399 334.941 201.801 334.459 202.203 333.976C202.605 333.494 202.927 333.012 203.328 332.61L204.936 330.439L206.303 328.59L207.348 327.223L207.429 327.062C203.489 328.107 199.711 330.68 198.022 333.976C195.932 338.077 194.404 340.65 194.163 343.785C194.404 343.464 194.726 343.142 195.047 342.74C195.53 342.258 196.093 341.614 196.736 340.81Z" fill="#194E4F"/>
<path d="M215.469 345.072C214.986 345.715 214.504 346.278 214.102 346.84C212.896 348.448 211.77 349.895 210.725 351.182L218.122 356.81L218.443 356.408L220.132 354.157C220.695 353.353 221.418 352.549 222.142 351.584C222.142 351.584 223.348 359.785 223.107 360.508C226.805 363.322 230.744 366.377 233.317 368.226C233.88 367.985 241.357 367.422 242.804 367.664C243.045 367.02 242.965 366.377 242.563 365.814C241.357 364.689 228.815 352.468 219.569 343.383C218.122 344.026 215.79 344.589 215.469 345.072Z" fill="#C4E9CE"/>
<path d="M215.871 338.961C213.378 336.469 209.921 333.896 209.6 333.414C208.313 332.047 207.107 330.6 205.821 329.153L204.936 330.359L203.329 332.529C203.007 333.012 202.605 333.414 202.203 333.896C201.801 334.379 201.399 334.861 200.997 335.343C200.595 335.826 200.193 336.308 199.871 336.79C199.469 337.273 199.148 337.675 198.826 338.077C198.103 339.042 197.459 339.846 196.816 340.65L204.856 346.68C204.856 346.68 214.022 340.167 215.871 338.961Z" fill="#C4E9CE"/>
<path d="M258.964 369.834C258.16 370.236 257.196 370.317 256.392 369.995C255.588 369.754 254.703 369.513 253.899 369.432C252.935 369.272 251.97 369.111 250.925 369.03C249.879 368.95 248.915 368.789 247.869 368.628C246.824 368.548 245.94 368.387 245.055 368.226C242.643 367.744 240.634 367.503 238.945 367.342C237.578 367.181 236.131 367.262 234.764 367.503C233.639 367.744 232.513 368.226 231.548 368.95C230.423 369.754 229.458 370.719 228.574 371.844C228.413 372.086 228.172 372.407 227.931 372.648C227.689 372.97 227.529 373.211 227.287 373.452C227.046 373.693 226.644 374.256 226.242 374.739C225.84 375.221 225.438 375.784 225.036 376.266C224.554 376.829 224.071 377.392 223.509 377.874C223.107 378.196 222.705 378.517 222.303 378.839C221.901 379.161 221.418 379.241 220.936 379.161C220.373 379.08 219.81 378.919 219.328 378.678C218.845 378.437 218.283 378.115 217.881 377.713C217.559 377.392 217.157 377.07 216.836 376.749C216.434 376.347 216.112 375.784 215.951 375.221C215.549 374.176 215.549 372.97 215.71 371.925C215.79 371.523 215.951 371.121 216.192 370.799C216.916 369.915 217.72 369.03 218.604 368.226C219.408 367.422 220.212 366.618 220.936 365.734C222.544 363.804 223.509 361.392 223.75 358.9C223.911 356.247 223.428 353.594 222.303 351.182L221.82 351.745C221.016 352.709 220.373 353.513 219.81 354.317L218.122 356.569C217.559 357.292 217.077 358.016 216.514 358.659C215.951 359.383 215.388 360.106 214.745 360.91C214.504 361.151 214.263 361.473 214.022 361.794L213.218 362.759L212.333 363.724C212.012 364.046 211.77 364.287 211.61 364.448C210.886 365.252 209.921 365.814 208.796 366.056C207.75 366.216 206.705 365.734 206.062 364.93C205.58 364.448 205.258 363.885 205.017 363.242C204.776 362.598 204.534 361.955 204.454 361.232C204.374 360.588 204.374 359.865 204.534 359.222C204.695 358.579 204.936 358.016 205.338 357.533C205.821 356.971 206.544 356.167 207.429 355.121C208.313 354.076 209.278 352.951 210.404 351.664C211.449 350.297 212.655 348.77 214.022 347.082C214.424 346.519 214.906 345.876 215.388 345.313C215.871 344.67 219.649 343.946 220.132 343.222C219.006 342.097 216.112 337.916 214.986 337.755C214.263 338.64 208.554 341.454 207.992 342.177L206.384 344.348C205.901 345.072 205.338 345.715 204.856 346.358C204.374 347.001 203.73 347.725 203.168 348.529C202.927 348.77 202.685 349.011 202.444 349.333L201.64 350.217L200.836 351.101C200.595 351.343 200.354 351.584 200.113 351.825C199.389 352.709 198.344 353.192 197.218 353.272C196.093 353.353 195.047 352.79 194.324 351.986C194.083 351.745 193.922 351.503 193.761 351.262C194.243 357.694 196.655 363.804 200.917 369.995C202.203 371.925 203.65 373.693 205.258 375.301C206.464 376.507 207.911 377.713 209.519 379.08C216.675 384.949 226.242 388.165 235.006 387.2C243.769 386.236 252.693 379.965 258.08 372.889C258.964 371.684 259.768 370.478 260.492 369.191C260.01 369.272 259.527 369.593 258.964 369.834Z" fill="#194E4F"/>
<path d="M233.719 28.8632C244.332 30.0691 251.166 30.7927 261.135 34.5715C266.281 36.5814 277.939 29.7475 279.788 29.024C293.938 23.3156 308.249 17.7681 322.479 12.2206C333.896 7.71828 345.795 4.82392 357.533 1.44717C365.814 -0.482399 369.834 -0.0804048 376.025 0.482387C381.975 1.36677 387.04 6.99469 387.04 12.8638C387.04 17.4465 388.487 21.8685 389.452 26.2904C393.954 47.3549 393.472 68.5801 390.416 89.725C388.487 102.026 385.834 114.166 382.296 126.146C379.965 134.346 376.105 141.823 372.487 149.381C370.88 152.758 369.432 156.215 368.307 159.752C366.779 164.657 367.985 167.551 372.568 170.043C384.065 176.234 394.999 183.47 406.416 189.822C407.943 190.706 409.31 191.751 410.516 192.957V205.821C409.873 206.384 408.908 206.384 408.265 205.901C402.074 202.364 395.642 199.309 389.612 195.369C383.985 191.59 378.357 187.57 372.246 184.354C366.538 181.299 359.302 180.736 355.041 175.028C354.478 174.385 353.674 174.063 352.87 174.063C348.368 174.224 345.072 171.491 341.534 169.561C336.469 166.667 331.082 164.255 325.535 162.406C322.881 161.521 320.55 159.833 318.299 158.225C316.048 156.617 313.555 155.893 310.822 157.26C309.053 158.225 309.696 159.752 310.018 161.119C310.259 162.566 310.339 164.013 310.42 165.461C311.545 176.073 308.731 186.284 306.802 196.575C305.676 202.444 305.676 208.313 305.676 214.182C305.676 219.81 305.676 225.438 303.184 230.664C302.782 231.629 302.701 232.754 303.103 233.8C305.194 240.553 301.737 246.663 300.611 253.015C300.531 253.98 299.646 254.784 298.681 254.784C297.315 254.623 297.234 253.337 297.154 252.291C296.832 246.503 296.913 240.794 297.315 235.006C297.877 227.931 297.877 220.855 297.797 213.861C297.797 210.002 296.832 206.223 298.119 202.283C298.923 199.952 297.475 198.103 294.662 198.183C287.345 198.344 280.351 196.655 273.195 195.61C267.246 194.726 261.135 195.449 255.507 197.62C254.703 197.942 253.899 198.344 253.095 198.665C243.769 200.997 234.362 203.087 225.358 206.544C222.061 207.429 218.926 208.554 215.871 210.002C196.253 218.524 177.842 229.619 161.119 242.965C156.536 246.583 156.215 248.191 159.431 253.015C165.943 262.904 174.385 271.185 181.54 280.511C188.937 290.159 197.138 299.164 203.972 309.214C204.695 310.339 213.298 322.158 215.147 325.133C216.996 328.107 256.231 375.703 258.08 378.357C260.653 382.135 256.633 384.387 254.543 385.753C252.613 387.04 214.665 337.032 213.378 335.986C213.057 335.745 212.816 335.424 212.494 335.182C203.73 326.258 196.816 315.967 189.178 306.159C182.827 298.038 177.36 289.275 169.963 282.039C168.596 280.672 167.31 279.064 165.38 281.396C160.235 289.516 155.17 297.717 149.461 305.435C148.657 306.48 148.014 307.686 147.451 308.892C139.411 321.836 132.095 335.102 125.261 348.689C122.045 355.041 123.091 357.855 129.522 361.071C131.693 362.116 133.623 363.644 135.15 365.493C142.627 371.523 151.069 376.266 158.788 381.894C159.994 382.779 161.119 383.663 162.245 384.628C163.29 385.432 164.496 386.397 163.531 388.004C162.727 389.291 161.36 389.452 159.994 389.21C157.742 388.889 155.813 387.522 153.642 386.799C152.516 386.397 151.471 385.834 150.346 385.351C147.21 384.145 146.487 384.628 146.406 387.924C146.326 393.552 146.406 399.18 146.326 404.808C146.326 406.416 146.487 408.024 145.281 409.391H135.633C134.346 407.943 134.588 406.175 134.588 404.406C134.588 397.733 134.507 391.06 134.588 384.387C134.668 381.251 133.462 379.161 130.728 377.472C124.136 373.372 118.186 368.468 111.433 364.528C108.217 362.679 107.976 359.383 108.619 356.006C110.146 348.689 113.925 342.338 117.382 335.906C121.483 328.268 126.065 320.871 129.844 313.073C136.598 301.335 144.235 290.24 152.034 279.225C153.079 277.697 154.044 276.089 155.009 274.481C156.617 271.909 156.215 269.738 154.285 267.567C150.748 263.386 146.969 259.447 144.235 254.623C140.859 248.432 144.155 243.689 147.532 238.945C149.381 237.257 151.069 235.408 152.677 233.478C164.013 223.509 176.636 215.63 189.661 208.152C202.042 201.721 214.906 196.334 228.172 191.992C239.508 188.214 251.246 185.882 263.145 184.917C268.371 184.515 273.597 185.4 278.743 186.043C283.486 186.686 288.39 186.766 293.054 187.892C296.028 188.616 296.028 186.525 296.028 184.596V161.682C296.109 156.697 297.395 151.873 299.887 147.532C301.254 144.879 303.988 143.11 307.043 143.029C312.51 142.547 318.058 143.431 323.123 145.602C332.127 149.461 341.132 153.24 349.574 158.225C353.594 160.637 354.237 160.556 356.327 156.376C363.804 141.502 370.397 126.306 374.095 109.986C377.874 92.941 381.171 75.8964 381.251 58.3695C381.331 46.4705 378.517 35.0539 375.703 23.5568C374.578 18.9741 371.201 16.0797 367.101 13.9894C363.161 12.0598 359.704 14.2306 356.086 15.2758C351.664 16.7229 347.403 18.6525 343.142 20.3409C319.585 28.7828 296.511 38.4306 273.517 48.1589C267.969 50.4904 262.743 50.9728 257.356 48.1589C243.689 43.0937 229.297 41.8878 215.067 39.7974C212.735 39.8778 210.323 39.7974 207.992 39.4758C202.283 38.1894 196.495 39.4758 190.786 38.7522C184.113 37.4658 177.44 38.4306 170.767 38.109C168.918 38.0286 166.988 38.2698 165.139 37.7874C163.29 37.305 161.923 36.4206 161.602 34.4107C161.28 32.5615 162.245 31.2751 163.692 30.3907C168.837 27.3356 174.465 26.1296 180.174 27.4964C184.676 28.622 189.259 29.7475 193.761 31.1947C196.736 32.1595 199.952 32.0791 202.846 30.9535C206.625 29.5063 210.806 29.2651 214.665 30.3907C217.881 31.3555 221.338 31.1143 224.634 31.6771C226.162 31.9183 227.689 31.6771 228.574 30.3103C229.86 28.0592 231.709 28.22 233.719 28.8632Z" fill="#073042"/>
<path d="M474.433 255.427C459.559 285.576 371.442 344.75 365.091 353.192C363.965 354.719 362.92 356.247 361.875 357.775C360.669 359.463 359.383 360.99 356.971 360.508C350.137 356.247 343.705 351.503 335.986 348.85C328.911 346.358 321.756 344.107 314.118 344.107C312.108 344.107 310.098 343.946 308.731 342.016C307.767 334.62 307.365 327.143 307.525 319.666C307.847 313.073 307.847 306.561 308.088 300.048C308.731 281.878 309.857 263.708 311.063 245.618C311.706 235.568 312.912 225.679 313.716 215.63C313.796 214.584 318.058 167.31 318.299 166.345C319.264 162.486 474.433 241.759 474.433 255.427Z" fill="#C4E9CE"/>
<path d="M421.692 227.046C414.536 225.519 398.215 213.62 392.024 210.082C380.849 203.811 368.226 200.032 356.569 194.887C353.996 193.761 353.031 195.289 352.307 197.54C350.619 203.73 346.438 208.876 340.81 211.77C334.7 214.906 328.751 214.263 322.801 211.61C322.479 211.368 322.158 211.127 321.836 210.886C317.575 208.394 315.565 209.198 315.002 214.022C314.038 222.222 313.073 230.423 312.59 238.624C311.626 254.06 311.224 269.497 309.937 284.853C309.294 292.25 309.776 299.566 309.294 306.882C308.49 318.781 309.214 330.6 309.374 342.418C306.078 344.268 302.38 343.705 298.842 343.946C295.787 342.82 296.269 340.167 296.109 337.755C298.601 321.997 298.521 305.998 300.129 290.159C302.38 268.452 302.782 246.583 306.078 225.036C307.204 217.479 306.48 209.841 307.204 202.203C308.008 193.52 308.731 184.917 310.178 176.315C310.902 172.053 309.857 167.792 310.018 163.531C310.259 157.582 312.188 156.134 317.736 158.627C326.741 162.647 335.906 166.265 344.67 170.928C353.674 175.671 362.759 180.174 371.764 184.837C379.161 188.616 386.236 192.877 393.07 197.62C397.492 200.675 402.315 203.007 407.059 205.338C408.265 205.821 409.471 206.544 410.516 207.348C410.516 211.61 421.692 222.785 421.692 227.046Z" fill="#194E4F"/>
<path d="M411.481 341.454C415.822 336.71 418.797 334.137 423.702 329.635C430.375 323.444 437.209 317.334 443.962 311.224C457.63 298.923 471.539 286.702 485.046 274.24C488.905 270.703 493.086 267.246 496.462 263.226C501.93 256.794 500.563 245.457 494.292 240.151C489.629 236.212 484.161 233.076 479.016 229.94C470.654 224.795 462.132 219.891 453.529 215.067C433.591 203.811 413.491 192.796 393.15 182.264C386.879 179.048 384.708 200.113 390.577 203.168C407.702 212.012 424.586 221.177 441.389 230.503C456.665 239.026 472.182 247.467 486.654 257.276C488.503 258.562 490.272 259.929 492.04 261.296C492.603 261.698 491.317 260.17 492.201 261.618C488.905 256.392 496.864 239.186 491.639 244.493C491.156 244.975 490.674 245.538 490.191 246.02C489.709 246.503 487.538 248.593 488.583 247.628C486.493 249.638 484.403 251.568 482.232 253.578C469.368 265.396 456.343 276.893 443.399 288.551C430.937 299.727 417.913 310.58 406.577 322.801C403.361 326.258 403.763 333.494 404.888 337.675C405.853 340.73 408.265 344.911 411.481 341.454Z" fill="#073042"/>
<path d="M363.563 248.03C364.528 248.754 365.734 249.638 367.101 250.603C368.468 251.568 370.076 252.613 371.925 253.819C372.648 254.301 373.452 254.864 374.337 255.427C375.221 255.99 376.105 256.633 376.99 257.196C377.874 257.839 378.759 258.402 379.643 259.045C380.527 259.608 381.412 260.17 382.216 260.733L386.155 263.226C387.442 264.03 388.567 264.753 389.532 265.396L392.024 266.924L392.266 267.085C389.291 260.814 384.145 255.025 378.357 252.372C371.282 249.156 366.699 246.905 361.714 246.663C362.196 247.065 362.84 247.548 363.563 248.03Z" fill="#194E4F"/>
<path d="M347.886 320.389C347.403 319.585 347.162 318.62 347.323 317.656C347.403 316.691 347.484 315.806 347.484 314.842C347.484 313.796 347.484 312.671 347.403 311.626C347.403 310.58 347.323 309.455 347.242 308.329C347.162 307.204 347.162 306.159 347.162 305.194C347.162 302.541 347.162 300.289 347.001 298.521C346.921 296.993 346.68 295.466 346.197 294.018C345.795 292.812 345.152 291.767 344.348 290.802C343.383 289.757 342.338 288.873 341.212 288.069C340.891 287.908 340.65 287.747 340.328 287.506C340.006 287.345 339.765 287.104 339.444 286.943L338.077 286.059C337.514 285.737 337.032 285.335 336.469 284.933C335.826 284.531 335.263 284.049 334.78 283.566C334.378 283.164 334.057 282.762 333.655 282.361C333.333 281.959 333.092 281.476 333.092 280.913C333.092 280.351 333.173 279.707 333.333 279.145C333.494 278.582 333.735 277.939 334.057 277.456C334.298 277.054 334.539 276.572 334.78 276.25C335.102 275.768 335.504 275.366 335.986 275.044C336.469 274.723 336.951 274.562 337.514 274.401C337.996 274.321 338.479 274.24 339.042 274.321C339.444 274.321 339.846 274.481 340.167 274.723C341.132 275.366 342.097 276.17 342.981 276.974C343.785 277.778 344.67 278.501 345.634 279.145C347.564 280.592 349.976 281.315 352.388 281.155C354.88 280.913 357.292 280.029 359.302 278.501L358.739 278.099C357.775 277.376 356.81 276.813 356.006 276.331L353.674 274.883C352.951 274.401 352.227 273.999 351.503 273.517C350.78 273.034 349.976 272.552 349.172 271.909C348.931 271.748 348.609 271.507 348.287 271.185L347.242 270.381L346.197 269.577C345.876 269.336 345.634 269.095 345.393 268.934C344.509 268.21 343.785 267.246 343.464 266.2C343.142 265.155 343.383 263.949 344.107 263.065C344.509 262.502 344.991 262.02 345.554 261.698C346.117 261.296 346.68 261.055 347.323 260.814C347.966 260.653 348.529 260.572 349.172 260.572C349.815 260.653 350.378 260.814 350.86 261.216C351.503 261.618 352.307 262.261 353.433 263.065C354.559 263.869 355.765 264.753 357.131 265.718C358.498 266.683 360.106 267.808 361.955 268.934C362.518 269.336 363.161 269.738 363.804 270.14C364.448 270.542 365.091 271.024 365.814 271.507C366.618 270.22 367.181 268.854 367.583 267.406C367.905 266.12 368.066 264.753 368.066 263.467C367.101 262.824 366.297 262.261 365.493 261.778L363.242 260.251C362.518 259.768 361.794 259.366 361.071 258.884C360.347 258.402 359.624 257.919 358.82 257.356C358.579 257.196 358.257 256.954 357.935 256.713L356.971 255.909L356.006 255.186L355.282 254.543C354.317 253.819 353.674 252.774 353.433 251.568C353.192 250.442 353.513 249.236 354.237 248.271C354.398 248.03 354.639 247.789 354.8 247.548C348.931 249.075 343.705 252.613 338.64 258C337.032 259.688 335.584 261.457 334.378 263.467C333.494 264.994 332.529 266.683 331.565 268.612C327.303 277.215 325.776 287.908 328.027 297.234C330.278 306.561 337.434 315.244 344.83 319.907C346.036 320.711 347.323 321.354 348.689 321.917C348.529 321.354 348.127 320.872 347.886 320.389Z" fill="#194E4F"/>
<path d="M394.195 272.632C394.115 272.873 394.115 273.115 394.034 273.356C393.793 273.999 393.552 274.642 393.15 275.205C392.507 276.17 391.301 276.733 390.175 276.733C388.728 276.733 387.281 276.25 386.155 275.366C385.593 274.964 385.11 274.642 384.547 274.321L382.939 273.275L381.251 272.15L379.241 270.863C378.919 272.15 378.598 273.356 378.196 274.562C377.713 275.848 377.231 277.054 376.588 278.26L381.171 281.074C382.457 281.878 383.261 282.36 383.502 282.521C383.985 282.843 384.387 283.406 384.467 283.968C384.628 284.612 384.628 285.255 384.547 285.978C384.467 286.702 384.306 287.426 383.985 288.069C383.743 288.712 383.422 289.275 383.02 289.838C382.457 290.802 381.412 291.365 380.286 291.285C378.919 291.204 377.633 290.642 376.588 289.838C375.543 289.114 374.578 288.471 373.613 287.908C372.648 287.345 371.523 286.622 370.236 285.818C368.307 287.345 366.216 288.632 363.965 289.596C361.714 290.561 359.302 291.204 356.89 291.446C357.935 294.018 358.659 296.832 358.82 299.646C359.061 302.862 359.141 306.078 358.9 309.214C358.739 311.143 358.659 312.832 358.739 314.198C358.739 315.646 358.82 316.852 358.82 317.897C358.82 318.942 358.82 319.746 358.739 320.389C358.739 320.952 358.579 321.515 358.257 321.997C357.614 322.962 356.488 323.605 355.363 323.685C361.151 324.731 367.181 324.007 372.568 321.675C378.919 318.942 385.914 312.43 390.416 304.711C394.436 297.636 396.366 289.516 395.964 281.396C395.723 278.421 395.08 275.527 394.195 272.632Z" fill="#194E4F"/>
<path d="M130.809 312.751C127.593 320.711 122.769 327.786 118.829 335.263C115.694 341.132 112.156 346.84 110.307 353.272C108.297 360.186 108.94 361.473 114.97 365.171C121.322 369.111 127.352 373.533 133.462 377.713C135.231 378.919 135.552 380.608 135.552 382.537C135.472 391.381 135.552 400.145 135.552 408.989H16.5622C14.713 406.657 15.4366 403.923 15.4366 401.27C15.3562 395.401 15.919 389.612 18.6525 384.306C20.9841 384.306 22.4313 383.181 23.4764 381.01C24.9236 378.115 27.014 375.623 28.5416 372.889C31.3555 367.985 35.1343 365.332 40.923 366.136C44.5409 366.458 48.1589 365.493 51.1336 363.402C53.3044 361.875 55.7164 360.669 58.2891 359.785C60.6207 358.981 61.5051 357.694 60.1383 355.282C58.1283 351.825 59.1735 347.966 59.0931 344.268C59.0127 341.614 58.2891 339.846 55.5556 339.363C55.234 333.735 51.3748 330.921 46.9529 328.429C42.531 325.937 38.109 322.962 33.4459 320.63C31.1947 319.505 29.024 318.942 26.612 319.746C25.004 317.977 26.0492 316.45 27.7376 316.128C31.7575 315.244 31.6771 312.43 31.7575 309.374C31.7575 307.686 31.5163 305.837 32.5615 304.309C43.3349 303.827 52.9024 299.325 62.2287 294.42C64.319 293.456 66.0878 291.928 67.2134 289.918C68.9821 286.3 67.6154 284.049 63.5954 283.647C61.5855 283.406 59.0127 284.853 57.6459 281.958C58.4499 281.074 59.6559 280.592 60.8619 280.672C65.3642 280.833 69.7861 280.029 74.2081 279.788C80.7204 280.109 87.2327 279.145 93.5842 281.315C94.549 281.637 95.4333 281.074 96.2373 280.592C96.9609 280.27 97.7649 280.19 98.5689 280.431C99.7749 280.833 101.061 281.396 101.061 282.762C101.061 284.37 99.4533 284.29 98.3277 284.37C95.9157 284.612 93.5038 284.29 91.0918 284.612C89.6446 284.772 87.8759 285.094 87.8759 286.943C87.8759 288.792 89.5642 289.194 91.0114 289.436C93.4234 289.596 95.8353 289.918 98.1669 290.4C99.9357 290.802 101.544 291.446 102.508 293.054C104.036 295.626 106.207 296.43 108.94 296.109C113.764 295.546 117.061 297.717 119.794 301.415C122.126 304.711 125.1 307.445 128.558 309.535C129.603 310.42 130.568 311.304 130.809 312.751Z" fill="#C4E9CE"/>
<path d="M74.3689 281.235C68.8214 282.28 63.0326 281.476 57.5655 282.843C52.1788 284.853 46.8725 284.933 41.8074 281.878C40.6014 281.074 39.5562 279.949 38.9934 278.582C37.707 274.964 35.9383 275.848 33.6871 277.697C26.2904 283.647 18.8937 289.596 14.5522 298.36C12.5422 305.194 13.909 311.867 15.2758 318.54C17.6073 330.278 20.8233 341.936 24.9236 353.192C29.5064 357.373 29.2652 362.598 28.0592 367.985C25.5668 373.533 23.3156 379.321 19.7781 384.306C16.2406 392.266 16.1602 400.707 16.5622 409.23H7.71829C5.54752 405.29 6.5123 401.109 6.9143 397.09C7.95948 387.04 11.0146 377.392 15.9994 368.628C17.1249 366.86 17.0445 364.608 15.6778 363C12.301 358.739 11.0146 353.594 9.80865 348.689C7.63789 339.765 5.14552 330.921 2.89436 321.997C2.41197 320.55 2.17077 319.103 2.00997 317.656C2.09037 310.178 1.28638 302.701 1.12559 295.224C0.964788 292.25 1.84917 289.275 3.69835 286.943C5.14552 283.164 7.31629 279.788 10.1302 276.893C12.8638 274.16 18.2505 269.256 23.1548 266.281C24.2804 265.638 25.6472 265.396 26.8532 263.949C20.6625 262.743 15.3562 258.964 9.08507 259.286C4.42194 259.527 1.76878 257.517 0.643193 253.176C0.401997 252.131 0.321598 251.005 0.401997 249.96C0.241199 245.538 -0.48239 241.036 0.401997 236.614C0.401997 234.604 0.723592 232.594 1.20598 230.664C1.36678 223.589 4.50233 217.237 5.62792 210.404C6.11031 207.509 5.78871 205.178 3.61795 203.087C2.33157 201.881 1.84917 200.113 1.36678 198.424C0.723592 195.449 -0.401991 192.555 1.52758 189.661C4.18074 182.184 8.68307 175.993 13.909 170.204C15.517 168.435 14.3914 167.39 12.7834 166.506C9.64786 164.737 7.0751 162.245 5.22592 159.19C3.77875 156.938 4.01994 154.848 5.46712 152.516C8.92427 146.728 13.9894 142.467 18.8937 138.045C24.3608 133.14 29.3456 127.754 34.4107 122.447C36.5814 120.196 37.5462 117.061 36.903 114.005C36.0991 110.95 36.1795 107.976 36.1795 104.92C36.1795 89.0014 36.1795 73.0825 36.3402 57.1635C36.4206 48.7217 37.8678 40.521 38.913 32.1595C39.7974 25.7276 46.8725 8.03988 47.9177 7.2359C56.6007 -2.33156 72.0373 4.90433 77.3436 5.38672C86.4287 6.11031 95.1118 8.76347 103.795 11.4166C111.754 13.8286 119.473 17.3661 127.191 20.5821C131.372 22.2705 135.472 24.2 139.492 26.2904C142.145 27.6572 145.12 28.22 148.014 27.818C164.817 25.6472 181.782 25.004 198.746 26.0492C209.76 26.6924 220.775 27.7376 231.79 28.1396C232.594 28.22 233.317 28.4612 234.041 28.7024C232.513 29.024 230.664 27.8984 229.94 30.9535C229.378 33.2851 226.081 33.1243 223.911 32.6419C219.73 31.6771 215.469 31.9987 211.368 30.5515C208.715 29.5868 205.66 30.6319 203.248 31.8379C200.836 32.9635 198.103 33.2047 195.53 32.5615C190.465 31.4359 185.56 29.828 180.576 28.4612C174.465 26.7728 168.837 28.22 163.692 31.4359C161.602 32.7223 162.084 34.5715 164.094 35.9383C165.38 36.8226 166.908 36.7422 168.355 36.7422H186.847C188.133 36.7422 189.58 36.3402 190.625 37.4658C189.42 38.8326 187.731 38.6718 186.204 38.7522C176.636 38.913 167.069 38.511 157.501 39.2346C155.491 38.913 155.411 37.1442 154.768 35.6971C154.285 34.5715 153.481 33.8479 152.275 34.4911C151.069 35.1343 151.31 36.1795 151.873 37.2246C152.436 38.2698 153.642 38.9934 152.758 40.3602C150.105 42.2898 146.969 43.0134 143.914 43.7369C140.215 44.5409 137.643 42.531 135.472 39.717C134.99 38.2698 134.427 37.0638 132.819 36.501C130.97 35.7775 129.603 34.6519 130.005 32.3203C130.407 30.3907 129.12 30.1495 127.593 30.2299C124.779 30.3907 122.045 31.1143 119.633 32.4811C114.005 31.4359 109.342 28.22 104.116 26.1296C96.1569 22.9941 88.2779 19.6977 79.9968 17.4465C78.63 17.0445 77.022 17.0445 76.2984 15.4366C77.1828 12.703 79.6752 12.7834 81.7656 12.1402C82.4891 11.899 83.4539 11.6578 83.2931 10.6126C83.2127 10.0499 82.4087 9.64786 82.0872 9.88906C77.5044 12.3814 71.5549 9.88906 67.4546 13.909C64.4798 14.7934 61.0227 12.301 58.3695 15.115C51.8572 23.0745 50.9728 32.8831 49.4452 42.531C47.4353 56.1184 47.9177 69.7057 47.9177 83.2931C47.9177 91.0114 48.0785 98.8101 47.1941 106.528C47.0333 107.654 46.9529 109.182 48.0785 109.825C49.2041 110.468 50.3296 109.342 51.214 108.699C53.5456 107.091 55.5556 105.162 57.8871 103.554C59.1735 102.669 60.9423 101.061 61.9071 104.036C61.9071 105.162 61.5855 106.207 60.8619 107.011C55.5556 113.684 51.2944 121.161 45.9881 127.914C41.9682 133.06 37.0638 137.08 32.0791 141.18C27.9788 144.557 24.1196 148.255 19.9389 151.632C18.1701 153.079 17.6877 154.768 19.7781 156.295C23.7176 159.109 26.6924 163.451 32.2399 163.853C34.4107 164.014 34.5715 165.461 32.9635 166.827C30.2299 169.159 27.818 171.893 25.1648 174.305C20.8233 178.324 16.9641 182.827 13.6678 187.651C13.105 188.455 12.703 189.259 12.2206 190.063C10.7734 192.555 11.497 194.645 13.2658 196.655C15.0346 198.665 17.0445 198.907 19.4565 197.942C22.4313 196.736 25.1648 194.967 28.5416 195.047C29.5868 195.047 30.8731 195.047 31.4359 196.093C31.9987 197.138 31.0339 198.103 30.3907 198.907C26.1296 203.891 22.4313 209.278 19.3761 215.067C14.8738 222.303 11.5774 230.021 11.4166 238.704C10.2106 245.779 12.2206 248.593 19.1349 249.317C26.612 249.96 33.9283 251.487 41.0838 253.658C41.8074 253.899 42.6114 254.06 43.4153 254.382C52.1788 257.437 53.4652 259.608 51.3748 268.532C51.214 269.336 51.0532 270.14 50.8924 270.863C49.8472 274.16 51.3748 275.125 54.43 275.285C60.2187 275.446 66.0878 274.562 71.8765 276.089C73.1629 276.331 74.4493 276.813 75.6553 277.376C76.62 277.939 77.5044 278.662 77.424 279.788C76.7808 281.557 75.0121 280.511 74.3689 281.235Z" fill="#073042"/>
<path d="M377.553 409.149H316.45C311.545 405.29 305.917 402.476 301.495 397.813C292.571 388.567 289.918 377.07 288.23 365.01C288.23 364.367 288.39 363.644 288.712 363.081C289.114 362.357 289.757 361.794 290.481 361.553C297.395 360.106 303.907 357.131 311.063 356.569C312.028 356.488 312.912 356.649 313.877 356.569C327.705 354.88 338.64 361.392 349.172 368.95C354.478 372.97 359.543 377.392 364.206 382.135C371.121 388.969 374.739 397.813 377.874 406.818C378.276 407.541 378.115 408.506 377.553 409.149Z" fill="#C4E9CE"/>
<path d="M377.553 409.149C373.533 395.08 365.654 383.743 354.398 374.417C347.162 368.468 339.202 363.402 330.761 359.463C323.364 356.006 315.324 356.488 307.927 358.096C301.656 359.463 295.064 360.347 289.194 363.483C287.988 365.252 286.38 366.699 284.451 367.664C273.517 373.533 270.622 383.824 269.256 394.999C268.693 399.662 269.256 404.567 267.406 409.069H252.935C251.166 406.496 251.166 403.361 251.246 400.627C251.487 394.436 251.005 388.085 254.301 382.377C254.784 381.412 255.025 380.367 255.105 379.321C255.909 375.301 259.045 372.729 261.055 369.513C269.336 358.659 279.949 350.699 292.089 344.75C294.26 343.946 296.511 343.383 298.762 343.222C302.219 342.338 305.757 342.418 309.214 342.418C316.369 343.624 323.685 343.785 330.761 346.036C340.408 349.172 349.413 353.915 357.453 360.106C358.739 360.749 360.106 361.151 361.232 362.116C365.171 365.412 366.699 365.493 369.995 361.794C381.412 349.252 393.713 337.514 405.531 325.374C406.818 324.007 407.863 321.836 410.436 323.123V342.418C405.049 347.805 399.823 353.272 394.436 358.659C388.889 364.287 383.1 369.593 376.909 374.497C375.141 375.864 374.417 377.07 376.105 379C377.231 380.367 377.874 381.975 378.115 383.743C379.08 390.658 381.573 397.17 382.135 404.165C382.296 405.853 382.859 407.622 381.492 409.149H377.553Z" fill="#073042"/>
<path d="M158.868 313.475C154.526 319.746 150.587 326.258 147.049 332.931C145.602 335.745 146.245 337.514 148.577 339.444C153.16 343.142 157.421 347.644 156.295 353.915C154.526 363.724 160.717 367.342 167.631 370.96C180.736 377.794 193.6 385.03 206.866 391.462C215.469 395.642 223.669 400.707 232.594 404.245C235.166 405.29 237.82 406.496 239.267 409.149H214.343C211.69 407.139 208.554 406.496 205.499 405.451C194.565 401.753 184.435 396.366 173.983 391.703C168.677 390.256 164.737 386.477 160.396 383.422C151.712 377.311 142.788 371.603 134.025 365.573C131.854 363.885 130.005 361.955 127.11 361.151C123.412 360.106 121.402 354.317 123.091 350.619C127.593 340.971 132.899 331.645 138.125 322.399C140.778 317.656 143.11 312.671 146.728 308.57C147.773 307.606 149.301 307.525 150.426 308.329C153.079 310.018 156.134 310.661 158.788 312.269C159.19 312.59 159.19 313.073 158.868 313.475Z" fill="#194E4F"/>
<path d="M291.446 340.81C292.089 342.338 293.697 343.705 292.25 345.554C280.592 351.584 270.301 359.785 261.859 369.754C259.206 370.156 258.482 367.744 257.356 366.377C249.558 356.488 241.759 346.519 234.282 336.308C225.84 324.891 217.881 312.992 210.645 300.772C206.303 293.295 201.238 286.3 196.414 279.064C194.967 276.813 194.243 274.803 196.736 272.713C207.75 263.547 205.901 251.889 202.525 240.312C200.193 232.352 200.032 231.709 207.268 227.207C217.961 220.534 229.78 216.514 241.679 212.816C247.226 211.047 252.854 209.358 258.562 208.072C260.733 207.268 263.065 207.831 265.316 207.67C267.406 207.59 267.889 209.278 268.452 210.806C270.542 216.434 272.069 222.303 273.115 228.252C273.758 232.111 275.366 235.729 275.687 239.588C275.929 242.402 299.003 239.749 297.877 242.402" fill="#C4E9CE"/>
<path d="M294.903 251.005C294.018 283.004 292.732 331.725 292.491 337.514C292.25 338.72 282.602 281.717 277.858 253.98L280.351 253.497L285.416 252.452C287.024 252.131 288.471 251.809 289.757 251.487L292.973 250.764L294.903 251.005Z" fill="#C4E9CE"/>
<path d="M294.983 250.281C295.385 236.533 295.626 226.001 295.787 223.509C295.707 220.212 295.626 216.835 295.707 213.539C295.707 211.851 295.224 210.645 293.777 209.921C291.365 208.715 288.953 207.268 285.978 207.348C281.476 207.429 276.893 207.348 272.391 207.348C268.13 207.831 264.673 205.821 260.492 207.67C261.296 207.67 267.567 208.554 268.934 212.896C271.667 221.579 273.034 230.584 275.366 239.428C275.446 239.91 276.009 242.965 276.893 247.789C282.602 247.307 288.31 248.352 293.456 250.764L294.983 250.281Z" fill="#C4E9CE"/>
<path d="M289.757 287.586C289.436 290.722 288.632 293.697 287.586 296.671C286.541 299.485 285.094 302.139 283.245 304.551C286.139 306.078 288.792 308.088 290.963 310.5C292.008 311.626 293.054 312.832 294.099 314.038C294.26 311.867 294.42 309.776 294.662 307.606C294.903 305.194 295.385 302.862 295.626 300.531L295.787 298.762C296.109 294.581 296.109 290.32 295.948 286.139C295.305 286.3 294.662 286.461 294.018 286.541C292.812 286.863 291.365 287.184 289.757 287.586Z" fill="#194E4F"/>
<path d="M290.481 264.592L288.23 265.075L285.657 265.638C286.38 267.085 287.024 268.532 287.586 270.059C288.149 271.667 288.632 273.275 289.034 274.964L294.903 273.597L295.385 273.517C295.224 270.22 295.144 266.924 295.224 263.628C295.064 263.628 294.903 263.708 294.662 263.788C293.938 263.949 293.214 264.03 292.571 264.19L290.481 264.592Z" fill="#194E4F"/>
<path d="M292.008 333.253L290.722 331.725C289.838 330.68 288.953 329.715 288.069 328.751C287.184 327.786 286.38 326.821 285.657 325.937C283.647 323.364 281.959 321.354 280.511 319.746C279.305 318.379 278.019 317.173 276.491 316.208C275.285 315.485 273.999 315.002 272.632 314.761C271.105 314.6 269.577 314.681 268.05 314.922C267.728 315.002 267.326 315.083 266.924 315.163C266.522 315.244 266.2 315.324 265.798 315.404L264.03 315.726C263.306 315.887 262.582 315.967 261.859 316.128C261.055 316.289 260.251 316.369 259.447 316.369C258.884 316.369 258.241 316.289 257.678 316.208C257.035 316.128 256.553 315.806 256.151 315.324C255.668 314.761 255.266 314.118 255.025 313.475C254.703 312.751 254.462 312.028 254.301 311.304C254.141 310.58 253.98 309.937 253.98 309.455C253.899 308.731 253.899 308.008 254.141 307.284C254.301 306.641 254.623 305.998 254.945 305.355C255.266 304.792 255.668 304.309 256.07 303.907C256.392 303.586 256.794 303.345 257.276 303.264C258.562 303.023 259.849 302.943 261.216 302.943C262.502 302.943 263.708 302.862 264.994 302.621C267.728 302.219 270.22 300.772 271.989 298.521C273.838 296.028 275.125 293.054 275.527 289.998L274.723 290.159C273.436 290.4 272.23 290.642 271.185 290.802L268.21 291.446C267.246 291.687 266.281 291.848 265.396 292.089C264.512 292.33 263.467 292.491 262.341 292.652C262.02 292.732 261.537 292.732 261.135 292.812L259.688 292.973L258.241 293.134C257.758 293.214 257.356 293.214 257.115 293.214C255.829 293.375 254.543 293.054 253.417 292.33C252.291 291.526 251.648 290.24 251.568 288.873C251.487 287.988 251.487 287.184 251.648 286.3C251.809 285.496 252.05 284.692 252.452 283.888C252.774 283.164 253.256 282.602 253.819 282.039C254.301 281.556 254.945 281.235 255.668 281.074C256.472 280.913 257.678 280.753 259.125 280.592C260.572 280.431 262.261 280.19 264.11 279.868C265.959 279.547 268.05 279.145 270.381 278.662C271.185 278.501 271.989 278.341 272.793 278.18C273.597 278.019 274.562 277.858 275.446 277.697C275.125 275.848 274.562 273.999 273.758 272.23C273.115 270.703 272.23 269.336 271.185 268.13C269.899 268.371 268.773 268.532 267.808 268.773L264.914 269.416C264.03 269.657 263.065 269.818 262.18 270.059C261.296 270.301 260.251 270.461 259.206 270.622C258.884 270.703 258.482 270.703 258 270.783L256.633 270.863L255.347 270.944L254.301 271.024C252.935 271.185 251.648 270.783 250.603 269.818C249.477 268.854 248.834 267.487 248.754 266.04C248.673 265.638 248.673 265.236 248.673 264.834C245.055 271.346 243.447 279.305 243.528 288.873C243.447 291.848 243.689 294.822 244.251 297.717C244.653 299.968 245.136 302.299 245.859 305.033C248.915 316.852 255.749 328.188 264.592 335.022C273.034 341.534 284.772 343.464 294.099 341.775C292.732 338.961 292.089 336.147 292.008 333.253Z" fill="#194E4F"/>
<path d="M260.653 257.196C262.502 256.874 264.592 256.472 266.924 255.99C267.889 255.829 268.934 255.588 270.059 255.347C271.185 255.105 272.311 254.945 273.517 254.703C274.723 254.543 275.848 254.301 277.054 254.06C278.26 253.819 279.305 253.658 280.351 253.417L285.416 252.372C287.024 252.05 288.471 251.729 289.757 251.407L292.973 250.683L293.295 250.603C286.22 247.307 277.617 246.422 271.024 248.995C262.904 252.211 257.517 254.06 253.256 258.241C253.98 258.16 254.864 258 255.829 257.919C257.276 257.758 258.804 257.517 260.653 257.196Z" fill="#194E4F"/>
<path d="M271.426 207.348C267.246 206.625 264.592 204.776 264.673 199.952C264.673 198.344 262.743 197.701 260.974 197.701C258.321 197.781 255.668 197.701 253.015 197.701C253.337 197.057 253.98 196.977 254.623 196.897C267.567 196.655 280.351 199.389 293.295 198.585C294.983 198.505 296.591 199.067 296.269 200.917C295.224 208.394 296.269 216.031 294.822 223.509C292.812 221.257 293.536 218.443 293.616 215.871C293.697 212.333 292.089 210.484 288.953 209.439C285.335 208.152 281.557 208.796 277.939 208.554C275.687 208.394 273.356 209.037 271.426 207.348Z" fill="#194E4F"/>
<path d="M410.516 207.348C401.833 205.419 395.08 199.63 387.683 195.289C366.056 182.746 344.107 170.928 321.032 161.28C318.942 160.396 316.852 159.431 314.761 158.707C312.269 157.823 310.822 158.707 310.902 161.521C311.384 172.134 310.42 182.586 309.214 193.037C307.204 210.243 307.927 227.609 304.711 244.814C303.103 253.497 303.425 262.582 302.782 271.507C301.817 283.486 300.531 295.385 299.807 307.365C299.325 315.485 299.083 323.605 297.958 331.725C297.717 333.735 297.395 335.665 297.073 337.675C296.189 339.122 297.315 341.695 294.662 342.177C292.652 342.499 291.446 341.212 290.481 339.685C289.114 336.951 288.471 333.816 288.632 330.761C288.792 323.283 288.792 315.726 288.551 308.249C288.39 301.254 288.792 294.34 289.677 287.426C290.722 284.21 290.159 280.913 290.24 277.617C290.24 275.607 290.561 273.677 291.044 271.748C291.124 271.024 291.285 270.381 291.446 269.657C292.25 267.165 292.008 264.592 291.848 262.1C291.526 257.437 292.33 252.774 292.571 248.191C292.491 239.99 293.536 231.79 293.697 223.589C294.179 221.74 294.34 219.891 294.34 218.041C294.42 213.539 294.099 208.956 294.903 204.454C295.385 201.721 294.581 199.55 291.285 199.711C280.431 200.273 269.818 198.424 259.045 197.942C257.517 197.861 252.693 198.746 251.407 197.299C253.819 195.932 259.688 195.208 262.341 194.565C269.979 192.716 277.054 195.128 284.37 196.253C287.265 196.655 290.24 196.816 293.134 196.736C299.003 196.816 301.174 199.63 298.521 204.776C297.234 207.268 297.475 208.876 298.601 211.288C300.048 214.665 298.681 218.524 298.36 222.142C298.279 223.428 297.717 224.795 298.038 226.081C298.923 229.297 298.44 232.352 298.119 235.568C297.717 241.679 297.877 247.789 298.601 253.899C299.405 247.065 304.47 240.955 301.495 233.558C301.013 232.433 300.691 231.066 301.415 230.101C304.551 225.921 304.39 221.097 304.229 216.353C303.827 206.303 305.596 196.495 307.365 186.686C308.651 179.37 310.5 172.053 309.214 164.496C310.58 161.682 308.088 158.466 309.937 155.732C313.636 154.366 316.852 154.928 319.826 157.823C323.605 161.441 329.072 162.004 333.655 164.255C337.916 166.345 342.016 168.837 346.358 170.847C347.162 171.249 347.966 172.295 348.77 172.214C353.513 171.812 356.569 174.546 359.785 177.36C361.151 178.646 363.081 179.289 364.93 179.048C365.573 178.968 366.538 178.968 366.86 179.37C371.201 184.756 378.196 185.721 383.583 189.58C389.854 194.002 395.482 200.032 403.602 201.801C406.255 202.364 407.863 205.017 410.597 205.58C410.597 206.142 410.516 206.705 410.516 207.348Z" fill="#073042"/>
<path d="M267.406 409.149C267.487 400.225 267.889 391.381 270.703 382.779C272.713 376.588 276.009 371.523 281.717 368.146C284.21 366.699 286.702 365.091 289.114 363.483C290.642 381.331 296.591 396.607 313.475 405.612C314.922 406.416 316.289 407.139 316.45 409.069C300.129 409.149 283.727 409.149 267.406 409.149Z" fill="#C4E9CE"/>
<path d="M477.006 259.447C468.484 268.21 390.095 342.258 381.492 350.941C377.553 354.961 373.854 359.141 369.915 363.161C366.779 366.377 364.85 366.377 361.312 363.402C360.026 362.277 358.739 361.151 357.453 359.945C361.955 358.82 362.518 354.076 365.252 351.343C369.674 346.76 379.723 338.479 384.145 333.816C419.36 299.887 439.62 290.4 472.423 250.603C473.951 248.754 477.971 258.482 477.006 259.447Z" fill="#194E4F"/>
<path d="M200.675 409.149H162.888C160.396 404.567 159.27 399.421 159.672 394.195C159.752 393.07 160.556 392.185 161.602 391.864C165.702 391.944 168.998 394.678 172.777 395.723C180.576 399.26 188.696 401.753 196.897 404.165C199.148 404.808 202.283 405.371 200.675 409.149Z" fill="#C4E9CE"/>
<path d="M162.084 392.266C159.511 393.632 160.315 396.044 160.556 397.974C161.039 401.753 162.084 405.451 162.808 409.149H146.728C145.361 407.22 146.004 405.049 145.924 402.959C145.843 397.894 145.843 392.828 145.924 387.844C146.004 384.628 146.969 384.065 149.863 385.11C153.401 386.316 156.617 388.246 159.994 389.612C161.2 390.014 162.245 390.818 162.084 392.266Z" fill="#194E4F"/>
<path d="M162.084 392.266C158.225 389.452 153.722 387.924 149.381 385.914C146.889 384.708 146.728 385.995 146.728 387.924V409.149H145.12V387.522C145.12 383.261 146.406 382.377 150.507 384.145C152.999 385.191 155.33 386.316 157.823 387.361C158.788 387.763 159.833 388.085 160.878 388.246C161.682 388.567 162.566 388.165 162.968 387.442C163.451 386.477 162.566 385.995 161.923 385.512C156.215 381.331 150.346 377.553 144.557 373.613C140.939 371.121 136.758 369.191 133.944 365.573C139.653 367.744 144.155 371.844 149.22 374.899C157.662 379.965 164.978 386.638 174.063 390.738C177.119 393.552 176.717 394.758 172.375 396.366C168.757 395.723 165.541 393.632 162.084 392.266Z" fill="#073042"/>
<path d="M172.455 396.366C174.305 394.838 176.475 393.472 174.144 390.738C184.756 395.321 195.128 400.627 205.982 404.647C208.876 405.692 212.896 405.21 214.343 409.149H204.695C203.891 407.943 203.087 407.943 202.283 409.149H200.675C200.917 406.255 198.826 405.773 196.655 405.129C188.455 402.717 180.093 400.627 172.455 396.366Z" fill="#073042"/>
<path d="M202.283 409.149C202.846 408.185 201.238 406.094 203.409 406.094C205.419 406.094 204.615 407.943 204.695 409.149H202.283Z" fill="#073042"/>
<path d="M75.8964 15.2758C90.931 19.5369 105.322 25.6472 119.473 32.1595C124.94 34.3303 130.487 36.4206 135.472 39.5562C141.019 45.8273 146.728 41.8074 152.436 39.9582C153.079 39.0738 154.205 38.6718 155.25 38.9934C157.421 40.8426 155.572 42.4506 154.687 43.8977C150.265 51.7768 146.647 59.8971 144.959 68.8213C143.592 76.218 149.14 83.3735 156.134 83.2931C158.868 83.4539 161.441 82.0871 162.968 79.836C163.853 78.63 164.657 77.424 165.3 76.0572C170.124 63.8366 179.128 54.6712 187.329 44.7821C192.073 39.1542 197.057 37.0638 203.972 38.109C205.258 38.2698 206.625 37.8678 207.911 38.4306L214.986 38.6718C215.147 38.7522 215.228 38.7522 215.388 38.8326C216.916 39.315 219.247 38.0286 219.81 39.5562C220.534 41.4858 218.122 42.6114 216.996 44.0585C209.198 53.8672 200.675 63.113 193.922 73.8061C191.831 76.9416 190.384 80.4792 189.741 84.1775C189.259 87.9563 190.304 90.127 193.841 90.7702C199.791 91.9762 205.66 92.539 210.806 87.8759C217.881 81.5244 225.036 75.3336 231.87 68.8213C238.704 62.309 246.181 56.3595 252.452 49.2041C253.497 47.9981 254.703 46.7921 256.552 47.1137C270.863 53.8672 284.37 62.0679 296.993 71.5549C299.485 73.4041 301.093 73.0021 303.103 70.7509C315.485 56.6811 326.741 41.727 337.675 26.5316C339.363 24.1196 340.81 21.5469 342.901 19.4565C346.921 17.2857 351.182 15.5974 355.604 14.3914C358.739 15.2758 356.488 17.5269 356.729 19.0545C354.398 25.2452 350.86 30.7123 347.564 36.4206C340.328 48.8825 332.529 61.1031 326.741 74.4493C325.052 78.3888 323.685 82.4087 322.56 86.5895C321.997 88.7602 321.836 91.0918 322.158 93.343C322.399 95.4333 322.238 98.1669 324.329 99.0513C326.66 99.9357 327.866 97.2825 329.313 95.7549C331.484 93.343 333.816 91.0918 336.71 89.725C339.283 88.4386 342.097 87.4739 344.67 89.4838C347.242 91.4938 347.725 94.3078 347.403 97.4433C346.599 105.242 342.66 111.513 338.077 117.543C337.273 118.588 335.906 119.231 336.308 120.839C343.785 125.422 345.634 129.362 343.544 136.356C343.222 137.402 343.062 138.447 343.062 139.492C343.062 141.663 343.866 143.512 345.956 144.316C347.885 145.039 349.172 143.431 350.378 142.225C359.383 132.738 364.528 121.322 367.503 108.78C372.166 89.5642 373.935 69.7057 372.889 49.9276C372.488 41.4054 371.201 32.9635 368.95 24.6824C368.066 21.4665 366.377 18.8133 363.242 17.3661C362.598 16.9641 361.955 16.321 361.553 15.6778C360.347 13.6678 360.588 12.4618 363.242 12.5422C364.528 12.6226 365.895 12.301 367.101 12.7834C372.809 15.6778 375.945 20.2605 377.472 26.612C381.251 41.9682 383.1 57.4047 381.251 73.1629C378.598 96.0765 374.578 118.669 364.85 139.894C361.955 146.165 359.302 152.597 356.086 158.788C354.478 161.843 353.192 161.762 350.699 160.315C341.052 154.607 330.921 149.783 320.47 145.843C315.887 144.155 311.063 143.592 306.239 143.994C303.505 144.075 301.093 145.843 300.129 148.416C298.038 152.918 296.913 157.742 296.913 162.727C296.993 170.767 296.832 178.807 296.913 186.847C296.913 189.098 296.43 189.821 293.938 189.259C265.396 182.425 238.222 187.731 211.77 198.907C204.132 202.123 196.655 205.58 189.178 208.956C187.812 206.464 188.857 203.972 189.42 201.56C192.073 190.786 189.902 180.576 186.284 170.526C184.676 166.425 182.666 162.486 180.254 158.788C175.189 150.507 166.747 147.291 158.386 144.155C148.175 140.457 137.723 137.723 126.628 138.527C124.055 138.688 121.563 138.688 119.151 139.572C117.784 140.055 116.096 140.296 115.131 138.849C114.086 137.241 114.729 135.794 116.337 134.829C120.598 135.954 125.02 133.382 126.146 129.12C126.95 126.306 127.673 123.412 128.156 120.518C129.924 106.77 121 90.931 103.875 89.9662C89.6446 89.1622 81.2028 96.6393 74.1277 107.332C73.0021 109.021 72.6805 111.031 72.1981 112.96C71.7157 115.051 72.9217 115.453 74.4493 115.694C75.8964 119.553 78.8712 121.161 82.8107 121.483C94.3882 122.447 102.106 129.844 109.744 137.401C112.076 139.653 111.352 141.582 108.297 142.869C107.815 143.11 107.332 143.271 106.77 143.351C102.267 144.557 98.3277 146.326 99.1317 152.114C99.2121 152.597 98.8101 153.079 98.4081 153.481C96.3177 153.16 96.7197 151.471 96.5589 150.105C96.3981 148.738 96.8001 147.21 95.7549 145.602C93.745 146.406 93.343 148.175 93.1822 149.944C92.8606 152.999 92.8606 156.054 94.0666 158.948C94.6294 160.315 95.1921 161.682 94.7902 163.21C93.2626 167.069 93.5842 171.169 94.0666 175.109C95.6745 188.937 94.147 202.605 92.6194 216.273C91.4134 227.046 90.931 237.82 91.4134 248.673C91.6546 253.176 93.745 256.552 97.1217 259.286C100.981 262.341 105.403 264.753 110.066 266.442C114.086 268.049 118.508 268.049 122.528 266.361C130.487 263.145 138.366 259.929 144.879 254.06C147.693 258.321 150.989 262.422 154.526 266.12C157.099 268.773 157.903 271.426 155.491 274.964C147.049 287.426 138.366 299.727 130.568 312.671C125.181 309.535 120.437 305.274 116.9 300.129C114.568 296.832 111.191 297.073 107.895 297.315C105.081 297.475 102.75 297.315 101.463 294.099C100.016 290.561 96.1569 291.687 93.343 290.963C91.9762 290.642 90.3682 290.963 89.0014 290.561C87.3935 290.079 85.3835 289.194 85.7051 287.104C86.0267 285.174 87.7151 283.727 89.6446 283.727C93.1018 283.647 96.5589 283.727 100.498 283.727C99.2121 281.637 97.6845 281.315 95.9157 281.315C94.8706 282.28 93.6646 281.958 92.539 281.476C87.5543 279.627 82.4891 278.019 77.5044 276.25C77.1024 276.089 76.7004 275.848 76.3788 275.607C71.2333 273.115 65.525 272.954 60.1383 271.748C54.9124 270.542 53.7064 268.773 54.1084 263.628C55.7164 259.929 59.0931 257.758 61.6659 254.944C63.4346 252.935 65.4446 251.166 67.2938 249.236C70.6705 245.538 70.4293 244.251 65.6054 243.367C57.4851 241.92 49.3648 240.071 41.0838 239.749C32.8027 239.428 24.602 241.196 16.5621 243.045C16.1602 243.126 15.7582 243.287 15.4366 243.367C9.72825 244.895 9.24586 244.412 9.80865 238.543C9.88905 229.619 13.3462 221.901 18.1701 214.584C19.9389 211.851 22.4313 209.921 24.9236 207.831C31.8379 201.962 38.5914 195.851 45.5861 190.063C46.2293 189.5 47.1137 189.018 47.1941 187.651C40.923 186.927 34.7323 188.133 28.5416 188.696C24.2804 189.018 20.0193 188.937 15.7582 189.661C14.311 189.902 12.0598 190.223 12.6226 187.329C17.7681 178.566 25.8884 172.455 32.7223 165.139C25.406 165.219 21.8685 159.27 17.0445 155.411C15.517 154.124 17.2053 152.758 18.2505 151.793C22.3509 148.095 26.3708 144.396 30.6319 140.939C38.5914 134.668 45.5057 127.11 51.1336 118.588C54.1084 114.005 57.4047 109.584 60.5403 105.081C64.319 98.4081 69.5449 92.941 74.9317 87.6347C79.6752 82.8911 79.7556 82.4891 75.6552 77.3436C62.0679 60.3795 57.0027 40.6818 56.5203 19.3761C56.4399 17.6073 56.7615 15.919 57.4851 14.311C58.6107 11.8186 60.8619 12.9442 62.5502 12.9442C64.0778 12.8638 65.6054 13.3462 67.2134 13.507C70.2685 12.6226 73.4845 13.3462 75.8964 15.2758Z" fill="#C4E9CE"/>
<path d="M256.874 47.5157C255.266 47.3549 254.543 48.5609 253.578 49.5256C239.91 63.4346 225.197 76.2984 210.645 89.2426C206.303 93.1018 196.495 93.8254 191.349 90.931C188.133 89.1622 188.133 86.1875 188.857 83.2127C190.545 76.2984 194.243 70.4293 198.746 65.123C205.74 56.8419 211.69 47.8373 219.73 39.8778C217.961 39.3954 216.514 39.0738 215.067 38.6718C220.695 37.9482 225.84 40.2798 231.146 41.0838C239.669 42.3702 248.432 42.9329 256.472 46.4705C256.954 46.7117 257.356 47.0333 257.839 47.2745C257.517 47.6765 257.196 47.7569 256.874 47.5157Z" fill="#194E4F"/>
<path d="M256.874 47.5157C257.196 47.4353 257.517 47.4353 257.839 47.3549C263.145 49.9276 268.21 49.1236 273.597 46.8725C295.787 37.305 318.058 28.0592 340.73 19.8585C341.454 19.6173 342.258 19.5369 343.062 19.2957C342.82 22.592 340.087 24.602 338.479 27.014C332.771 35.3755 326.419 43.2545 320.47 51.4552C315.083 58.9323 308.249 65.2034 302.782 72.6001C301.013 75.0121 299.164 74.2081 297.315 72.8413C289.838 67.2134 282.119 61.9874 274.16 57.1635C268.532 53.7064 262.261 51.3748 256.874 47.5157Z" fill="#337762"/>
<path d="M116.98 134.99C116.015 135.954 114.97 137.321 115.935 138.447C116.9 139.572 118.669 139.17 119.955 138.205C120.839 137.643 121.965 137.401 123.01 137.401C141.019 136.035 157.582 141.1 173.259 149.461C177.36 151.632 180.013 155.491 182.344 159.431C188.857 170.285 192.555 182.023 191.831 194.726C191.59 199.469 190.304 204.132 189.5 208.876C181.38 214.584 172.375 219.087 164.496 225.197C160.717 228.091 156.938 230.986 153.16 233.96C152.114 234.764 151.23 234.684 150.587 233.478C152.034 228.734 155.009 224.795 157.662 220.614C162.727 212.655 167.792 204.615 170.204 195.289C170.445 194.404 170.687 193.359 171.973 193.681C173.983 197.459 174.385 201.238 172.134 205.097C171.008 207.027 171.33 209.278 170.526 211.288C169.641 213.62 168.837 215.951 166.104 218.202C170.928 216.273 174.224 213.7 178.164 212.172C179.772 211.529 180.817 210.162 180.093 208.313C179.048 205.74 180.254 204.213 182.184 202.926C187.41 199.469 188.133 194.404 187.57 188.776C187.57 187.812 187.249 186.927 186.686 186.204C184.837 184.354 184.354 182.344 185.962 180.093C186.364 179.691 186.445 179.128 186.364 178.566C184.756 173.822 183.55 168.596 180.495 164.737C178.405 162.164 176.073 159.833 174.626 156.858C173.42 154.446 171.812 152.999 168.918 153.481C167.39 153.722 165.621 153.401 165.059 151.954C163.129 147.451 158.948 146.567 154.928 145.522C148.336 143.914 141.904 141.582 134.99 141.582C130.166 141.502 125.342 142.145 120.759 143.512C116.176 144.959 111.674 146.567 106.93 147.532C102.669 148.416 103.875 151.954 103.473 154.607C103.071 157.26 105.564 156.778 106.93 157.582C110.629 159.752 115.694 159.913 117.302 164.898C116.498 166.827 114.729 166.506 113.201 166.586C107.252 166.988 99.3729 160.958 98.0865 155.17C97.9257 154.526 98.0865 153.803 98.4885 153.32C98.4885 144.718 98.4885 144.718 107.332 142.225C111.192 141.1 111.513 140.215 108.699 137.643C103.473 132.98 98.7297 127.834 92.0566 124.859C88.1171 123.091 84.0971 123.01 80.0772 122.045C76.62 121.241 74.0473 119.794 74.3689 115.694C73.6453 113.845 74.9317 112.639 75.9768 111.513C80.1576 107.011 85.0619 103.232 90.4486 100.177C94.9509 97.6845 99.5337 98.6493 104.116 99.9357C105.162 100.177 106.207 100.82 106.046 102.187C105.885 103.312 104.92 103.634 103.956 103.795C100.9 104.358 98.2473 106.287 96.8001 109.101C94.3882 113.603 95.3529 118.106 99.4533 121.081C101.222 122.287 103.071 123.332 105.001 124.216C108.378 126.065 111.433 125.663 114.166 123.01C114.568 122.608 114.97 122.287 115.372 121.965C116.659 120.92 118.106 120.035 119.794 120.92C121.483 121.804 121.483 123.734 121 125.181C119.955 128.638 120.116 132.497 116.98 134.99Z" fill="#A0C6B4"/>
<path d="M145.12 254.221C144.718 256.15 143.431 257.115 141.823 258.321C135.472 262.984 128.156 265.396 121 268.21C118.508 269.175 115.774 269.255 113.201 268.532C107.091 267.085 101.865 264.11 96.8001 260.653C90.4486 256.231 89.725 249.477 90.0466 242.804C90.2878 237.9 90.2074 232.915 90.6094 228.011C91.4938 217.8 92.6194 207.59 93.4234 197.379C94.0666 190.867 93.9862 184.274 93.343 177.762C92.8606 173.742 93.1018 169.722 93.0214 165.782C92.941 164.657 93.5038 163.611 94.549 163.21C100.579 166.586 104.84 170.526 104.76 178.726C104.438 196.816 103.071 214.826 102.106 232.835C101.865 236.855 100.659 240.714 100.257 244.734C99.4533 251.407 104.197 257.517 110.87 258.321C112.237 258.482 113.603 258.402 114.89 258.16C119.714 257.196 123.895 254.703 127.834 251.889C133.06 248.191 137.964 243.93 142.949 239.91C144.075 239.026 145.039 237.82 146.647 237.578C147.612 237.498 148.497 238.061 148.818 238.945C145.12 243.367 141.823 248.03 145.12 254.221Z" fill="#A0C6B4"/>
<path d="M207.992 38.4306C204.374 38.4306 200.756 38.511 197.138 38.4306C195.61 38.4306 194.163 38.5914 193.198 39.8778C186.686 48.3197 178.566 55.3947 172.536 64.3994C169.4 69.1429 167.31 74.3689 164.737 79.2732C161.2 86.1071 152.597 85.3835 148.577 81.5244C144.637 77.826 142.788 73.4845 143.994 67.8566C146.085 59.0127 149.461 50.4904 154.124 42.6917C154.687 41.6466 156.215 40.6818 154.848 39.2346C154.687 38.5914 155.009 38.2698 155.652 38.3502C167.149 36.9834 178.726 37.8678 190.224 37.6266C196.093 38.109 202.123 36.9834 207.992 38.4306Z" fill="#194E4F"/>
<path d="M158.868 312.671C155.974 312.43 153.16 311.384 150.828 309.696C149.622 308.892 148.175 308.49 146.728 308.651C146.406 306.641 148.095 305.596 149.059 304.149C154.446 296.43 159.592 288.551 164.496 280.431C165.461 279.707 166.908 279.707 167.792 280.592C171.41 283.486 174.465 286.943 176.877 290.883C177.119 291.365 177.119 291.928 176.877 292.41C174.144 292.812 172.777 294.581 171.33 296.752C168.355 301.254 165.3 305.757 162.164 310.178C161.28 311.304 160.798 312.992 158.868 312.671Z" fill="#194E4F"/>
<path d="M212.735 334.378C213.137 334.861 215.469 337.916 215.147 338.238C213.941 339.926 209.76 334.62 208.876 333.896C198.746 324.007 190.786 312.349 182.344 301.013C180.334 298.279 177.36 296.109 176.636 292.491C173.34 287.747 170.606 282.36 164.496 280.431C166.425 278.019 167.953 278.421 169.963 280.592C179.37 290.642 187.008 302.058 195.289 312.992C200.917 320.309 206.946 327.223 212.735 334.378Z" fill="#073042"/>
<path d="M355.845 19.2957C355.202 17.6877 357.775 15.919 355.684 14.311C359.463 13.0246 363 10.1303 367.342 12.703C366.86 12.703 366.297 12.7834 365.814 12.7834C364.528 12.9442 362.84 12.1402 362.116 13.2658C361.151 14.8738 363.644 15.4366 363.885 16.723C362.84 17.9289 361.392 17.6877 360.026 17.7681C358.659 17.6073 357.775 18.4113 356.81 19.2957C356.569 19.5369 356.167 19.5369 355.845 19.2957Z" fill="#C4E9CE"/>
<path d="M148.818 238.784C148.095 238.463 147.451 238.141 146.728 237.82C147.13 235.408 148.336 233.639 150.909 233.156C151.471 233.96 152.356 233.88 153.16 233.88C152.034 235.81 150.346 237.257 148.818 238.784Z" fill="#A0C6B4"/>
<path d="M23.8784 353.433C18.4917 338.077 13.7482 322.479 12.5422 306.159C12.301 303.184 11.8186 299.968 14.0698 297.315C18.0897 303.184 23.8784 302.38 29.6672 301.254C30.7927 301.013 31.6771 299.887 32.9635 300.772C33.7675 301.978 33.6067 303.505 32.6419 304.551C32.7223 307.204 32.7223 309.937 32.4811 312.59C32.2399 314.842 32.0791 317.495 28.3808 317.012C27.2552 316.852 25.1648 317.495 26.8532 319.666C28.4612 319.746 29.426 320.872 30.6319 321.756C34.5715 324.891 38.1894 328.509 42.3702 331.404C45.0233 333.173 45.1841 334.781 42.7722 336.871C37.1442 341.775 31.8379 347.082 26.9336 352.709C26.2904 353.513 25.406 355.041 23.8784 353.433Z" fill="#C4E9CE"/>
<path d="M32.6419 304.631C32.6419 303.345 32.5615 301.978 32.5615 300.691C32.1595 298.038 33.6067 296.189 34.8931 294.179C37.6266 289.998 40.6014 285.898 41.4858 280.753C44.9429 283.727 49.204 282.682 53.1436 282.843C54.5908 282.923 56.0379 282.843 57.4851 282.843C59.9775 282.843 62.5502 283.084 65.0426 282.923C67.6958 282.762 68.4998 284.129 68.741 286.461C69.1429 290.32 67.2134 292.973 64.2386 294.742C56.4399 299.405 47.9177 302.46 39.2346 305.113C37.0638 305.917 34.8127 305.274 32.6419 304.631Z" fill="#C4E9CE"/>
<path d="M54.9928 339.042C59.1735 338.479 59.8971 339.122 59.9775 343.222C60.0579 345.876 59.8971 348.529 59.8971 351.262C59.8167 352.307 60.0579 353.353 60.4599 354.317C62.9522 359.383 62.9522 359.302 57.5655 361.312C55.4752 362.116 53.3848 363.081 51.5356 364.367C48.4805 366.779 44.5409 367.824 40.6818 367.262C39.4758 366.699 38.1894 366.458 36.903 366.458C33.6871 366.297 31.6771 364.85 31.8379 361.312C33.1243 356.81 36.1795 353.353 39.315 350.137C43.7369 345.554 49.2845 342.097 54.9928 339.042Z" fill="#C4E9CE"/>
<path d="M54.9928 339.042C52.6612 341.293 50.0884 343.222 47.3549 344.83C41.1642 348.85 36.0186 354.317 32.5615 360.83C31.0339 363.563 30.5515 367.02 27.014 368.226C26.9336 367.181 26.9336 366.056 27.1748 365.01C28.3808 360.99 28.4612 357.373 24.2804 354.88C23.9588 354.719 24.0392 353.915 23.8784 353.433C25.4864 353.513 26.21 352.227 27.014 351.262C31.5163 345.795 36.501 340.81 42.0486 336.388C44.0585 334.861 44.7821 333.816 41.9682 332.127C36.3402 328.751 31.7575 324.087 26.9336 319.746C27.8984 317.173 29.6671 318.218 31.2751 318.862C38.4306 322.238 45.2645 326.178 51.6964 330.68C54.43 332.449 57.8871 334.7 54.9928 339.042Z" fill="#073042"/>
<path d="M27.014 368.226C28.8632 365.734 30.7123 363.242 32.5615 360.83C32.2399 363.965 33.7675 365.493 36.8226 365.734C38.2698 365.654 39.717 366.297 40.6818 367.342C32.4007 365.734 30.3103 372.648 26.8532 377.472C25.1648 379.804 23.798 382.457 22.2705 384.949C20.7429 387.442 20.1801 385.995 19.7781 384.226C21.3861 378.517 24.602 373.533 27.014 368.226Z" fill="#C4E9CE"/>
<path d="M77.7456 275.607C83.1323 276.491 88.0367 278.823 93.1018 280.592C94.0666 280.994 95.1118 281.235 96.1569 281.315C96.8001 284.129 94.3078 282.923 93.745 282.762C87.3935 280.592 80.8008 281.556 74.3689 281.235C75.0121 280.833 76.1376 280.511 76.218 279.949C76.3788 278.903 75.3337 278.501 74.4493 278.18C70.6705 276.893 66.6506 276.25 62.6307 276.411C59.4147 276.491 56.1988 276.491 52.9828 276.411C48.4805 276.331 47.8373 275.366 49.4453 270.703C50.7316 273.838 53.0632 275.205 56.5203 274.562C58.8519 274.401 61.2639 274.401 63.5954 274.562C68.2586 274.883 73.0825 273.758 77.7456 275.607Z" fill="#C4E9CE"/>
<path d="M57.4851 14.311C57.0027 24.5216 58.4499 34.4911 60.7815 44.4605C63.8366 57.2439 69.3841 68.8213 78.0672 78.7104C80.3988 81.444 80.64 83.7755 77.7456 86.2679C71.2333 91.8154 66.4898 99.0513 60.4599 105.081C60.7815 102.026 59.1735 103.634 58.2891 104.277C55.3948 106.448 52.6612 108.78 49.8472 111.031C48.8825 111.754 47.9981 112.799 46.6313 112.237C45.2645 111.674 45.2645 110.307 45.4253 109.101C47.5157 83.0519 44.2193 56.6811 49.5257 30.7123C50.8924 24.602 53.224 18.9741 57.4851 14.311Z" fill="#337762"/>
<path d="M56.0379 275.607C49.6864 275.848 49.6864 275.848 49.4452 270.703C49.7668 269.175 50.008 267.567 50.41 266.04C51.616 260.331 51.1336 259.045 45.6665 256.874C37.5462 253.497 28.9436 251.487 20.1801 250.844C19.7781 250.844 19.3761 250.844 18.9741 250.764C10.6126 250.04 8.44187 247.146 10.1302 238.624C10.6126 243.849 10.693 243.93 15.5974 242.402C30.7123 237.739 45.9881 237.9 61.2639 241.357C63.4346 241.84 65.6858 242.161 67.8566 242.724C72.6001 243.849 73.0021 245.055 69.7057 248.673C65.6858 253.095 61.2639 257.196 57.0831 261.537C56.4399 262.18 55.8771 262.984 55.3144 263.628C53.3848 265.798 53.626 267.969 54.832 270.542C55.4752 272.069 57.0027 273.517 56.0379 275.607Z" fill="#C4E9CE"/>
<path d="M41.4858 280.753C42.5309 282.923 41.8878 284.692 40.7622 286.702C38.109 291.365 34.6519 295.626 32.5615 300.691C29.1847 303.505 20.0193 304.068 16.4817 301.656C14.9542 300.772 14.0698 299.083 14.0698 297.315C15.7582 293.054 18.8937 289.677 22.0293 286.461C26.0492 282.36 30.7123 278.903 35.2147 275.366C37.2246 273.838 38.3502 273.838 39.0738 276.572C39.5562 278.099 40.6818 279.386 41.4858 280.753Z" fill="#C4E9CE"/>
<path d="M12.6226 187.329C13.5874 190.063 15.6778 188.535 17.2857 188.455C28.0592 187.892 38.7522 186.204 50.812 186.445C39.717 196.655 29.1044 205.74 18.1701 214.584C21.3057 207.992 25.6472 202.123 30.6319 196.414C26.7728 195.449 23.798 196.977 20.7429 198.263C15.6778 200.515 14.2306 200.273 11.3362 196.816C8.44188 193.198 9.96945 190.223 12.6226 187.329Z" fill="#C4E9CE"/>
<path d="M135.472 39.5562C129.764 37.8678 124.216 35.8579 119.473 32.1595C121.885 28.3808 125.985 29.9887 129.281 29.1848C130.166 28.9436 132.095 30.4711 131.05 31.9987C129.12 34.7323 131.211 35.3755 132.899 35.8579C134.909 36.4206 135.794 37.4658 135.472 39.5562Z" fill="#073042"/>
<path d="M75.8964 15.2758C73.0021 14.713 70.1077 14.0698 67.2134 13.507C67.2938 12.0598 68.1782 11.4166 69.4645 11.095C73.4845 10.1302 77.7456 10.693 81.6048 8.84386C82.5695 8.36147 83.6951 8.84386 84.1775 9.80865C84.2579 9.96944 84.3383 10.2106 84.3383 10.3714C84.6599 12.2206 83.2127 13.2658 81.7656 13.3462C79.5948 13.4266 77.826 14.3914 75.8964 15.2758Z" fill="#073042"/>
<path d="M155.652 38.4306C155.411 38.7522 155.089 38.9934 154.848 39.315C154.124 39.717 153.481 40.521 152.436 39.9582C151.873 39.4758 151.311 38.913 150.748 38.3502C149.863 37.2246 148.979 35.8579 149.944 34.4911C150.587 33.4459 151.793 32.8831 152.999 33.0439C154.526 33.2047 155.652 34.4911 155.652 36.0186V38.4306Z" fill="#073042"/>
<path d="M291.606 339.926C295.305 343.464 296.109 340.167 297.154 337.594C297.475 339.524 296.27 341.936 298.762 343.222C296.752 344.348 294.581 345.152 292.25 345.554C291.687 344.026 291.285 342.499 291.044 340.891C291.124 340.489 291.365 340.167 291.606 339.926Z" fill="#073042"/>
<path d="M358.981 16.8837C360.588 16.8837 362.277 16.8033 363.885 16.8033C366.458 16.7229 367.664 18.2505 368.709 20.3409C372.086 27.1748 372.327 34.6519 373.452 41.9682C375.141 52.822 374.819 63.917 374.095 74.7709C373.211 87.7955 371.04 100.659 367.583 113.201C364.689 123.895 359.865 133.542 352.388 141.743C350.539 143.833 349.011 147.13 345.393 145.602C342.258 144.316 341.454 139.894 342.981 135.794C343.383 136.115 343.705 136.598 343.785 137.16C343.866 137.562 343.946 137.964 344.187 138.286C346.921 132.417 346.358 128.236 342.258 123.493C340.891 121.885 339.042 120.598 339.283 118.106C341.373 113.603 344.83 109.905 346.68 105.242C348.127 101.463 349.333 97.6041 348.529 93.5038C347.403 87.7955 343.383 85.7855 338.077 88.0367C334.539 89.5642 331.967 92.2978 329.313 94.9509C328.027 96.2373 327.062 98.4885 324.811 97.2825C322.801 96.2373 322.721 93.9862 322.881 91.9762C323.364 86.5091 324.811 81.1224 327.062 76.1376C333.574 61.4247 341.534 47.5157 349.895 33.7675C352.307 29.7475 354.237 25.406 356.569 21.3861C357.533 20.0193 357.694 18.1701 358.981 16.8837Z" fill="#337762"/>
<path d="M197.459 132.658C195.289 133.382 195.128 132.176 195.128 130.487C195.047 124.297 198.263 119.473 201.56 114.809C213.941 97.3629 226.805 94.7098 244.895 97.6041C258.16 99.6945 268.612 107.172 275.527 119.231C280.994 128.799 286.943 137.964 285.898 149.783C285.335 156.456 282.843 162.406 279.868 168.275C278.823 170.365 277.054 171.008 274.803 170.124C271.828 167.39 272.713 164.013 273.195 160.717C274.16 155.009 273.436 149.14 271.265 143.753C270.301 141.341 269.497 140.859 267.567 143.19C260.412 151.793 242 154.768 232.111 141.18C227.046 134.266 224.232 126.789 229.137 118.427C231.709 114.086 235.006 110.87 240.071 111.031C232.433 108.056 225.358 111.433 218.765 115.453C211.931 119.473 205.901 124.618 200.836 130.728C199.952 131.854 199.067 132.98 197.459 132.658Z" fill="#073042"/>
<path d="M150.828 233.156L146.647 237.82C140.698 243.206 134.507 248.271 127.995 252.935C123.975 255.829 119.633 258.16 114.649 259.125C106.207 260.814 97.6041 253.899 99.1317 245.538C101.865 230.584 101.383 215.388 102.91 200.354C103.795 191.671 103.473 182.988 103.634 174.224C103.634 172.134 102.589 170.767 101.142 169.481C98.8905 167.39 96.7197 165.219 94.4686 163.129C92.6998 158.948 91.333 154.687 92.137 150.024C92.3782 148.416 92.8606 146.889 93.6646 145.522C94.3882 144.477 95.1921 143.431 96.5589 143.753C98.3277 144.155 97.4433 145.683 97.5237 146.808C97.6041 149.059 97.1217 151.31 98.4885 153.401C99.6141 161.521 110.307 167.953 117.221 164.898C120.679 162.325 124.859 161.28 128.718 159.431C131.774 157.984 133.542 160.556 134.99 162.968C138.849 169.722 144.235 174.707 151.471 177.52C159.029 180.415 166.586 180.415 173.983 176.877C176.154 176.234 177.52 176.716 177.279 179.289C173.903 183.47 172.938 188.535 171.732 193.52C169.722 201.881 165.943 209.439 161.28 216.594C157.662 222.061 154.285 227.609 150.828 233.156Z" fill="#073042"/>
<path d="M197.459 132.658C202.685 126.95 208.394 121.724 214.584 116.98C220.212 112.799 226.483 110.548 233.156 108.94C235.649 108.378 235.649 108.378 243.689 112.799C238.061 110.709 233.88 113.041 231.066 117.382C227.689 122.608 226.564 128.075 229.297 134.427C234.764 146.889 245.618 152.516 259.768 147.853C262.824 146.808 264.914 144.879 269.497 138.929C274.16 145.281 275.044 152.356 274.24 159.833C273.838 163.29 273.677 166.747 274.723 170.124C274.481 171.973 273.597 172.536 271.667 172.134C268.532 171.491 265.638 170.365 263.708 167.873C256.472 158.868 245.859 155.491 235.81 151.23C229.86 148.738 224.152 145.281 217.639 144.235C213.459 143.592 209.278 142.869 205.097 142.065C203.329 141.663 201.56 140.939 200.032 139.894C197.138 138.205 195.851 136.035 197.459 132.658Z" fill="#073042" fill-opacity="0.188235"/>
<path d="M116.98 134.99C118.508 131.532 119.553 127.914 120.196 124.216C120.357 123.171 120.598 121.965 119.392 121.322C118.427 120.759 117.623 121.643 116.9 122.126C116.819 122.206 116.659 122.287 116.578 122.367C109.262 127.432 104.679 127.03 97.6041 121.161C94.147 118.347 93.6646 114.729 94.7902 111.031C95.9157 107.332 97.9257 104.197 102.026 103.152C103.232 102.91 104.438 102.589 105.564 102.106C101.383 100.096 96.8001 98.4885 92.539 100.498C85.3031 104.036 78.7104 108.619 74.4493 115.774C73.4845 116.176 73.5649 118.186 72.1981 117.623C71.1529 117.221 71.2333 115.855 71.2333 114.729C71.2333 112.076 71.9569 109.423 73.3237 107.091C75.816 102.589 79.3536 98.8905 83.0519 95.4333C93.9862 85.1423 114.649 87.5543 122.367 97.3629C128.316 104.92 131.774 113.443 128.718 123.412C128.236 124.618 127.914 125.904 127.754 127.271C127.834 133.301 123.01 134.748 118.91 136.839C116.9 137.884 117.382 135.874 116.98 134.99Z" fill="#073042"/>
<path d="M357.373 21.5469C349.815 37.2246 339.685 51.5356 332.208 67.2938C328.67 74.7709 324.731 82.1675 324.007 90.6094C323.846 91.1722 323.846 91.6546 323.846 92.2174C323.846 93.9058 323.444 96.2373 325.052 96.9609C326.821 97.8453 327.545 95.3529 328.509 94.3078C330.68 91.8958 332.851 89.5642 335.745 88.0366C338.961 86.2679 342.418 84.8207 345.956 87.1523C349.493 89.4838 350.137 93.1822 349.815 97.1217C349.172 105.403 344.67 111.835 339.765 118.106C339.524 122.045 339.524 122.045 334.941 121.322C333.333 119.553 335.504 119.071 336.147 118.267C341.293 111.995 345.876 105.483 346.599 97.0413C346.84 94.3078 346.84 91.4938 344.187 89.8858C341.534 88.2778 338.961 89.6446 336.63 90.931C333.173 92.8606 330.761 95.9157 328.107 98.8101C324.891 102.267 323.283 101.704 321.917 97.1217C320.228 91.2526 321.515 85.7051 323.525 80.238C328.751 65.927 336.71 53.0632 344.348 40.0386C348.368 33.2047 352.549 26.5316 355.845 19.3761C356.086 19.2957 356.247 19.2153 356.488 19.1349C358.418 19.2957 357.935 20.4213 357.373 21.5469Z" fill="#073042"/>
<path d="M56.0379 275.607C55.0732 273.597 54.3496 271.426 53.224 269.577C51.5356 266.763 52.1788 264.914 55.1536 263.708C55.1536 269.014 56.1183 270.059 61.3443 270.944C66.8918 271.909 72.5197 272.311 77.6652 274.964C72.9217 276.009 67.937 274.24 63.1934 275.607H56.0379Z" fill="#C4E9CE"/>
<path d="M334.941 121.322C337.836 121.322 337.836 121.322 339.765 118.106C340.087 120.277 341.695 121.483 343.062 122.849C347.966 127.914 348.127 135.874 343.544 141.18C342.338 139.411 343.222 137.482 342.981 135.794C344.75 128.558 342.499 124.618 334.941 121.322Z" fill="#073042"/>
<path d="M63.113 275.607C67.8566 273.115 72.7609 275.446 77.5848 274.964C77.6652 275.205 77.6652 275.446 77.7456 275.687C72.8413 275.607 68.0174 275.607 63.113 275.607Z" fill="#C4E9CE"/>
<path d="M174.144 177.601C167.953 182.023 161.119 181.058 154.526 179.53C145.522 177.52 139.09 171.812 134.507 164.013C131.452 158.788 131.211 158.788 125.904 161.762C123.251 163.21 120.437 164.576 117.302 164.817C113.764 161.2 109.262 159.35 104.518 157.984C102.508 157.421 100.257 157.019 102.589 154.205C102.83 153.883 102.991 153.481 102.991 153.079C102.669 151.471 101.061 149.622 102.991 148.336C104.92 147.049 107.091 145.602 109.101 145.683C113.684 145.683 117.382 143.19 121.563 142.065C129.442 139.974 137.723 139.974 145.683 141.904C150.185 142.949 155.009 143.833 159.27 145.763C161.602 146.808 164.415 147.21 165.059 150.506C165.461 152.597 167.471 153.24 169.159 152.516C172.053 151.31 173.501 152.838 174.707 154.848C176.717 158.225 177.36 162.647 182.103 163.772C182.827 163.933 182.746 165.139 182.907 165.943C183.39 168.998 184.435 171.893 186.123 174.465C186.766 175.43 187.892 177.118 187.49 177.681C183.872 182.746 189.098 187.008 188.696 191.831C188.294 197.138 186.686 201.077 182.344 203.891C180.576 205.017 179.45 205.74 181.138 208.152C182.907 210.725 180.174 212.735 178.405 213.218C174.465 214.424 171.33 216.835 167.792 218.685C166.586 219.328 165.541 219.247 164.174 219.247C170.204 211.529 173.259 203.087 171.571 193.439C170.526 187.731 172.616 183.148 176.475 179.128C176.958 178.324 177.44 177.199 176.717 176.556C175.752 175.752 175.028 177.199 174.144 177.601Z" fill="#A0C6B4"/>
<path d="M357.373 21.5469C357.373 20.5821 357.453 19.6173 356.488 18.9741C356.569 17.6877 357.614 16.7229 358.9 16.8033H358.981C359.141 18.4917 358.579 20.2605 357.373 21.5469Z" fill="#073042"/>
<path d="M160.556 198.585C153.803 221.338 140.778 239.186 119.633 250.523C113.764 253.658 111.111 252.693 108.136 246.824C105.966 244.251 104.92 240.955 105.322 237.578C105.644 232.674 105.483 227.689 105.403 222.785C105.242 217.639 107.011 213.298 109.744 208.956C119.553 193.841 134.266 188.776 151.15 187.812H151.552C159.35 188.053 161.762 190.867 160.556 198.585Z" fill="#337762"/>
<path d="M160.556 198.585C160.235 190.545 158.225 188.535 150.024 189.018C131.211 189.982 116.337 197.54 107.413 214.906C106.448 216.835 105.885 218.926 105.805 221.097C105.724 229.78 104.84 238.463 108.056 246.824C104.197 244.814 103.071 241.759 104.76 237.9C104.92 237.337 104.92 236.855 104.92 236.292C104.76 228.091 105.081 219.81 105.644 211.61C105.966 207.75 106.689 203.972 106.609 200.113C106.93 194.645 107.976 189.259 107.734 183.792C107.574 181.058 108.378 178.566 108.538 175.913C108.619 173.822 110.629 172.777 112.397 172.214C115.855 171.169 119.231 169.802 122.608 168.516C125.502 167.39 127.834 167.792 130.005 170.606C132.015 173.259 134.427 175.591 137.16 177.601C140.135 181.058 144.396 182.425 148.416 184.033C151.31 184.998 154.205 186.123 156.938 187.49C162.164 189.902 162.164 189.902 161.441 196.012C161.2 196.977 161.36 197.942 160.556 198.585Z" fill="#194E4F"/>
<path d="M137.16 177.601C133.864 176.475 131.854 173.581 129.764 171.169C127.271 168.275 124.698 168.516 121.965 169.802C119.231 171.169 116.417 172.134 113.443 172.857C111.192 173.501 109.101 174.546 108.94 177.601C108.619 183.711 107.976 189.741 107.493 195.851C107.332 197.299 107.895 198.826 106.689 200.032C106.368 192.877 107.413 185.721 107.895 178.566C108.056 176.475 106.046 175.189 106.85 172.938C107.976 169.481 110.95 167.39 115.774 167.631C119.231 167.953 122.689 167.229 125.663 165.461C128.075 163.933 130.728 164.978 130.487 167.149C130.005 170.767 132.497 171.973 134.186 173.983C135.15 175.189 136.115 176.395 137.16 177.601Z" fill="#073042"/>
<path d="M161.36 196.093C162.245 191.429 159.511 189.42 155.652 188.053C152.999 187.249 150.507 185.882 148.416 184.033C152.275 184.194 156.054 183.631 159.913 184.596C162.245 185.158 163.21 186.204 162.888 188.374C162.566 191.027 162.406 193.681 161.36 196.093Z" fill="#073042"/>
<path d="M174.144 177.601C174.224 177.44 174.224 177.36 174.305 177.199C175.269 176.154 176.556 174.385 177.762 175.35C179.209 176.556 177.922 178.083 176.636 179.209C176.958 176.958 175.35 177.52 174.144 177.601Z" fill="#073042"/>
<path d="M424.104 296.189C430.294 291.446 436.244 286.22 442.193 281.074C445.731 278.019 445.248 276.009 440.987 274.079C440.585 273.999 440.264 273.838 439.942 273.677C434.716 270.461 431.018 266.12 430.214 259.688C429.49 253.658 431.339 247.628 435.279 243.045C436.646 241.277 437.369 239.669 435.118 238.302C424.827 231.95 419.199 225.921 408.345 220.534C404.808 218.845 383.824 207.992 375.382 198.826C369.352 192.314 379.563 192.555 381.01 191.671C382.296 191.992 428.043 217.237 434.957 221.016C443.399 225.519 451.841 230.262 460.363 234.764C468.725 239.106 476.443 244.332 484.403 249.236C489.307 252.211 489.227 254.543 484.644 257.919C481.347 260.331 477.488 261.778 474.433 264.673C468.403 270.381 462.052 275.607 455.62 280.913C449.992 285.576 443.56 289.114 438.173 294.018C422.898 308.169 405.933 320.228 390.014 333.655" fill="#194E4F"/>
</g>
<defs>
<clipPath id="clip0_0_1">
<rect width="500" height="409.391" fill="white"/>
</clipPath>
</defs>
</svg>
