<svg viewBox="0 0 415 409" fill="none" xmlns="http://www.w3.org/2000/svg">
<path d="M414.363 285.583L414.363 344.437C405.39 350.718 395.82 355.797 385.113 358.345C377.938 360.054 370.779 361.884 363.345 362.561C359.758 362.892 358.959 364.093 360.451 367.358C364.708 376.654 360.773 379.452 351.8 380.984C339.239 383.128 326.896 381.362 314.714 378.565C299.29 375.001 283.819 371.526 269.065 365.568C265.679 364.198 262.688 362.118 259.431 360.546C254.875 358.345 252.747 359.006 250.062 363.311C248.78 365.359 247.644 367.52 246.483 369.616C244.701 372.744 243.379 373.091 240.283 371.228C237.388 369.519 234.913 367.197 232.075 365.399C226.794 362.061 225.295 362.174 220.861 366.512C217.878 369.414 214.921 372.354 211.992 375.332C210.845 376.57 209.405 377.499 207.804 378.034C206.204 378.57 204.494 378.694 202.833 378.396C187.015 376.074 172.245 370.865 159.821 360.659C153.331 355.321 146.776 354.467 139.23 356.789C133.836 358.441 128.491 360.231 123.17 362.094C117.575 364.045 116.519 363.496 114.576 358.062C114.238 356.901 113.58 355.858 112.678 355.053C111.775 354.247 110.664 353.712 109.472 353.507C97.1047 350.774 85.2854 346.469 73.5871 341.607C63.4205 337.35 55.9387 329.998 49.2229 321.686C45.998 317.703 46.9493 314.841 51.5045 312.22C54.3988 310.552 57.656 309.673 61.2598 307.754C45.7964 299.603 36.7183 285.986 27.5595 272.514C21.1742 260.678 14.7889 248.851 13.0474 235.185C12.6813 231.311 12.5655 227.417 12.7008 223.527C12.7008 220.972 14.3132 219.383 16.1433 217.884C20.892 214.159 25.9148 210.805 30.333 206.597C38.0244 199.34 43.1278 190.037 49.6824 181.894C62.0903 166.527 73.2565 150.209 85.6321 134.81C96.3227 121.515 109.013 110.397 122.791 100.481C124.186 99.5214 125.806 98.8684 126.895 97.4978C125.436 99.1102 123.339 99.723 121.558 100.836C119.486 101.456 117.22 104.254 115.471 102.287C113.721 100.32 115.938 97.8042 116.954 95.6596C124.275 80.3574 134.352 66.7644 144.519 53.2117C150.074 45.8186 154.75 37.708 161.821 31.5484C168.715 25.5826 175.241 19.2044 181.364 12.4488C183.387 10.1995 184.959 11.2395 186.846 12.731C195.956 19.9145 202.858 28.9281 208.525 38.9254C211.338 43.8172 214.437 48.5391 217.805 53.0666C221.03 57.4525 220.119 59.1536 214.645 60.0082C202.64 61.8867 191.312 65.9824 180.283 71.0858C184.693 70.8197 188.918 69.6265 193.183 68.7638C197.448 67.9012 201.785 66.6193 206.195 66.1033C207.63 66.1758 209.557 65.6921 210.17 67.2643C210.88 69.0863 208.985 70.0135 207.808 71.0374C198.415 79.2287 190.313 88.4519 184.661 99.6665C182.868 103.284 181.644 107.156 181.033 111.147C180.42 114.953 181.364 117.065 185.008 118.508C193.07 121.733 204.212 121.08 210.734 112.985C217.474 104.625 224.255 96.3046 230.938 87.9037C236.309 81.3313 242.547 75.519 249.482 70.6262C251.238 69.3651 253.321 68.6372 255.48 68.53C263.542 69.2637 271.661 69.8039 279.667 71.1503C282.634 72.5531 281.4 74.3188 279.925 75.8828C276.418 79.5915 273.233 83.5581 270.065 87.5489C264.343 94.8595 260.272 103.323 258.133 112.357C255.907 121.273 257.431 125.458 264.623 129.715C271.177 133.601 277.877 132.754 283.787 127.248C286.296 124.798 288.455 122.015 290.204 118.976C297.847 106.447 306.522 94.7405 317.414 84.7997C320.035 82.381 322.671 80.1317 326.589 80.6799C332.426 82.1956 338.312 83.5581 343.964 85.7027C350.413 88.1214 355.92 87.3151 360.661 81.8812C374.1 66.458 392.353 58.3393 410.187 49.6321C411.453 49.0193 412.888 48.2453 414.347 49.3418L414.347 277.504C410.05 281.003 406.188 284.946 401.448 289.219C404.616 289.533 406.059 288.009 407.752 287.203C409.808 286.211 411.679 284.317 414.363 285.583Z" fill="#C4E9CE"/>
<path d="M28.1077 271.893C34.2673 279.6 38.9918 288.445 46.3446 295.209C50.9562 299.45 55.3018 304.077 61.421 306.311C62.1628 306.577 63.1383 306.875 63.1302 307.794C63.1222 308.713 62.1708 308.979 61.421 309.278C58.5589 310.398 55.592 311.406 52.8589 312.736C47.2153 315.461 46.8283 317.574 50.9643 322.459C58.5267 331.384 67.2823 338.584 78.505 342.615C89.0908 346.421 99.5879 350.46 110.69 352.54C114.044 353.169 115.527 355.62 115.825 358.474C116.261 362.505 118.244 362.658 121.356 361.61C126.798 359.756 132.297 358.046 137.706 356.103C141.036 354.91 144.519 354.701 147.937 354.233C152.267 353.644 155.677 356.111 158.789 358.659C171.794 369.35 186.943 374.864 203.341 377.452C204.799 377.727 206.303 377.611 207.701 377.115C209.098 376.619 210.34 375.762 211.299 374.63C214.58 371.083 218.071 367.729 221.514 364.335C224.327 361.562 227.302 360.747 230.785 363.408C233.752 365.673 237.025 367.544 239.96 369.858C242.701 372.002 244.515 372.115 245.942 368.519C246.895 366.45 247.997 364.454 249.24 362.545C252.215 357.418 254.48 356.563 259.721 359.57C267.403 363.942 275.598 367.346 284.117 369.704C299.694 374.05 315.294 378.492 331.362 380.395C339.924 381.411 348.769 381.709 357.161 378.379C361.249 376.767 362.37 374.243 360.556 370.317C356.799 362.045 357.121 362.489 365.99 361.191C377.752 359.481 389.427 356.966 400.254 351.75C403.979 349.952 407.51 347.719 411.034 345.55C412.098 344.905 413.081 344.284 414.363 344.413C414.363 364.682 414.299 384.95 414.436 405.227C414.436 408.129 413.968 409.008 410.8 409C318.712 408.892 226.625 408.863 134.538 408.911L70.1041 408.911C68.4917 406.936 69.2414 404.84 69.8381 402.792C71.7649 396.189 74.7964 390.07 78.118 384.063C80.9076 379.032 80.8431 378.936 74.9818 377.847C63.4769 375.711 52.222 372.849 41.4992 367.939C34.7107 364.835 29.4057 360.062 24.5684 354.644C23.1275 353.019 22.3328 350.922 22.3351 348.751C22.1578 342.768 22.8592 337.012 25.7535 331.61C27.5837 328.184 28.5028 324.354 30.2039 320.831C30.6715 319.863 31.1553 318.904 31.5664 317.92C32.2275 316.308 34.9848 316.026 34.3399 313.97C33.8722 312.486 31.9212 311.93 30.736 310.874C22.9962 304.158 18.0137 295.693 15.1597 285.978C13.4102 280.028 14.4663 278.262 20.5292 277.52C24.3184 277.061 27.0274 275.771 28.1077 271.893Z" fill="#A0C6B4"/>
<path d="M28.1077 271.893C29.1155 276.109 26.8661 277.488 23.1333 278.222C14.1035 280.004 13.7811 280.874 17.3285 289.702C21.1177 299.111 26.5678 307.23 35.1945 312.906C37.3068 314.292 37.6131 315.429 34.8317 316.235C34.3043 316.366 33.8131 316.613 33.3944 316.959C32.9757 317.306 32.6403 317.741 32.413 318.235C29.4461 325.201 25.8503 332.029 24.3507 339.439C21.932 351.056 25.2779 357.45 35.6379 363.625C47.5862 370.704 60.7761 374.106 74.2562 376.662C82.5281 378.234 82.5845 378.275 78.4002 385.789C75.1827 391.362 72.595 397.276 70.6846 403.421C70.0612 405.194 69.8516 407.085 70.0719 408.952H58.8169C58.4783 408.532 58.0107 408.041 58.1478 407.541C59.7602 402.034 58.954 396.036 61.7274 390.763C63.7752 386.861 63.0013 384.91 58.5509 384.595C51.9721 384.128 45.9173 382.104 40.0641 379.444C30.6957 375.179 20.9645 371.583 12.6523 365.23C11.1267 364.121 9.88602 362.666 9.03244 360.984C8.17886 359.302 7.73673 357.441 7.74241 355.555C7.15582 343.289 10.1895 331.12 16.4658 320.565C19.6907 315.155 19.4488 314.115 15.6596 309.157C10.9754 303.094 3.12273 288.767 1.57477 285.583C-1.11803 280.165 0.163874 273.046 1.57477 271.071C3.37266 268.563 6.11383 267.846 8.83082 266.983C10.4836 266.451 11.7816 265.645 10.6368 263.484C6.72657 256.22 4.71906 248.399 3.75965 240.257C2.02626 228.163 1.86501 222.608 3.02598 218.488C4.18695 214.369 14.6115 207.153 19.9003 200.977C27.5111 192.109 35.517 183.627 42.6037 174.218C50.5289 163.737 58.5186 153.256 66.4197 142.687C69.5801 138.47 91.5901 110.341 95.0891 105.197C98.4878 100.232 101.563 95.0537 104.296 89.6935C108.021 82.3165 113.366 75.7216 118.526 69.1347C121.703 65.1036 124.089 60.2662 127.395 56.4124C131.853 51.2365 136.062 45.875 140.456 40.6587C150.752 28.4737 161.653 16.8118 173.116 5.71684C180.009 -0.97485 185.145 -2.01488 192.304 3.78189C201.019 10.8364 209.074 18.6245 215.386 28.2187C218.611 33.1286 232.317 51.2606 234.131 54.6307C234.421 55.1547 236.139 54.9612 237.195 55.0015C245.636 55.316 254.327 53.5665 262.47 55.9529C277.079 60.2259 292.542 59.0165 306.942 63.4831C312.005 65.0552 317.108 66.4822 322.195 68.0141C329.992 70.3602 338.07 71.6824 345.697 74.6332C348.325 75.649 350.462 75.1089 352.953 73.0207C357.637 69.046 362.982 65.8614 368.029 62.2979C370.924 60.2581 373.673 57.9604 376.648 56.0658C382.646 52.2684 388.54 48.1647 394.941 45.1736C398.811 43.3435 411.138 36.3857 414.363 36.4583V49.3579C395.514 57.4202 376.769 65.8372 362.684 81.4055C356.783 87.9279 350.591 89.3307 342.617 86.4444C337.352 84.5337 331.902 83.1147 326.541 81.4781C322.155 81.0346 317.955 79.7688 313.738 78.5756C304.208 75.8667 294.389 74.6171 284.657 73.1739C283.197 73.0399 281.771 72.6553 280.441 72.0371L254.73 69.433C240.033 68.4978 225.359 67.1111 210.622 66.708C209.17 66.708 207.695 66.4177 206.268 66.966C197.899 68.8283 189.531 70.7068 181.154 72.5209C179.912 72.7869 178.058 73.4642 177.558 72.1016C177.002 70.5698 178.985 70.0861 180.098 69.6104C191.449 64.773 203.019 60.6209 215.306 58.8311C216.604 58.6457 218.281 58.8311 218.966 57.5976C219.772 56.1544 218.208 55.1789 217.434 54.2114C212.776 48.1456 208.595 41.7276 204.93 35.0152C200.012 26.1466 192.594 19.5517 185.58 12.5617C184.282 11.2637 183.476 11.5136 182.355 12.7794C175.905 19.9629 168.786 26.4853 161.813 33.2011C151.807 42.7307 145.164 54.8242 136.755 65.6034C129.314 75.2824 122.887 85.6998 117.575 96.6916C116.589 98.4112 115.935 100.301 115.648 102.263C118.026 102.335 119.558 100.529 121.517 100.037C122.565 99.6665 123.444 99.594 123.404 101.126C98.7978 118.145 80.8753 141.389 63.6543 165.277C55.2776 176.935 45.9173 187.852 37.855 199.744C32.4372 207.677 24.6168 212.998 17.0463 218.529C14.5067 220.383 13.6037 222.407 13.5795 225.599C13.4747 239.136 17.2559 251.52 23.7541 263.234C25.3101 266.056 26.6646 269.015 28.1077 271.893Z" fill="#073042"/>
<path d="M414.363 285.583C410.639 286.002 407.873 288.485 404.689 290.033C403.576 290.573 402.27 291.791 401.149 290.267C400.029 288.743 401.198 287.582 402.286 286.921C406.704 284.268 408.945 278.859 414.379 277.512L414.363 285.583Z" fill="#FA7A7A"/>
<path d="M234.333 306.416C226.27 305.464 214.54 306.416 202.89 305.609C192.917 304.892 183.661 300.82 174.994 295.991C167.456 291.791 159.789 287.727 153.734 281.156C141.77 268.176 139.456 253.583 144.196 236.903C148.308 222.52 157.015 211.45 167.053 201.098C177.26 190.617 189.958 184.264 203.728 179.87C223.602 173.533 243.032 175.565 261.994 183.426C273.956 188.262 284.513 196.024 292.695 206C298.911 213.57 304.249 221.383 307.03 230.767C310.078 241.022 311.303 251.302 307.965 261.88C305.41 269.942 302.556 278.004 297.823 284.905C294.002 290.493 288.229 294.58 281.852 297.281C267.831 303.199 253.295 306.915 234.333 306.416Z" fill="#073042" fill-opacity="0.1882"/>
<path d="M387.54 247.593C383.913 247.549 380.339 246.724 377.059 245.175C355.055 235.716 333.612 225.002 312.835 213.087C312.263 212.756 311.747 212.337 311.223 211.95C310.811 211.515 310.61 210.87 311.078 210.555C314.939 207.999 314.577 203.597 315.794 199.897C316.737 197.035 314.657 195.148 313.375 193.044C312.625 191.834 310.957 190.665 311.835 189.222C312.787 187.61 314.681 188.473 316.205 188.666C317.363 188.938 318.425 189.52 319.277 190.351C320.317 190.875 321.639 191.794 322.397 190.512C323.252 189.069 321.373 188.327 320.784 187.231C319.091 185.756 318.196 184.079 319.769 182.007C321.341 179.935 323.252 180.563 325.186 181.418C335.634 185.914 345.732 191.183 355.396 197.18C363.127 201.963 371.158 206.244 379.438 209.999C384.742 212.466 390.112 215.014 393.506 220.198C394.022 220.73 394.691 221.197 394.312 222.116C393.418 224.825 391.394 224.358 389.386 223.818C387.588 223.326 385.807 222.584 383.912 223.068C381.663 223.64 379.881 225.132 379.728 227.389C379.526 230.009 381.929 230.719 383.936 231.501C384.895 231.842 385.805 232.306 386.645 232.88C388.443 234.597 389.314 236.379 387.016 238.378C382.767 239.483 379.51 236.508 375.729 235.645C372.738 234.355 369.473 235.379 366.433 234.476C368.852 235.371 371.117 236.483 373.568 237.169C378.18 239.257 383.324 240.394 386.677 244.659C387.322 245.505 388.895 246.15 387.54 247.593Z" fill="#073042"/>
<path d="M280.409 72.0291C291.204 72.2548 301.685 74.5284 312.142 76.9551C317.037 78.0719 321.834 79.5845 326.484 81.4781C323.163 80.9379 321.018 82.9293 318.801 84.9287C307.514 95.063 298.645 107.035 290.801 119.935C287.648 125.151 283.891 129.795 277.901 132.125C271.121 134.762 265.622 132.085 260.398 128.151C255.424 124.41 255.617 119.177 256.673 113.896C259.648 98.9006 267.96 86.9443 278.296 76.1005C279.32 75.0363 281.731 74.4074 280.409 72.0291Z" fill="#194E4F"/>
<path d="M206.268 66.974C207.711 65.7808 209.662 65.7163 211.202 65.7727C225.763 66.2968 240.404 66.0066 254.738 69.433C249.095 70.7794 245.402 75.0766 241.299 78.5998C231.334 87.1216 224.577 98.4653 215.999 108.213C214.233 110.22 212.548 112.308 210.855 114.388C204.325 122.378 191.853 122.886 184.25 119.347C180.541 117.613 179.292 114.856 179.977 110.841C182.105 98.3605 189.474 88.8389 197.488 79.7044C201.457 75.0875 205.991 70.9892 210.984 67.5061L206.268 66.974Z" fill="#194E4F"/>
<path d="M157.128 198.486C149.824 199.566 142.479 198.591 135.151 198.824C124.194 199.171 113.495 201.993 102.506 201.84C98.9187 202.436 95.2987 201.977 91.6949 202.114C91.4641 202.154 91.2276 202.147 90.9995 202.094C90.7714 202.04 90.5565 201.941 90.3676 201.803C90.1786 201.664 90.0196 201.489 89.8999 201.287C89.7803 201.086 89.7025 200.863 89.6713 200.63C90.0583 197.704 93.0332 196.519 94.0975 193.826C95.597 190.029 98.7171 186.771 96.5645 182.24C103.667 178.443 111.391 176.186 118.889 173.372C134.135 167.656 150.163 166.519 166.206 165.761C171.399 165.519 174.382 172.211 171.552 177.355C168.972 180.418 164.675 179.983 161.7 182.192C161.901 183.917 163.401 183.555 164.425 183.885C166.658 184.595 167.9 185.747 165.932 187.916C163.965 190.085 164.126 191.657 166.593 193.423C168.657 194.906 167.754 195.97 165.602 196.535C162.822 197.365 159.991 198.016 157.128 198.486Z" fill="#073042"/>
<path d="M316.165 188.706C314.947 189.198 313.085 188.126 312.472 189.513C311.86 190.899 313.73 191.625 314.488 192.633C318.277 197.672 316.963 207.048 311.956 210.668C311.577 210.942 311.44 211.547 311.198 211.998L305.458 208.225C303.889 207.012 302.429 205.663 301.096 204.194C300.185 203.267 299.669 202.219 300.419 200.969C301.169 199.719 302.193 199.824 303.523 200.163C307.675 201.179 307.611 201.058 307.554 196.736C307.49 193.584 307.933 190.456 310.32 188.013C312.279 188.029 314.351 187.328 316.165 188.706Z" fill="#194E4F"/>
<path d="M55.2615 234.766C55.1486 234.71 54.4553 234.597 54.3101 234.242C53.899 233.347 54.6568 232.751 55.2292 232.226C58.4541 229.252 61.679 226.22 65.0571 223.358C70.1444 219.053 75.1592 214.618 81.1011 211.466C82.254 210.861 83.8181 209.757 84.7452 210.982C85.8659 212.458 83.939 213.312 83.028 214.014C74.8931 220.504 66.6777 226.913 58.4622 233.291C57.6398 233.96 56.8659 234.798 55.2615 234.766Z" fill="#FA7A7A"/>
<path d="M376.261 283.696C375.181 283.954 374.648 283.914 374.39 283.341C374.1 282.592 374.665 282.043 375.197 281.632C378.373 279.004 381.558 276.376 384.807 273.828C389.311 270.291 393.85 266.798 398.424 263.347C399.608 262.487 400.859 261.724 402.165 261.065C403.1 260.573 404.326 260.033 405.003 261.21C405.575 262.202 404.439 262.871 403.81 263.492C398.489 268.781 392.152 272.788 386.274 277.375C384.073 279.093 381.735 280.649 379.389 282.172C378.385 282.755 377.339 283.264 376.261 283.696Z" fill="#FA7A7A"/>
<path d="M76.2717 238.58C75.7235 237.177 76.6587 236.596 77.3198 236.064C84.4952 230.3 91.1708 223.906 98.8622 218.811C100.346 217.827 102.668 215.642 104.079 217.722C105.151 219.335 102.466 220.81 101.047 221.818C94.4763 226.607 88.5586 232.299 81.6009 236.54C79.9643 237.548 78.3679 238.87 76.2717 238.58Z" fill="#FA7A7A"/>
<path d="M387.54 247.593C387.661 244.917 385.557 243.949 383.743 242.982C380.324 241.151 376.777 239.579 373.262 237.894C372.198 237.33 370.738 236.588 371.408 235.322C372.319 233.613 374.125 234.395 375.624 234.758C379.478 235.459 382.808 237.983 386.863 237.983C389.088 235.097 389.951 231.259 393.111 229.026C393.273 228.933 393.46 228.893 393.646 228.914C393.831 228.934 394.005 229.013 394.143 229.139C394.321 229.332 394.675 229.647 394.643 229.703C392.224 233.363 390.064 237.33 387.097 240.506C385.484 242.224 385.605 242.707 386.927 244.134C387.758 245.013 390.056 245.997 387.54 247.593Z" fill="#194E4F"/>
<path d="M394.159 229.147H393.353C391.604 229.147 390.846 230.429 390.128 231.711C389.145 233.46 387.806 234.194 385.855 233.323C384.928 233.412 384.428 232.686 383.775 232.251C382.795 231.816 381.853 231.298 380.961 230.703C379.107 229.381 378.994 227.849 380.889 226.51C383.63 224.575 386.379 222.6 390.12 223.737C391.878 224.269 393.579 224.164 394.151 221.899L393.418 220.23C395.836 220.786 394.982 222.649 394.893 224.092C394.733 225.788 394.488 227.475 394.159 229.147Z" fill="#194E4F"/>
<path d="M40.2737 220.335C45.7404 217.252 50.9686 213.765 55.9145 209.902C57.3254 208.83 59.4942 206.734 60.6552 208.12C62.1386 209.894 59.3571 211.248 58.1155 212.353C53.907 216.07 49.1019 219.029 44.3049 221.963C43.0903 222.733 41.7885 223.355 40.4269 223.818C39.6207 224.027 38.492 224.414 37.9195 223.447C37.3471 222.479 38.4194 221.834 38.9838 221.23C39.3599 220.86 39.7961 220.558 40.2737 220.335Z" fill="#FA7A7A"/>
<path d="M380.889 254.769C380.431 255.399 379.904 255.975 379.317 256.486C372.826 260.977 366.223 265.298 358.822 268.2C358.08 268.491 357.21 268.91 356.718 267.975C356.339 267.265 356.968 266.636 357.524 266.314C364.974 262.025 372.101 257.002 380.889 254.769Z" fill="#FA7A7A"/>
<path d="M157.128 198.486L166.892 195.527C166.892 195.172 166.972 194.769 166.892 194.721C162.603 192.576 161.305 190.158 165.827 186.747C167.053 185.828 165.932 185.135 164.965 184.885C163.683 184.554 162.353 184.401 161.079 184.079C159.571 183.684 158.966 182.901 160.321 181.579C161.366 181.797 162.425 181.942 163.489 182.015C166.44 182.095 168.811 182.579 168.093 186.602C167.714 188.739 169.705 189.827 171.229 190.835C172.753 191.843 173.648 193.004 171.729 194.511C167.117 196.785 162.409 198.687 157.128 198.486Z" fill="#194E4F"/>
<path d="M96.5645 182.208C100.233 185.038 98.435 188.11 96.7499 190.956C94.9521 193.995 93.5895 197.406 90.3001 199.324C90.17 199.438 90.0184 199.524 89.8542 199.578C89.6901 199.632 89.5168 199.653 89.3446 199.639C89.1724 199.624 89.0048 199.576 88.8518 199.495C88.6988 199.415 88.5634 199.305 88.4539 199.171C91.3563 197.357 94.5731 195.696 91.1789 191.576C90.888 191.196 90.7303 190.73 90.7303 190.25C90.7303 189.771 90.888 189.305 91.1789 188.924C93.1058 186.804 93.9443 183.821 96.5645 182.208Z" fill="#194E4F"/>
<path d="M310.295 187.981C309.989 191.915 307.119 195.366 308.49 199.703C309.199 201.945 307.256 201.735 305.7 201.445C304.144 201.154 302.314 199.179 301.104 201.283C299.895 203.388 302.531 204.323 303.523 205.742C304.112 206.605 304.829 207.354 305.482 208.161C303.112 207.838 302.12 205.685 300.516 204.355C299.307 203.347 298.613 202.017 299.444 200.461C300.274 198.905 301.709 199.268 303.023 199.413C304.337 199.558 305.676 200.598 306.635 199.026C307.441 197.728 306.788 196.527 306.071 195.309C303.499 191.077 304.757 188.908 310.295 187.981Z" fill="#194E4F"/>
<path d="M171.689 194.511C172.495 193.092 172.197 192.092 170.737 191.214C169.738 190.609 168.198 189.601 168.198 188.795C168.198 183.958 165.344 182.821 161.337 182.684C160.974 182.684 160.635 181.942 160.281 181.547C163.804 179.548 167.795 178.79 171.519 177.339C171.096 178.746 170.589 180.127 170.004 181.474C168.109 185.264 167.585 188.473 172.237 190.867C174.382 191.988 174.914 193.769 171.689 194.511Z" fill="#194E4F"/>
<path d="M88.4297 199.211L90.276 199.365C90.018 201.493 91.308 201.695 92.9769 201.687C96.1534 201.687 99.3299 201.783 102.506 201.84L82.2621 203.452C83.5924 200.139 85.9224 199.542 88.4297 199.211Z" fill="#194E4F"/>
<path d="M40.2737 220.335C39.9189 221.447 38.4113 221.818 38.4193 223.213C40.709 224.253 42.2328 221.794 44.3048 221.963C44.0232 222.505 43.6167 222.971 43.119 223.325C42.6214 223.678 42.0467 223.908 41.4427 223.995C39.8302 224.253 37.4922 226.567 36.6053 224.1C35.8716 222.165 38.0968 220.714 40.2737 220.335Z" fill="#FA7A7A"/>
<path d="M123.404 101.118C123.049 100.312 122.275 100.174 121.517 100.029C123.81 98.3203 126.423 97.0893 129.201 96.4094C127.427 98.2476 125.734 100.078 123.404 101.118Z" fill="#073042"/>
<path d="M320.752 187.271C321.117 187.427 321.461 187.627 321.776 187.868C322.752 188.827 323.977 190.117 322.897 191.302C321.607 192.729 320.285 191.488 319.237 190.383C323.26 191.077 321.131 188.739 320.752 187.271Z" fill="#194E4F"/>
<path d="M165.908 228.3C165.977 225.253 166.432 222.227 167.263 219.295C168.464 214.393 171.931 212.039 176.526 210.821C177.679 210.523 179.025 210.281 179.928 211.345C180.831 212.409 180.396 213.651 179.824 214.739C177.535 218.883 176.608 223.641 177.171 228.34C177.752 232.92 179.88 236.661 184.218 238.394C194.142 242.353 204.22 245.432 215.007 241.361C217.908 240.327 220.649 238.892 223.15 237.096C225.762 235.153 228.165 235.161 230.874 237.032C237.816 241.821 245.668 244.449 253.884 245.9C261.237 247.222 267.638 245.005 273.233 240.095C276.576 237.19 279.554 233.89 282.102 230.267C284.23 227.196 286.536 227.26 288.85 230.227C289.831 231.41 290.49 232.827 290.762 234.34C291.035 235.853 290.912 237.41 290.406 238.862C287.987 247.448 281.795 251.407 273.806 254.083C259.358 258.921 246.112 255.268 233.333 248.891C228.649 246.553 224.787 246.473 219.732 247.843C203.857 252.084 187.983 253.487 173.696 242.546C168.803 238.886 165.303 234.556 165.908 228.3Z" fill="#073042"/>
<path d="M394.208 221.899C394.554 223.898 393.514 224.737 391.724 224.422C388.113 223.785 385.081 224.906 382.05 226.784C380.05 228.034 379.486 228.969 381.639 230.493C382.388 231.025 383.066 231.662 383.775 232.259C380.727 231.823 378.365 230.388 378.406 227.067C378.406 224.471 382.558 221.665 385.476 221.939C386.925 222.063 388.345 222.414 389.685 222.979C391.579 223.801 393.006 223.519 394.208 221.899Z" fill="#194E4F"/>
<path d="M385.871 233.331C387.766 233.331 388.878 232.525 389.66 230.614C390.023 229.703 390.789 226.043 393.377 229.155C391.362 232.21 389.854 235.605 386.871 238.023C388.629 235.984 387.363 234.613 385.871 233.331Z" fill="#194E4F"/>
<path d="M375.664 234.758C374.487 235.185 372.899 234.186 372.085 235.387C371.27 236.588 373.084 236.943 373.302 237.894C370.244 237.395 367.372 236.1 364.974 234.137C368.553 233.903 372.141 233.258 375.664 234.758Z" fill="#194E4F"/>
</svg>
