<svg viewBox="0 0 411 409" fill="none" xmlns="http://www.w3.org/2000/svg">
<path d="M395.882 408.842H384.748C383.245 407.76 382.76 406.162 382.307 404.46C376.055 380.712 367.713 357.823 354.344 337.026C350.367 330.361 347.377 323.196 343.766 316.348C342.971 314.885 342.048 313.286 343.353 311.576C345.206 310.781 346.383 311.95 347.456 313.095C349.012 314.702 350.847 316.011 352.872 316.96C356.054 318.551 357.525 317.899 357.978 314.4C358.32 311.799 358.304 309.182 358.972 306.59C360.722 299.869 363.537 297.651 370.488 298.152C371.777 298.33 373.086 298.293 374.361 298.04C378.076 298.947 380.096 297.245 381.798 293.992C386.713 284.448 388.287 274.563 388.446 263.826C388.772 242.17 378.489 224.411 369.47 206.047C368.484 204.035 365.74 201.745 368.142 199.764C370.544 197.784 372.691 200.56 374.505 202.15C377.821 205.173 380.692 208.72 384.844 210.732C385.663 211.166 386.523 211.518 387.412 211.782C388.669 212.108 390.061 212.863 391.182 211.782C392.304 210.7 391.58 209.245 391.119 208.075C389.114 203.033 387.229 197.919 384.844 193.052C379.324 181.791 375.149 169.797 367.132 159.856C366.115 158.781 365.546 157.359 365.542 155.88C365.558 155.475 365.688 155.084 365.918 154.75C366.147 154.417 366.466 154.155 366.838 153.995C370.337 153.923 371.514 157.359 374.123 158.997C375.817 155.021 375.117 150.933 375.523 146.988C375.65 129.261 374.354 111.589 373.359 93.9334C372.62 80.7711 369.574 67.8076 365.271 55.218C363.609 50.3507 361.915 45.4596 361.088 40.3458C359.771 34.8088 357.444 29.5621 354.224 24.8692C351.202 20.4552 348.307 19.5963 343.257 21.4732C335.161 24.4795 327.828 29.0445 320.273 33.1244C304.649 41.5626 290.353 52.2548 277.843 64.857C272.054 70.6787 265.914 71.5615 258.756 68.5552C250.326 67.9269 242.055 66.1693 233.672 65.2547C229.879 64.715 226.058 64.4016 222.228 64.3162C220.796 64.3162 219.301 64.014 218.49 62.2882C220.255 61.0714 222.283 61.8508 224.129 61.4054C216.637 63.6561 208.827 61.6122 201.303 63.2585C197.645 63.8629 193.899 63.3698 190.249 64.1492C189.564 64.0544 188.872 64.0118 188.181 64.022C176.728 64.7059 165.459 66.7658 154.166 68.6825C152.472 68.9688 150.77 69.0483 149.092 69.3903C146.507 70.1856 143.771 70.122 141.186 70.9014C138.992 71.3813 136.764 71.6871 134.522 71.816C131.078 71.9273 129.821 70.1379 131.46 67.1555C132.502 65.2786 131.826 64.1492 130.72 62.9722C122.767 54.526 115.259 45.6186 106.614 37.8167C100.224 31.8787 93.2629 26.5856 85.8331 22.014C82.7473 20.1769 79.3991 18.9362 76.2179 17.3456C73.6252 16.1208 71.971 16.7014 70.778 19.2702C70.1667 20.5914 69.4176 21.8443 68.5432 23.0081C66.2368 27.1755 63.3578 30.9612 61.0196 35.1365C55.4525 44.4416 50.1717 53.9057 45.5192 63.7118C44.4386 65.6836 43.5004 67.7301 42.7117 69.8356C36.1266 91.1816 29.0086 112.432 27.7282 134.963C27.3067 142.32 28.3724 149.684 29.5415 157.303C33.6373 155.49 35.9039 151.895 39.0852 149.422C41.2722 148.3 43.5945 146.622 44.525 150.726C44.2467 153.327 42.6879 155.363 41.4233 157.502C34.878 168.541 29.4222 180.113 23.7517 191.597C22.2451 194.688 21.013 197.905 20.0694 201.212C19.6877 202.572 18.9481 203.884 19.6161 205.626C21.0636 205.538 21.6521 204.186 22.6542 203.526C24.9446 202.015 26.0501 202.604 25.9944 205.363C22.0179 216.871 19.632 228.817 17.6517 240.739C15.6157 252.907 13.1662 265.115 12.522 277.561C12.3311 281.243 11.6074 284.894 11.6392 288.592C11.8858 293.467 13.0389 294.859 17.6597 295.09C21.4865 295.413 25.3372 295.32 29.1439 294.811C30.1953 294.631 31.2585 294.527 32.3251 294.501C39.6657 294.342 41.7733 297.404 38.7829 304.085C37.3593 307.266 36.1584 310.447 36.397 313.986C36.3493 315.64 36.3175 317.263 38.6 315.465C39.3541 314.743 39.957 313.878 40.3735 312.92C40.6987 312.437 41.1114 312.019 41.5904 311.688C43.0696 311.139 44.7159 308.117 45.9089 311.966C43.7218 317.613 40.5883 322.774 37.6536 328.047C34.5837 333.558 31.6013 339.118 29.5017 345.09C24.7299 356.893 21.4692 369.172 18.4391 381.523C16.419 388.212 15.7827 395.131 14.9636 402.018C14.6693 404.5 14.6932 407.045 12.5777 408.882C9.66242 408.751 6.74237 408.773 3.82932 408.945C1.07757 409.232 0.0754879 408.428 0.648107 405.693C0.724461 404.899 0.724461 404.1 0.648107 403.307C1.14937 401.367 1.54758 399.403 1.84106 397.421C1.5468 395.346 2.31029 393.381 2.40573 391.345C2.27512 390.51 2.27512 389.659 2.40573 388.824C3.99634 370.095 10.5178 352.646 16.3792 335.022C18.5822 328.413 20.8488 321.788 20.658 314.598C20.5784 311.568 20.1171 310.097 16.5383 310.256C11.5358 310.487 7.19346 308.665 4.561 304.013C3.67822 301.357 1.76153 300.609 0.624248 296.728C-0.513037 292.847 0.162971 277.442 0.624248 274.459C1.08552 271.477 1.47522 270.149 1.83311 267.978C1.58657 266.387 2.62841 264.876 2.31029 263.254C2.25365 262.434 2.2803 261.61 2.38982 260.796C3.60377 250.609 5.8965 240.58 9.22944 230.877C9.56203 230.095 9.69892 229.244 9.62824 228.397C9.55756 227.55 9.28145 226.733 8.82383 226.017C7.61497 224.093 0.258408 215.83 0.616295 207.63C0.974181 199.43 8.8795 190.976 12.2198 183.93C12.5074 183.479 12.6726 182.961 12.6991 182.427C12.7256 181.893 12.6125 181.361 12.3709 180.884C7.90128 173.416 8.83974 165.312 9.81001 157.295C11.3211 144.817 11.9573 132.283 12.7447 119.749C13.6459 103.186 17.7144 86.9499 24.7299 71.9193C34.8144 50.5495 46.2747 30.0466 60.0573 10.84C62.4671 7.47586 67.8911 0 71.8199 0C75.7487 0 93.8418 7.77012 98.7807 11.4047C114.878 23.2945 130.808 35.3831 143.159 51.4403C144.749 53.5081 146.825 54.2 149.481 53.7705C167.145 50.8995 184.984 49.6747 202.798 48.8873C215.738 48.3147 228.725 49.3089 241.641 50.6211C246.413 51.1062 251.145 51.4164 255.845 52.2594C259.432 52.9116 271.433 45.0063 274.662 42.7715C281.422 38.103 305.027 21.2982 308.176 19.811C317.108 15.5005 325.927 10.9513 334.819 6.56921C338.477 4.77182 340.967 3.31642 346.263 3.26075C351.56 3.20508 351.711 3.92085 354.36 4.46166C359.982 6.52945 365.351 9.08237 368.866 14.2041C372.094 18.9147 374.419 24.1842 375.721 29.7444C377.097 35.6614 378.903 41.491 380.493 47.3047C382.466 54.4624 383.81 61.7395 385.329 68.9767C388.104 82.2026 389.369 95.6512 391.166 109.028C393.226 124.394 393.918 139.862 395.564 155.259C396.24 161.55 396.36 167.984 394.602 174.211C393.314 178.745 394.037 182.848 396.622 187.04C400.425 193.254 403.593 199.835 406.078 206.684C406.452 207.71 410.603 213.149 410.603 220.1C410.603 227.051 403.907 232.531 402.197 234.169C400.312 235.052 399.883 236.555 400.352 238.456C402.269 246.194 402.181 254.235 403.963 261.997C404.969 266.286 404.832 270.765 403.565 274.984C402.561 278.553 402.063 282.245 402.086 285.952C401.974 293.3 399.469 299.941 395.477 306.033C394.437 307.565 393.733 309.3 393.409 311.123C393.223 312.436 392.928 313.732 392.526 314.996C390.546 320.675 386.076 322.305 380.883 319.33C378.752 318.114 377.018 315.402 374.322 316.149C371.626 316.897 372.731 320.317 371.339 322.217C370.571 323.453 369.944 324.771 369.47 326.146C367.824 330.027 368.452 333.376 370.552 337.026C376.819 347.922 383.5 358.618 387.675 370.604C389.902 376.966 391.914 383.384 392.797 390.144C393.514 394.601 394.654 398.979 396.201 403.219C396.853 405.096 397.537 407.06 395.882 408.842Z" fill="#073042"/>
<path d="M12.5459 408.842C13.7229 399.441 14.3115 389.946 17.1905 380.831C17.5458 381.016 17.8471 381.289 18.0646 381.625C18.2822 381.961 18.4085 382.348 18.4311 382.748C18.9879 386.923 21.7794 389.476 24.8652 391.862C34.3134 399.171 44.7955 402.018 56.8046 400.539C63.3454 399.676 69.8283 398.42 76.2179 396.777C83.8608 394.884 89.4757 389.866 94.3668 383.965C96.8163 381.014 99.1386 377.952 101.588 375.018C103.393 372.87 105.382 370.914 108.515 370.985C118.902 370.492 126.123 364.623 132.327 356.996C133.066 356.089 133.384 354.841 134.585 354.324C136.025 353.958 136.279 353.02 136.176 351.62C135.619 342.116 134.665 332.652 133.79 323.172C133.305 317.875 133.472 312.594 133.512 307.305C133.456 306.099 133.86 304.917 134.641 303.997C137.401 303.528 137.027 305.858 137.409 307.29C139.445 315.37 141.584 323.426 143.652 331.499C145.64 339.253 149.219 346.339 152.535 353.537C156.886 362.873 164.751 366.222 174.398 367.55C191.454 369.906 208.769 369.637 225.743 366.754C226.658 366.603 227.564 366.405 228.463 366.198C236.742 364.313 238.905 361.585 239.255 353.035C239.343 350.825 238.46 348.128 241.315 346.768C243.701 348.622 243.367 351.453 243.701 353.926C244.165 357.35 244.896 360.733 245.888 364.042C245.093 362.022 244.377 360.066 246.015 357.982C249.992 358.778 253.595 360.615 257.492 361.625C263.504 363.215 269.421 365.013 275.529 366.301C277.454 366.301 279.084 367.24 280.746 368.043C285.797 371.009 287.483 376.672 290.886 380.959C296.394 387.862 301.441 395.121 305.997 402.686C307.134 404.579 308.717 406.369 307.588 408.85L12.5459 408.842Z" fill="#6DD58C"/>
<path d="M307.604 408.842C304.208 400.412 298.243 393.604 293.288 386.184C290.107 381.476 286.019 377.435 283.697 372.123C283.069 370.699 281.581 370.166 280.619 369.093C282.011 367.359 283.943 367.645 285.741 367.884C289.272 368.353 292.843 368.56 296.31 369.474C298.489 370.068 300.78 370.12 302.983 369.626C317.704 366.341 330.819 359.994 342.096 349.743C345.921 346.267 349.691 342.8 352.721 338.609C353.413 337.654 354.137 336.676 355.409 336.398C365.907 351.914 372.986 369.005 378.64 386.748C380.955 394.033 383.531 401.231 384.788 408.802L307.604 408.842Z" fill="#6DD58C"/>
<path d="M241.649 346.848C240.059 348.852 240.917 351.19 240.806 353.369C240.321 362.611 237.514 366.094 229.6 367.518C212.374 370.699 195.124 372.035 177.659 369.315C173.762 368.711 169.881 367.932 165.976 367.335C160.711 366.54 156.981 363.255 154.142 358.833C147.628 348.725 143.54 337.63 140.622 326.035C138.777 318.639 136.86 311.266 134.983 303.878C133.05 302.462 132.899 300.291 132.74 298.215C131.849 286.564 130.768 274.945 128.223 263.516C128.326 261.631 127.634 259.913 127.006 258.188C126.842 257.83 126.722 257.453 126.648 257.066C124.69 253.315 122.151 249.898 119.125 246.942C109.653 238.098 99.3772 241.136 89.0542 244.787C87.3542 245.526 85.7114 246.39 84.1392 247.371C77.153 252.92 70.8166 259.24 65.2507 266.212C64.1055 267.644 63.0716 269.179 61.4174 270.109C52.669 277.871 41.7574 281.243 30.9333 284.695C25.5253 286.413 20.0615 287.964 14.6455 289.697C12.9992 290.222 11.2893 290.994 10.2793 288.711C10.2793 276.933 12.3948 265.401 14.0808 253.797C16.5224 237.024 19.3935 220.395 24.9129 204.298C26.3763 203.097 24.8095 200.902 26.3047 199.979C25.4139 202.246 23.2746 203.781 21.3181 205.348C19.8389 206.525 18.5346 205.96 18.5027 203.813C18.361 202.896 18.4597 201.959 18.789 201.093C20.5705 193.442 24.4039 186.65 27.943 179.763C32.9614 170.076 37.6537 160.19 43.7377 151.108C42.9424 142.948 48.8754 140.562 54.7607 138.049C56.2876 137.397 58.2839 137.85 59.3337 136.1C59.62 133.643 58.7292 131.392 58.1089 129.102C57.3922 126.948 56.8913 124.729 56.6137 122.477C56.2876 117.602 58.8008 115.947 63.2465 118.023C64.2645 118.5 65.2587 119.741 66.4675 118.818C67.6764 117.896 67.2072 116.433 67.0561 115.104C66.5985 111.685 66.6172 108.219 67.1117 104.805C67.7639 102.801 67.907 100.678 68.6387 98.6893C70.285 94.3071 71.9949 93.7107 75.9873 96.192C79.1685 99.4607 80.5205 103.525 81.0773 108.686C82.9701 105.258 82.8031 102.228 82.485 99.3176C80.4887 81.3516 79.1447 63.2982 74.9693 45.6266C73.9991 41.5308 72.9811 37.4429 72.0347 33.1801C71.637 34.2776 71.5734 35.3751 70.5554 35.9557C68.8534 35.7569 68.5353 34.3651 68.4796 33.1165C68.3047 29.5137 67.3265 25.9587 67.7321 22.3321C72.2414 14.0451 72.2653 13.9894 80.8228 18.0216C92.0843 23.3342 101.739 30.9055 110.416 39.7095C118.123 47.5274 125.527 55.6156 133.194 63.4812C134.872 65.2149 135.261 66.4795 132.756 67.6565C131.961 68.0383 130.903 68.5075 131.428 69.6925C131.881 70.7184 133.019 70.5753 133.885 70.4878C136.128 70.3526 138.363 70.1299 140.606 69.947C144.097 69.1517 144.216 71.8557 144.391 73.9792C144.713 78.5985 144.75 83.2333 144.503 87.8572C144.049 98.3314 147.247 107.358 154.555 114.898C159.789 119.773 165.69 120.528 172.195 117.8C179.234 114.397 182.105 107.875 184.443 101.099C186.834 94.5221 187.915 87.5406 187.624 80.5484C187.361 75.9467 187.441 71.3318 187.863 66.7419C188.022 65.0718 188.173 63.5607 189.907 62.837C193.549 61.9144 197.279 62.0417 200.985 61.9224C203.061 61.3418 205.169 61.6202 207.268 61.7315C209.344 63.4494 208.278 65.6126 208.016 67.6088C206.324 80.6871 207.991 93.9808 212.859 106.237C214.45 108.965 215.961 111.74 218.124 114.15C223.071 119.646 228.765 121.864 235.891 118.763C240.21 117.244 243.359 114.166 245.721 110.507C253.207 99.045 256.978 85.5542 256.521 71.8716C256.474 70.1458 256.219 68.3802 258.112 67.3702C258.395 67.2366 258.707 67.1782 259.019 67.2005C259.331 67.2227 259.632 67.325 259.893 67.4974C266.494 70.3924 271.823 68.9449 276.953 63.7436C290.354 50.3447 305.741 39.0916 322.571 30.3806C329.125 26.929 335.455 23.0479 342.359 20.2723C348.458 17.8228 351.163 18.4113 355.083 23.6762C358.503 28.289 360.571 33.5936 362.321 39.0256C361.255 40.5366 359.545 40.99 357.962 41.6262C355.353 42.6221 353.054 44.2903 351.298 46.4617C350.16 47.5433 348.443 47.9012 347.608 49.3725C345.746 52.7127 343.384 55.7349 341.881 59.3058C340.529 61.819 339.074 64.2685 337.817 66.8373C333.733 74.8465 330.431 83.2306 327.956 91.8735C325.451 100.943 325.059 110.465 326.81 119.709C327.431 123.248 327.924 123.36 330.556 121.013C330.954 120.664 330.445 121.093 330.842 120.735C339.193 113.172 345.389 114.961 348.339 125.769C349.063 128.45 349.691 131.162 350.16 133.889C350.606 136.458 351.616 137.317 354.177 135.989C357.628 134.2 361.032 134.096 363.975 137.182C364.607 138.083 365.033 139.112 365.224 140.196C365.589 145.485 364.611 150.877 366.369 156.102C369.622 161.821 374.322 166.553 377.05 172.676C382.14 184.169 387.778 195.414 392.312 207.153C392.646 208.02 393.019 208.871 393.274 209.761C394.395 213.635 393.56 214.629 389.488 213.961C385.019 213.229 381.4 210.931 378.227 207.717C375.841 205.276 373.829 202.357 370.751 200.671C370.115 200.321 369.216 199.16 368.365 200.305C367.848 201.005 368.468 201.641 368.882 202.365C377.368 217.078 385.472 232.125 388.645 248.914C391.826 265.56 391.135 282.134 381.774 297.308C379.658 300.736 377.376 300.355 374.505 299.05C372.19 298.573 369.82 298.398 367.514 297.833C365.451 296.726 363.134 296.178 360.794 296.243C359.889 296.355 358.97 296.232 358.126 295.887C357.282 295.541 356.541 294.985 355.974 294.27C355.72 294.045 355.479 293.806 355.25 293.555C354.805 293.197 354.328 293.006 354.296 293.833C354.394 294.698 354.617 295.544 354.956 296.346C356.547 301.913 358.511 307.433 358.845 313.342C358.972 315.545 358.797 317.318 356.793 318.448C354.789 319.577 353.612 318.122 352.228 317.064C350.001 315.378 348.785 313.008 347.862 310.542C340.704 291.606 328.982 275.294 317.919 258.665C310.308 247.212 298.664 240.309 286.449 234.487C285.13 233.824 283.615 233.663 282.186 234.034C275.227 235.895 269.039 238.941 264.92 245.208C256.084 258.72 251.185 273.585 249.467 289.491C248.759 296.076 248.179 302.669 247.423 309.254C246.015 316.786 246.063 324.476 244.838 332.031C244.48 334.25 244.202 336.477 243.725 338.672C242.5 341.106 243.224 343.937 242.134 346.403L241.649 346.848Z" fill="#6DD58C"/>
<path d="M28.4361 344.502C32.3252 332.763 39.2523 322.591 45.2012 311.894C46.1396 306.081 49.7105 301.444 52.176 296.314C60.2557 280.984 70.3561 266.807 82.2067 254.163C83.4839 252.824 84.8524 251.575 86.3025 250.425C91.8696 246.194 98.5342 245.176 105.103 243.912C107.553 243.443 109.724 244.612 111.736 245.932C116.527 248.999 120.488 253.2 123.268 258.164C124.859 261.186 126.585 264.16 126.704 267.707C126.839 281.657 124.922 295.408 122.958 309.174C120.938 323.339 118.027 337.336 115.363 351.381C113.852 359.382 109.963 365.927 104.785 371.924C103.036 373.721 100.737 373.642 98.4945 373.761C85.9207 374.453 74.1502 370.866 62.4274 367.025C51.0069 363.279 40.7395 357.314 30.8061 350.665C28.3089 349.019 27.1796 347.341 28.4361 344.502Z" fill="#5AB67E"/>
<path d="M355.378 336.414C354.36 340.175 351.52 342.776 349.015 345.337C340.211 354.252 330.286 361.712 318.547 366.365C313.489 368.321 308.299 369.915 303.015 371.137C297.702 372.409 292.612 369.777 287.339 369.474C285.105 369.347 282.878 369.013 280.627 369.085L275.855 367.422C272.746 365.784 272.674 362.587 272.427 359.827C271.632 349.321 268.268 339.404 265.858 329.264C262.78 316.269 262.677 303.13 263.663 289.856C264.458 279.43 266.55 269.179 267.52 258.84C267.672 257.249 268.403 255.802 268.729 254.267C270.681 249.343 273.695 244.911 277.557 241.287C280.977 237.955 285.431 238.106 289.439 240.102C297.44 244.079 304.884 249.026 310.3 256.239C322.294 272.234 332.935 289.201 342.112 306.963C342.907 308.475 343.846 309.978 343.369 311.831C347.117 319.434 350.866 327.037 354.614 334.64C354.877 335.229 355.115 335.841 355.378 336.414Z" fill="#5AB67E"/>
<path d="M28.4359 344.502C27.6883 347.683 30.1458 348.256 32.1182 349.584C39.7611 354.706 47.4437 359.796 56.1284 363.064C69.9906 368.273 83.9641 372.99 99.0748 372.353C100.793 372.282 102.526 372.433 104.006 371.304C105.747 370.715 107.887 368.186 108.682 372.25C105.716 371.916 104.149 373.88 102.566 375.908C97.5399 382.358 92.7363 388.983 86.0557 393.97C83.6732 395.635 81.0081 396.853 78.1901 397.565C64.4552 401.541 50.4658 405.088 36.3572 400.006C29.613 397.58 23.4096 393.763 18.6537 387.83C16.6893 385.38 17.7948 383.114 17.1824 380.831C20.0773 368.448 23.0597 356.113 28.4359 344.502Z" fill="#6DD58C"/>
<path d="M207.125 62.3041L200.993 62.0337C209.073 60.634 217.194 61.9462 226.443 61.2861C223.484 62.5029 221.417 61.4929 218.744 62.9324C232.797 62.2803 245.467 66.3284 258.51 67.0044C259.01 67.1264 259.487 67.3335 259.917 67.6168L258.478 67.8156C254.851 68.929 253.531 71.3388 253.181 75.1642C252.441 81.8506 251.318 88.489 249.817 95.0468C247.765 104.781 242.325 112.647 236.018 120.035C227.715 123.503 220.351 120.878 214.712 112.361C213.702 110.834 212.947 109.132 212.08 107.517C212.756 94.6969 207.658 82.4412 208.389 69.605C208.461 68.3007 208.135 66.9726 208.389 65.6285C208.644 64.2844 208.62 63.0119 207.125 62.3041Z" fill="#194E4F"/>
<path d="M61.0038 137.588C56.8682 139.321 52.2555 139.6 48.5732 142.892C46.4179 144.825 44.2865 146.177 44.716 149.454C44.7796 149.955 44.0718 150.551 43.7218 151.1C43.0856 146.089 40.9701 150.782 39.6101 150.472C36.7311 145.572 34.6236 140.801 35.3155 134.565C36.3053 125.899 37.8514 117.305 39.9441 108.837C40.6997 105.744 40.6679 102.539 41.2246 99.405C43.8349 84.8411 48.3178 70.6759 54.5618 57.2619C57.5918 50.6401 62.333 44.9462 68.2967 40.7673C68.6519 40.4941 69.0609 40.299 69.4967 40.1949C69.9325 40.0907 70.3855 40.0798 70.8258 40.1629C72.5755 40.9582 72.7266 42.5488 72.9811 44.1394C74.9137 56.1485 76.218 68.2609 77.5382 80.3257C78.1346 85.7576 77.4109 86.4098 72.0426 88.581C70.4187 89.182 68.9452 90.1293 67.7242 91.3571C66.5033 92.5849 65.5642 94.0638 64.9724 95.691C64.0803 98.0492 63.5754 100.536 63.4772 103.055C63.3579 107.732 61.6559 111.51 57.8464 114.333C54.3948 116.894 53.5438 120.242 55.3094 124.155C57.2977 128.609 57.3295 133.866 61.0038 137.588Z" fill="#337762"/>
<path d="M172.362 119.2C165.594 122.318 159.454 121.586 154.07 116.25C154.237 113.41 153.386 110.873 152.201 108.297C148.113 99.4448 147.429 90.0046 147.708 80.4609C147.787 77.8125 147.827 75.1721 147.771 72.5079C147.771 71.0684 147.461 69.5812 148.567 68.3405C161.737 65.8035 174.867 62.9085 188.38 62.8847C186.193 74.8779 185.31 87.1097 181.834 98.8722C179.631 106.109 176.76 113.013 172.362 119.2Z" fill="#194E4F"/>
<path d="M343.345 311.831C334.084 294.366 323.779 277.475 312.487 261.249C306.681 252.923 298.967 246.783 290.266 241.908C284.118 238.48 280.007 239.522 275.879 245.129C273.851 247.888 272.022 250.783 270.097 253.622C263.544 268.733 258.207 284.194 254.859 300.331C253.626 306.28 252.823 312.356 250.35 318.002C249.626 318.798 249.236 320.317 247.701 319.752C247.073 319.536 246.545 319.099 246.214 318.523C245.884 317.947 245.773 317.27 245.904 316.618C246.222 313.906 245.562 311.155 246.286 308.467C247.55 287.9 250.119 267.699 260.553 249.28C264.944 241.526 270.694 235.951 279.283 233.239C282.671 232.165 285.47 232.237 288.699 233.947C300.494 240.19 311.763 247.093 319.47 258.362C325.585 267.318 331.145 276.654 337.093 285.705C342.796 294.398 346.072 304.259 350.876 313.382C352.053 315.616 353.119 319.06 356.443 317.851C359.927 316.571 357.835 313.262 357.533 310.86C356.897 305.755 354.097 301.182 353.699 295.996C353.429 294.095 352.252 291.511 356.149 292.72C357.016 295.495 358.638 296.696 361.716 296.012C363.863 295.543 366.09 296.322 368.277 296.577C370.17 297.841 372.811 297.253 374.489 299.066C371.769 300.195 368.866 299.185 366.066 299.861C363.076 300.561 361.151 301.611 360.802 305.126C360.452 308.642 359.211 311.942 359.211 315.577C359.211 319.211 356.451 319.863 353.079 318.758C348.991 317.326 347.051 313.413 343.345 311.831Z" fill="#073042"/>
<path d="M69.0125 41.4035C67.9309 43.702 65.5768 44.6245 63.8112 46.1753C57.0671 52.1004 54.6016 60.4431 51.6908 68.3484C50.5456 71.5296 48.5573 74.1701 47.7938 77.6614C46.0521 85.7179 43.4117 93.5675 42.3778 101.815C40.8667 113.808 36.922 125.388 36.4289 137.548C36.3255 140.077 36.079 142.662 38.3058 144.515C40.3259 146.201 39.2443 148.491 39.5783 150.448C36.9538 154.424 29.8518 160.898 28.0623 159.991C26.2729 159.085 27.6885 154.782 27.4499 153.295C25.064 138.542 26.4717 123.98 29.9551 109.609C32.858 97.6315 35.8881 85.6463 39.6897 73.9394C43.8809 61.0475 50.8239 49.3884 57.7908 37.7849C58.5225 36.5681 59.3814 35.399 60.1767 34.2458C63.0477 34.3174 65.2826 36.0591 67.6685 37.2838C69.1875 38.0155 69.6806 39.6618 69.0125 41.4035Z" fill="#6DD58C"/>
<path d="M350.558 46.1753C352.745 40.9502 357.716 40.2662 362.305 39.0176C367.228 55.886 373.439 72.5874 374.521 90.2034C375.729 109.418 378.179 128.632 376.755 147.958C373.574 147.282 371.069 145.143 367.8 144.427C365.08 143.823 366.552 140.204 365.414 138.192C365.334 137.322 365.368 136.445 365.518 135.583C368.699 127.543 367.251 119.24 365.931 111.271C364.102 100.264 363.331 89.2013 362.655 78.1307C362.257 71.5853 360.786 65.3183 359.473 58.9877C359.169 57.2146 358.483 55.5288 357.463 54.0471C356.442 52.5654 355.112 51.3232 353.564 50.4064C352.053 49.5077 350.264 48.5135 350.558 46.1753Z" fill="#6DD58C"/>
<path d="M10.335 288.695C13.4366 290.238 15.8146 287.693 18.3516 286.93C29.1598 283.677 40.1509 280.885 50.3706 275.851C54.2835 273.919 57.6794 271.302 61.298 268.972C62.2604 270.873 60.9163 272.201 60.0812 273.6C57.3454 278.181 54.196 282.532 52.6769 287.749C52.2802 288.726 52.0387 289.759 51.9612 290.811C52.2634 299.766 47.8097 306.478 41.7574 312.435L41.153 313.35C38.0354 317.326 37.3673 317.493 34.9019 314.829C33.6056 310.304 35.8881 306.582 37.6457 302.756C40.2543 297.086 39.7135 296.131 33.4465 296.147C28.1577 296.147 22.869 296.529 17.5404 296.497C11.1303 296.489 10.0964 295.304 10.335 288.695Z" fill="#6DD58C"/>
<path d="M148.511 68.3405C149.831 72.1977 149.457 76.1981 149.267 80.1269C148.742 90.7919 149.831 101.123 155.009 110.667C156.273 113.005 156.536 114.754 154.054 116.234C146.403 110.038 143.588 101.521 142.976 92.1757C142.578 86.1235 142.896 80.0235 142.976 73.9394C142.976 72.1182 142.92 70.4401 140.653 70.0186C143.103 68.8336 145.807 68.6029 148.511 68.3405Z" fill="#194E4F"/>
<path d="M172.362 119.2C172.489 114.19 176.005 110.539 177.667 106.125C181.217 96.8176 183.47 87.066 184.363 77.1445C184.814 72.1717 186.161 67.3217 188.34 62.829L189.93 62.8688C188.34 68.7302 189.215 74.7109 189.326 80.612C189.5 91.0989 186.928 101.449 181.866 110.635C179.735 114.691 176.736 117.705 172.362 119.2Z" fill="#194E4F"/>
<path d="M366.719 138.447C367.434 139.512 367.22 140.729 367.275 141.898C367.331 143.067 367.848 144.244 369.112 143.855C373.161 142.622 374.719 145.66 376.755 147.974C377.018 152.619 376.167 157.16 375.626 162.226C372.055 160.063 370.258 156.548 367.283 154.329C364.897 153.112 364.706 150.893 364.969 148.674C365.178 146.754 365.281 144.824 365.279 142.892C365.462 141.31 364.818 139.465 366.719 138.447Z" fill="#6DD58C"/>
<path d="M69.0125 41.4035C68.0343 39.2085 67.1436 37.0691 64.026 37.3157C61.998 37.4747 61.8389 34.8184 60.1926 34.214C62.4039 30.0874 64.9242 26.134 67.7321 22.3878C70.5236 26.5075 69.2511 31.3906 70.2691 35.8443C72.2097 37.2679 72.0824 38.8824 70.6906 40.6162L69.0125 41.4035Z" fill="#6DD58C"/>
<path d="M51.5157 287.168C53.329 288.608 52.7882 290.684 52.9791 292.568C53.1223 293.968 52.5019 295.416 53.2575 296.768L45.209 311.926C39.7373 319.004 34.1702 315.354 33.2794 316.149C32.6034 316.778 50.7443 288.027 51.5157 287.168Z" fill="#073042"/>
<path d="M18.8128 201.109C19.29 202.389 18.1686 204.473 19.9978 204.934C21.827 205.395 22.8132 203.574 23.6641 202.333C25.1911 200.098 26.4 197.657 28.3087 195.533C28.2863 198.761 27.0906 201.871 24.9446 204.282C23.3937 204.282 23.354 204.282 22.7734 204.767C21.5009 205.856 20.2443 206.97 18.5106 208.481C17.8982 205.562 17.8266 203.335 18.8128 201.109Z" fill="#6DD58C"/>
<path d="M366.416 143.218C366.416 146.94 365.168 150.766 367.283 154.353L366.321 156.142C364.11 154.225 364.046 151.641 364.07 148.984C364.07 146.002 364.07 143.02 364.015 140.037C365.605 139.767 365.518 140.96 365.605 141.946C365.669 142.518 365.207 143.369 366.416 143.218Z" fill="#073042"/>
<path d="M34.9019 314.853C37.6457 317.143 39.2363 314.59 41.1529 313.374C41.1529 314.885 40.0793 315.76 39.1329 316.626C36.8424 318.766 35.7846 318.305 34.9019 314.853Z" fill="#073042"/>
<path d="M249.586 317.398C252.497 305.548 254.644 293.539 258.12 281.808C261.047 271.93 264.22 262.212 270.049 253.615C267.878 264.979 266.582 276.456 265.357 287.956C264.077 299.981 263.941 311.982 266.28 323.848C268.061 332.89 270.646 341.774 272.642 350.777C273.883 356.28 273.437 362.102 275.712 367.43C268.117 366.587 260.959 363.955 253.634 361.991C250.867 361.251 247.924 360.917 246.405 357.966C245.021 357.06 244.814 355.58 244.727 354.157C244.218 343.707 245.522 333.407 247.161 323.14C247.566 321.024 249.435 319.561 249.586 317.398Z" fill="#5AB67E"/>
<path d="M108.698 372.25C107.529 369.999 105.517 371.781 104.022 371.304C113.621 360.09 114.766 345.965 117.542 332.334C120.143 319.418 122.083 306.391 123.562 293.364C124.541 284.767 126.076 276.13 125.543 267.389C128.048 267.556 128.175 269.719 128.652 271.366C131.038 279.502 131.921 287.868 132.716 296.275C134.076 310.63 133.17 325.017 133.512 339.38C133.712 342.921 134.131 346.445 134.768 349.934C135.015 351.596 135.635 353.322 134.307 354.849C134.3 355.767 134.106 356.674 133.735 357.513C133.364 358.353 132.825 359.108 132.152 359.732C127.499 364.504 122.457 368.695 116.063 371.009C113.726 371.951 111.214 372.374 108.698 372.25Z" fill="#5AB67E"/>
<path d="M134.307 354.889C132.798 349.809 132.045 344.536 132.072 339.237C131.786 324.42 132.207 309.58 131.054 294.795C130.33 285.466 128.867 276.217 125.487 267.389L122.306 258.498C123.499 255.666 125.248 254.839 127.833 256.947C127.919 257 127.983 257.082 128.014 257.178C128.045 257.275 128.04 257.379 128 257.472C127.793 259.373 127.3 261.353 129.527 262.522C132.406 271.087 132.287 280.098 133.448 288.91C134.108 293.889 134.482 298.899 134.983 303.894C134.945 316.266 135.601 328.632 136.947 340.931C137.361 345.122 137.647 349.329 137.941 353.529C138.021 354.714 138.045 356.177 136.907 356.71C135.373 357.457 135.269 355.413 134.307 354.889Z" fill="#073042"/>
<path d="M249.586 317.398C248.711 324.46 247.916 331.538 246.946 338.593C246.17 345.023 246.01 351.513 246.469 357.974C246.469 360.371 246.469 362.757 246.469 365.132C242.007 359.565 242.174 353.115 241.641 346.84C242.635 344.247 241.355 341.448 242.357 338.887L246.286 308.498C246.787 311.425 245.848 314.431 246.779 317.326C247.622 319.927 248.592 319.004 249.586 317.398Z" fill="#073042"/>
<path d="M251.885 187.803C255.241 198.142 256.028 208.743 255.917 219.48C255.71 239.864 248.918 258.219 237.331 274.618C229.648 285.49 218.792 291.471 204.85 291.28C191.092 291.089 177.81 288.831 166.04 281.736C150.436 272.288 137.592 259.77 135.349 240.659C133.758 226.916 134.943 212.982 137.806 199.224C139.969 188.821 144.169 179.444 149.139 170.235C155.367 158.735 165.96 153.088 177.46 148.595C182.236 146.649 187.251 145.354 192.372 144.745C199.108 144.038 205.288 146.034 211.133 148.873C219.548 152.953 228.105 156.882 235.382 162.934C239.479 166.3 242.894 170.42 245.443 175.07C247.033 177.719 244.337 178.426 243.295 179.882C241.172 181.775 238.452 182.634 236.042 184.033C234.817 184.407 233.656 185.059 232.312 184.924C228.097 184.701 223.826 185.544 219.667 184.312C216.154 183.602 212.821 182.186 209.871 180.151C206.921 178.115 204.415 175.502 202.504 172.47C201.049 170.259 200.261 170.155 198.663 172.47C193.032 180.526 184.729 184.041 175.345 185.035C170.064 185.6 165.721 182.65 161.546 179.747C160.266 178.864 159.24 177.599 157.379 176.884C157.092 180.24 158.914 182.403 160.942 184.041C164.727 187.119 165.594 190.69 165.316 195.533C164.751 205.443 162.222 215.138 162.66 225.135C163.097 235.132 165.841 244.397 171.782 252.565C174.732 256.629 178.987 259.094 183.226 261.536C187.847 264.097 192.523 266.53 198.003 266.522C201.502 266.522 204.811 265.886 207.451 263.341C211.428 261.401 215.094 259.062 217.973 255.643C228.646 246.576 235.366 235.76 234.627 221.047C234.245 213.539 234.396 206.016 233.211 198.564C233.03 197.657 232.747 196.774 232.368 195.931C230.897 191.39 231.732 189.569 236.281 188.248C239.574 187.245 242.657 185.649 245.379 183.54C249.459 181.433 249.944 181.751 251.885 187.803Z" fill="#5AB67E"/>
<path d="M97.1979 193.259C75.3907 193.744 60.1606 171.977 64.2564 154.957C68.2329 138.335 82.4609 120.489 102.606 116.655C115.705 114.166 127.563 116.003 136.661 125.618C149.386 139.043 152.44 157.55 137.87 173.337C127.3 184.797 110.344 193.259 97.1979 193.259Z" fill="#073042"/>
<path d="M279.553 114.651C306.983 112.933 329.148 141.882 325.275 166.067C321.919 187 303.007 198.373 282.695 192.185C262.677 186.101 243.359 157.47 253.881 132.251C254.252 131.402 254.552 130.525 254.78 129.627C257.022 120.083 262.653 115.383 272.801 114.667C275.036 114.524 277.303 114.651 279.553 114.651Z" fill="#073042"/>
<path d="M350.558 46.1754C354.797 49.5952 359.998 52.156 361.096 58.3356C362.018 63.513 363.681 68.6745 363.927 73.836C364.436 84.3738 365.033 94.9116 366.615 105.306C367.41 110.77 367.912 116.258 368.595 121.721C369.224 126.708 369.248 131.75 366.353 136.259C365.924 136.358 365.479 136.367 365.046 136.285C364.613 136.202 364.203 136.031 363.84 135.782C362.785 134.988 361.653 134.303 360.46 133.738C356.745 132.339 354.892 129.483 354.01 125.785C353.249 122.697 352.012 119.745 350.343 117.037C348.331 113.728 345.571 111.844 341.595 112.074C339.209 112.209 336.823 112.186 334.493 112.52C330.978 113.021 329.618 111.86 329.307 108.312C329.142 104.877 329.45 101.436 330.222 98.0849C331.964 88.8832 333.316 79.5861 336.227 70.6309C336.799 68.8654 337.666 67.235 338.342 65.5171C339.344 63.8482 340.246 62.1221 341.046 60.3477C342.875 56.4268 345.333 52.8082 346.613 48.6328C346.915 46.2469 348.999 46.6207 350.558 46.1754Z" fill="#337762"/>
<path d="M70.6906 40.5605L70.269 35.7887C70.6269 33.2755 69.6567 30.5874 71.1518 27.8356C72.647 29.1718 72.9015 30.7146 73.2753 32.186C77.8881 50.3189 81.3715 68.6347 82.5963 87.3482C82.97 93.0267 84.2584 98.6257 83.9085 104.368C83.9221 106.362 83.4353 108.328 82.4929 110.086C81.9998 110.881 81.3953 111.78 80.3535 111.581C79.3116 111.382 79.0651 110.261 79.2083 109.338C79.9479 104.567 77.6813 100.876 75.2317 97.1862C74.6034 95.7944 73.7763 94.4583 72.0505 94.84C70.6587 95.1502 70.1497 96.5022 69.601 97.7429C68.5512 100.089 68.8534 102.65 68.2808 105.06C68.1696 109.016 68.3237 112.974 68.7421 116.91C68.9488 118.628 68.8693 120.528 67.0162 121.387C65.3859 122.143 64.4395 120.632 63.2942 119.797C62.0058 118.842 60.9083 116.846 58.936 118.158C57.242 119.304 57.8941 121.276 58.0691 122.93C58.6019 127.885 61.4809 132.386 61.0037 137.556C58.3474 138.073 57.5203 136.244 56.8761 134.279C55.5559 130.263 54.2914 126.223 52.995 122.198C51.651 118.007 53.8619 115.096 56.9716 113.14C60.4232 110.969 61.7434 108.185 61.7434 104.288C61.7195 100.696 62.4851 97.1417 63.9861 93.8777C65.7358 90.267 68.408 87.2369 72.5675 87.054C76.3452 86.887 76.544 85.0975 76.1941 82.2344C74.8977 70.2572 73.6491 58.2799 71.7006 46.3901C71.4143 44.4734 71.7324 42.4056 70.6906 40.5605Z" fill="#073042"/>
<path d="M339.495 65.3342C335.185 77.733 332.727 90.5374 331.073 103.509C330.89 104.948 330.954 106.412 330.779 107.851C330.333 111.438 331.574 112.019 335.018 111.032C344.911 108.312 349.914 110.953 353.827 120.369C354.337 121.444 354.745 122.565 355.044 123.717C355.958 128.163 357.342 132.092 362.663 132.991C363.514 133.134 364.19 134.335 364.953 135.043C365.931 137.118 366.432 138.852 363.005 137.739C359.823 135.226 356.801 135.249 353.731 137.945C351.345 140.053 349.755 139.457 349.095 136.307C348.172 132.052 347.385 127.742 346.136 123.582C344.06 116.663 339.559 115.367 333.865 119.876C332.357 121.158 330.943 122.545 329.634 124.028C328.934 124.767 328.536 126.04 327.208 125.563C326.277 125.229 325.951 124.29 325.816 123.32C324.838 116.385 323.247 109.466 324.313 102.427C326.262 89.5035 330.198 77.232 337.038 65.9943C338.684 63.9663 338.851 63.9186 339.495 65.3342Z" fill="#073042"/>
<path d="M53.2813 296.76C51.6907 297.205 51.5634 296.235 51.5714 295.042C51.5714 292.417 51.5714 289.793 51.5714 287.168C52.7882 281.808 56.2319 277.625 58.9438 273.02L61.3298 269.043C66.7776 262.426 72.2493 255.818 78.7469 250.179C80.2341 248.89 81.618 247.451 83.5187 246.703C85.6422 247.658 87.1692 248.994 86.6999 251.626C74.2519 263.962 63.6835 278.059 55.3332 293.467C54.7128 294.597 53.9493 295.662 53.2813 296.76Z" fill="#073042"/>
<path d="M236.026 120.051C236.71 114.587 241.22 111.303 243.757 106.937C245.986 103.084 247.571 98.8932 248.449 94.5298C249.92 87.2051 251.543 79.8565 251.964 72.3329C252.187 68.2927 253.3 67.5611 258.486 67.7997C257.285 72.2852 258.271 76.89 257.635 81.4391C255.829 94.4026 251.901 106.396 242.826 116.218C241.058 118.227 238.661 119.579 236.026 120.051Z" fill="#194E4F"/>
<path d="M86.6046 251.586C85.1412 250.211 83.7971 248.763 83.4233 246.664C91.0583 240.595 100.125 239.323 109.318 240.023C114.886 240.452 119.164 244.532 122.711 248.676C124.779 251.062 127.324 253.447 127.825 256.939C125.686 256.406 124.103 257.83 122.298 258.49C118.997 254.203 115.498 250.131 111.012 246.99C109.921 246.142 108.641 245.569 107.282 245.321C105.922 245.074 104.523 245.157 103.203 245.566C97.532 247.188 91.6547 248.222 86.6046 251.586Z" fill="#073042"/>
<path d="M207.125 62.3041C208.668 62.0655 209.869 62.4632 209.742 64.2685C209.487 67.7281 210.823 71.0922 210.537 74.4723C209.686 83.4115 212.127 91.8815 214.163 100.336C214.959 103.628 212.573 105.107 212.127 107.493C208.215 101.664 207.896 94.8162 206.68 88.231C205.033 79.5781 205.693 70.9332 207.125 62.3041Z" fill="#194E4F"/>
<path d="M242.564 179.198C243.256 177.607 245.697 177.297 245.475 175.086C249.3 178.474 251.749 182.562 251.909 187.811C251.354 187.098 250.877 186.327 250.485 185.513C249.562 182.968 248.147 182.777 246.214 184.423C244.95 182.713 244.361 180.534 242.564 179.198Z" fill="#5AB67E"/>
<path d="M368.222 296.569C365.526 296.911 362.814 296.736 360.086 297.221C357 297.762 356.348 295.201 356.109 292.712C357.628 294.787 359.648 295.487 362.209 295.304C364.301 295.153 366.424 295.304 368.222 296.569Z" fill="#073042"/>
<path d="M346.613 48.6726C346.43 53.1979 343.838 56.7529 341.841 60.5624C341.046 60.2443 340.998 59.5365 340.927 58.8445C342.176 55.0828 344.832 52.1242 346.613 48.6726Z" fill="#073042"/>
<path d="M68.2728 105.099C67.6923 102.3 68.3921 99.6118 69.2908 97.035C69.776 95.6592 70.452 93.8538 72.4243 94.0447C72.8204 94.0639 73.2087 94.1618 73.5665 94.3329C73.9242 94.5039 74.2443 94.7446 74.5079 95.0408C74.7716 95.337 74.9735 95.6829 75.1019 96.0581C75.2302 96.4333 75.2825 96.8303 75.2556 97.2259C71.8597 94.9593 71.0166 95.2058 69.8078 99.0472C69.1874 101.004 68.7818 103.079 68.2728 105.099Z" fill="#073042"/>
<path d="M363.005 137.802C365.072 137.93 365.2 136.649 364.953 135.106L366.361 136.259L366.719 138.447L366.416 143.218L365.215 144.745C364.42 143.21 365.534 141.286 364.023 140.061L363.005 137.802Z" fill="#073042"/>
<path d="M129.535 262.514C128.231 262.291 126.489 263.158 125.765 261.472C124.859 259.365 127.213 258.792 128.008 257.496C129.079 258.943 129.619 260.715 129.535 262.514Z" fill="#073042"/>
<path d="M340.951 58.8525C341.674 59.2024 341.746 59.9023 341.865 60.5704C341.118 62.161 340.776 63.9981 339.479 65.3422C338.326 64.4435 337.889 65.9307 336.998 66.0579C337.738 63.3301 339.471 61.1509 340.951 58.8525Z" fill="#073042"/>
<path d="M356.133 292.72C353.652 292.568 353.835 294.406 353.684 295.996C353.364 295.31 353.123 294.59 352.968 293.849C352.856 292.767 352.117 291.24 353.421 290.715C354.884 290.119 355.624 291.487 356.133 292.72Z" fill="#073042"/>
<path d="M242.357 338.847C242.428 341.535 242.786 344.255 241.641 346.8C241.649 344.152 240.917 341.408 242.357 338.847Z" fill="#073042"/>
<path d="M182.765 262.498C167.916 256 163.248 242.949 161.387 228.435C160.321 220.116 161.96 211.805 163.113 203.534C163.677 199.478 163.821 195.358 164.242 191.287C164.473 189.091 163.328 187.851 161.641 186.801C158.564 184.892 156.949 181.862 155.605 178.649C155.056 177.329 155.009 176.041 156.249 175.046C157.49 174.052 158.389 175.309 159.351 175.842C159.563 176.001 159.758 176.182 159.932 176.383C172.609 187.358 189.278 184.868 198.21 170.672C198.901 169.567 199.713 168.541 200.818 166.982C204.747 175.38 210.903 180.621 219.341 183.127C220.86 183.779 221.472 185.457 222.864 186.26C222.951 186.785 223.476 185.918 223.015 186.173C222.784 186.3 222.808 186.173 222.697 185.926C222.474 185.425 222.164 184.876 222.697 184.526C224.82 183.198 230.65 184.526 232.169 186.586C232.344 187.324 232.328 188.095 232.124 188.825C231.919 189.555 231.532 190.222 231 190.762C228.694 193.004 225.942 190.945 223.46 191.557C215.563 191.716 209.097 188.28 203.578 183.079C201.049 180.693 198.933 180.359 195.863 181.918C190.559 184.614 184.729 186.141 179.257 188.455C177.839 188.979 176.58 189.862 175.604 191.018C174.629 192.173 173.969 193.562 173.69 195.048C171.352 204.69 169.861 214.517 169.237 224.419C168.441 237.764 172.275 249.511 182.685 258.545C184.403 261.249 184.403 261.249 182.765 262.498Z" fill="#073042"/>
<path d="M234.261 198.031C236.647 211.392 238.078 224.785 233.465 237.947C230.658 245.9 224.987 251.785 218.355 256.764C217.122 256.764 217.146 255.817 217.042 254.974C217.193 253.32 218.227 252.087 219.102 250.783C220.554 248.747 221.713 246.517 222.546 244.158C225.727 234.225 229.425 224.395 229.37 213.738C229.807 211.869 230.396 210.167 228.574 208.433C227.318 207.256 227.588 205.252 228.24 203.614C228.336 203.296 228.537 203.02 228.81 202.831C229.083 202.642 229.412 202.55 229.743 202.572C229.958 202.562 230.172 202.604 230.367 202.693C230.562 202.782 230.733 202.917 230.866 203.086C230.999 203.254 231.09 203.452 231.131 203.663C231.173 203.874 231.163 204.091 231.103 204.298C231.533 202.58 230.228 200.822 230.984 199.096C231.74 197.371 232.225 195.565 234.261 198.031Z" fill="#073042"/>
<path d="M234.261 198.031C232.177 196.973 232.153 198.341 232.058 199.82C231.931 201.864 232.599 204.051 231.103 205.904C229.879 205.459 230.968 203.789 229.441 203.359C228.535 204.751 228.352 206.843 229.362 207.582C232.217 209.674 230.913 211.933 230.332 214.271C229.64 215.694 230.571 217.452 229.537 218.868C227.23 217.961 227.437 215.941 227.31 214.183C226.96 209.459 226.515 204.751 226.22 200.019C226.006 196.543 225.56 193.02 223.166 190.173C225.552 189.322 228.034 191.684 230.443 190.094C232.328 187.708 233.155 184.526 236.01 182.936L242.548 179.166C246.524 179.166 246.93 179.699 246.198 184.391C243.54 187.211 240.026 189.075 236.201 189.696C232.519 190.292 231.915 191.931 233.41 195.032C233.784 196.004 234.069 197.007 234.261 198.031Z" fill="#073042"/>
<path d="M182.765 262.498C184.117 261.019 182.184 260.454 181.914 259.428C183.139 258.227 184.483 258.816 185.54 259.5C192.07 263.739 199.061 264.144 206.449 262.434C207.316 262.633 208.222 262.784 208.151 264.025C203.546 268.797 197.939 268.558 192.189 267.055C188.752 266.245 185.534 264.689 182.765 262.498Z" fill="#073042"/>
<path d="M208.143 264.001L206.481 263.206C206.407 262.816 206.464 262.412 206.642 262.057C206.82 261.702 207.11 261.416 207.467 261.241C210.974 259.428 213.463 255.905 217.631 255.229L218.307 256.772C215.618 260.038 212.111 262.533 208.143 264.001Z" fill="#073042"/>
<path d="M231.223 186.205C228.916 183.62 226.053 184.868 223.222 184.765C223.715 186.809 226.109 186.356 226.642 188.248C223.461 187.374 220.518 186.515 219.333 183.095C223.776 184.021 228.332 184.289 232.853 183.89C233.147 185.242 233.02 186.292 231.223 186.205Z" fill="#073042"/>
<path d="M231.223 186.205L232.813 183.874C233.855 183.516 234.762 182.729 235.994 182.952C236.607 183.127 237.513 183.914 237.156 184.033C233.974 185.067 233.179 188.702 230.451 190.117C231.121 188.93 231.391 187.558 231.223 186.205Z" fill="#073042"/>
<path d="M114.058 125.006C124.636 123.057 137.122 136.188 135.969 145.922C135.293 151.728 131.889 155.792 128.453 159.959C127.658 160.89 126.505 160.636 125.463 160.405C114.281 157.9 104.594 152.977 97.8422 143.314C93.5396 137.142 94.4542 132.8 100.801 128.744C104.976 126.103 109.326 124.545 114.058 125.006Z" fill="#ECFBF3"/>
<path d="M109.072 176.557C106.036 176.395 103.076 175.552 100.409 174.091C97.7428 172.631 95.4386 170.59 93.6668 168.119C92.6477 166.886 92.0077 165.384 91.8242 163.795C91.6407 162.206 91.9216 160.597 92.6329 159.164C94.7484 154.607 98.041 153.597 101.676 157.033C106.336 161.447 111.474 164.54 117.892 165.344C120.787 165.71 121.375 167.189 120.095 169.758C117.828 174.307 114.448 176.963 109.072 176.557Z" fill="#ECFBF3"/>
<path d="M278.074 163.149C270.479 163.379 266.057 158.631 263.091 152.651C260.291 146.996 260.474 140.721 264.753 135.862C274.113 125.316 286.902 121.713 298.354 133.476C302.243 137.452 303.031 141.938 301.249 146.956C298.354 155.084 286.759 163.125 278.074 163.149Z" fill="#ECFBF3"/>
<path d="M291.968 178.403C291.158 178.286 290.36 178.1 289.582 177.846C287.84 177.194 285.86 176.406 285.55 174.418C285.216 172.247 287.228 171.277 288.811 170.394C292.994 168.008 296.493 164.882 299.945 161.582C301.536 160.055 302.959 157.462 305.838 158.759C307.858 159.673 309.019 164.859 308.105 167.435C306.093 172.772 298.235 178.371 291.968 178.403Z" fill="#ECFBF3"/>
<path d="M217.631 255.245C214.257 258.339 210.518 261.009 206.497 263.198C198.862 266.968 191.871 264.789 185.071 260.876C184.061 260.295 183.274 259.285 181.93 259.404C172.569 252.048 168.346 242.122 167.924 230.503C167.447 217.444 169.841 204.719 172.903 192.098C173.396 190.062 174.7 189.052 176.434 188.161C183.743 184.423 191.959 182.896 199.116 178.776C201.2 177.583 202.21 179.691 203.331 180.804C208.899 186.276 215.086 190.205 223.214 190.173C226.594 190.579 227.405 192.559 227.525 195.812C227.795 203.145 228.582 210.461 229.219 218.589L230.364 214.271C229.95 229.143 226.371 242.997 217.631 255.245Z" fill="#FE9D9C"/>
</svg>
