<svg viewBox="0 0 500 409" fill="none" xmlns="http://www.w3.org/2000/svg">
<g clip-path="url(#clip0_7_79)">
<path d="M252.533 379.522C257.994 382.574 253.577 390.365 251.81 396.229C251.087 398.719 251.649 401.53 251.97 404.1C252.131 405.466 254.46 407.153 253.978 408.518C253.898 408.679 252.452 408.679 251.97 408.759H239.119C224.902 400.968 210.123 394.381 195.906 386.67C184.179 380.245 172.211 374.301 160.644 367.634C157.19 365.626 154.861 362.815 155.343 358.477C156.307 350.445 153.656 344.1 147.23 339.2C145.303 337.995 144.66 335.505 145.624 333.497C149.078 326.108 153.014 319.039 158.395 312.774C161.929 312.533 164.339 314.863 166.909 316.63C173.255 320.967 179.118 326.027 185.223 330.847C187.231 332.453 189.319 333.738 191.327 335.264C192.13 335.987 218.637 338.798 219.119 339.762" fill="#C4E9CE"/>
<path d="M255.906 378.237C253.336 384.1 252.292 384.18 248.276 378.96C247.633 378.156 247.392 377.032 246.187 376.63C244.259 376.711 243.938 374.943 243.215 373.819C237.512 363.859 230.444 354.702 224.5 344.903C220.323 338.076 217.111 330.686 212.773 324.019C210.203 320.003 207.07 316.308 204.5 312.292C200.645 305.144 195.022 299.2 190.122 292.774C179.761 279.28 167.953 266.91 158.154 252.934C154.459 247.633 155.102 245.786 160.082 241.689C171.729 232.05 184.821 224.661 197.673 216.95C203.054 213.737 209.159 211.568 214.942 208.918C218.476 208.757 221.368 206.829 224.5 205.544C233.496 201.608 243.055 199.44 252.613 197.592C255.585 196.789 258.637 197.351 261.689 197.271C263.376 197.11 264.902 198.235 265.304 199.841C266.027 202.894 267.232 205.303 270.605 206.106C271.087 206.267 271.328 206.829 271.167 207.311V207.392C268.918 209.078 266.348 208.195 263.938 208.355C262.412 208.516 260.806 208.195 259.28 208.757C249.641 210.926 240.243 214.139 230.926 217.271C221.85 220.243 213.255 224.34 205.303 229.48C201.608 231.97 200.966 233.577 202.653 237.673C205.062 243.777 205.705 250.043 205.544 256.549C205.464 262.332 203.697 267.232 199.44 271.248C195.343 275.103 195.263 275.585 198.235 280.083C209.721 297.513 220.163 315.505 232.452 332.373C239.44 342.011 246.508 351.57 254.38 360.485C256.95 363.377 258.557 366.992 261.609 369.562C259.681 372.373 257.834 375.345 255.906 378.237Z" fill="#194E4F"/>
<path d="M205.303 328.598C201.126 323.698 196.307 317.754 192.371 312.613C187.15 305.786 182.331 298.557 176.548 292.131C174.46 291.087 173.094 291.248 171.648 293.577C167.793 300.083 163.536 306.348 158.797 312.292V313.095C163.134 314.782 166.749 317.593 170.524 320.324C177.351 325.304 182.893 330.525 185.062 331.73C185.624 332.051 189.962 335.264 195.424 339.441C196.066 337.835 202.412 329.802 205.303 328.598Z" fill="#C4E9CE"/>
<path d="M196.548 340.485C197.191 339.682 197.914 338.879 198.636 337.835C198.958 337.433 199.279 336.951 199.681 336.549C200.082 336.068 200.404 335.586 200.805 335.104C201.207 334.622 201.608 334.14 202.01 333.658C202.412 333.176 202.733 332.694 203.134 332.292L204.741 330.124L206.106 328.276L207.151 326.911L207.231 326.75C203.295 327.794 199.52 330.365 197.833 333.658C195.745 337.754 194.219 340.325 193.978 343.457C194.219 343.136 194.54 342.815 194.861 342.413C195.343 341.931 195.906 341.288 196.548 340.485Z" fill="#194E4F"/>
<path d="M215.263 344.742C214.781 345.385 214.299 345.947 213.898 346.509C212.693 348.116 211.568 349.562 210.524 350.847L217.914 356.469L218.235 356.068L219.922 353.819C220.484 353.015 221.207 352.212 221.93 351.248C221.93 351.248 223.135 359.441 222.894 360.164C226.589 362.975 230.524 366.028 233.095 367.875C233.657 367.634 241.127 367.072 242.573 367.313C242.814 366.67 242.733 366.028 242.332 365.465C241.127 364.341 228.597 352.132 219.36 343.056C217.914 343.698 215.584 344.26 215.263 344.742Z" fill="#C4E9CE"/>
<path d="M215.665 338.638C213.175 336.148 209.721 333.578 209.4 333.096C208.114 331.73 206.91 330.284 205.624 328.839L204.741 330.043L203.134 332.212C202.813 332.694 202.412 333.096 202.01 333.578C201.608 334.059 201.207 334.541 200.805 335.023C200.404 335.505 200.002 335.987 199.681 336.469C199.279 336.951 198.958 337.353 198.636 337.754C197.914 338.718 197.271 339.521 196.628 340.325L204.661 346.349C204.661 346.349 213.817 339.843 215.665 338.638Z" fill="#C4E9CE"/>
<path d="M258.717 369.481C257.914 369.883 256.95 369.963 256.147 369.642C255.344 369.401 254.46 369.16 253.657 369.08C252.693 368.919 251.729 368.759 250.685 368.678C249.641 368.598 248.677 368.437 247.633 368.277C246.589 368.196 245.705 368.036 244.822 367.875C242.412 367.393 240.404 367.152 238.717 366.991C237.352 366.831 235.906 366.911 234.54 367.152C233.416 367.393 232.291 367.875 231.328 368.598C230.203 369.401 229.239 370.365 228.356 371.49C228.195 371.731 227.954 372.052 227.713 372.293C227.472 372.614 227.311 372.855 227.07 373.096C226.83 373.337 226.428 373.899 226.026 374.381C225.625 374.863 225.223 375.425 224.821 375.907C224.34 376.47 223.858 377.032 223.295 377.514C222.894 377.835 222.492 378.156 222.091 378.478C221.689 378.799 221.207 378.879 220.725 378.799C220.163 378.719 219.601 378.558 219.119 378.317C218.637 378.076 218.074 377.755 217.673 377.353C217.352 377.032 216.95 376.71 216.629 376.389C216.227 375.988 215.906 375.425 215.745 374.863C215.343 373.819 215.343 372.614 215.504 371.57C215.584 371.168 215.745 370.767 215.986 370.445C216.709 369.562 217.512 368.678 218.396 367.875C219.199 367.072 220.002 366.269 220.725 365.385C222.331 363.457 223.295 361.048 223.536 358.558C223.697 355.907 223.215 353.256 222.091 350.847L221.609 351.409C220.805 352.373 220.163 353.176 219.601 353.979L217.914 356.228C217.351 356.951 216.87 357.674 216.307 358.317C215.745 359.04 215.183 359.763 214.54 360.566C214.299 360.807 214.058 361.128 213.817 361.449L213.014 362.413L212.131 363.377C211.809 363.698 211.568 363.939 211.408 364.1C210.685 364.903 209.721 365.465 208.596 365.706C207.552 365.867 206.508 365.385 205.865 364.582C205.384 364.1 205.062 363.538 204.821 362.895C204.58 362.252 204.339 361.61 204.259 360.887C204.179 360.244 204.179 359.522 204.339 358.879C204.5 358.236 204.741 357.674 205.143 357.192C205.624 356.63 206.347 355.827 207.231 354.783C208.114 353.738 209.078 352.614 210.203 351.329C211.247 349.963 212.452 348.437 213.817 346.75C214.219 346.188 214.701 345.546 215.183 344.983C215.665 344.341 219.44 343.618 219.922 342.895C218.797 341.77 215.906 337.594 214.781 337.433C214.058 338.317 208.355 341.128 207.793 341.851L206.187 344.019C205.705 344.742 205.143 345.385 204.661 346.027C204.179 346.67 203.536 347.393 202.974 348.196C202.733 348.437 202.492 348.678 202.251 348.999L201.448 349.883L200.645 350.766C200.404 351.007 200.163 351.248 199.922 351.489C199.199 352.373 198.155 352.855 197.03 352.935C195.906 353.015 194.861 352.453 194.138 351.65C193.897 351.409 193.737 351.168 193.576 350.927C194.058 357.353 196.468 363.457 200.725 369.642C202.01 371.57 203.456 373.337 205.062 374.943C206.267 376.148 207.713 377.353 209.319 378.719C216.468 384.582 226.026 387.795 234.781 386.831C243.536 385.867 252.452 379.602 257.834 372.534C258.717 371.329 259.521 370.124 260.243 368.839C259.762 368.919 259.28 369.241 258.717 369.481Z" fill="#194E4F"/>
<path d="M233.496 28.8356C244.099 30.0405 250.926 30.7634 260.886 34.5385C266.027 36.5465 277.673 29.7192 279.521 28.9963C293.657 23.2934 307.955 17.7512 322.172 12.209C333.578 7.71091 345.465 4.81932 357.192 1.44579C365.465 -0.481937 369.482 -0.0803264 375.666 0.481928C381.61 1.36547 386.67 6.98802 386.67 12.8515C386.67 17.4299 388.116 21.8476 389.08 26.2653C393.578 47.3097 393.096 68.5147 390.044 89.6394C388.116 101.929 385.466 114.057 381.931 126.025C379.602 134.218 375.747 141.688 372.132 149.238C370.526 152.612 369.08 156.066 367.955 159.6C366.429 164.5 367.634 167.391 372.212 169.881C383.699 176.066 394.622 183.295 406.028 189.64C407.554 190.524 408.92 191.568 410.124 192.773V205.625C409.482 206.187 408.518 206.187 407.875 205.705C401.691 202.171 395.265 199.118 389.241 195.183C383.618 191.408 377.996 187.391 371.891 184.179C366.188 181.126 358.959 180.564 354.702 174.861C354.14 174.219 353.337 173.897 352.534 173.897C348.036 174.058 344.742 171.327 341.208 169.399C336.148 166.508 330.766 164.098 325.224 162.251C322.573 161.367 320.244 159.68 317.995 158.074C315.746 156.467 313.256 155.745 310.525 157.11C308.758 158.074 309.401 159.6 309.722 160.965C309.963 162.411 310.043 163.857 310.124 165.303C311.248 175.905 308.437 186.106 306.509 196.387C305.385 202.251 305.385 208.114 305.385 213.978C305.385 219.601 305.385 225.223 302.895 230.444C302.493 231.408 302.413 232.532 302.814 233.577C304.903 240.324 301.449 246.428 300.324 252.774C300.244 253.737 299.36 254.541 298.396 254.541C297.031 254.38 296.951 253.095 296.87 252.051C296.549 246.267 296.629 240.565 297.031 234.781C297.593 227.713 297.593 220.645 297.513 213.657C297.513 209.801 296.549 206.026 297.834 202.09C298.637 199.761 297.192 197.914 294.38 197.994C287.071 198.155 280.083 196.468 272.934 195.424C266.991 194.54 260.886 195.263 255.264 197.432C254.46 197.753 253.657 198.155 252.854 198.476C243.537 200.805 234.139 202.894 225.143 206.347C221.85 207.231 218.717 208.355 215.665 209.801C196.066 218.315 177.672 229.4 160.965 242.733C156.387 246.348 156.066 247.954 159.279 252.774C165.785 262.653 174.219 270.926 181.367 280.244C188.757 289.882 196.95 298.878 203.777 308.919C204.5 310.043 213.094 321.851 214.942 324.822C216.789 327.794 255.986 375.345 257.834 377.996C260.404 381.771 256.388 384.02 254.3 385.385C252.372 386.67 214.46 336.71 213.175 335.666C212.853 335.425 212.613 335.104 212.291 334.863C203.536 325.947 196.628 315.666 188.998 305.866C182.652 297.754 177.19 288.999 169.801 281.77C168.435 280.404 167.15 278.798 165.222 281.127C160.082 289.24 155.022 297.433 149.319 305.144C148.516 306.188 147.873 307.393 147.311 308.597C139.278 321.529 131.969 334.782 125.142 348.357C121.929 354.702 122.973 357.514 129.399 360.726C131.568 361.771 133.495 363.297 135.021 365.144C142.491 371.168 150.925 375.907 158.636 381.53C159.841 382.413 160.965 383.297 162.09 384.261C163.134 385.064 164.339 386.028 163.375 387.634C162.572 388.919 161.206 389.08 159.841 388.839C157.592 388.518 155.664 387.152 153.495 386.43C152.371 386.028 151.327 385.466 150.202 384.984C147.07 383.779 146.347 384.261 146.266 387.554C146.186 393.177 146.266 398.799 146.186 404.422C146.186 406.028 146.347 407.635 145.142 409H135.503C134.218 407.554 134.459 405.787 134.459 404.02C134.459 397.353 134.379 390.687 134.459 384.02C134.539 380.887 133.335 378.799 130.604 377.112C124.017 373.016 118.073 368.116 111.326 364.18C108.114 362.333 107.873 359.04 108.515 355.666C110.041 348.357 113.816 342.011 117.27 335.586C121.367 327.955 125.945 320.565 129.72 312.774C136.467 301.047 144.098 289.963 151.889 278.959C152.933 277.432 153.897 275.826 154.861 274.22C156.467 271.649 156.066 269.481 154.138 267.312C150.604 263.135 146.829 259.199 144.098 254.38C140.724 248.195 144.017 243.456 147.391 238.717C149.238 237.03 150.925 235.183 152.532 233.255C163.857 223.295 176.468 215.424 189.48 207.954C201.849 201.528 214.701 196.147 227.954 191.809C239.279 188.034 251.006 185.705 262.894 184.741C268.115 184.339 273.336 185.223 278.477 185.865C283.216 186.508 288.115 186.588 292.774 187.713C295.746 188.436 295.746 186.347 295.746 184.419V161.528C295.826 156.548 297.111 151.728 299.601 147.391C300.967 144.74 303.698 142.973 306.75 142.893C312.212 142.411 317.754 143.295 322.814 145.463C331.81 149.319 340.807 153.094 349.24 158.074C353.256 160.484 353.899 160.403 355.987 156.226C363.457 141.367 370.044 126.186 373.739 109.881C377.514 92.8523 380.807 75.824 380.887 58.3138C380.968 46.4262 378.156 35.0204 375.345 23.5344C374.221 18.956 370.847 16.0644 366.751 13.976C362.815 12.0483 359.361 14.217 355.746 15.2612C351.329 16.707 347.072 18.6347 342.815 20.3215C319.28 28.7553 296.228 38.3939 273.256 48.1129C267.713 50.4423 262.493 50.9242 257.111 48.1129C243.456 43.0526 229.079 41.8478 214.862 39.7594C212.532 39.8397 210.123 39.7594 207.793 39.4381C202.09 38.153 196.307 39.4381 190.604 38.7152C183.938 37.4301 177.271 38.3939 170.604 38.0727C168.757 37.9923 166.829 38.2333 164.982 37.7514C163.134 37.2694 161.769 36.3859 161.447 34.3778C161.126 32.5304 162.09 31.2453 163.536 30.3617C168.676 27.3095 174.299 26.1047 180.002 27.4701C184.5 28.5947 189.078 29.7192 193.576 31.165C196.548 32.1288 199.761 32.0485 202.653 30.924C206.428 29.4782 210.604 29.2372 214.46 30.3617C217.673 31.3256 221.127 31.0846 224.42 31.6469C225.946 31.8879 227.472 31.6469 228.356 30.2814C229.641 28.0324 231.488 28.193 233.496 28.8356Z" fill="#073042"/>
<path d="M473.981 255.183C459.121 285.304 371.088 344.421 364.743 352.855C363.618 354.381 362.574 355.907 361.53 357.433C360.325 359.12 359.04 360.646 356.63 360.164C349.803 355.907 343.377 351.168 335.666 348.517C328.598 346.027 321.449 343.778 313.818 343.778C311.81 343.778 309.802 343.618 308.437 341.69C307.473 334.3 307.071 326.831 307.232 319.361C307.553 312.774 307.553 306.268 307.794 299.762C308.437 281.609 309.561 263.456 310.766 245.384C311.409 235.344 312.614 225.464 313.417 215.424C313.497 214.38 317.754 167.15 317.995 166.186C318.959 162.331 473.981 241.528 473.981 255.183Z" fill="#C4E9CE"/>
<path d="M421.289 226.83C414.141 225.303 397.835 213.416 391.65 209.882C380.486 203.616 367.875 199.841 356.228 194.701C353.658 193.576 352.694 195.102 351.971 197.351C350.285 203.536 346.108 208.677 340.485 211.568C334.381 214.701 328.437 214.058 322.493 211.408C322.172 211.167 321.851 210.926 321.529 210.685C317.272 208.195 315.264 208.998 314.702 213.817C313.738 222.01 312.774 230.203 312.292 238.396C311.328 253.818 310.927 269.24 309.642 284.581C308.999 291.971 309.481 299.28 308.999 306.589C308.196 318.477 308.919 330.284 309.079 342.092C305.786 343.939 302.091 343.377 298.557 343.618C295.505 342.493 295.987 339.843 295.826 337.433C298.316 321.69 298.236 305.706 299.842 289.882C302.091 268.195 302.493 246.348 305.786 224.822C306.911 217.271 306.188 209.641 306.911 202.01C307.714 193.335 308.437 184.741 309.883 176.146C310.605 171.889 309.561 167.632 309.722 163.375C309.963 157.431 311.891 155.985 317.433 158.475C326.429 162.492 335.586 166.106 344.341 170.765C353.337 175.504 362.413 180.002 371.409 184.66C378.799 188.436 385.867 192.693 392.695 197.432C397.112 200.484 401.932 202.813 406.671 205.143C407.875 205.625 409.08 206.347 410.124 207.151C410.124 211.408 421.289 222.572 421.289 226.83Z" fill="#194E4F"/>
<path d="M411.088 341.128C415.426 336.389 418.398 333.819 423.297 329.321C429.964 323.136 436.791 317.031 443.538 310.927C457.193 298.637 471.089 286.429 484.583 273.979C488.438 270.444 492.615 266.991 495.989 262.974C501.451 256.549 500.085 245.223 493.82 239.922C489.161 235.986 483.699 232.854 478.559 229.721C470.205 224.581 461.691 219.681 453.097 214.862C433.177 203.616 413.096 192.612 392.775 182.09C386.51 178.877 384.341 199.922 390.205 202.974C407.313 211.809 424.181 220.966 440.968 230.283C456.229 238.798 471.731 247.231 486.189 257.031C488.037 258.316 489.804 259.681 491.571 261.047C492.133 261.448 490.848 259.922 491.732 261.368C488.439 256.147 496.39 238.958 491.169 244.259C490.688 244.741 490.206 245.304 489.724 245.786C489.242 246.267 487.073 248.356 488.117 247.392C486.029 249.4 483.94 251.328 481.772 253.336C468.92 265.143 455.908 276.629 442.976 288.276C430.526 299.441 417.514 310.284 406.189 322.493C402.976 325.947 403.377 333.176 404.502 337.353C405.466 340.405 407.875 344.582 411.088 341.128Z" fill="#073042"/>
<path d="M363.216 247.794C364.18 248.516 365.385 249.4 366.751 250.364C368.116 251.328 369.723 252.372 371.57 253.577C372.293 254.059 373.096 254.621 373.98 255.183C374.863 255.745 375.747 256.388 376.63 256.95C377.514 257.593 378.397 258.155 379.281 258.798C380.164 259.36 381.048 259.922 381.851 260.484L385.787 262.974C387.072 263.778 388.197 264.501 389.16 265.143L391.65 266.669L391.891 266.83C388.919 260.565 383.779 254.782 377.996 252.131C370.927 248.918 366.349 246.669 361.369 246.428C361.851 246.83 362.494 247.312 363.216 247.794Z" fill="#194E4F"/>
<path d="M347.554 320.083C347.072 319.28 346.831 318.316 346.991 317.353C347.072 316.389 347.152 315.505 347.152 314.541C347.152 313.497 347.152 312.373 347.072 311.328C347.072 310.284 346.991 309.16 346.911 308.035C346.831 306.911 346.831 305.866 346.831 304.903C346.831 302.252 346.831 300.003 346.67 298.236C346.59 296.71 346.349 295.184 345.867 293.738C345.465 292.533 344.823 291.489 344.019 290.525C343.056 289.481 342.011 288.597 340.887 287.794C340.566 287.633 340.325 287.473 340.003 287.232C339.682 287.071 339.441 286.83 339.12 286.669L337.754 285.786C337.192 285.465 336.71 285.063 336.148 284.661C335.505 284.26 334.943 283.778 334.461 283.296C334.059 282.894 333.738 282.493 333.337 282.091C333.015 281.69 332.774 281.208 332.774 280.645C332.774 280.083 332.855 279.44 333.015 278.878C333.176 278.316 333.417 277.673 333.738 277.191C333.979 276.79 334.22 276.308 334.461 275.987C334.782 275.505 335.184 275.103 335.666 274.782C336.148 274.461 336.63 274.3 337.192 274.139C337.674 274.059 338.156 273.979 338.718 274.059C339.12 274.059 339.521 274.22 339.843 274.461C340.807 275.103 341.77 275.906 342.654 276.71C343.457 277.513 344.341 278.236 345.305 278.878C347.232 280.324 349.642 281.047 352.052 280.886C354.542 280.645 356.951 279.762 358.959 278.236L358.397 277.834C357.433 277.111 356.469 276.549 355.666 276.067L353.337 274.621C352.614 274.139 351.891 273.738 351.168 273.256C350.445 272.774 349.642 272.292 348.839 271.649C348.598 271.489 348.276 271.248 347.955 270.926L346.911 270.123L345.867 269.32C345.546 269.079 345.305 268.838 345.064 268.677C344.18 267.954 343.457 266.991 343.136 265.946C342.815 264.902 343.056 263.697 343.778 262.814C344.18 262.252 344.662 261.77 345.224 261.448C345.786 261.047 346.349 260.806 346.991 260.565C347.634 260.404 348.196 260.324 348.839 260.324C349.481 260.404 350.044 260.565 350.525 260.966C351.168 261.368 351.971 262.011 353.096 262.814C354.22 263.617 355.425 264.501 356.791 265.464C358.156 266.428 359.763 267.553 361.61 268.677C362.172 269.079 362.815 269.481 363.457 269.882C364.1 270.284 364.743 270.766 365.465 271.248C366.269 269.962 366.831 268.597 367.232 267.151C367.554 265.866 367.714 264.501 367.714 263.215C366.751 262.573 365.947 262.011 365.144 261.529L362.895 260.003C362.172 259.521 361.449 259.119 360.726 258.637C360.004 258.155 359.281 257.673 358.477 257.111C358.236 256.95 357.915 256.709 357.594 256.468L356.63 255.665L355.666 254.942L354.943 254.3C353.979 253.577 353.337 252.533 353.096 251.328C352.855 250.203 353.176 248.998 353.899 248.035C354.06 247.794 354.301 247.553 354.461 247.312C348.598 248.838 343.377 252.372 338.317 257.754C336.71 259.44 335.264 261.207 334.059 263.215C333.176 264.742 332.212 266.428 331.248 268.356C326.991 276.951 325.465 287.633 327.714 296.951C329.963 306.268 337.112 314.943 344.501 319.602C345.706 320.405 346.991 321.047 348.357 321.61C348.196 321.047 347.795 320.565 347.554 320.083Z" fill="#194E4F"/>
<path d="M393.819 272.372C393.739 272.613 393.739 272.854 393.658 273.095C393.418 273.738 393.177 274.38 392.775 274.942C392.132 275.906 390.928 276.469 389.803 276.469C388.357 276.469 386.911 275.987 385.787 275.103C385.225 274.702 384.743 274.38 384.18 274.059L382.574 273.015L380.887 271.89L378.879 270.605C378.558 271.89 378.237 273.095 377.835 274.3C377.353 275.585 376.871 276.79 376.229 277.995L380.807 280.806C382.092 281.609 382.895 282.091 383.136 282.252C383.618 282.573 384.02 283.135 384.1 283.698C384.261 284.34 384.261 284.983 384.18 285.706C384.1 286.429 383.94 287.151 383.618 287.794C383.377 288.437 383.056 288.999 382.654 289.561C382.092 290.525 381.048 291.087 379.923 291.007C378.558 290.927 377.273 290.364 376.229 289.561C375.184 288.838 374.221 288.196 373.257 287.633C372.293 287.071 371.168 286.348 369.883 285.545C367.955 287.071 365.867 288.356 363.618 289.32C361.369 290.284 358.959 290.927 356.55 291.168C357.594 293.738 358.317 296.549 358.477 299.36C358.718 302.573 358.799 305.786 358.558 308.919C358.397 310.846 358.317 312.533 358.397 313.899C358.397 315.344 358.477 316.549 358.477 317.594C358.477 318.638 358.477 319.441 358.397 320.084C358.397 320.646 358.236 321.208 357.915 321.69C357.273 322.654 356.148 323.296 355.024 323.377C360.807 324.421 366.831 323.698 372.212 321.369C378.558 318.638 385.546 312.132 390.044 304.421C394.06 297.352 395.988 289.24 395.586 281.127C395.345 278.155 394.703 275.264 393.819 272.372Z" fill="#194E4F"/>
<path d="M130.684 312.453C127.471 320.405 122.652 327.473 118.716 334.943C115.583 340.807 112.049 346.509 110.202 352.935C108.194 359.843 108.836 361.128 114.861 364.823C121.206 368.759 127.23 373.176 133.335 377.353C135.102 378.558 135.423 380.245 135.423 382.172C135.343 391.008 135.423 399.763 135.423 408.598H16.5463C14.6989 406.269 15.4218 403.538 15.4218 400.887C15.3415 395.024 15.9037 389.241 18.6347 383.94C20.964 383.94 22.4098 382.815 23.454 380.646C24.8998 377.755 26.9882 375.265 28.5143 372.534C31.3256 367.634 35.1007 364.983 40.8839 365.787C44.4984 366.108 48.1129 365.144 51.0848 363.056C53.2535 361.53 55.6632 360.325 58.2335 359.441C60.5628 358.638 61.4464 357.353 60.0809 354.943C58.0728 351.489 59.117 347.634 59.0367 343.939C58.9564 341.288 58.2335 339.521 55.5025 339.039C55.1812 333.417 51.3258 330.606 46.9081 328.116C42.4903 325.626 38.0726 322.654 33.4139 320.324C31.1649 319.2 28.9962 318.638 26.5866 319.441C24.9801 317.674 26.0243 316.148 27.7111 315.826C31.7272 314.943 31.6469 312.132 31.7272 309.079C31.7272 307.393 31.4862 305.545 32.5304 304.019C43.2936 303.537 52.8519 299.039 62.1692 294.139C64.2576 293.176 66.0247 291.649 67.1492 289.641C68.9163 286.027 67.5508 283.778 63.5347 283.376C61.5267 283.135 58.9564 284.581 57.5909 281.69C58.3941 280.806 59.5989 280.324 60.8038 280.404C65.3018 280.565 69.7195 279.762 74.1372 279.521C80.6433 279.842 87.1494 278.878 93.4949 281.047C94.4587 281.368 95.3423 280.806 96.1455 280.324C96.8684 280.003 97.6716 279.922 98.4748 280.163C99.6797 280.565 100.965 281.127 100.965 282.493C100.965 284.099 99.3584 284.019 98.2339 284.099C95.8242 284.34 93.4145 284.019 91.0049 284.34C89.5591 284.501 87.792 284.822 87.792 286.669C87.792 288.517 89.4787 288.918 90.9245 289.159C93.3342 289.32 95.7439 289.641 98.0732 290.123C99.8403 290.525 101.447 291.168 102.411 292.774C103.937 295.344 106.105 296.147 108.836 295.826C113.656 295.264 116.949 297.433 119.68 301.127C122.009 304.421 124.981 307.152 128.435 309.24C129.479 310.124 130.443 311.007 130.684 312.453Z" fill="#C4E9CE"/>
<path d="M74.2979 280.967C68.7557 282.011 62.9725 281.208 57.5106 282.573C52.129 284.581 46.8277 284.661 41.7674 281.609C40.5626 280.806 39.5184 279.681 38.9562 278.316C37.671 274.701 35.9039 275.585 33.6549 277.432C26.2653 283.376 18.8757 289.32 14.5383 298.075C12.5302 304.903 13.8957 311.569 15.2612 318.236C17.5905 329.963 20.8034 341.61 24.8998 352.855C29.4782 357.032 29.2372 362.253 28.0324 367.634C25.5424 373.176 23.2934 378.96 19.7592 383.939C16.225 391.891 16.1447 400.325 16.5463 408.839H7.71089C5.5422 404.904 6.50606 400.727 6.90767 396.711C7.95186 386.67 11.0041 377.032 15.9841 368.277C17.1086 366.51 17.0283 364.261 15.6628 362.654C12.2893 358.397 11.0041 353.256 9.79927 348.357C7.63057 339.441 5.14059 330.606 2.89157 321.69C2.40964 320.244 2.16867 318.798 2.00803 317.352C2.08835 309.883 1.28513 302.413 1.12448 294.943C0.96384 291.971 1.84738 288.999 3.69479 286.669C5.14059 282.894 7.30928 279.521 10.1206 276.629C12.8515 273.898 18.2331 268.999 23.1327 266.027C24.2572 265.384 25.6227 265.143 26.8275 263.697C20.6427 262.493 15.3415 258.717 9.07637 259.039C4.41769 259.28 1.76706 257.272 0.642552 252.934C0.401585 251.89 0.321263 250.765 0.401585 249.721C0.240941 245.304 -0.481957 240.806 0.401585 236.388C0.401585 234.38 0.722874 232.372 1.20481 230.444C1.36545 223.376 4.49801 217.03 5.62252 210.203C6.10445 207.311 5.78316 204.982 3.61447 202.894C2.32932 201.689 1.84738 199.922 1.36545 198.235C0.722874 195.263 -0.401635 192.371 1.52609 189.48C4.17672 182.01 8.67476 175.825 13.8957 170.042C15.5021 168.275 14.3776 167.231 12.7712 166.347C9.63862 164.58 7.06832 162.09 5.22091 159.038C3.77511 156.789 4.01608 154.7 5.46188 152.371C8.91573 146.588 13.976 142.331 18.8757 137.913C24.3376 133.013 29.3175 127.632 34.3778 122.331C36.5465 120.081 37.5104 116.949 36.8678 113.897C36.0646 110.844 36.1449 107.873 36.1449 104.82C36.1449 88.9165 36.1449 73.0128 36.3055 57.109C36.3859 48.6752 37.8317 40.4823 38.8759 32.1288C39.7594 25.7031 46.8277 8.03221 47.8719 7.22899C56.5467 -2.32934 71.9685 4.89965 77.2698 5.38158C86.3462 6.10448 95.021 8.75511 103.696 11.4057C111.648 13.8154 119.359 17.3496 127.069 20.5624C131.246 22.2492 135.343 24.1769 139.359 26.2653C142.009 27.6308 144.981 28.193 147.873 27.7914C164.66 25.6227 181.608 24.9802 198.556 26.0244C209.56 26.6669 220.564 27.7111 231.568 28.1127C232.372 28.193 233.095 28.434 233.818 28.675C232.291 28.9963 230.444 27.8718 229.721 30.924C229.159 33.2533 225.866 33.0927 223.697 32.6108C219.52 31.6469 215.263 31.9682 211.167 30.5224C208.516 29.5585 205.464 30.6027 203.054 31.8075C200.645 32.932 197.914 33.173 195.343 32.5304C190.283 31.4059 185.383 29.7995 180.403 28.434C174.299 26.7472 168.676 28.193 163.536 31.4059C161.447 32.6911 161.929 34.5385 163.937 35.904C165.222 36.7875 166.749 36.7072 168.194 36.7072H186.668C187.954 36.7072 189.399 36.3056 190.444 37.4301C189.239 38.7956 187.552 38.6349 186.026 38.7152C176.468 38.8759 166.909 38.4743 157.351 39.1972C155.343 38.8759 155.263 37.1088 154.62 35.663C154.138 34.5385 153.335 33.8156 152.13 34.4582C150.925 35.1007 151.166 36.1449 151.728 37.1891C152.291 38.2333 153.495 38.9562 152.612 40.3217C149.961 42.2494 146.829 42.9723 143.776 43.6952C140.082 44.4984 137.511 42.4904 135.343 39.6791C134.861 38.2333 134.298 37.0285 132.692 36.4662C130.845 35.7433 129.479 34.6188 129.881 32.2895C130.282 30.3617 128.997 30.1208 127.471 30.2011C124.66 30.3617 121.929 31.0846 119.519 32.4501C113.897 31.4059 109.238 28.193 104.017 26.1047C96.0652 22.9721 88.1936 19.6789 79.9204 17.4299C78.555 17.0283 76.9485 17.0283 76.2256 15.4218C77.1092 12.6909 79.5991 12.7712 81.6875 12.1286C82.4104 11.8877 83.3743 11.6467 83.2136 10.6025C83.1333 10.0403 82.3301 9.63865 82.0088 9.87961C77.4305 12.3696 71.4866 9.87961 67.3902 13.8957C64.4183 14.7793 60.9644 12.2893 58.3138 15.1005C51.8077 23.0524 50.9242 32.8517 49.398 42.4904C47.39 56.0648 47.8719 69.6392 47.8719 83.2137C47.8719 90.9246 48.0326 98.7158 47.149 106.427C46.9884 107.551 46.9081 109.077 48.0326 109.72C49.1571 110.363 50.2816 109.238 51.1651 108.595C53.4945 106.989 55.5025 105.061 57.8319 103.455C59.117 102.571 60.8841 100.965 61.848 103.937C61.848 105.061 61.5267 106.105 60.8038 106.909C55.5025 113.575 51.2455 121.045 45.9442 127.792C41.9281 132.933 37.0284 136.949 32.0485 141.046C27.9521 144.419 24.0966 148.114 19.9198 151.487C18.1528 152.933 17.6708 154.62 19.7592 156.146C23.695 158.957 26.6669 163.295 32.2091 163.696C34.3778 163.857 34.5385 165.303 32.932 166.668C30.2011 168.998 27.7914 171.729 25.1408 174.138C20.8034 178.154 16.9479 182.652 13.6547 187.472C13.0925 188.275 12.6909 189.078 12.2089 189.881C10.7631 192.371 11.486 194.46 13.2531 196.468C15.0202 198.476 17.0283 198.717 19.4379 197.753C22.4098 196.548 25.1408 194.781 28.5143 194.861C29.5585 194.861 30.8436 194.861 31.4059 195.906C31.9682 196.95 31.0043 197.914 30.3617 198.717C26.1046 203.697 22.4098 209.078 19.3576 214.862C14.8596 222.091 11.5664 229.801 11.4057 238.476C10.2009 245.545 12.2089 248.356 19.1166 249.079C26.5866 249.721 33.8959 251.247 41.0445 253.416C41.7674 253.657 42.5707 253.818 43.3739 254.139C52.129 257.191 53.4142 259.36 51.3258 268.276C51.1651 269.079 51.0045 269.882 50.8438 270.605C49.7997 273.898 51.3258 274.862 54.378 275.023C60.1612 275.183 66.0247 274.3 71.8079 275.826C73.0931 276.067 74.3782 276.549 75.583 277.111C76.5469 277.673 77.4305 278.396 77.3501 279.521C76.7076 281.288 74.9405 280.244 74.2979 280.967Z" fill="#073042"/>
<path d="M377.192 408.759H316.148C311.248 404.904 305.625 402.092 301.208 397.434C292.292 388.197 289.641 376.711 287.955 364.662C287.955 364.02 288.115 363.297 288.437 362.735C288.838 362.012 289.481 361.449 290.204 361.208C297.111 359.763 303.617 356.791 310.766 356.228C311.73 356.148 312.613 356.309 313.577 356.228C327.393 354.542 338.317 361.048 348.839 368.598C354.14 372.614 359.2 377.032 363.859 381.771C370.767 388.598 374.381 397.434 377.514 406.43C377.915 407.153 377.755 408.116 377.192 408.759Z" fill="#C4E9CE"/>
<path d="M377.192 408.759C373.176 394.703 365.305 383.377 354.06 374.06C346.831 368.116 338.879 363.056 330.445 359.12C323.055 355.666 315.023 356.148 307.634 357.754C301.368 359.12 294.782 360.004 288.918 363.136C287.714 364.903 286.107 366.349 284.179 367.313C273.256 373.176 270.364 383.458 268.999 394.622C268.436 399.281 268.999 404.181 267.151 408.679H252.693C250.926 406.108 250.926 402.976 251.006 400.245C251.247 394.06 250.765 387.715 254.059 382.012C254.541 381.048 254.782 380.004 254.862 378.96C255.665 374.943 258.798 372.373 260.806 369.16C269.079 358.317 279.681 350.365 291.81 344.421C293.979 343.618 296.228 343.056 298.477 342.895C301.931 342.011 305.465 342.092 308.919 342.092C316.067 343.297 323.377 343.457 330.445 345.706C340.084 348.839 349.08 353.578 357.112 359.763C358.397 360.405 359.763 360.807 360.887 361.771C364.823 365.064 366.349 365.144 369.642 361.449C381.048 348.919 393.337 337.192 405.145 325.063C406.43 323.698 407.474 321.529 410.044 322.814V342.092C404.663 347.473 399.442 352.935 394.06 358.317C388.518 363.939 382.735 369.241 376.55 374.14C374.783 375.506 374.06 376.711 375.747 378.638C376.871 380.004 377.514 381.61 377.755 383.377C378.719 390.285 381.209 396.791 381.771 403.779C381.931 405.466 382.494 407.233 381.128 408.759H377.192Z" fill="#073042"/>
<path d="M158.716 313.176C154.379 319.441 150.443 325.947 146.909 332.614C145.463 335.425 146.106 337.192 148.435 339.12C153.014 342.815 157.271 347.313 156.146 353.578C154.379 363.377 160.564 366.992 167.472 370.606C180.564 377.433 193.416 384.662 206.669 391.088C215.263 395.265 223.456 400.325 232.372 403.859C234.942 404.904 237.593 406.108 239.038 408.759H214.139C211.488 406.751 208.355 406.108 205.303 405.064C194.379 401.369 184.259 395.988 173.817 391.329C168.516 389.883 164.58 386.108 160.243 383.056C151.568 376.951 142.652 371.249 133.897 365.224C131.728 363.538 129.881 361.61 126.989 360.807C123.294 359.763 121.286 353.979 122.973 350.285C127.471 340.646 132.772 331.329 137.993 322.092C140.644 317.353 142.973 312.373 146.588 308.276C147.632 307.312 149.158 307.232 150.283 308.035C152.933 309.722 155.985 310.364 158.636 311.971C159.038 312.292 159.038 312.774 158.716 313.176Z" fill="#194E4F"/>
<path d="M291.167 340.485C291.81 342.011 293.416 343.377 291.971 345.224C280.324 351.248 270.043 359.441 261.609 369.401C258.958 369.803 258.235 367.393 257.111 366.028C249.32 356.148 241.528 346.188 234.058 335.987C225.625 324.581 217.673 312.694 210.444 300.485C206.106 293.015 201.046 286.027 196.227 278.798C194.781 276.549 194.058 274.541 196.548 272.452C207.552 263.296 205.705 251.649 202.331 240.083C200.002 232.131 199.841 231.488 207.07 226.99C217.753 220.323 229.56 216.307 241.448 212.613C246.99 210.845 252.613 209.159 258.316 207.874C260.484 207.07 262.814 207.633 265.063 207.472C267.151 207.392 267.633 209.078 268.195 210.604C270.284 216.227 271.81 222.091 272.854 228.034C273.497 231.89 275.103 235.504 275.424 239.36C275.665 242.171 298.718 239.52 297.593 242.171" fill="#C4E9CE"/>
<path d="M294.621 250.766C293.738 282.734 292.453 331.409 292.212 337.192C291.971 338.397 282.332 281.449 277.593 253.737L280.083 253.255L285.143 252.211C286.75 251.89 288.196 251.569 289.481 251.247L292.694 250.525L294.621 250.766Z" fill="#C4E9CE"/>
<path d="M294.702 250.043C295.103 236.308 295.344 225.785 295.505 223.295C295.425 220.002 295.344 216.629 295.425 213.335C295.425 211.649 294.943 210.444 293.497 209.721C291.087 208.516 288.678 207.07 285.706 207.151C281.208 207.231 276.629 207.151 272.131 207.151C267.874 207.633 264.42 205.624 260.244 207.472C261.047 207.472 267.312 208.355 268.677 212.693C271.408 221.368 272.774 230.364 275.103 239.199C275.183 239.681 275.746 242.733 276.629 247.553C282.332 247.071 288.035 248.115 293.176 250.525L294.702 250.043Z" fill="#C4E9CE"/>
<path d="M289.481 287.312C289.159 290.445 288.356 293.416 287.312 296.388C286.268 299.2 284.822 301.85 282.975 304.26C285.866 305.786 288.517 307.794 290.686 310.204C291.73 311.328 292.774 312.533 293.818 313.738C293.979 311.569 294.139 309.481 294.38 307.312C294.621 304.903 295.103 302.573 295.344 300.244L295.505 298.477C295.826 294.3 295.826 290.043 295.666 285.866C295.023 286.027 294.38 286.187 293.738 286.268C292.533 286.589 291.087 286.91 289.481 287.312Z" fill="#194E4F"/>
<path d="M290.204 264.34L287.955 264.822L285.384 265.384C286.107 266.83 286.75 268.276 287.312 269.802C287.874 271.408 288.356 273.015 288.758 274.702L294.621 273.336L295.103 273.256C294.943 269.963 294.862 266.669 294.943 263.376C294.782 263.376 294.621 263.456 294.38 263.537C293.657 263.697 292.935 263.778 292.292 263.938L290.204 264.34Z" fill="#194E4F"/>
<path d="M291.73 332.935L290.445 331.409C289.561 330.365 288.678 329.401 287.794 328.437C286.91 327.473 286.107 326.509 285.384 325.626C283.376 323.055 281.69 321.047 280.244 319.441C279.039 318.075 277.754 316.871 276.228 315.907C275.023 315.184 273.738 314.702 272.372 314.461C270.846 314.3 269.32 314.381 267.794 314.622C267.473 314.702 267.071 314.782 266.669 314.863C266.268 314.943 265.946 315.023 265.545 315.104L263.778 315.425C263.055 315.585 262.332 315.666 261.609 315.826C260.806 315.987 260.003 316.067 259.199 316.067C258.637 316.067 257.995 315.987 257.432 315.907C256.79 315.826 256.308 315.505 255.906 315.023C255.424 314.461 255.023 313.818 254.782 313.176C254.46 312.453 254.219 311.73 254.059 311.007C253.898 310.284 253.737 309.642 253.737 309.16C253.657 308.437 253.657 307.714 253.898 306.991C254.059 306.348 254.38 305.706 254.701 305.063C255.023 304.501 255.424 304.019 255.826 303.617C256.147 303.296 256.549 303.055 257.031 302.975C258.316 302.734 259.601 302.654 260.966 302.654C262.252 302.654 263.456 302.573 264.742 302.332C267.473 301.931 269.963 300.485 271.73 298.236C273.577 295.746 274.862 292.774 275.264 289.722L274.461 289.882C273.175 290.123 271.971 290.364 270.926 290.525L267.954 291.168C266.991 291.409 266.027 291.569 265.143 291.81C264.26 292.051 263.215 292.212 262.091 292.372C261.77 292.453 261.288 292.453 260.886 292.533L259.44 292.694L257.995 292.854C257.513 292.935 257.111 292.935 256.87 292.935C255.585 293.095 254.3 292.774 253.175 292.051C252.051 291.248 251.408 289.963 251.328 288.597C251.247 287.714 251.247 286.91 251.408 286.027C251.569 285.224 251.81 284.42 252.211 283.617C252.533 282.894 253.015 282.332 253.577 281.77C254.059 281.288 254.701 280.967 255.424 280.806C256.227 280.645 257.432 280.485 258.878 280.324C260.324 280.163 262.011 279.922 263.858 279.601C265.705 279.28 267.794 278.878 270.123 278.396C270.926 278.236 271.73 278.075 272.533 277.914C273.336 277.754 274.3 277.593 275.183 277.432C274.862 275.585 274.3 273.738 273.497 271.971C272.854 270.444 271.971 269.079 270.926 267.874C269.641 268.115 268.517 268.276 267.553 268.517L264.661 269.159C263.778 269.4 262.814 269.561 261.93 269.802C261.047 270.043 260.003 270.203 258.958 270.364C258.637 270.444 258.235 270.444 257.754 270.525L256.388 270.605L255.103 270.685L254.059 270.766C252.693 270.926 251.408 270.525 250.364 269.561C249.239 268.597 248.597 267.232 248.517 265.786C248.436 265.384 248.436 264.983 248.436 264.581C244.822 271.087 243.215 279.039 243.296 288.597C243.215 291.569 243.456 294.541 244.018 297.433C244.42 299.682 244.902 302.011 245.625 304.742C248.677 316.549 255.505 327.875 264.34 334.702C272.774 341.208 284.501 343.136 293.818 341.449C292.453 338.638 291.81 335.827 291.73 332.935Z" fill="#194E4F"/>
<path d="M260.404 256.95C262.252 256.629 264.34 256.227 266.669 255.745C267.633 255.585 268.677 255.344 269.802 255.103C270.926 254.862 272.051 254.701 273.256 254.46C274.461 254.3 275.585 254.059 276.79 253.818C277.995 253.577 279.039 253.416 280.083 253.175L285.143 252.131C286.75 251.81 288.196 251.488 289.481 251.167L292.694 250.444L293.015 250.364C285.947 247.071 277.352 246.187 270.766 248.757C262.653 251.97 257.272 253.818 253.015 257.995C253.737 257.914 254.621 257.754 255.585 257.673C257.031 257.513 258.557 257.272 260.404 256.95Z" fill="#194E4F"/>
<path d="M271.167 207.151C266.991 206.428 264.34 204.58 264.42 199.761C264.42 198.155 262.493 197.512 260.725 197.512C258.075 197.592 255.424 197.512 252.774 197.512C253.095 196.869 253.737 196.789 254.38 196.709C267.312 196.468 280.083 199.199 293.015 198.396C294.702 198.315 296.308 198.877 295.987 200.725C294.943 208.195 295.987 215.825 294.541 223.295C292.533 221.046 293.256 218.235 293.336 215.665C293.417 212.131 291.81 210.283 288.678 209.239C285.063 207.954 281.288 208.596 277.673 208.355C275.424 208.195 273.095 208.837 271.167 207.151Z" fill="#194E4F"/>
<path d="M410.124 207.151C401.45 205.223 394.703 199.44 387.313 195.102C365.706 182.572 343.778 170.765 320.726 161.126C318.638 160.243 316.549 159.279 314.461 158.556C311.971 157.672 310.525 158.556 310.605 161.367C311.087 171.97 310.124 182.411 308.919 192.853C306.911 210.042 307.634 227.392 304.421 244.581C302.814 253.255 303.135 262.332 302.493 271.248C301.529 283.216 300.244 295.103 299.521 307.071C299.039 315.184 298.798 323.296 297.674 331.409C297.433 333.417 297.111 335.345 296.79 337.353C295.907 338.799 297.031 341.369 294.38 341.851C292.372 342.172 291.167 340.887 290.204 339.361C288.838 336.63 288.196 333.497 288.356 330.445C288.517 322.975 288.517 315.425 288.276 307.955C288.115 300.967 288.517 294.059 289.4 287.151C290.445 283.939 289.882 280.645 289.963 277.352C289.963 275.344 290.284 273.416 290.766 271.489C290.846 270.766 291.007 270.123 291.167 269.4C291.971 266.91 291.73 264.34 291.569 261.85C291.248 257.191 292.051 252.533 292.292 247.954C292.212 239.761 293.256 231.569 293.417 223.376C293.898 221.528 294.059 219.681 294.059 217.833C294.139 213.335 293.818 208.757 294.621 204.259C295.103 201.528 294.3 199.359 291.007 199.52C280.163 200.082 269.561 198.235 258.798 197.753C257.272 197.673 252.452 198.556 251.167 197.11C253.577 195.745 259.44 195.022 262.091 194.379C269.721 192.532 276.79 194.942 284.099 196.066C286.991 196.468 289.963 196.628 292.854 196.548C298.718 196.628 300.886 199.44 298.236 204.58C296.951 207.07 297.192 208.677 298.316 211.086C299.762 214.46 298.396 218.315 298.075 221.93C297.995 223.215 297.433 224.581 297.754 225.866C298.637 229.079 298.156 232.131 297.834 235.344C297.433 241.448 297.593 247.553 298.316 253.657C299.119 246.83 304.18 240.725 301.208 233.336C300.726 232.211 300.405 230.846 301.127 229.882C304.26 225.705 304.099 220.886 303.939 216.147C303.537 206.106 305.304 196.307 307.071 186.508C308.356 179.199 310.204 171.889 308.919 164.339C310.284 161.528 307.794 158.315 309.642 155.584C313.336 154.218 316.549 154.781 319.521 157.672C323.296 161.287 328.758 161.849 333.337 164.098C337.594 166.186 341.69 168.676 346.027 170.684C346.831 171.086 347.634 172.13 348.437 172.05C353.176 171.648 356.228 174.379 359.441 177.19C360.807 178.476 362.734 179.118 364.582 178.877C365.224 178.797 366.188 178.797 366.51 179.199C370.847 184.58 377.835 185.544 383.217 189.399C389.482 193.817 395.104 199.841 403.217 201.608C405.867 202.171 407.474 204.821 410.205 205.384C410.205 205.946 410.124 206.508 410.124 207.151Z" fill="#073042"/>
<path d="M267.151 408.759C267.232 399.843 267.633 391.008 270.444 382.413C272.453 376.229 275.746 371.168 281.449 367.795C283.939 366.349 286.429 364.743 288.838 363.136C290.364 380.968 296.308 396.229 313.176 405.225C314.622 406.028 315.987 406.751 316.148 408.679C299.842 408.759 283.457 408.759 267.151 408.759Z" fill="#C4E9CE"/>
<path d="M476.551 259.199C468.037 267.954 389.723 341.931 381.128 350.606C377.192 354.622 373.498 358.799 369.562 362.815C366.429 366.028 364.502 366.028 360.967 363.056C359.682 361.931 358.397 360.807 357.112 359.602C361.61 358.477 362.172 353.738 364.903 351.007C369.321 346.429 379.361 338.156 383.779 333.497C418.96 299.601 439.201 290.123 471.972 250.364C473.499 248.517 477.515 258.235 476.551 259.199Z" fill="#194E4F"/>
<path d="M200.484 408.759H162.733C160.243 404.181 159.118 399.04 159.52 393.819C159.6 392.695 160.403 391.811 161.447 391.49C165.544 391.57 168.837 394.301 172.612 395.345C180.403 398.879 188.516 401.369 196.709 403.779C198.958 404.422 202.09 404.984 200.484 408.759Z" fill="#C4E9CE"/>
<path d="M161.929 391.891C159.359 393.257 160.162 395.666 160.403 397.594C160.885 401.369 161.929 405.064 162.652 408.759H146.588C145.222 406.831 145.865 404.663 145.785 402.574C145.704 397.514 145.704 392.454 145.785 387.474C145.865 384.261 146.829 383.698 149.72 384.743C153.255 385.948 156.467 387.875 159.841 389.241C161.046 389.642 162.09 390.446 161.929 391.891Z" fill="#194E4F"/>
<path d="M161.929 391.891C158.074 389.08 153.576 387.554 149.238 385.546C146.748 384.341 146.588 385.626 146.588 387.554V408.759H144.981V387.152C144.981 382.895 146.267 382.012 150.363 383.779C152.853 384.823 155.182 385.948 157.672 386.992C158.636 387.393 159.68 387.715 160.724 387.875C161.528 388.197 162.411 387.795 162.813 387.072C163.295 386.108 162.411 385.626 161.769 385.144C156.066 380.968 150.202 377.192 144.419 373.257C140.805 370.767 136.628 368.839 133.817 365.224C139.519 367.393 144.017 371.49 149.078 374.542C157.512 379.602 164.821 386.269 173.897 390.365C176.95 393.177 176.548 394.381 172.211 395.988C168.596 395.345 165.383 393.257 161.929 391.891Z" fill="#073042"/>
<path d="M172.291 395.988C174.138 394.462 176.307 393.096 173.978 390.365C184.58 394.944 194.942 400.245 205.785 404.261C208.677 405.305 212.693 404.823 214.139 408.759H204.5C203.697 407.554 202.894 407.554 202.09 408.759H200.484C200.725 405.867 198.636 405.385 196.468 404.743C188.275 402.333 179.921 400.245 172.291 395.988Z" fill="#073042"/>
<path d="M202.09 408.759C202.653 407.795 201.046 405.707 203.215 405.707C205.223 405.707 204.42 407.554 204.5 408.759H202.09Z" fill="#073042"/>
<path d="M75.8241 15.2612C90.8443 19.5183 105.222 25.6227 119.359 32.1288C124.821 34.2975 130.363 36.3859 135.343 39.5185C140.885 45.7836 146.588 41.7675 152.291 39.9201C152.933 39.0365 154.058 38.6349 155.102 38.9562C157.271 40.8036 155.423 42.4101 154.54 43.8559C150.122 51.7274 146.507 59.8399 144.821 68.7557C143.455 76.1453 148.997 83.294 155.985 83.2137C158.716 83.3743 161.287 82.0088 162.813 79.7598C163.696 78.555 164.5 77.3502 165.142 75.9847C169.962 63.7757 178.958 54.619 187.15 44.7394C191.889 39.1169 196.869 37.0285 203.777 38.0727C205.062 38.2333 206.428 37.8317 207.713 38.394L214.781 38.6349C214.942 38.7152 215.022 38.7152 215.183 38.7956C216.709 39.2775 219.038 37.9923 219.601 39.5185C220.323 41.4462 217.914 42.5707 216.789 44.0165C208.998 53.8158 200.484 63.0528 193.737 73.7357C191.648 76.8682 190.203 80.4024 189.56 84.0972C189.078 87.8723 190.122 90.041 193.657 90.6836C199.6 91.8885 205.464 92.4507 210.605 87.792C217.673 81.4466 224.822 75.2618 231.649 68.7557C238.476 62.2496 245.946 56.3058 252.211 49.1571C253.256 47.9523 254.46 46.7475 256.308 47.0687C270.605 53.8158 284.099 62.0086 296.71 71.4866C299.2 73.3341 300.806 72.9324 302.814 70.6834C315.184 56.6271 326.429 41.6872 337.353 26.5063C339.039 24.0966 340.485 21.5263 342.574 19.438C346.59 17.2693 350.847 15.5825 355.265 14.3777C358.397 15.2612 356.148 17.5102 356.389 19.0363C354.06 25.2211 350.526 30.683 347.232 36.3859C340.003 48.8358 332.212 61.0448 326.429 74.3782C324.742 78.314 323.377 82.3301 322.252 86.5069C321.69 88.6756 321.529 91.0049 321.851 93.2539C322.092 95.3423 321.931 98.0733 324.019 98.9568C326.349 99.8403 327.553 97.1897 328.999 95.6636C331.168 93.2539 333.497 91.0049 336.389 89.6394C338.959 88.3543 341.77 87.3904 344.341 89.3985C346.911 91.4065 347.393 94.2178 347.072 97.3504C346.268 105.142 342.333 111.407 337.754 117.431C336.951 118.475 335.586 119.118 335.987 120.724C343.457 125.302 345.305 129.238 343.216 136.226C342.895 137.27 342.734 138.315 342.734 139.359C342.734 141.528 343.538 143.375 345.626 144.178C347.554 144.901 348.839 143.295 350.044 142.09C359.04 132.612 364.18 121.206 367.152 108.676C371.811 89.4788 373.578 69.6392 372.534 49.88C372.132 41.3659 370.847 32.9321 368.598 24.6589C367.714 21.446 366.028 18.7954 362.895 17.3496C362.253 16.948 361.61 16.3054 361.208 15.6628C360.004 13.6548 360.244 12.4499 362.895 12.5303C364.18 12.6106 365.546 12.2893 366.751 12.7712C372.453 15.6628 375.586 20.2412 377.112 26.5866C380.887 41.9281 382.735 57.35 380.887 73.0931C378.237 95.9849 374.221 118.555 364.502 139.76C361.61 146.026 358.959 152.451 355.746 158.636C354.14 161.688 352.855 161.608 350.365 160.162C340.726 154.459 330.606 149.64 320.164 145.704C315.585 144.017 310.766 143.455 305.947 143.857C303.216 143.937 300.806 145.704 299.842 148.275C297.754 152.773 296.629 157.592 296.629 162.572C296.71 170.604 296.549 178.636 296.629 186.668C296.629 188.918 296.148 189.64 293.658 189.078C265.143 182.251 237.994 187.552 211.568 198.717C203.938 201.93 196.468 205.384 188.998 208.757C187.632 206.267 188.677 203.777 189.239 201.367C191.889 190.604 189.721 180.403 186.106 170.363C184.5 166.267 182.492 162.331 180.082 158.636C175.022 150.363 166.588 147.15 158.235 144.017C148.034 140.323 137.592 137.592 126.507 138.395C123.937 138.556 121.447 138.556 119.037 139.439C117.672 139.921 115.985 140.162 115.021 138.716C113.977 137.11 114.62 135.664 116.226 134.7C120.483 135.825 124.901 133.254 126.025 128.997C126.829 126.186 127.551 123.294 128.033 120.403C129.801 106.668 120.885 90.8443 103.776 89.8804C89.5591 89.0772 81.1253 96.5471 74.057 107.23C72.9325 108.917 72.6112 110.925 72.1292 112.853C71.6473 114.941 72.8521 115.342 74.3783 115.583C75.8241 119.439 78.796 121.045 82.7318 121.367C94.2981 122.331 102.009 129.72 109.64 137.27C111.969 139.519 111.246 141.447 108.194 142.732C107.712 142.973 107.23 143.134 106.668 143.214C102.17 144.419 98.2339 146.186 99.0371 151.969C99.1175 152.451 98.7159 152.933 98.3142 153.335C96.2259 153.014 96.6275 151.327 96.4668 149.961C96.3062 148.596 96.7078 147.07 95.6636 145.463C93.6556 146.267 93.254 148.034 93.0933 149.801C92.772 152.853 92.772 155.905 93.9769 158.797C94.5391 160.162 95.1014 161.528 94.6998 163.054C93.1736 166.909 93.4949 171.006 93.9769 174.941C95.5833 188.757 94.0572 202.412 92.5311 216.066C91.3262 226.83 90.8443 237.593 91.3262 248.436C91.5672 252.934 93.6556 256.308 97.0291 259.039C100.885 262.091 105.302 264.501 109.961 266.187C113.977 267.794 118.395 267.794 122.411 266.107C130.363 262.894 138.234 259.681 144.74 253.818C147.552 258.075 150.845 262.171 154.379 265.866C156.949 268.517 157.753 271.167 155.343 274.701C146.909 287.151 138.234 299.441 130.443 312.373C125.061 309.24 120.322 304.983 116.788 299.842C114.459 296.549 111.085 296.79 107.792 297.031C104.981 297.192 102.652 297.031 101.366 293.818C99.9207 290.284 96.0652 291.408 93.254 290.686C91.8885 290.364 90.282 290.686 88.9166 290.284C87.3101 289.802 85.3021 288.918 85.6234 286.83C85.9446 284.902 87.6314 283.457 89.5591 283.457C93.013 283.376 96.4668 283.457 100.403 283.457C99.1175 281.368 97.5914 281.047 95.8243 281.047C94.7801 282.011 93.5752 281.689 92.4507 281.208C87.4708 279.36 82.4105 277.754 77.4305 275.987C77.0289 275.826 76.6273 275.585 76.306 275.344C71.1654 272.854 65.4625 272.693 60.0809 271.489C54.86 270.284 53.6552 268.517 54.0568 263.376C55.6632 259.681 59.0367 257.513 61.6071 254.701C63.3741 252.693 65.3822 250.926 67.2296 248.998C70.6031 245.304 70.3622 244.018 65.5428 243.135C57.4303 241.689 49.3178 239.842 41.0446 239.52C32.7714 239.199 24.5786 240.966 16.5464 242.814C16.1448 242.894 15.7432 243.055 15.4219 243.135C9.719 244.661 9.23707 244.179 9.79932 238.316C9.87964 229.4 13.3335 221.689 18.1528 214.38C19.9199 211.649 22.4099 209.721 24.8999 207.633C31.8076 201.769 38.5546 195.665 45.5426 189.881C46.1852 189.319 47.0688 188.837 47.1491 187.472C40.884 186.749 34.6992 187.954 28.5144 188.516C24.2573 188.837 20.0002 188.757 15.7432 189.48C14.2974 189.721 12.0483 190.042 12.6106 187.15C17.7512 178.395 25.8637 172.291 32.6911 164.982C25.3818 165.062 21.8476 159.118 17.0283 155.263C15.5022 153.977 17.189 152.612 18.2331 151.648C22.3296 147.953 26.3457 144.258 30.6027 140.805C38.5546 134.539 45.4623 126.989 51.0849 118.475C54.0568 113.897 57.35 109.479 60.4825 104.981C64.2577 98.3142 69.4786 92.8523 74.8602 87.5511C79.5992 82.8121 79.6795 82.4104 75.5831 77.2698C62.0087 60.3219 56.9484 40.643 56.4664 19.3576C56.3861 17.5905 56.7074 15.9038 57.4303 14.2973C58.5548 11.8074 60.8038 12.9319 62.4906 12.9319C64.0167 12.8515 65.5428 13.3335 67.1493 13.4941C70.2015 12.6106 73.4144 13.3335 75.8241 15.2612Z" fill="#C4E9CE"/>
<path d="M256.629 47.4703C255.023 47.3097 254.3 48.5145 253.336 49.4784C239.681 63.3741 224.982 76.2256 210.444 89.1575C206.106 93.0129 196.307 93.7358 191.167 90.8443C187.954 89.0772 187.954 86.1052 188.677 83.1333C190.363 76.2256 194.058 70.3621 198.556 65.0609C205.544 56.7877 211.488 47.7916 219.52 39.8397C217.753 39.3578 216.307 39.0365 214.862 38.6349C220.484 37.912 225.625 40.2413 230.926 41.0446C239.44 42.3297 248.195 42.892 256.227 46.4261C256.709 46.6671 257.111 46.9884 257.593 47.2294C257.272 47.631 256.95 47.7113 256.629 47.4703Z" fill="#194E4F"/>
<path d="M256.629 47.4703C256.95 47.39 257.272 47.39 257.593 47.3097C262.894 49.88 267.954 49.0768 273.336 46.8278C295.505 37.2694 317.754 28.0324 340.405 19.8395C341.128 19.5986 341.931 19.5182 342.734 19.2773C342.493 22.5705 339.762 24.5785 338.156 26.9882C332.453 35.3417 326.108 43.2133 320.164 51.4061C314.782 58.8761 307.955 65.1412 302.493 72.5308C300.726 74.9405 298.878 74.1373 297.031 72.7718C289.561 67.1492 281.85 61.9283 273.898 57.109C268.276 53.6551 262.011 51.3258 256.629 47.4703Z" fill="#337762"/>
<path d="M116.869 134.861C115.905 135.825 114.861 137.19 115.824 138.315C116.788 139.439 118.555 139.037 119.841 138.074C120.724 137.511 121.849 137.27 122.893 137.27C140.885 135.905 157.431 140.965 173.094 149.319C177.19 151.487 179.841 155.343 182.17 159.279C188.677 170.122 192.371 181.849 191.648 194.54C191.407 199.279 190.122 203.938 189.319 208.677C181.207 214.38 172.211 218.878 164.339 224.982C160.564 227.874 156.789 230.765 153.014 233.737C151.969 234.54 151.086 234.46 150.443 233.255C151.889 228.516 154.861 224.58 157.512 220.404C162.572 212.452 167.632 204.42 170.042 195.102C170.283 194.219 170.524 193.175 171.809 193.496C173.817 197.271 174.219 201.046 171.97 204.902C170.845 206.829 171.166 209.078 170.363 211.086C169.48 213.416 168.676 215.745 165.945 217.994C170.765 216.066 174.058 213.496 177.994 211.97C179.6 211.327 180.644 209.962 179.921 208.114C178.877 205.544 180.082 204.018 182.01 202.733C187.231 199.279 187.954 194.219 187.391 188.596C187.391 187.632 187.07 186.749 186.508 186.026C184.66 184.178 184.179 182.17 185.785 179.921C186.187 179.52 186.267 178.958 186.187 178.395C184.58 173.656 183.375 168.435 180.323 164.58C178.235 162.01 175.905 159.68 174.46 156.708C173.255 154.299 171.648 152.853 168.757 153.335C167.231 153.576 165.463 153.254 164.901 151.809C162.973 147.311 158.797 146.427 154.781 145.383C148.194 143.776 141.768 141.447 134.861 141.447C130.041 141.367 125.222 142.009 120.644 143.375C116.065 144.821 111.567 146.427 106.828 147.391C102.571 148.275 103.776 151.809 103.374 154.459C102.973 157.11 105.463 156.628 106.828 157.431C110.523 159.6 115.583 159.761 117.19 164.741C116.387 166.668 114.62 166.347 113.093 166.427C107.15 166.829 99.2781 160.805 97.9929 155.022C97.8323 154.379 97.9929 153.656 98.3945 153.174C98.3945 144.58 98.3945 144.58 107.23 142.09C111.085 140.965 111.407 140.082 108.595 137.511C103.374 132.853 98.6355 127.712 91.9688 124.74C88.033 122.973 84.0169 122.893 80.0008 121.929C76.5469 121.126 73.9766 119.68 74.2979 115.583C73.575 113.736 74.8602 112.531 75.9043 111.407C80.0811 106.909 84.9807 103.134 90.3623 100.081C94.8604 97.5913 99.4387 98.5552 104.017 99.8403C105.061 100.081 106.105 100.724 105.945 102.089C105.784 103.214 104.82 103.535 103.856 103.696C100.804 104.258 98.1536 106.186 96.7078 108.997C94.2981 113.495 95.262 117.993 99.3584 120.965C101.125 122.17 102.973 123.214 104.901 124.098C108.274 125.945 111.326 125.543 114.057 122.893C114.459 122.491 114.861 122.17 115.262 121.849C116.547 120.804 117.993 119.921 119.68 120.804C121.367 121.688 121.367 123.616 120.885 125.061C119.841 128.515 120.001 132.371 116.869 134.861Z" fill="#A0C6B4"/>
<path d="M144.981 253.978C144.58 255.906 143.295 256.87 141.688 258.075C135.343 262.733 128.033 265.143 120.885 267.954C118.395 268.918 115.664 268.999 113.093 268.276C106.989 266.83 101.768 263.858 96.7078 260.404C90.3623 255.986 89.6394 249.239 89.9607 242.573C90.2017 237.673 90.1214 232.693 90.523 227.793C91.4065 217.592 92.531 207.392 93.3342 197.191C93.9768 190.685 93.8965 184.098 93.2539 177.592C92.772 173.576 93.013 169.56 92.9326 165.624C92.8523 164.5 93.4146 163.455 94.4588 163.054C100.483 166.427 104.74 170.363 104.66 178.556C104.338 196.628 102.973 214.621 102.009 232.613C101.768 236.629 100.563 240.484 100.162 244.5C99.3584 251.167 104.097 257.272 110.764 258.075C112.13 258.235 113.495 258.155 114.78 257.914C119.6 256.95 123.776 254.46 127.712 251.649C132.933 247.954 137.833 243.697 142.813 239.681C143.937 238.798 144.901 237.593 146.507 237.352C147.471 237.271 148.355 237.834 148.676 238.717C144.981 243.135 141.688 247.794 144.981 253.978Z" fill="#A0C6B4"/>
<path d="M207.793 38.394C204.179 38.394 200.564 38.4743 196.95 38.394C195.424 38.394 193.978 38.5546 193.014 39.8397C186.508 48.2736 178.395 55.3419 172.371 64.338C169.239 69.077 167.15 74.2979 164.58 79.1976C161.046 86.0249 152.451 85.302 148.435 81.4466C144.499 77.7518 142.652 73.4144 143.857 67.7918C145.945 58.9564 149.319 50.4423 153.977 42.651C154.54 41.6068 156.066 40.643 154.7 39.1972C154.54 38.5546 154.861 38.2333 155.504 38.3136C166.99 36.9482 178.556 37.8317 190.042 37.5907C195.906 38.0727 201.93 36.9482 207.793 38.394Z" fill="#194E4F"/>
<path d="M158.716 312.373C155.825 312.132 153.014 311.087 150.684 309.401C149.479 308.597 148.034 308.196 146.588 308.356C146.267 306.348 147.953 305.304 148.917 303.858C154.299 296.147 159.439 288.276 164.339 280.163C165.303 279.44 166.749 279.44 167.632 280.324C171.247 283.216 174.299 286.669 176.709 290.605C176.95 291.087 176.95 291.649 176.709 292.131C173.978 292.533 172.612 294.3 171.166 296.469C168.194 300.967 165.142 305.465 162.01 309.883C161.126 311.007 160.644 312.694 158.716 312.373Z" fill="#194E4F"/>
<path d="M212.532 334.06C212.934 334.541 215.263 337.594 214.942 337.915C213.737 339.602 209.56 334.3 208.677 333.578C198.556 323.698 190.604 312.051 182.17 300.726C180.162 297.995 177.191 295.826 176.468 292.212C173.174 287.473 170.443 282.091 164.339 280.163C166.267 277.754 167.793 278.155 169.801 280.324C179.199 290.364 186.829 301.77 195.102 312.694C200.725 320.003 206.749 326.911 212.532 334.06Z" fill="#073042"/>
<path d="M355.506 19.2773C354.863 17.6709 357.433 15.9038 355.345 14.2973C359.12 13.0122 362.654 10.1206 366.992 12.6909C366.51 12.6909 365.947 12.7712 365.465 12.7712C364.18 12.9319 362.494 12.1286 361.771 13.2531C360.807 14.8596 363.297 15.4218 363.538 16.707C362.494 17.9118 361.048 17.6709 359.682 17.7512C358.317 17.5905 357.433 18.3938 356.469 19.2773C356.228 19.5183 355.827 19.5183 355.506 19.2773Z" fill="#C4E9CE"/>
<path d="M148.676 238.557C147.953 238.235 147.311 237.914 146.588 237.593C146.989 235.183 148.194 233.416 150.765 232.934C151.327 233.737 152.21 233.657 153.014 233.657C151.889 235.585 150.202 237.03 148.676 238.557Z" fill="#A0C6B4"/>
<path d="M23.8557 353.096C18.4741 337.754 13.7351 322.172 12.5302 305.866C12.2893 302.895 11.8073 299.682 14.0564 297.031C18.0725 302.895 23.8557 302.091 29.6388 300.967C30.7634 300.726 31.6469 299.601 32.9321 300.485C33.7353 301.69 33.5746 303.216 32.6108 304.26C32.6911 306.911 32.6911 309.642 32.4501 312.292C32.2092 314.541 32.0485 317.192 28.3537 316.71C27.2292 316.549 25.1408 317.192 26.8276 319.361C28.434 319.441 29.3979 320.565 30.6027 321.449C34.5385 324.581 38.153 328.196 42.3297 331.088C44.9804 332.855 45.141 334.461 42.7313 336.549C37.1088 341.449 31.8075 346.75 26.9079 352.373C26.2653 353.176 25.3818 354.702 23.8557 353.096Z" fill="#C4E9CE"/>
<path d="M32.6108 304.34C32.6108 303.055 32.5305 301.69 32.5305 300.405C32.1289 297.754 33.5747 295.907 34.8598 293.898C37.5908 289.722 40.5627 285.625 41.4462 280.485C44.9001 283.457 49.1571 282.412 53.0929 282.573C54.5387 282.653 55.9845 282.573 57.4303 282.573C59.9203 282.573 62.4906 282.814 64.9806 282.653C67.6312 282.493 68.4344 283.858 68.6754 286.188C69.077 290.043 67.1493 292.694 64.1774 294.461C56.3861 299.119 47.872 302.172 39.1972 304.822C37.0285 305.625 34.7795 304.983 32.6108 304.34Z" fill="#C4E9CE"/>
<path d="M54.9403 338.718C59.1171 338.156 59.84 338.798 59.9203 342.895C60.0006 345.546 59.84 348.196 59.84 350.927C59.7596 351.971 60.0006 353.015 60.4022 353.979C62.8922 359.04 62.8922 358.959 57.5106 360.967C55.4222 361.771 53.3339 362.734 51.4865 364.02C48.4342 366.429 44.4984 367.473 40.643 366.911C39.4382 366.349 38.153 366.108 36.8679 366.108C33.655 365.947 31.6469 364.502 31.8076 360.967C33.0927 356.469 36.145 353.015 39.2775 349.803C43.6952 345.224 49.2375 341.77 54.9403 338.718Z" fill="#C4E9CE"/>
<path d="M54.9404 338.718C52.611 340.967 50.0407 342.895 47.3098 344.501C41.125 348.518 35.9843 353.979 32.5305 360.485C31.0044 363.216 30.5224 366.67 26.9883 367.875C26.9079 366.831 26.908 365.706 27.1489 364.662C28.3537 360.646 28.4341 357.032 24.2573 354.542C23.936 354.381 24.0164 353.578 23.8557 353.096C25.4622 353.176 26.1851 351.891 26.9883 350.927C31.4863 345.465 36.4663 340.485 42.0085 336.068C44.0166 334.541 44.7395 333.497 41.9282 331.811C36.3056 328.437 31.7273 323.778 26.908 319.441C27.8718 316.871 29.6389 317.915 31.2453 318.557C38.394 321.931 45.2214 325.867 51.6472 330.365C54.3781 332.132 57.8319 334.381 54.9404 338.718Z" fill="#073042"/>
<path d="M26.9883 367.875C28.8357 365.385 30.6831 362.895 32.5305 360.485C32.2092 363.618 33.7353 365.144 36.7876 365.385C38.2334 365.305 39.6792 365.947 40.643 366.992C32.3698 365.385 30.2815 372.293 26.8276 377.112C25.1409 379.441 23.7754 382.092 22.2493 384.582C20.7231 387.072 20.1609 385.626 19.7593 383.859C21.3657 378.156 24.5786 373.176 26.9883 367.875Z" fill="#C4E9CE"/>
<path d="M77.6714 275.344C83.053 276.228 87.9526 278.557 93.0129 280.324C93.9768 280.726 95.0209 280.967 96.0651 281.047C96.7077 283.858 94.2177 282.653 93.6555 282.493C87.31 280.324 80.7236 281.288 74.2979 280.967C74.9404 280.565 76.0649 280.244 76.1453 279.681C76.3059 278.637 75.2617 278.236 74.3782 277.914C70.603 276.629 66.5869 275.987 62.5708 276.147C59.358 276.228 56.1451 276.228 52.9322 276.147C48.4341 276.067 47.7916 275.103 49.398 270.444C50.6832 273.577 53.0125 274.942 56.4664 274.3C58.7957 274.139 61.2054 274.139 63.5347 274.3C68.1934 274.621 73.0127 273.497 77.6714 275.344Z" fill="#C4E9CE"/>
<path d="M57.4303 14.2973C56.9484 24.4982 58.3942 34.4582 60.7235 44.4181C63.7758 57.1893 69.318 68.7557 77.9928 78.6353C80.3221 81.3663 80.5631 83.6956 77.6715 86.1856C71.1654 91.7278 66.4264 98.9568 60.4022 104.981C60.7235 101.929 59.1171 103.535 58.2335 104.178C55.3419 106.346 52.611 108.676 49.7997 110.925C48.8359 111.648 47.9523 112.692 46.5868 112.13C45.2214 111.567 45.2214 110.202 45.382 108.997C47.4704 82.9727 44.1772 56.6271 49.4784 30.683C50.8439 24.5786 53.1732 18.956 57.4303 14.2973Z" fill="#337762"/>
<path d="M55.9845 275.344C49.639 275.585 49.639 275.585 49.3981 270.444C49.7194 268.918 49.9603 267.312 50.3619 265.786C51.5668 260.083 51.0848 258.798 45.6229 256.629C37.5104 253.255 28.9159 251.247 20.1608 250.605C19.7592 250.605 19.3576 250.605 18.956 250.525C10.6025 249.802 8.43382 246.91 10.1206 238.396C10.6025 243.617 10.6828 243.697 15.5825 242.171C30.683 237.512 45.9442 237.673 61.2054 241.127C63.3741 241.609 65.6231 241.93 67.7918 242.492C72.5308 243.617 72.9324 244.822 69.6392 248.436C65.6231 252.854 61.2054 256.95 57.0287 261.288C56.3861 261.93 55.8238 262.733 55.2616 263.376C53.3339 265.545 53.5748 267.713 54.7797 270.284C55.4222 271.81 56.9483 273.256 55.9845 275.344Z" fill="#C4E9CE"/>
<path d="M41.4462 280.485C42.4904 282.653 41.8478 284.42 40.7233 286.428C38.0727 291.087 34.6188 295.344 32.5305 300.405C29.1569 303.216 20.0002 303.778 16.4661 301.368C14.9399 300.485 14.0564 298.798 14.0564 297.031C15.7432 292.774 18.8757 289.4 22.0083 286.187C26.0244 282.091 30.6831 278.637 35.1811 275.103C37.1892 273.577 38.3137 273.577 39.0366 276.308C39.5185 277.834 40.643 279.119 41.4462 280.485Z" fill="#C4E9CE"/>
<path d="M12.6105 187.15C13.5744 189.881 15.6627 188.355 17.2692 188.275C28.0323 187.713 38.7152 186.026 50.7635 186.267C39.679 196.468 29.0765 205.544 18.1527 214.38C21.2853 207.793 25.6227 201.93 30.6026 196.227C26.7472 195.263 23.7753 196.789 20.723 198.074C15.6627 200.323 14.2169 200.082 11.3254 196.628C8.43376 193.014 9.95988 190.042 12.6105 187.15Z" fill="#C4E9CE"/>
<path d="M135.343 39.5185C129.64 37.8317 124.098 35.8237 119.359 32.1288C121.768 28.3537 125.865 29.9601 129.158 29.1569C130.041 28.916 131.969 30.4421 130.925 31.9682C128.997 34.6991 131.086 35.3417 132.772 35.8237C134.78 36.3859 135.664 37.4301 135.343 39.5185Z" fill="#073042"/>
<path d="M75.824 15.2612C72.9324 14.6989 70.0408 14.0564 67.1492 13.4941C67.2296 12.0483 68.1131 11.4057 69.3983 11.0844C73.4144 10.1206 77.6714 10.6828 81.5269 8.83543C82.4907 8.35349 83.6153 8.83543 84.0972 9.79929C84.1775 9.95994 84.2578 10.2009 84.2578 10.3615C84.5791 12.209 83.1333 13.2531 81.6875 13.3335C79.5188 13.4138 77.7517 14.3776 75.824 15.2612Z" fill="#073042"/>
<path d="M155.504 38.394C155.263 38.7152 154.941 38.9562 154.7 39.2775C153.977 39.6791 153.335 40.4823 152.291 39.9201C151.728 39.4381 151.166 38.8759 150.604 38.3136C149.72 37.1891 148.837 35.8236 149.801 34.4582C150.443 33.414 151.648 32.8517 152.853 33.0124C154.379 33.173 155.504 34.4582 155.504 35.9843V38.394Z" fill="#073042"/>
<path d="M291.328 339.602C295.023 343.136 295.826 339.843 296.87 337.272C297.192 339.2 295.987 341.61 298.477 342.895C296.469 344.019 294.3 344.823 291.971 345.224C291.408 343.698 291.007 342.172 290.766 340.566C290.846 340.164 291.087 339.843 291.328 339.602Z" fill="#073042"/>
<path d="M358.638 16.8676C360.244 16.8676 361.931 16.7873 363.538 16.7873C366.108 16.707 367.313 18.2331 368.357 20.3215C371.731 27.1488 371.971 34.6188 373.096 41.9281C374.783 52.7716 374.461 63.856 373.739 74.6995C372.855 87.7117 370.686 100.563 367.232 113.093C364.341 123.776 359.522 133.415 352.052 141.608C350.204 143.696 348.678 146.989 345.064 145.463C341.931 144.178 341.128 139.76 342.654 135.664C343.056 135.985 343.377 136.467 343.457 137.029C343.537 137.431 343.618 137.833 343.859 138.154C346.59 132.29 346.027 128.114 341.931 123.375C340.566 121.768 338.718 120.483 338.959 117.993C341.047 113.495 344.501 109.8 346.349 105.142C347.795 101.366 348.999 97.511 348.196 93.4146C347.072 87.7117 343.056 85.7036 337.754 87.9527C334.22 89.4788 331.65 92.2097 328.999 94.8604C327.714 96.1455 326.75 98.3945 324.501 97.1897C322.493 96.1455 322.413 93.8965 322.573 91.8884C323.055 86.4265 324.501 81.045 326.75 76.065C333.256 61.366 341.208 47.4703 349.562 33.7353C351.971 29.7192 353.899 25.3818 356.228 21.3657C357.192 20.0002 357.353 18.1528 358.638 16.8676Z" fill="#337762"/>
<path d="M197.271 132.531C195.102 133.254 194.942 132.049 194.942 130.363C194.861 124.178 198.074 119.359 201.367 114.7C213.737 97.27 226.589 94.6194 244.661 97.511C257.914 99.5994 268.356 107.069 275.264 119.118C280.726 128.676 286.669 137.833 285.625 149.64C285.063 156.307 282.573 162.251 279.601 168.114C278.557 170.202 276.79 170.845 274.541 169.961C271.569 167.231 272.452 163.857 272.934 160.564C273.898 154.861 273.175 148.997 271.007 143.616C270.043 141.206 269.24 140.724 267.312 143.054C260.163 151.648 241.769 154.62 231.89 141.046C226.83 134.138 224.018 126.668 228.918 118.314C231.488 113.977 234.781 110.764 239.842 110.925C232.211 107.953 225.143 111.326 218.556 115.342C211.729 119.359 205.705 124.499 200.645 130.604C199.761 131.728 198.877 132.853 197.271 132.531Z" fill="#073042"/>
<path d="M150.684 232.934L146.507 237.593C140.564 242.974 134.379 248.035 127.873 252.693C123.857 255.585 119.519 257.914 114.539 258.878C106.105 260.565 97.511 253.657 99.0371 245.304C101.768 230.364 101.286 215.183 102.812 200.163C103.696 191.488 103.374 182.813 103.535 174.058C103.535 171.97 102.491 170.604 101.045 169.319C98.7961 167.231 96.6274 165.062 94.3784 162.973C92.6113 158.797 91.2459 154.54 92.0491 149.881C92.29 148.275 92.772 146.748 93.5752 145.383C94.2981 144.339 95.1013 143.295 96.4668 143.616C98.2339 144.017 97.3503 145.544 97.4307 146.668C97.511 148.917 97.029 151.166 98.3945 153.254C99.519 161.367 110.202 167.793 117.11 164.741C120.563 162.17 124.74 161.126 128.596 159.279C131.648 157.833 133.415 160.403 134.861 162.813C138.716 169.56 144.098 174.54 151.327 177.351C158.877 180.243 166.427 180.243 173.817 176.709C175.986 176.066 177.351 176.548 177.11 179.118C173.737 183.295 172.773 188.355 171.568 193.335C169.56 201.689 165.785 209.239 161.126 216.388C157.512 221.85 154.138 227.392 150.684 232.934Z" fill="#073042"/>
<path d="M197.271 132.531C202.492 126.829 208.195 121.608 214.38 116.869C220.002 112.692 226.267 110.443 232.934 108.836C235.424 108.274 235.424 108.274 243.456 112.692C237.834 110.603 233.657 112.933 230.846 117.27C227.472 122.491 226.348 127.953 229.079 134.298C234.54 146.748 245.384 152.371 259.521 147.712C262.573 146.668 264.661 144.74 269.24 138.797C273.898 145.142 274.782 152.21 273.979 159.68C273.577 163.134 273.416 166.588 274.461 169.962C274.22 171.809 273.336 172.371 271.408 171.97C268.276 171.327 265.384 170.202 263.456 167.712C256.227 158.716 245.625 155.343 235.585 151.086C229.641 148.596 223.938 145.142 217.432 144.098C213.255 143.455 209.078 142.732 204.902 141.929C203.134 141.527 201.367 140.805 199.841 139.76C196.95 138.074 195.665 135.905 197.271 132.531Z" fill="#073042" fill-opacity="0.188235"/>
<path d="M116.869 134.861C118.395 131.407 119.439 127.792 120.082 124.098C120.242 123.053 120.483 121.849 119.278 121.206C118.314 120.644 117.511 121.527 116.788 122.009C116.708 122.09 116.547 122.17 116.467 122.25C109.158 127.31 104.579 126.909 97.511 121.045C94.0572 118.234 93.5752 114.62 94.6997 110.925C95.8242 107.23 97.8323 104.097 101.929 103.053C103.134 102.812 104.338 102.491 105.463 102.009C101.286 100.001 96.7078 98.3946 92.4507 100.403C85.2217 103.937 78.6353 108.515 74.3783 115.664C73.4144 116.065 73.4947 118.073 72.1292 117.511C71.085 117.11 71.1654 115.744 71.1654 114.62C71.1654 111.969 71.8883 109.318 73.2537 106.989C75.7437 102.491 79.2779 98.7962 82.9727 95.3423C93.8965 85.0611 114.539 87.4707 122.25 97.27C128.194 104.82 131.648 113.334 128.596 123.294C128.114 124.499 127.792 125.784 127.632 127.15C127.712 133.174 122.893 134.62 118.796 136.708C116.788 137.752 117.27 135.744 116.869 134.861Z" fill="#073042"/>
<path d="M357.032 21.5263C349.481 37.1891 339.361 51.4864 331.891 67.2296C328.357 74.6995 324.421 82.0891 323.698 90.523C323.537 91.0852 323.537 91.5671 323.537 92.1294C323.537 93.8162 323.136 96.1455 324.742 96.8684C326.509 97.752 327.232 95.262 328.196 94.2178C330.365 91.8081 332.533 89.4788 335.425 87.9527C338.638 86.1856 342.092 84.7398 345.626 87.0691C349.16 89.3985 349.803 93.0933 349.481 97.0291C348.839 105.302 344.341 111.728 339.441 117.993C339.2 121.929 339.2 121.929 334.622 121.206C333.015 119.439 335.184 118.957 335.827 118.154C340.967 111.889 345.546 105.383 346.268 96.9487C346.509 94.2178 346.509 91.4065 343.859 89.8001C341.208 88.1936 338.638 89.5591 336.309 90.8443C332.855 92.772 330.445 95.8242 327.794 98.7158C324.581 102.17 322.975 101.607 321.61 97.0291C319.923 91.1655 321.208 85.6233 323.216 80.1614C328.437 65.8641 336.389 53.0126 344.019 40.0004C348.036 33.173 352.212 26.5063 355.505 19.3576C355.746 19.2773 355.907 19.197 356.148 19.1166C358.076 19.2773 357.594 20.4018 357.032 21.5263Z" fill="#073042"/>
<path d="M55.9844 275.344C55.0206 273.336 54.2977 271.167 53.1732 269.32C51.4864 266.509 52.129 264.661 55.1009 263.456C55.1009 268.758 56.0648 269.802 61.2857 270.685C66.8279 271.649 72.4505 272.051 77.5911 274.702C72.8521 275.746 67.8721 273.979 63.1331 275.344H55.9844Z" fill="#C4E9CE"/>
<path d="M334.622 121.206C337.513 121.206 337.513 121.206 339.441 117.993C339.762 120.162 341.369 121.367 342.734 122.732C347.634 127.792 347.795 135.744 343.216 141.046C342.011 139.278 342.895 137.351 342.654 135.664C344.421 128.435 342.172 124.499 334.622 121.206Z" fill="#073042"/>
<path d="M63.0529 275.344C67.7919 272.854 72.6915 275.183 77.5108 274.702C77.5912 274.942 77.5911 275.183 77.6715 275.424C72.7718 275.344 67.9525 275.344 63.0529 275.344Z" fill="#C4E9CE"/>
<path d="M173.978 177.431C167.793 181.849 160.965 180.885 154.379 179.359C145.383 177.351 138.957 171.648 134.379 163.857C131.327 158.636 131.086 158.636 125.784 161.608C123.134 163.054 120.322 164.419 117.19 164.66C113.656 161.046 109.158 159.198 104.419 157.833C102.411 157.271 100.162 156.869 102.491 154.058C102.732 153.736 102.893 153.335 102.893 152.933C102.571 151.327 100.965 149.479 102.893 148.194C104.82 146.909 106.989 145.463 108.997 145.544C113.575 145.544 117.27 143.054 121.447 141.929C129.319 139.841 137.592 139.841 145.544 141.768C150.042 142.813 154.861 143.696 159.118 145.624C161.447 146.668 164.259 147.07 164.901 150.363C165.303 152.451 167.311 153.094 168.998 152.371C171.889 151.166 173.335 152.692 174.54 154.7C176.548 158.074 177.191 162.492 181.93 163.616C182.652 163.777 182.572 164.982 182.733 165.785C183.215 168.837 184.259 171.729 185.946 174.299C186.588 175.263 187.713 176.95 187.311 177.512C183.697 182.572 188.918 186.829 188.516 191.648C188.114 196.95 186.508 200.885 182.17 203.697C180.403 204.821 179.279 205.544 180.966 207.954C182.733 210.524 180.002 212.532 178.235 213.014C174.299 214.219 171.166 216.629 167.632 218.476C166.427 219.119 165.383 219.038 164.018 219.038C170.042 211.327 173.094 202.894 171.407 193.255C170.363 187.552 172.452 182.974 176.307 178.958C176.789 178.154 177.271 177.03 176.548 176.387C175.584 175.584 174.861 177.03 173.978 177.431Z" fill="#A0C6B4"/>
<path d="M357.032 21.5263C357.032 20.5624 357.112 19.5986 356.148 18.956C356.228 17.6708 357.273 16.707 358.558 16.7873H358.638C358.799 18.4741 358.236 20.2411 357.032 21.5263Z" fill="#073042"/>
<path d="M160.403 198.396C153.656 221.127 140.644 238.958 119.519 250.284C113.656 253.416 111.005 252.452 108.033 246.589C105.864 244.018 104.82 240.725 105.222 237.352C105.543 232.452 105.383 227.472 105.302 222.572C105.142 217.432 106.909 213.094 109.64 208.757C119.439 193.657 134.138 188.596 151.005 187.632H151.407C159.198 187.873 161.608 190.685 160.403 198.396Z" fill="#FD9E9C"/>
<path d="M160.403 198.396C160.082 190.363 158.074 188.355 149.881 188.837C131.086 189.801 116.226 197.351 107.31 214.701C106.346 216.629 105.784 218.717 105.704 220.886C105.624 229.56 104.74 238.235 107.953 246.589C104.097 244.581 102.973 241.528 104.66 237.673C104.82 237.111 104.82 236.629 104.82 236.067C104.66 227.874 104.981 219.601 105.543 211.408C105.864 207.552 106.587 203.777 106.507 199.922C106.828 194.46 107.873 189.078 107.632 183.616C107.471 180.885 108.274 178.395 108.435 175.745C108.515 173.656 110.523 172.612 112.29 172.05C115.744 171.006 119.118 169.64 122.491 168.355C125.383 167.231 127.712 167.632 129.881 170.443C131.889 173.094 134.299 175.423 137.029 177.431C140.001 180.885 144.258 182.251 148.275 183.857C151.166 184.821 154.058 185.946 156.789 187.311C162.01 189.721 162.01 189.721 161.287 195.825C161.046 196.789 161.206 197.753 160.403 198.396Z" fill="#FA7A7A"/>
<path d="M137.029 177.431C133.736 176.307 131.728 173.415 129.64 171.006C127.15 168.114 124.58 168.355 121.849 169.64C119.118 171.006 116.306 171.97 113.334 172.692C111.085 173.335 108.997 174.379 108.836 177.431C108.515 183.536 107.873 189.56 107.391 195.665C107.23 197.11 107.792 198.636 106.587 199.841C106.266 192.693 107.31 185.544 107.792 178.395C107.953 176.307 105.945 175.022 106.748 172.773C107.873 169.319 110.844 167.231 115.664 167.472C119.118 167.793 122.572 167.07 125.543 165.303C127.953 163.777 130.604 164.821 130.363 166.99C129.881 170.604 132.371 171.809 134.058 173.817C135.021 175.022 135.985 176.227 137.029 177.431Z" fill="#073042"/>
<path d="M161.206 195.906C162.09 191.247 159.359 189.239 155.504 187.873C152.853 187.07 150.363 185.705 148.275 183.857C152.13 184.018 155.905 183.456 159.761 184.419C162.09 184.982 163.054 186.026 162.733 188.195C162.411 190.845 162.251 193.496 161.206 195.906Z" fill="#073042"/>
<path d="M173.978 177.431C174.058 177.271 174.058 177.19 174.138 177.03C175.102 175.986 176.387 174.219 177.592 175.182C179.038 176.387 177.753 177.913 176.468 179.038C176.789 176.789 175.182 177.351 173.978 177.431Z" fill="#073042"/>
<path d="M423.699 295.906C429.884 291.167 435.828 285.947 441.771 280.806C445.306 277.754 444.824 275.746 440.567 273.818C440.165 273.738 439.844 273.577 439.522 273.416C434.301 270.203 430.607 265.866 429.803 259.44C429.08 253.416 430.928 247.392 434.864 242.814C436.229 241.047 436.952 239.44 434.703 238.075C424.422 231.729 418.799 225.705 407.956 220.323C404.422 218.637 383.458 207.793 375.024 198.636C369 192.13 379.201 192.371 380.646 191.488C381.931 191.809 427.635 217.03 434.542 220.805C442.976 225.303 451.41 230.042 459.924 234.54C468.278 238.878 475.989 244.099 483.94 248.998C488.84 251.97 488.76 254.3 484.181 257.673C480.888 260.083 477.033 261.529 473.981 264.42C467.956 270.123 461.611 275.344 455.185 280.645C449.563 285.304 443.137 288.838 437.755 293.738C422.494 307.874 405.546 319.923 389.642 333.337" fill="#194E4F"/>
</g>
<defs>
<clipPath id="clip0_7_79">
<rect width="499.523" height="409" fill="white"/>
</clipPath>
</defs>
</svg>
