<svg viewBox="0 0 478 409" fill="none" xmlns="http://www.w3.org/2000/svg">
<path d="M41.7518 217.559C36.033 216.902 31.8141 214.371 29.5641 208.746C27.6891 203.965 28.8141 201.339 33.9704 200.308C38.7419 199.418 43.6368 199.418 48.4082 200.308C51.0333 200.683 54.8771 201.808 56.1896 199.089C57.5959 196.183 54.1271 194.214 52.0646 192.527C48.9707 189.995 48.5957 187.464 49.7208 183.527C54.9709 165.62 59.846 147.526 66.5024 130.088C67.2524 128.213 68.0961 126.432 68.9399 124.557C84.6902 64.5554 126.222 23.3046 127.16 22.2733C131.847 16.9294 135.129 16.7419 139.91 21.992C146.004 28.6484 149.66 36.8048 153.973 44.5862C156.692 49.4613 159.036 54.6177 161.567 59.6803C163.348 63.3366 165.692 66.8054 167.473 70.4618C171.963 79.0172 175.908 87.8474 179.286 96.8998C181.817 103.65 181.911 103.744 188.942 103.837C190.037 103.775 191.135 103.806 192.224 103.931C195.786 104.4 195.786 106.838 195.318 109.463C193.536 118.557 193.161 127.65 193.067 136.932C193.01 139.822 193.604 142.687 194.805 145.316C196.006 147.946 197.783 150.271 200.005 152.12C204.318 155.87 208.068 155.964 212.474 152.213C218.005 147.526 220.068 140.776 221.849 134.213C224.174 126.115 225.156 117.691 224.756 109.275C224.568 106.275 225.787 104.869 228.693 104.681C236.287 105.337 243.881 105.9 251.381 107.119C254.194 108.713 253.819 111.244 253.35 113.681C251.662 121.744 251.944 129.807 253.162 137.869C254.194 144.62 257.006 149.963 263.475 152.963C270.507 156.245 276.319 154.276 279.132 147.057C283.163 136.651 284.569 125.963 281.757 114.994C280.163 108.525 280.257 108.431 286.819 107.119C290.944 106.275 295.163 106.744 299.382 106.65C302.476 106.556 304.632 105.337 305.851 102.244C316.445 75.3369 333.227 51.9926 349.633 28.5547C352.727 24.2421 356.477 20.492 359.852 16.4607C363.696 11.9606 367.634 11.3981 372.227 14.0231C402.697 37.2736 425.385 129.432 427.354 140.307C429.322 151.182 426.322 161.87 427.822 172.651C428.854 180.339 431.666 186.339 440.198 188.214C443.385 188.87 447.791 189.152 448.166 193.464C448.541 198.433 447.698 203.496 443.479 207.058C442.073 208.291 440.407 209.189 438.604 209.683C421.26 214.09 408.603 225.527 395.853 237.246C378.978 252.809 366.79 271.841 354.602 290.873C353.571 292.56 351.789 293.873 351.696 296.123C351.227 299.31 350.102 302.123 347.008 303.717C338.57 315.998 328.164 326.498 317.851 337.092C314.289 340.749 310.539 344.03 304.82 344.499C301.07 344.78 297.507 346.749 296.382 351.436C295.638 353.822 294.632 356.117 293.382 358.28C291.038 362.874 287.007 363.062 284.007 358.936C282.29 356.534 280.961 353.876 280.069 351.061C279.132 348.342 277.444 347.217 274.725 348.999C266.85 354.061 257.944 357.155 249.6 361.468C246.225 363.249 243.693 366.155 241.256 368.874C238.443 372.062 236.756 371.218 235.162 367.937C232.086 361.778 227.547 356.466 221.943 352.468C220.912 351.718 219.787 350.124 218.287 351.249C217.068 352.186 217.537 353.874 218.005 355.186C218.755 357.624 219.037 359.968 216.505 361.374C213.787 362.874 212.099 360.343 211.443 358.655C207.599 348.717 198.693 348.436 190.349 347.124C183.13 345.999 176.005 344.499 168.973 342.811C164.286 341.686 160.067 339.342 155.004 339.342C151.723 339.342 148.723 337.374 146.66 334.655C142.348 328.748 136.348 324.248 131.941 318.342C130.535 316.467 130.816 313.654 128.285 312.623C124.535 309.623 124.066 304.935 122.097 300.998C114.256 284.938 104.222 270.046 92.2841 256.747C80.1901 242.028 65.8461 230.121 48.4082 222.152C46.3457 220.746 43.8144 219.527 41.7518 217.559Z" fill="#6DD58C"/>
<path d="M89.4717 147.995C86.5654 151.651 82.7216 150.151 79.3465 149.401C76.159 148.651 74.4714 146.12 74.4714 142.463C74.4714 134.869 77.1902 117.713 77.659 116.588C81.4091 107.494 94.9094 80.3058 97.3469 75.3369C101.188 67.8702 105.944 60.9104 111.503 54.6177C112.404 53.3616 113.218 52.0461 113.941 50.6801C116.566 46.2738 119.754 43.93 121.347 39.3362C122.941 34.7423 125.472 29.7735 128.566 30.1485C129.733 30.2534 130.811 30.8146 131.565 31.7099C132.32 32.6053 132.691 33.7624 132.598 34.9298C130.723 36.7111 131.754 38.7737 132.129 40.6487C135.644 57.7419 137.901 75.07 138.879 92.4935C139.127 97.924 139.659 103.338 140.473 108.713C140.754 110.681 141.129 113.119 139.254 114.338C137.191 115.65 135.41 113.775 133.816 112.65C130.068 109.837 125.798 107.797 121.254 106.65C118.347 105.994 115.629 105.994 113.566 108.431C111.503 110.869 112.16 113.681 113.472 116.306C114.028 117.245 114.529 118.216 114.972 119.213C116.191 121.838 115.535 123.713 112.535 123.807C102.972 124.182 97.7219 130.088 93.8781 137.869C93.0319 139.545 92.0929 141.173 91.0655 142.745C90.128 144.432 88.7217 145.932 89.4717 147.995Z" fill="#337762"/>
<path d="M432.697 408.719H45.5019C43.3456 404.875 41.5643 400.844 39.5956 396.812C38.9393 395.5 38.0955 394.093 39.033 392.5C42.8769 391 47.002 390.906 50.9395 390.718C68.0024 389.781 83.3777 383.687 97.7218 374.781C111.071 366.748 121.464 354.612 127.347 340.186C128.839 336.277 129.755 332.171 130.066 327.998C131.191 324.717 130.066 321.529 129.316 318.342C128.847 316.373 127.722 314.592 128.66 312.435C130.91 311.217 131.191 313.279 131.847 314.404C136.348 322.467 143.941 327.811 149.567 334.842C150.231 335.621 151.048 336.256 151.967 336.708C152.886 337.159 153.888 337.418 154.91 337.467C163.442 337.936 170.942 342.249 179.38 343.467C186.13 344.499 192.88 345.811 199.63 347.124C204.786 348.155 208.724 350.218 211.068 354.905C211.356 355.47 211.702 356.004 212.099 356.499C213.224 357.811 214.068 360.249 216.318 359.311C218.287 358.468 217.443 356.311 217.255 354.718C217.068 353.124 216.693 351.061 218.568 350.124C220.443 349.186 221.943 350.311 223.256 351.343C228.421 355.197 232.731 360.081 235.912 365.687C238.162 369.624 239.006 369.905 242.006 366.53C246.412 361.561 252.037 358.655 257.944 356.124C263.111 353.907 268.15 351.403 273.038 348.624C277.913 345.811 279.788 346.467 282.038 351.624C282.962 353.945 284.158 356.148 285.601 358.186C287.944 361.093 290.382 360.999 292.351 357.811C293.731 355.552 294.892 353.166 295.82 350.686C297.132 346.936 299.663 344.311 303.413 343.749C313.164 342.342 318.601 335.123 324.601 328.655C331.82 320.873 339.32 313.373 345.321 304.56C345.546 304.239 345.839 303.972 346.179 303.778C346.52 303.583 346.899 303.466 347.289 303.435C347.634 303.527 347.954 303.692 348.229 303.918C348.504 304.145 348.727 304.428 348.883 304.748C344.289 316.936 350.008 327.717 355.258 337.467C370.446 365.218 394.072 382.749 425.01 390.156C429.229 391.187 433.822 389.406 437.76 391.843C438.322 398.125 434.854 403.187 432.697 408.719Z" fill="#6DD58C"/>
<path d="M413.009 125.588C409.822 112.088 407.103 98.4936 403.447 85.1808C400.915 75.9932 397.634 66.993 390.509 60.0553C396.322 63.1491 402.697 62.8679 408.978 62.7741C410.291 62.7741 411.791 62.3991 412.916 63.6179C412.728 63.6179 412.634 63.7116 412.447 63.7116C401.947 63.7116 401.947 63.7117 405.697 73.9306C413.478 95.4936 417.791 117.994 422.572 140.401C418.728 143.026 418.635 138.901 417.885 137.307C415.916 133.557 414.603 129.525 413.009 125.588Z" fill="#6DD58C"/>
<path d="M387.603 11.7731C384.228 7.17924 377.759 3.24166 376.071 2.49164C367.165 -1.25843 356.383 -1.35219 349.446 6.24172C336.133 20.6795 325.82 36.2423 314.664 53.3989C313.07 56.399 297.601 79.087 293.757 88.8372C293.52 89.6012 293.027 90.2604 292.361 90.7042C291.696 91.148 290.897 91.3495 290.101 91.2747C287.757 91.0872 223.068 91.3685 193.724 89.9622C192.786 90.0559 191.193 90.3372 191.193 89.6809C191.005 85.8371 185.567 74.3994 182.567 73.0868C177.974 70.2743 171.786 73.0868 167.567 68.6805C166.63 67.743 165.88 69.243 166.442 70.4618C171.13 80.7745 175.911 90.9935 179.849 101.681C180.178 102.828 180.908 103.819 181.906 104.473C182.904 105.126 184.103 105.4 185.286 105.244C187.442 105.15 189.599 104.963 191.849 104.869C192.384 104.55 193.022 104.449 193.63 104.587C201.505 106.088 209.568 106.369 217.537 106.556C221.287 106.65 224.756 105.244 228.506 105.9C236.287 106.65 244.069 107.306 251.756 108.056C253.716 108.996 255.864 109.476 258.038 109.463C267.882 109.463 277.819 109.838 287.57 108.056C291.788 107.963 296.007 107.775 300.226 107.869C303.882 107.963 305.945 106.369 307.257 102.994C319.726 71.8681 338.571 44.5863 359.665 18.8982C364.727 12.7106 368.384 16.4607 373.728 18.8982C379.071 21.3358 401.947 65.5867 402.509 68.2117C403.822 73.8369 406.447 79.087 408.041 84.6183C413.197 102.9 417.041 121.557 421.447 140.119C423.974 148.342 425.485 156.843 425.947 165.432C426.604 177.433 429.322 187.933 443.385 190.464C443.998 190.63 444.572 190.917 445.073 191.308C445.766 191.679 446.342 192.235 446.739 192.913C447.136 193.591 447.338 194.366 447.323 195.152C446.948 200.496 445.542 205.371 440.198 207.996C437.385 209.402 434.385 210.246 431.479 211.371C425.572 213.433 419.76 215.684 414.791 219.621C389.478 239.309 369.602 263.778 353.383 291.341C352.446 292.935 351.133 294.435 351.508 296.498C351.644 296.968 351.949 297.372 352.364 297.631C352.78 297.891 353.276 297.988 353.758 297.904C355.633 297.341 356.665 295.654 357.79 294.248C361.071 290.123 364.259 285.904 368.29 282.529C371.571 278.966 374.853 275.404 377.759 271.56C389.572 255.434 404.572 242.965 421.447 232.559C426.229 229.653 431.01 226.277 436.729 225.715C443.104 225.059 449.479 225.527 455.854 225.527C458.761 225.527 460.636 226.934 461.104 229.84C462.792 239.965 464.292 250.278 464.011 260.497C463.542 277.935 459.792 295.091 457.729 312.436C457.745 313.062 457.714 313.689 457.636 314.311C452.693 338.814 446.339 363.011 438.604 386.781C438.041 388.562 437.01 390.25 437.573 392.218C436.823 398.031 432.604 402.906 432.698 409H445.823C449.854 403.562 451.073 397 452.76 390.812C457.542 374.031 462.417 357.343 468.042 340.842C472.667 327.272 475.688 313.208 477.042 298.935C477.136 297.341 476.948 295.654 477.136 294.06C477.042 278.685 476.105 244.559 475.823 243.903C474.363 235.548 472.422 227.284 470.011 219.152C468.698 215.121 465.979 211.652 462.511 210.058C459.698 208.652 459.886 207.34 460.636 205.558C462.604 201.058 462.323 196.652 460.917 192.058C459.966 188.719 458.2 185.669 455.778 183.182C453.356 180.694 450.354 178.848 447.042 177.808C444.51 176.964 444.041 176.026 443.76 173.776C442.916 167.495 443.76 160.932 441.323 154.839C438.041 146.495 436.823 137.682 435.604 128.963C433.354 113.306 428.854 98.3999 423.604 83.5871C422.104 79.462 419.478 75.7119 418.728 71.4931C412.635 53.0239 393.884 20.3983 387.603 11.7731Z" fill="#073042"/>
<path d="M38.9394 392.781C40.5332 398.312 45.4083 402.531 45.502 408.719H24.8766C22.7203 403.75 20.189 398.781 19.1577 393.437C17.6577 385.937 14.9389 378.812 12.9701 371.405C8.00125 352.561 2.75114 333.811 1.90737 314.217C1.71987 309.998 0.969854 305.873 0.969854 301.654C0.969854 297.248 -0.342673 292.841 0.126087 288.341C0.407342 274.841 -0.717681 261.341 0.876102 247.84C1.53237 241.372 8.18875 229.371 10.0638 226.277C11.3763 224.027 14.2826 221.027 14.9389 220.184C17.6577 216.996 21.689 213.996 16.8139 208.652C14.5639 206.121 14.9389 201.246 14.1889 197.402C13.3451 193.371 15.4076 191.402 19.064 190.277C24.3141 188.589 29.8454 188.87 35.2831 188.214C38.4706 187.839 39.5019 186.902 39.5956 183.433C39.8679 174.927 41.1905 166.488 43.5332 158.307C47.3771 144.807 50.8459 131.119 55.2522 117.807C74.4714 59.7741 115.816 15.9919 116.566 14.3044C119.004 10.7418 120.129 32.6798 119.472 34.8361C119.004 36.3361 97.7218 68.3993 96.8781 69.7118C85.6699 86.9542 76.6029 105.497 69.8775 124.932C63.1916 141.895 57.6172 159.276 53.1897 176.964C53.0709 177.74 52.8502 178.496 52.5334 179.214C49.6271 185.12 49.9084 190.183 55.5335 194.402C56.846 195.433 57.8773 197.027 57.221 198.902C56.471 200.964 54.5022 201.339 52.6272 201.621C50.9045 201.808 49.1629 201.713 47.4708 201.34C44.565 200.81 41.6037 200.652 38.6581 200.871C35.3768 201.058 31.8142 201.152 30.5017 204.996C29.6579 207.527 33.5018 213.621 36.4081 214.934C38.2831 215.777 40.4394 215.777 41.9394 217.277C42.5957 220.559 40.0644 220.371 38.1894 220.277C35.4401 220.057 32.6756 220.12 29.9392 220.465C26.5641 220.934 24.1266 221.777 25.6266 225.996C25.7247 226.377 25.742 226.773 25.6775 227.161C25.6129 227.549 25.4678 227.918 25.2516 228.246C16.7202 238.934 13.4389 251.309 13.1576 264.622C12.892 280.013 13.8009 295.402 15.8764 310.654C16.3452 323.967 19.439 336.811 23.0016 349.561C26.7516 363.249 31.158 376.656 38.0956 389.218C38.7564 390.283 39.0526 391.533 38.9394 392.781Z" fill="#073042"/>
<path d="M413.01 125.588C413.291 129.432 413.853 133.276 413.853 137.119C413.859 138.63 413.529 140.123 412.886 141.491C412.244 142.858 411.305 144.066 410.139 145.026C408.972 145.986 407.607 146.675 406.141 147.042C404.676 147.41 403.147 147.447 401.666 147.151C400.973 147.044 400.312 146.788 399.729 146.399C399.146 146.01 398.655 145.499 398.29 144.901C396.228 141.338 394.259 137.682 392.29 134.026C392.665 131.307 390.509 130.088 389.009 128.494C385.54 124.182 381.04 122.775 375.696 123.432C370.915 123.994 369.509 122.494 369.884 117.619C370.137 115.91 370.294 114.189 370.352 112.463C369.884 107.306 366.696 105.619 362.384 108.244C359.611 110.029 357.168 112.281 355.165 114.9C354.227 116.025 353.008 117.713 351.321 116.869C349.633 116.025 350.383 114.056 350.758 112.65C353.946 97.7436 354.602 82.3683 357.602 67.4617C359.946 56.4928 363.509 45.8988 365.665 34.8361C366.134 32.586 367.259 30.336 366.134 27.9922C367.165 26.2109 367.259 20.2108 372.227 27.9922C377.196 35.7736 399.228 68.868 401.384 75.1494C406.541 90.0559 409.728 105.338 413.103 120.619C413.385 122.307 414.228 123.994 413.01 125.588Z" fill="#337762"/>
<path d="M126.035 26.0234C123.879 28.9297 121.722 31.9297 119.472 34.8361C118.628 35.9611 117.972 37.8361 115.91 36.5236C115.91 35.4923 115.91 34.5548 116.003 33.5235C116.941 27.1484 116.097 20.3983 116.847 14.0231C117.128 13.4606 128.847 5.3042 135.973 5.96046C140.285 6.33547 143.848 9.05428 146.942 11.3981C152.568 18.0719 157.647 25.1889 162.129 32.6798C162.598 38.2111 164.098 43.6487 162.598 49.1801C161.848 52.1802 162.786 54.9927 163.254 57.899C163.442 59.4928 163.911 62.3054 160.629 60.1491C155.473 50.3989 150.223 40.6487 145.067 30.9922C143.191 27.5234 140.566 24.7108 137.941 21.8045C134.941 18.617 132.316 18.242 129.504 21.8045C128.285 23.1171 126.569 24.1483 126.035 26.0234Z" fill="#073042"/>
<path d="M160.254 59.4084C161.004 59.3147 162.598 60.721 161.848 59.3147C158.754 53.4083 161.379 47.7832 162.036 42.0643C162.411 38.9705 162.129 35.8767 162.223 32.7829C163.911 36.158 173.005 53.0333 175.067 58.5647C177.036 63.8148 183.599 73.3775 184.442 74.69C181.161 74.5963 175.442 71.5962 171.973 73.0025C170.005 73.8462 168.692 71.8774 167.661 70.1899C166.817 68.6899 166.911 69.0649 166.63 70.8462C164.567 67.2742 162.195 62.7741 160.254 59.4084Z" fill="#073042"/>
<path d="M353.758 297.06C358.071 291.998 361.727 286.279 366.977 281.966C369.04 284.122 368.29 286.654 367.915 289.091C366.415 299.779 366.04 310.467 368.196 321.154C368.54 323.456 369.37 325.658 370.631 327.614C371.892 329.57 373.555 331.235 375.509 332.498C381.79 336.811 388.165 341.03 394.728 344.874C401.572 348.905 408.791 349.093 415.822 346.374C430.354 340.749 443.76 333.342 453.229 320.311C454.281 318.771 455.191 317.139 455.948 315.436C456.604 314.123 456.698 312.248 458.761 312.154C458.198 321.436 455.385 330.248 453.135 339.061C449.198 354.624 445.542 370.28 440.198 385.375C439.448 387.531 438.416 389.687 437.479 391.843C417.51 392.781 401.009 384.25 385.259 373.187C375.565 366.397 367.047 358.068 360.04 348.53C352.54 338.405 348.79 326.405 345.602 314.311C344.571 310.467 347.758 307.935 348.227 304.654C349.119 301.551 351.078 298.861 353.758 297.06Z" fill="#5AB67E"/>
<path d="M38.9395 392.781C32.7518 383.312 29.0018 372.812 25.3454 362.218C21.3141 350.405 18.5953 338.311 16.1577 326.123C15.2202 321.248 15.1265 316.279 14.6577 311.31C14.9638 311.283 15.271 311.349 15.5388 311.499C15.8066 311.65 16.0224 311.878 16.1577 312.154C24.5954 327.248 36.9707 338.592 51.8772 346.749C61.4399 351.999 71.9401 354.999 83.3779 353.311C93.8781 351.718 100.909 346.092 105.691 336.905C111.316 326.123 112.91 314.873 111.128 302.873C110.472 298.373 109.816 293.685 110.66 288.998C111.691 288.154 112.441 288.904 112.91 289.654C120.129 301.935 127.066 314.311 130.816 328.186C130.629 340.936 124.441 351.436 116.472 360.343C99.1282 379.656 76.7215 389.968 50.5647 391.937L38.9395 392.781Z" fill="#5AB67E"/>
<path d="M131.004 328.092C126.972 319.373 123.035 310.654 118.816 302.029C116.566 297.529 113.66 293.31 111.128 288.904C110.692 288.738 110.293 288.487 109.955 288.165C109.617 287.843 109.346 287.457 109.16 287.029C101.486 274.223 92.2599 262.415 81.6902 251.872C80.7527 250.841 79.7214 249.809 79.7214 248.309C80.9402 245.215 82.534 246.247 84.1278 247.934C86.9403 250.934 89.8466 253.841 93.5967 255.809C108.316 272.122 120.41 290.029 128.004 310.748C128.248 311.298 128.53 311.83 128.847 312.342C129.597 317.592 133.254 322.373 131.004 328.092Z" fill="#073042"/>
<path d="M353.758 297.06C351.883 299.592 350.102 302.123 348.227 304.654C347.946 304.279 347.571 303.998 347.289 303.623C348.883 301.092 349.914 297.154 351.415 294.623C351.883 295.279 353.008 297.06 353.758 297.06Z" fill="#073042"/>
<path d="M458.854 312.154C451.073 330.436 435.416 339.53 418.26 346.749C409.635 350.405 401.291 350.499 392.947 345.342C385.915 341.03 379.071 336.436 372.415 331.748C366.884 327.811 367.259 321.248 366.04 315.342C363.79 304.092 367.259 293.123 366.977 281.966C377.478 270.06 386.572 256.934 399.041 246.715C408.954 238.429 419.773 231.29 431.291 225.434C434.104 224.027 437.01 223.934 439.916 223.934C444.885 223.934 449.948 224.309 454.917 223.934C459.886 223.559 461.948 225.527 462.604 230.215C465.136 248.872 466.073 267.435 462.511 286.091C460.917 294.81 460.073 303.529 458.854 312.154Z" fill="#5AB67E"/>
<path d="M80.0966 248.59C90.5968 259.934 101.378 271.091 108.972 284.779C109.722 286.091 110.378 287.498 111.128 288.904C112.347 298.654 114.222 308.498 112.816 318.154C110.847 332.311 106.253 345.624 91.8156 352.186C81.1278 357.061 70.1589 355.28 59.5649 351.53C44.5646 346.186 33.2206 336.061 23.0954 324.248C19.6266 320.217 15.689 316.748 14.6577 311.217C12.0327 293.779 10.5326 276.06 12.0327 258.622C12.9702 247.372 15.5952 235.746 24.7829 227.496C27.6892 223.184 31.6268 221.59 36.7832 222.434C47.474 224.23 57.5547 228.642 66.1275 235.278C69.4088 237.715 72.5027 240.247 75.5965 242.872C77.4715 244.372 79.4403 245.975 80.0966 248.59Z" fill="#5AB67E"/>
<path d="M80.0964 248.59C74.19 243.528 68.4712 238.184 62.0023 233.871C55.9256 229.8 49.2517 226.7 42.2206 224.684C35.9392 222.809 29.9391 222.715 24.7828 227.496C23.0015 220.559 23.0015 220.652 30.7829 219.246C32.9978 218.683 35.3182 218.683 37.533 219.246C38.9393 219.621 41.0956 220.277 41.6581 217.652C56.2834 223.371 69.5024 231.34 80.7527 242.309C85.159 246.622 89.9404 250.747 93.4092 255.903C88.4403 255.809 86.0028 251.872 83.1902 248.778C81.9714 247.278 81.3152 246.059 80.0964 248.59Z" fill="#073042"/>
<path d="M171.13 196.839C176.661 192.433 181.724 187.37 188.192 183.995C200.193 177.808 213.037 175.276 226.162 173.401C238.378 171.707 250.809 172.472 262.725 175.651C274.913 178.839 284.569 186.245 292.257 195.902C301.632 207.621 308.476 220.84 311.195 235.84C315.039 256.841 311.664 276.247 297.038 292.56C282.038 309.248 263.006 317.311 240.694 318.717C221.381 320.029 204.036 314.404 188.38 303.717C177.13 296.029 167.286 286.841 162.129 273.622C159.534 266.953 157.923 259.942 157.348 252.809C156.504 241.747 156.129 230.59 160.161 219.996C161.848 215.496 164.567 211.371 166.067 206.871C167.286 203.308 169.723 200.308 171.13 196.839Z" fill="#5AB67E"/>
<path d="M171.13 196.839C162.411 205.371 151.16 209.965 141.223 216.527C136.441 219.715 131.754 223.184 126.41 225.34C122.754 226.84 118.91 228.34 115.722 224.402C113.378 221.402 114.316 216.715 117.691 212.965C118.629 211.933 119.472 210.902 120.41 209.871C121.16 209.402 121.441 208.558 122.097 207.996C123.415 206.914 124.667 205.756 125.847 204.527C127.066 203.308 128.285 202.277 129.598 201.152C136.16 195.996 142.254 190.746 143.848 188.777C142.254 186.995 124.91 180.527 121.535 177.902C119.285 176.12 117.597 174.151 118.535 171.151C119.472 168.151 122.097 168.433 124.441 168.526C140.285 169.37 154.348 175.464 167.473 183.808C172.161 186.902 172.348 191.871 171.13 196.839Z" fill="#073042"/>
<path d="M359.571 172.745C359.571 176.214 357.04 178.276 353.852 179.589C350.102 181.089 346.164 182.214 342.321 183.433C338.945 184.558 338.008 186.058 341.289 188.683C345.414 191.964 349.446 195.527 353.477 198.902C356.196 201.152 356.852 203.496 354.79 206.59C353.383 208.652 352.446 210.996 351.227 213.152C348.508 217.84 344.946 219.059 340.258 216.059C335.945 213.246 332.008 209.965 327.883 206.871C322.07 202.371 315.695 198.714 309.414 194.964C306.276 193.213 303.632 190.698 301.726 187.652C299.101 183.339 299.663 180.527 304.07 177.902C308.036 175.672 312.464 174.389 317.008 174.151C328.82 173.12 340.633 172.37 351.789 167.776C356.196 166.089 359.477 168.245 359.571 172.745Z" fill="#073042"/>
<path d="M191.661 104.869C193.818 103.369 196.161 104.025 198.411 104.212C207.693 104.962 216.974 105.056 226.162 105.15C226.919 105.272 227.649 105.526 228.318 105.9C226.818 106.275 225.506 106.275 225.787 108.713C226.778 121.684 224.32 134.687 218.662 146.401C216.131 151.745 212.193 156.714 205.63 156.339C199.068 155.964 195.318 150.713 193.068 145.088C190.349 138.338 191.568 131.119 192.036 124.182C192.411 118.838 192.13 113.213 194.286 108.056C195.411 105.347 193.536 105.056 191.661 104.869Z" fill="#194E4F"/>
<path d="M251.663 107.963H287.476C286.59 108.239 285.68 108.428 284.757 108.525C281.851 108.525 281.288 109.838 282.226 112.463C285.976 123.057 284.663 133.651 281.569 144.151C279.882 149.963 277.538 155.589 270.038 155.776C266.497 155.845 263.021 154.82 260.085 152.84C257.149 150.86 254.895 148.022 253.631 144.713C249.881 134.307 250.162 123.619 252.038 112.838C252.413 111.056 252.881 109.463 251.663 107.963Z" fill="#194E4F"/>
<path d="M89.5655 143.401C91.5343 138.807 93.6906 134.307 96.8781 130.557C100.722 125.869 105.503 122.307 112.066 122.588C114.691 122.682 115.16 121.932 113.753 119.682C111.128 115.744 108.785 111.525 112.441 107.306C116.191 102.9 121.066 105.244 125.472 106.65C129.29 108.035 132.842 110.064 135.973 112.65C136.723 113.306 137.66 114.431 138.785 113.869C140.098 113.306 139.535 111.9 139.348 110.963C137.473 93.8998 136.816 76.7432 134.191 59.7741C133.066 52.6489 132.223 45.6175 130.348 38.5861C129.973 36.9923 128.473 34.086 132.598 34.9298C136.066 45.9925 137.66 57.3365 138.785 68.7743C140.285 84.6183 142.629 100.369 143.285 116.213C143.379 117.525 144.129 119.307 142.629 120.057C141.129 120.807 140.004 119.494 138.879 118.744C134.098 115.838 129.973 111.806 124.722 109.65C121.629 108.338 117.972 106.088 115.254 109.556C112.535 113.025 115.535 116.213 117.504 119.213C118.722 121.088 122.191 122.213 121.254 124.557C120.316 126.9 117.41 124.463 115.254 124.744C108.035 125.682 102.316 128.963 98.2844 135.151C96.1281 138.526 94.4406 142.276 91.628 145.276C89.2842 146.12 88.9092 145.276 89.5655 143.401Z" fill="#073042"/>
<path d="M358.727 67.4617C355.821 83.6808 354.883 100.275 351.227 117.15C355.071 114.15 356.946 110.213 360.508 107.963C363.134 106.369 365.571 104.4 368.571 106.088C371.571 107.775 371.759 110.869 371.665 113.869C371.571 116.494 369.602 119.307 371.384 121.557C373.353 124.182 376.353 121.744 378.884 122.025C383.759 122.494 387.978 123.994 390.509 128.494C390.603 130.182 389.665 129.901 388.634 129.432C383.946 124.65 378.415 123.994 372.321 125.963C370.821 126.432 369.134 127.463 367.915 126.338C366.321 124.932 367.54 123.15 368.196 121.557C369.299 118.949 369.529 116.055 368.852 113.306C367.727 108.806 365.29 107.963 361.821 110.963C359.102 113.306 356.758 116.025 354.227 118.557C353.008 119.775 351.79 121.369 349.915 120.713C348.039 120.057 348.227 117.9 348.321 116.213C348.614 107.365 349.618 98.5555 351.321 89.8684C353.571 93.1498 351.508 96.8061 352.258 99.4311C351.883 90.2435 354.602 80.7745 356.29 71.1181C356.262 69.7212 356.196 67.4617 358.727 67.4617Z" fill="#073042"/>
<path d="M358.727 67.4617C355.352 74.3994 356.008 82.1808 353.946 89.3997C353.135 92.8698 352.788 96.4322 352.915 99.9936C352.899 101.681 352.227 103.295 351.039 104.494C351.227 99.6186 351.321 94.7435 351.039 89.8684C350.946 80.8682 353.946 72.4306 356.008 63.8991C359.008 51.8051 361.258 39.5236 366.134 27.9922C368.946 28.3672 368.102 30.4297 367.727 31.836C364.821 43.7425 361.727 55.6583 358.727 67.4617Z" fill="#073042"/>
<path d="M388.54 129.432C389.29 129.244 390.04 129.244 390.415 128.494C392.384 129.901 394.259 131.307 392.384 134.119C391.072 132.535 389.853 130.932 388.54 129.432Z" fill="#073042"/>
<path d="M89.5654 143.401C89.7529 144.432 90.1279 145.276 91.4404 145.276C91.5342 146.682 90.0342 146.963 89.5654 147.995C86.0966 146.401 89.0685 144.901 89.5654 143.401Z" fill="#073042"/>
<path d="M448.635 268.185C448.448 270.81 448.729 273.435 447.979 276.06C444.416 288.341 439.635 291.435 426.979 289.185C413.947 286.935 407.291 281.122 405.978 269.872C404.947 260.591 409.259 253.091 416.572 247.747C422.947 243.153 430.166 241.84 437.104 246.528C444.698 251.684 449.291 258.528 448.635 268.185Z" fill="#337762"/>
<path d="M24.0329 265.278C24.1266 256.934 30.1267 248.122 37.1581 245.965C41.6472 244.517 46.4822 244.546 50.9537 246.048C55.4251 247.55 59.2974 250.445 62.0024 254.309C69.69 264.997 68.6588 273.622 58.4398 285.341C50.6584 294.248 47.8458 294.716 37.8144 288.529C29.1892 283.279 23.8454 275.975 24.0329 265.278Z" fill="#337762"/>
<path d="M256.444 294.435C244.537 296.498 232.631 297.248 220.724 295.185C216.224 294.154 211.912 292.466 207.412 291.435C190.255 284.497 180.599 271.56 177.692 253.559C176.848 248.122 178.442 242.684 179.942 237.434C182.209 229.797 185.256 222.414 189.036 215.402C190.067 213.34 191.286 211.277 192.411 209.215C193.911 206.402 195.88 205.746 198.318 208.09L201.411 210.902C209.662 218.309 218.849 219.152 228.506 213.527C229.732 212.855 230.894 212.071 231.975 211.183C234.975 208.558 237.6 208.746 240.6 211.371C246.225 216.34 253.163 218.121 260.381 218.871C266.475 219.434 271.632 217.465 275.475 212.308C278.382 208.371 279.507 208.465 282.601 212.215C286.163 216.621 288.507 221.684 290.945 226.746C295.351 242.497 293.945 257.684 285.882 271.841C280.913 280.56 273.319 286.372 263.944 289.935C260.88 291.195 257.75 292.29 254.569 293.216C255.131 293.685 255.947 293.788 256.444 294.435Z" fill="#FD9E9C"/>
<path d="M290.007 226.934C287.288 221.684 284.569 216.434 280.726 211.84C279.788 210.715 279.132 209.777 277.632 211.558C269.1 221.309 258.975 222.902 246.225 216.621C242.569 214.84 239.662 210.527 236.193 210.34C232.725 210.152 229.725 214.652 225.974 216.34C216.131 220.84 205.349 218.309 197.474 209.027C195.224 206.402 194.568 207.058 193.443 209.59C192.505 211.746 191.192 213.621 190.067 215.684C188.849 216.434 188.192 218.684 186.411 217.559C185.005 216.715 185.567 215.121 186.224 213.902C189.317 208.09 194.005 203.027 194.474 195.902C194.48 195.543 194.558 195.189 194.704 194.86C194.849 194.532 195.06 194.237 195.322 193.992C195.585 193.747 195.894 193.557 196.232 193.434C196.569 193.311 196.928 193.258 197.286 193.277C198.974 193.464 198.786 195.152 198.786 196.277C198.693 204.902 203.474 210.152 211.068 212.59C219.318 215.309 226.537 212.496 232.068 206.121C234.881 202.933 235.912 202.277 239.568 205.933C247.069 213.527 256.819 216.34 267.507 213.996C272.757 212.871 274.538 209.683 273.6 204.433C273.41 203.35 273.316 202.252 273.319 201.152C273.319 199.277 274.819 198.808 275.663 200.027C284.476 212.777 297.413 223.371 297.601 240.622C297.695 245.122 298.257 249.715 296.757 254.122C293.757 255.153 293.382 253.091 293.101 251.028C292.664 246.73 292.507 242.408 292.632 238.09C292.445 234.153 292.07 230.309 290.007 226.934Z" fill="#073042"/>
<path d="M186.13 213.808C185.567 218.402 187.817 216.902 190.067 215.59C186.411 223.652 182.661 231.621 180.411 240.34C175.723 258.341 182.755 271.935 195.786 283.466C199.255 286.56 202.911 289.466 207.599 290.685C207.599 292.373 206.755 292.091 205.724 291.529C179.38 282.716 167.755 258.528 177.317 232.278C179.526 225.799 182.484 219.601 186.13 213.808Z" fill="#073042"/>
<path d="M290.007 226.934C292.82 229.465 292.82 232.934 293.007 236.309C293.195 241.09 292.913 245.872 293.945 250.559C294.32 252.434 294.601 253.934 296.757 254.028C296.288 271.091 282.882 288.154 266.569 292.466C263.288 293.31 259.913 293.779 256.538 294.529C255.319 294.435 254.1 294.341 252.319 294.154C255.131 291.81 258.131 290.873 261.038 289.935C280.632 283.935 291.038 266.591 292.07 247.747C292.351 240.622 291.976 233.684 290.007 226.934Z" fill="#073042"/>
<path d="M205.724 291.529C206.38 291.248 206.943 290.966 207.599 290.685C212.099 291.716 216.693 292.654 220.724 295.185C215.38 295.279 210.505 293.788 205.724 291.529Z" fill="#073042"/>
</svg>
