<svg viewBox="0 0 414 409" fill="none" xmlns="http://www.w3.org/2000/svg">
<path d="M408.928 408.808H75.054C73.3644 406.65 74.0273 404.216 74.2456 401.832C75.4501 387.442 78.9424 373.537 82.5399 359.592C84.0839 353.61 85.4906 347.595 87.0508 341.621C87.8592 339.196 88.6676 337.054 86.4121 334.62C84.1567 332.187 87.0508 330.02 87.9239 327.797C88.9754 325.788 90.1526 323.846 91.4485 321.985C93.7283 318.897 94.9166 315.728 92.5884 312.122C93.0007 311.314 93.6232 310.376 92.1114 309.931C77.4388 300.99 62.9359 291.847 49.6375 280.901C44.5881 276.688 39.1563 272.956 33.4127 269.753C32.4264 269.212 30.6156 268.864 31.6989 266.932C36.5337 266.49 41.3897 267.513 45.6359 269.867C54.6254 274.782 64.0919 278.63 73.2997 283.036C89.6054 290.837 106.251 297.66 124.003 301.516C132.702 303.408 141.505 304.297 150.349 305.154C156.639 305.76 162.953 305.817 169.25 306.431C173.486 306.843 176.219 308.767 178.579 311.912C181.91 316.342 185.143 320.772 189.185 324.588C190.92 326.283 192.869 327.745 194.982 328.937C198.021 330.554 200.034 329.835 201.449 326.649C202.629 323.925 202.403 321.185 201.748 318.347C200.519 313.052 201.587 311.573 206.962 311.605C210.325 311.605 212.953 310.627 215.135 308.088C218.135 304.596 222.096 302.583 226.453 301.354C232.662 299.592 237.957 296.261 243.09 292.462C247.528 289.228 252.128 285.994 258.159 287.013C259.21 287.611 259.485 288.63 259.638 289.737C261.441 301.977 263.729 314.151 264.788 326.496C265.208 331.346 264.198 332.236 259.331 331.346C256.825 330.877 254.481 329.883 251.878 329.729C251.773 329.729 251.659 329.851 251.158 330.158C253.705 333.335 256.195 336.35 260.269 337.636C266.736 339.673 266.736 339.697 267.052 346.601C266.957 347.828 267.239 349.055 267.86 350.118C269.089 348.501 268.668 346.738 269.04 345.211C272.274 333.084 270.609 320.958 269.234 308.775C269.048 307.159 268.725 305.542 269.388 304.006C272.12 301.726 273.616 297.539 278.28 298.258C279.486 298.491 280.604 299.051 281.514 299.875C285.338 303.771 290.229 304.887 295.386 305.663C308.321 307.611 321.32 308.274 334.384 306.706C341.32 305.897 346.955 302.995 350.932 297.142C351.318 296.589 351.753 296.072 352.234 295.598C355.265 292.543 357.675 292.979 358.467 297.11C359.914 304.636 361.644 312.122 362.371 319.746C363.22 328.711 364.295 337.66 365.217 346.617C365.686 351.201 365.565 355.752 365.629 360.36C365.629 362.543 366.284 363.99 368.653 364.321C380.084 365.938 387.877 372.559 393.714 382.106C397.861 388.873 402.921 395.041 406.931 401.912C408.103 403.934 410.173 405.93 408.928 408.808Z" fill="#337762"/>
<path d="M31.4322 267.312C51.0361 278.533 66.8325 295.332 87.2125 305.445C89.2093 306.431 90.8585 308.113 92.6693 309.487C92.1358 311.637 90.5674 310.295 89.4357 310.441C87.5763 310.206 85.7736 309.552 83.8657 309.632C81.9579 309.713 80.3653 309.996 79.1931 311.548C76.2828 315.421 73.1866 319.139 70.2036 322.955C68.5867 325.008 68.8131 326.512 71.109 327.862C73.3 329.185 75.3576 330.718 77.2529 332.438C79.5084 334.531 81.5536 336.69 79.5488 340.061C74.7711 349.867 73.0815 360.57 70.5916 371.031C68.037 381.791 66.7274 392.769 64.7953 403.634C64.4638 405.494 64.286 407.394 62.9117 408.865H50.7855C49.0313 406.44 49.4436 403.61 50.1388 401.08C53.2108 389.762 55.0297 378.218 57.6894 366.844C59.3062 360.045 61.1736 353.295 62.8713 346.512C63.6069 343.569 62.9925 341.492 60.5915 339.43C53.2108 333.092 52.3377 320.505 58.5705 312.809C60.2628 310.718 61.9658 308.63 63.6797 306.544C65.054 304.863 65.1833 303.254 63.0087 302.3C58.5544 300.336 55.2965 296.803 52.0224 293.521C47.0668 288.549 33.8331 279.349 32.3618 278.711C25.7975 275.857 21.3351 270.432 16.5008 265.493C14.884 263.804 14.5283 260.263 15.1831 259.026C19.3545 254.127 16.331 250.942 12.9357 247.263C8.7158 242.688 4.41505 238.072 1.36734 232.526C0.960352 231.526 0.662216 230.485 0.478091 229.422C-0.0797131 226.997 -0.726442 220.893 2.20809 217.134C5.44174 211.968 9.87183 208.241 15.7813 206.625C18.2065 205.97 17.2041 205.081 16.5412 203.9C12.4022 196.536 10.3245 188.371 7.293 180.521C5.08603 174.797 6.71903 169.971 11.0925 165.541C22.5477 153.957 34.2535 142.671 48.2067 134.142C53.2754 131.046 58.0127 127.772 61.9497 123.382C64.6494 120.072 67.5575 116.937 70.6563 113.997C72.1591 112.654 73.1338 110.82 73.4049 108.823C83.0767 98.0492 93.9229 88.3906 105.741 80.0274C108.312 78.2004 110.236 75.9853 110.867 72.6789C111.982 66.7614 115.305 61.7735 118.571 56.8987C124.23 48.4589 130.066 40.1242 137.164 32.7838C145.168 23.8832 153.615 15.4192 162.459 7.28654C163.527 6.47813 164.642 5.73439 165.693 4.86131C172.969 -1.34729 179.436 -1.67066 187.132 4.24691C206.98 19.4095 224.578 37.3078 239.404 57.408C241.211 59.8606 243.839 61.5821 246.809 62.2585C257.006 65.019 267 68.4791 276.72 72.6143C284.183 75.7932 291.347 79.6322 298.127 84.0856C299.566 87.3193 302.67 88.637 305.403 90.3265C309.304 91.8004 313.601 91.8405 317.529 90.4397C325.953 87.5526 334.588 85.3254 343.358 83.7784C347.02 83.164 350.164 80.9732 353.932 80.278C364.619 78.3136 375.258 76.4704 386.195 77.2788C389.906 77.5536 393.471 75.9772 397.376 76.9231C401.466 77.9174 404.845 79.607 407.311 83.0347C411.094 85.9126 410.755 90.367 411.523 94.3524C411.717 96.089 411.757 97.8392 411.644 99.5829C411.644 104.854 411.644 110.092 411.685 115.395C412.056 127.78 410.876 140.084 409.93 152.413C409.68 155.776 408.661 159.001 408.192 162.34C405.201 183.528 399.55 203.924 389.389 222.882C386.325 228.605 388.168 234.458 388.41 240.287C388.41 241.225 388.823 242.138 388.831 243.076C388.912 251.338 392.194 258.088 398.233 263.666C401.03 266.253 402.897 269.624 404.53 272.995C407.06 278.242 406.204 283.505 403.528 288.484C400.375 294.394 395.258 298.355 389.849 301.904C387.78 303.262 387.602 304.556 387.739 306.851C388.047 311.961 390.367 315.437 394.142 318.792C399.954 323.949 405.678 329.301 409.971 335.946C410.729 337.489 411.734 338.898 412.946 340.118V361.136C410.666 362.664 409.405 360.958 408.322 359.519C404.975 354.968 400.803 351.136 397.359 346.674C394.223 342.632 389.421 340.247 386.438 336.043C383.851 335.348 385.112 338 384.142 338.703C383.334 340.554 382.315 342.316 381.304 344.063C380.294 345.809 379.389 347.514 377.093 347.296C374.53 347.013 374.239 344.766 373.665 342.85C373.307 341.411 373.085 339.941 373.002 338.46C371.45 323.61 370.496 308.678 366.737 294.127C365.524 289.43 363.285 285.065 362.46 280.263C362.508 279.961 362.635 279.678 362.827 279.441C363.02 279.204 363.271 279.021 363.556 278.912C363.842 278.803 364.15 278.771 364.452 278.82C364.753 278.868 365.037 278.995 365.274 279.188C368.507 281.613 371.296 280.481 374.061 278.379C376.082 278.654 377.44 279.996 378.734 281.362C380.48 283.205 382.129 284.935 384.91 282.979C387.853 280.934 386.106 278.783 385.241 276.593C383.35 271.831 380.9 267.328 379.049 262.542C377.613 258.772 376.612 254.85 376.066 250.853C373.528 233.407 375.322 216.625 382.242 200.295C388.944 184.482 393.083 167.861 395.937 150.982C396.981 144.874 397.433 138.68 397.287 132.485C397.004 121.458 397.893 110.399 396.478 99.3888C396.26 97.6508 396.106 95.9127 395.815 94.1827C395.258 90.8924 393.285 89.3322 390.011 89.0897C386.123 88.8472 382.226 89.2918 378.321 88.6208C376.761 88.354 375.29 89.9304 373.6 90.3346C362.331 92.9943 351.021 95.4923 339.93 98.8391C332.202 101.175 324.287 102.881 316.688 105.678C314.53 106.487 312.323 107.109 309.978 106.487C300.342 100.867 290.378 95.8296 280.14 91.4017C278.295 90.5755 276.344 90.0096 274.344 89.7202C264.473 86.0258 254.683 82.0808 244.352 79.7687C235.782 77.5536 227.577 74.029 218.604 73.2529C213.098 72.7759 207.561 73.4469 202.104 72.4445C200.794 72.202 198.636 73.0993 198.563 70.9328C198.498 69.0087 200.713 69.3644 201.975 68.7986C211.764 66.2116 221.684 68.1599 232.088 68.4024C228.798 62.598 224.295 58.6772 220.528 54.1744C210.018 41.7572 197.755 31.3206 184.481 21.9996C183.274 21.1405 182.022 20.3471 180.73 19.6229C175.596 16.7935 171.991 17.0036 167.932 21.1427C160.786 28.4184 153.769 35.8881 147.286 43.8186C137.909 55.12 129.493 67.1858 122.128 79.89C121.034 81.7585 119.567 83.382 117.819 84.6596C97.5972 99.7485 80.0065 118.074 65.7573 138.896C62.1334 144.29 57.058 148.55 51.117 151.184C39.7992 156.382 30.9067 164.886 22.5477 173.932C20.3973 176.261 19.4192 178.84 20.6722 182.065C23.251 188.734 24.9002 195.687 26.7434 202.583C27.3417 204.651 28.0791 206.677 28.9503 208.646C30.454 212.251 29.9366 213.593 26.4685 215.525C23.4127 217.223 20.0901 218.435 17.4062 220.78C13.8977 223.86 13.7118 224.895 15.2478 229.171C18.9665 239.567 25.6601 247.926 33.2026 255.711C34.5284 257.078 36.2745 258.242 35.7895 260.384C35.2802 262.656 33.0247 262.647 31.2624 263.157C30.2513 263.307 29.2557 263.548 28.2874 263.876C28.8857 265.501 31.0684 265.663 31.4322 267.312Z" fill="#073042"/>
<path d="M386.947 335.38C395.199 342.739 402.774 350.824 409.583 359.536C410.44 360.627 411.385 361.532 412.954 361.112C412.954 375.663 412.816 390.215 413.051 404.766C413.107 408.194 412.331 409.536 408.912 408.808C407.788 403.958 404.595 400.166 401.992 396.149C397.78 389.625 392.857 383.562 388.621 377.054C383.681 369.455 376.034 366.876 367.885 365.356C365.12 364.839 364.287 364.022 364.384 361.314C364.877 348.517 362.557 335.938 361.426 323.262C360.617 314.37 358.596 305.825 357.254 297.094C357.092 296.051 357.173 294.717 355.961 294.337C354.514 293.884 353.956 295.388 353.05 296.108C352.942 296.188 352.849 296.286 352.776 296.399C346.656 306.698 336.559 308.161 325.928 308.581C314.11 308.995 302.281 308.128 290.649 305.994C287.585 305.445 284.586 304.442 282.395 302.09C281.078 300.675 279.412 299.899 277.868 298.856C276.084 297.778 274.07 297.135 271.991 296.981C270.512 296.851 269.145 296.512 268.353 295.065C266.866 284.725 263.026 274.855 262.209 264.345C263.616 262.874 265.257 263.755 266.753 264.014C292.015 268.411 310.997 257.975 325.944 238.605C328.697 234.968 330.667 230.801 331.733 226.366C333.729 225.444 334.247 227.271 334.966 228.29C344.815 241.627 353.311 255.912 360.326 270.934C361.054 273.496 362.654 275.719 363.212 278.355C363.245 278.737 363.169 279.121 362.994 279.462C369.631 295.873 371.886 313.157 373.342 330.619C373.697 334.903 374.32 339.164 374.902 343.424C375.088 344.75 375.443 346.261 377.004 346.561C378.564 346.86 379.243 345.364 379.914 344.232C381.207 342.033 382.452 339.802 383.722 337.587C384.878 336.916 384.344 333.885 386.947 335.38Z" fill="#C4E9CE"/>
<path d="M62.9277 408.808C65.8865 388.598 69.2899 368.477 74.868 348.792C75.8219 345.437 76.8971 342.106 79.0636 339.277C82.5236 335.542 78.3846 334.637 76.6384 332.81C74.2132 331.136 71.8364 329.414 69.3627 327.805C67.3417 326.488 67.1072 325.025 68.6109 323.157C72.0547 318.881 75.353 314.491 78.9019 310.311C82.0305 306.633 85.8462 309.042 89.4113 309.503C90.3814 310.53 92.4671 309.802 92.8794 311.702C96.4364 314.806 95.0621 318.072 93.1219 321.273C91.7476 323.545 90.1793 325.704 88.6999 327.911C88.0612 329.115 86.8729 329.899 86.21 331.047C85.0459 333.076 83.8898 335.154 86.9537 336.706C88.7646 337.644 88.5705 339.253 87.9885 340.877C86.1211 351.815 82.7742 362.397 80.252 373.173C77.5034 384.887 75.2964 396.666 75.0135 408.744L62.9277 408.808Z" fill="#C4E9CE"/>
<path d="M61.1413 57.2221C59.193 54.3442 57.1881 51.5066 55.3045 48.5883C52.564 44.3764 49.581 40.4314 45.2883 37.7151C43.1279 36.3395 41.2148 34.6095 39.6294 32.5979C37.8914 30.3829 37.6488 28.2891 38.9666 25.2575C43.4613 14.8533 53.4937 11.9834 62.1841 7.28654C64.6094 5.97691 67.2286 4.86131 69.7913 3.67294C73.5908 1.95911 76.5819 3.40617 77.3418 7.43205C81.1009 27.2381 83.6474 47.1816 83.9304 67.3677C83.9304 68.7015 84.2942 70.6013 83.5747 71.2885C80.5108 74.3847 80.8584 77.9902 81.6668 81.9595C76.8164 80.5609 74.7953 76.915 72.6288 73.3822C70.5997 66.7048 65.6441 62.1211 61.1413 57.2221Z" fill="#073042"/>
<path d="M30.551 90.949C24.7709 90.6661 18.5057 91.5311 12.2163 92.0161C5.74898 92.5093 3.9543 89.7607 6.38762 83.8835C7.91552 80.181 8.00445 75.9692 10.3003 72.5657C13.2753 68.0467 16.2826 63.5439 19.4354 59.1461C20.3749 58.0053 21.5388 57.0697 22.855 56.3975C28.8615 52.9294 32.855 54.4088 36.3554 60.5689C40.2656 67.5855 44.7916 74.2407 49.8801 80.4558C51.3515 82.2263 52.2245 84.5464 53.7686 86.3734C55.1429 87.9902 53.5665 88.3298 52.5479 88.8714C48.8454 90.8197 44.7467 90.5933 40.7774 90.9005C37.5761 91.143 34.3344 90.949 30.551 90.949Z" fill="#073042"/>
<path d="M162.459 7.28654C161.174 10.213 158.571 12.0077 156.388 14.1095C149.921 20.302 144.141 27.1735 137.132 32.7919C143.889 22.7675 152.482 14.1132 162.459 7.28654Z" fill="#073042"/>
<path d="M61.1414 57.2221C66.8002 61.2642 72.0226 65.7023 72.5965 73.3903C68.3605 68.2973 64.0355 63.2609 61.1414 57.2221Z" fill="#073042"/>
<path d="M73.4048 108.823C74.0353 110.019 74.7144 111.248 73.4533 112.445C69.6133 116.074 66.3635 120.311 61.99 123.382C64.8345 117.848 68.7087 112.906 73.4048 108.823Z" fill="#073042"/>
<path d="M305.443 90.3023C301.878 89.5424 298.167 88.9846 298.167 84.0614C301.304 85.274 304.109 86.9231 305.443 90.3023Z" fill="#073042"/>
<path d="M309.558 105.533C311.143 105.844 312.779 105.781 314.336 105.347C332.434 99.3447 350.834 94.296 369.461 90.2215C371.886 89.696 378.232 87.9983 380.367 87.675C382.921 87.2869 386.834 87.8205 390.068 87.7881C393.916 87.7881 396.349 89.8415 396.834 93.6249C399.518 114.7 399.857 135.816 396.114 156.746C393.301 172.485 388.426 187.732 382.759 202.712C380.86 207.732 379.388 212.922 377.707 218.031C376.102 222.896 375.594 228.056 376.219 233.14C376.793 238.072 376.745 243.084 376.858 248.056C377.109 258.993 383.059 267.951 387.028 277.595C388.693 281.637 386.519 285.428 382.064 285.833C381.143 285.914 380.949 285.396 380.577 284.855C378.709 282.146 376.098 280.238 373.471 278.387C371.45 278.129 371.329 276.318 370.641 274.96C369.073 271.621 367.909 268.096 366.066 264.871C352.533 234.733 333.891 207.724 312.323 183.092C295.896 164.264 274.271 155.226 248.442 160.747C247.634 160.917 246.825 161.071 246.089 161.313C235.661 164.547 232.007 169.397 231.352 180.812C230.904 187.283 231.904 193.773 234.279 199.81C238.03 209.187 241.231 218.775 244.893 228.193C248.038 236.277 248.466 245.048 251.36 253.205C253.414 262.51 255.815 271.734 257.884 281.031C258.353 283.149 259.679 285.404 257.836 287.555C252.484 287.692 247.925 289.98 243.85 293.149C238.515 297.32 232.888 300.772 226.275 302.526C222.169 303.618 218.482 305.566 215.831 308.994C213.567 311.936 210.738 312.906 207.051 312.704C201.724 312.405 201.392 312.866 202.896 318.193C203.718 321.041 203.656 324.072 202.718 326.884C201.344 331.176 198.199 332.171 194.303 329.802C188.529 326.284 183.704 321.404 180.252 315.59C176.283 308.969 170.689 307.037 163.535 306.916C146.865 306.633 130.39 304.75 114.286 300.182C103.551 297.183 93.0746 293.323 82.9602 288.638C71.6424 283.359 60.1064 278.581 49.0716 272.817C43.4127 269.85 37.5921 268.339 31.4806 267.296C29.5404 266.204 26.137 265.792 26.3876 263.407C26.622 261.2 29.8637 262.809 31.6746 262.122C33.0004 261.621 35.0376 261.928 35.3367 260.255C35.5792 258.848 34.1887 257.724 33.0893 256.681C24.4878 248.5 17.681 239.131 13.6874 227.813C12.7173 225.097 13.1458 223.286 15.1507 221.346C18.0448 218.581 21.5209 216.851 25.1103 215.315C28.6996 213.779 29.3221 211.92 27.9478 208.039C24.6091 198.678 21.9898 189.066 19.0149 179.575C18.3681 177.522 19.5403 176.236 20.6317 174.878C29.5344 163.641 40.9139 154.613 53.8816 148.5C57.8216 146.703 61.1814 143.842 63.5826 140.238C76.121 121.539 90.9069 104.716 108.571 90.8763C117.213 84.1099 123.413 76.1066 129.056 67.0039C139.743 49.7686 153.381 34.821 167.334 20.205C171.562 15.7749 176.227 15.3545 181.603 18.8549C197.009 28.8142 210.866 40.9874 222.726 54.9828C226.534 59.4372 230.811 63.5358 234.489 69.2594C223.43 69.0653 213.139 67.4162 202.912 69.2594C190.889 72.0166 179.333 76.5158 168.611 82.6143C166.308 84.0312 164.369 85.9696 162.952 88.2732C160.349 92.2425 160.454 97.0525 163.219 100.27C166.712 104.312 171.069 105.226 175.863 103.019C181.764 100.294 186.995 96.4462 192.362 92.8973C205.006 84.5383 219 80.2214 233.81 78.0549C237.601 77.4971 241.288 78.3459 245.014 78.7824C255.305 80.9571 265.071 84.7 274.748 88.7178C274.82 91.2401 272.702 91.2239 271.158 91.6281C265.952 92.9701 260.722 94.2393 255.491 95.4923C243.923 98.2732 232.589 101.644 223.486 109.922C219.376 113.611 215.94 117.988 213.333 122.857C211.207 126.899 211.837 130.286 214.804 133.18C217.577 135.881 220.972 136.366 224.853 134.595C225.842 134.172 226.776 133.629 227.633 132.978C239.679 123.374 253.745 117.619 267.755 111.685C273.984 109.111 280.644 107.739 287.383 107.643C292.492 107.601 297.581 107.013 302.565 105.888C304.74 105.403 307.125 104.627 309.558 105.533Z" fill="#C4E9CE"/>
<path d="M257.787 287.547C256.405 277.967 253.745 268.678 251.482 259.301C250.98 257.223 250.22 255.17 250.382 252.971C251.53 250.893 252.306 252.502 252.662 253.383C253.406 255.218 253.697 257.223 254.4 259.09C258.491 269.956 258.329 282.033 263.68 292.049C265.621 283.327 260.334 275.259 259.897 266.431C260.358 264.006 257.771 261.257 260.609 259.05C263.082 259.996 263.139 261.944 262.702 264.095C264.699 274.604 268.297 284.83 269.17 295.623C269.876 296.833 270.314 298.182 270.454 299.577C270.593 300.972 270.431 302.38 269.978 303.707C270.665 311.864 271.32 320.029 272.039 328.185C272.719 335.946 270.229 343.319 269.275 350.877C269.17 351.742 268.806 352.899 267.601 352.793C266.397 352.688 266.429 351.379 266.324 350.562C266.051 348.295 265.903 346.015 265.879 343.731C265.879 341.071 265.014 339.414 261.999 339.212C256.122 338.816 253.009 334.273 249.469 330.449C249.206 330.228 249.032 329.921 248.977 329.583C248.922 329.245 248.99 328.898 249.17 328.606C249.832 327.66 250.859 327.935 251.748 328.145C254.982 328.953 258.272 329.689 261.49 330.619C263.26 331.128 264.271 330.691 264.044 328.848C262.29 315.024 260.536 301.217 257.787 287.547Z" fill="#073042"/>
<path d="M269.93 303.699C268.806 301.087 269.024 298.347 269.121 295.615C272.137 296.471 275.928 295.275 277.893 298.921C277.046 298.828 276.191 298.978 275.425 299.351C274.66 299.724 274.016 300.307 273.568 301.031C272.686 302.276 271.741 303.634 269.93 303.699Z" fill="#C4E9CE"/>
<path d="M88.0371 340.95C87.7945 339.851 88.4898 338.331 86.9457 337.789C82.0467 336.084 83.4857 333.448 85.8624 330.708C86.7274 329.705 87.7784 328.873 88.7485 327.959C88.8455 329.341 87.7541 330.053 87.067 331.015C86.202 332.227 85.911 333.513 87.3903 334.467C90.3734 336.383 89.2012 338.646 88.0371 340.95Z" fill="#C4E9CE"/>
<path d="M92.9361 311.742C91.9498 310.732 90.2118 310.934 89.468 309.543C90.519 308.889 91.6265 310.675 92.7017 309.471C93.8496 309.406 95.0218 309.608 94.9248 311.007C94.8197 312.058 93.6637 311.637 92.9361 311.742Z" fill="#073042"/>
<path d="M309.558 105.533C302.929 107.352 296.13 108.726 289.348 108.686C278.644 108.621 268.895 111.758 259.517 116.228C248.628 121.418 237.391 126.01 228.054 134.078C223.494 138.015 217.763 137.716 214.068 134.312C210.107 130.658 209.792 126.042 213.26 120.432C221.037 107.853 232.573 100.496 246.615 96.7615C254.788 94.5869 263.01 92.5901 271.215 90.5206C272.492 90.1972 273.964 90.2538 274.635 88.7582C277.998 88.5804 280.819 90.3265 283.648 91.6443C291.498 95.3064 299.186 99.308 306.947 103.172C308.051 103.654 308.968 104.482 309.558 105.533Z" fill="#194E4F"/>
<path d="M244.885 78.8309C223.309 78.5965 204.044 85.3952 186.623 97.8933C183.143 100.42 179.416 102.586 175.499 104.361C170.447 106.616 166.243 105.589 162.193 101.07C159.226 97.7639 158.846 92.9215 161.247 88.7016C163.261 85.1674 166.281 82.3114 169.921 80.4963C178.903 75.9045 188.078 71.7654 198.022 69.6797C199.607 69.4473 201.205 69.3176 202.807 69.2917C201.999 70.6256 200.237 69.6716 198.555 71.3208C214.917 70.8681 230.245 72.9295 244.885 78.8309Z" fill="#194E4F"/>
<path d="M371.426 274.62L373.503 278.347C371.078 282.963 370.949 283.003 366.438 280.457C365.442 279.776 364.256 279.428 363.051 279.462L362.832 278.654C363.487 272.171 365.088 271.419 371.426 274.62Z" fill="#073042"/>
<path d="M76.6709 332.818C82.1277 335.243 82.5561 336.375 79.0961 339.285C80.8585 336.148 77.8835 334.814 76.6709 332.818Z" fill="#C4E9CE"/>
<path d="M386.947 335.38C385.193 335.122 384.991 337.086 383.778 337.595C383.964 336.722 384.086 335.833 384.352 334.984C384.562 334.297 384.587 333.157 385.565 333.311C386.543 333.464 386.866 334.418 386.947 335.38Z" fill="#073042"/>
<path d="M262.703 264.111L260.972 259.26C260.659 258.991 260.387 258.678 260.164 258.331C257.052 250.562 254.966 242.429 251.837 234.668C251.029 231.516 249.178 228.702 248.806 225.404C248.806 223.043 249.8 222.17 252.104 223.302C253.727 224.262 255.455 225.033 257.254 225.598C263.665 227.118 269.008 222.251 267.763 215.784C266.94 211.251 264.846 207.046 261.724 203.658C256.453 197.999 252.023 198.371 247.634 204.717C246.453 206.431 245.58 208.904 242.71 206.964C238.062 198.557 236.736 189.502 237.472 180.06C237.618 178.152 238.854 176.899 240.342 175.873C243.772 173.477 247.648 171.794 251.74 170.925C267.48 167.651 280.908 172.413 293.729 181.596C307.941 191.774 318.451 205.04 328.37 219.034C329.922 221.216 332.59 222.955 332.145 226.237C332.679 231.815 329.138 236.018 326.413 239.98C318.192 251.968 306.551 259.778 292.719 264.127C282.969 267.333 272.449 267.327 262.703 264.111Z" fill="#A0C6B4"/>
<path d="M249.542 225.275L252.638 234.24C253.697 239.947 255.871 245.323 257.634 250.804C258.442 253.407 258.911 256.261 260.867 258.428L260.989 259.236C258.855 261.661 261.684 264.086 260.989 266.512C258.814 266.261 259 264.345 258.563 262.947C257.213 258.985 256.3 254.862 254.077 251.508C254.732 253.933 255.58 256.617 253.77 259.22C252.5 257.708 252.266 255.881 252.088 253.997C252.007 253.189 251.87 251.912 250.471 252.93C249.804 251.183 249.248 249.396 248.806 247.579C245.815 231.039 239.234 215.663 233.268 200.109C229.578 190.756 229.213 180.419 232.234 170.828C234.505 163.375 241.409 161.426 247.965 159.753C266.737 154.951 283.479 160.206 299.437 170.125C310.181 176.802 317.367 186.697 324.789 196.406C340.755 217.279 355.508 238.921 366.535 262.922C366.81 263.529 366.988 264.175 367.206 264.806C366.26 265.331 365.355 265.485 365.338 267.175C365.29 271.378 364.15 272.025 359.785 271.338C352.436 256.722 344.336 242.558 334.724 229.301C333.915 228.225 333.107 227.215 332.25 226.18C319.227 206.891 305.225 188.597 284.352 176.867C270.479 169.074 256.615 168.718 242.411 175.703C239.542 177.118 238.289 179.219 238.224 182.413C238.054 190.917 240.18 198.912 243.285 206.714C246.211 212.623 248.644 218.678 249.542 225.275Z" fill="#073042"/>
<path d="M359.696 271.378C362.582 270.812 365.354 270.465 364.239 266.075C363.713 264.006 366.001 265 367.117 264.846L371.426 274.62C371.041 274.697 370.646 274.697 370.261 274.62C365.839 272.462 363.956 274.887 362.824 278.662L359.696 271.378Z" fill="#073042"/>
<path d="M82.9118 311.847C85.5957 311.548 87.4874 313.65 90.1309 313.173C91.101 312.995 92.1277 315.121 91.5618 316.803C90.915 318.711 90.6644 320.845 89.5731 322.462C87.4219 325.452 85.0836 328.304 82.5722 330.999C81.7638 331.88 80.6078 331.629 79.5811 331.039C77.0185 329.576 74.3911 328.21 71.885 326.649C70.7128 325.922 69.5568 324.685 71.1817 323.416C74.5447 320.837 76.3879 317.094 78.7565 313.78C80.0096 312.058 81.3111 311.613 82.9118 311.847Z" fill="#C4E9CE"/>
<path d="M121.796 183.375C140.729 181.354 153.429 190.82 164.351 204.07C174.052 215.849 178.288 229.341 176.792 244.41C175.766 254.757 172.451 264.458 164.173 271.451C159.517 275.285 154.031 277.981 148.15 279.325C139.536 281.499 130.526 281.574 121.877 279.543C116.53 278.227 111.553 275.708 107.326 272.179C93.8414 261.128 85.6441 246.883 83.8818 229.333C83.0733 221.184 83.0733 213.011 86.3797 205.307C88.9574 199.546 92.8306 194.458 97.6975 190.44C104.909 184.24 113.073 182.041 121.796 183.375Z" fill="#A0C6B4"/>
<path d="M383.827 107.303C385.573 110.189 385.128 113.585 385.29 116.608C385.904 128.168 386.284 139.656 384.328 151.321C382.937 159.624 382.024 167.942 378.895 175.759C376.066 182.833 373.026 189.923 366.009 194.143C362.379 196.334 358.588 195.857 355.815 192.752C351.062 187.425 347.893 181.071 344.384 174.967C344.764 171.41 343.503 167.586 346.082 164.377C346.446 163.658 346.89 162.987 347.319 162.291C351.514 155.347 349.59 150.497 341.66 148.459C338.141 147.531 334.515 147.071 330.876 147.093C329.429 147.093 327.715 147.239 326.971 145.614C326.163 143.819 327.488 142.582 328.547 141.37C333.98 135.161 339.97 129.567 347.141 125.46C357.545 119.526 367.925 113.552 379.089 109.106C380.819 108.791 382.274 107.91 383.827 107.303Z" fill="#337762"/>
<path d="M200.326 251.2C188.127 246.067 182.144 236.059 183.664 223.27C184.125 219.406 184.529 215.525 186.162 211.895C191.142 200.812 199.097 196.382 211.368 197.967C225.863 199.85 233.705 208.209 234.489 222.849C234.691 226.6 234.489 230.376 234.335 234.167C234.061 241.831 230.204 247.304 223.778 251.144C215.968 255.057 208.143 253.044 200.326 251.2Z" fill="#073042"/>
<path d="M75.3531 186.511C71.1898 186.762 68.425 184.539 66.6223 181.152C65.4186 178.986 64.656 176.604 64.3785 174.143C64.101 171.681 64.3141 169.189 65.0054 166.81C68.9262 152.178 80.0661 145.792 93.1543 142.049C101.093 139.801 108.514 146.899 108.369 155.428C108.142 168.629 97.7057 181.782 84.8762 184.911C81.7395 185.679 78.6191 186.544 75.3531 186.511Z" fill="#073042"/>
<path d="M379.898 109.777C367.279 115.17 355.134 121.611 343.592 129.033C338.144 132.749 333.246 137.212 329.041 142.291C328.297 143.148 326.963 144.029 327.65 145.363C328.208 146.438 329.582 145.953 330.601 146.042C333.277 146.285 335.985 146.341 338.645 146.705C350.981 148.403 353.77 154.555 346.882 164.725C346.074 165.412 345.265 166.519 344.231 165.307C342.921 163.763 344.489 162.647 345.112 161.418C348.831 155.396 347.416 151.887 340.512 150.036C336.316 148.912 331.975 149.058 327.707 148.548C322.913 147.982 322.274 146.851 324.999 142.752C328.766 137.093 333.843 132.671 339 128.33C351.223 118.055 364.869 110.545 380.569 107.15C381.183 106.826 382.072 106.737 382.234 107.336C382.663 109.146 380.642 108.928 379.898 109.777Z" fill="#073042"/>
<path d="M345.063 161.426C345.823 162.437 341.652 166.075 346.826 164.733C345.645 167.4 344.764 170.101 345.629 173.092C345.896 173.997 345.791 175 344.384 174.943C342.768 172.178 341.151 169.405 339.534 166.665C338.548 165.048 338.143 163.633 340.795 163.431C342.509 163.31 343.721 162.267 345.063 161.426Z" fill="#073042"/>
<path d="M200.325 251.2C203.066 250.651 205.588 252.009 208.296 252.065C213.486 252.122 218.676 252.502 223.769 251.136C218.83 255.178 213.26 255.251 207.456 253.698C205.022 253.044 202.484 252.672 200.325 251.2Z" fill="#073042"/>
<path d="M379.898 109.777C379.34 108.718 383.447 108.783 380.52 107.166C381.668 106.066 382.752 106.632 383.827 107.311C383.518 108.086 382.971 108.743 382.265 109.186C381.559 109.629 380.73 109.836 379.898 109.777Z" fill="#073042"/>
<path d="M253.713 259.26C253.527 256.342 254.335 253.318 252.638 250.578C252.177 249.834 252.064 248.888 253.05 248.573C254.036 248.258 254.109 249.381 254.513 249.996C257.795 255.081 258.442 261.184 260.981 266.552C262.064 271.459 262.597 276.415 264.449 281.249C266.195 285.865 264.683 291.023 264.61 295.946C259.614 287.627 257.828 278.428 256.195 269.212C255.589 265.816 253.357 262.866 253.713 259.26Z" fill="#073042"/>
<path d="M249.541 225.275C247.068 219.228 244.651 213.148 243.171 206.762C244.61 207.57 245.532 206.762 246.057 205.606C249.663 197.449 257.197 195.347 263.689 204.401C267.124 209.195 270.455 214.426 268.111 221.111C265.831 227.579 260.204 228.193 255.071 226.026C253.717 225.437 252.419 224.728 251.191 223.908C249.008 222.469 250.051 224.749 249.541 225.275Z" fill="#337762"/>
<path d="M260.851 258.428C258.919 257.837 258.539 256.116 257.876 254.523C255.572 248.937 255.176 242.736 252.217 237.352C251.716 236.431 251.045 235.089 252.613 234.24C255.835 242.133 258.586 250.209 260.851 258.428Z" fill="#073042"/>
<path d="M153.381 226.875C155.297 224.45 157.528 222.34 158.902 219.503C160.091 217.077 161.772 217.231 163.098 219.389C164.149 221.095 165.071 223.035 164.634 225.121C162.468 235.566 159.784 245.719 151.57 253.456C145.992 258.735 139.396 260.513 131.99 260.061C129.129 259.883 127.051 258.096 125.079 256.253C115.248 247.069 110.527 235.55 109.719 222.3C108.732 218.824 110.705 214.862 107.989 211.669L105.919 209.098C108.902 208.29 110.535 209.955 111.853 212.251C111.941 215.013 112.335 217.757 113.025 220.432C114.448 224.935 114.925 229.648 116.34 234.175C118.155 240.096 120.98 245.659 124.691 250.618C129.387 256.851 134.585 258.331 141.667 254.951C149.21 251.354 153.963 245.097 156.987 237.441C157.9 235.121 156.801 234.838 154.868 235.436C152.512 236.037 150.067 236.212 147.649 235.954C146.388 235.881 144.828 236.115 144.416 234.337C145.588 232.849 147.318 233.399 148.83 233.149C152.152 232.575 154.06 229.963 153.381 226.875Z" fill="#073042"/>
<path d="M111.449 212.324C109.775 210.933 108.142 209.486 105.887 209.09C102.015 204.393 101.691 196.6 105.175 191.952C105.984 190.852 106.978 189.68 108.409 189.987C110.268 190.376 109.614 192.097 109.662 193.342C109.662 194.41 109.573 195.485 109.509 196.576C108.854 207.085 115.555 213.836 126.178 213.383C132.265 213.124 132.985 213.601 134.949 219.195C138.442 229.155 144.1 231.516 153.357 226.875C155.855 226.948 156.396 227.684 154.877 229.996C152.273 233.917 148.547 234.612 144.319 234.329C138.724 234.596 135.774 230.642 132.678 226.964C131.974 226.14 131.465 225.167 131.19 224.119C129.864 218.767 126.509 216.738 121.093 217.401C118.526 217.709 115.93 217.139 113.728 215.784C112.75 214.806 111.724 213.819 111.449 212.324Z" fill="#073042"/>
<path d="M107.964 211.661C111.392 214.741 109.322 218.71 109.694 222.292C108.344 218.88 109.533 215.048 107.964 211.661Z" fill="#073042"/>
<path d="M113.753 214.959C117.091 216.681 120.729 216.503 124.262 216.245C127.795 215.986 129.727 217.724 130.818 220.788C133.187 227.457 137.407 232.251 144.359 234.329C148.191 235.768 151.974 235.291 155.75 234.086C156.712 233.779 157.795 232.793 158.7 233.779C159.606 234.765 158.66 235.832 158.288 236.77C154.642 246.099 149.395 253.892 139.121 256.981C133.171 258.783 128.474 257.215 124.569 252.3C117.091 242.938 114.06 231.928 112.257 220.424C111.521 218.904 111.877 217.296 111.942 215.735C111.958 214.62 112.629 214.062 113.753 214.959Z" fill="#FE9D9C"/>
<path d="M113.753 214.959C110.624 216.067 113.179 218.743 112.233 220.448C111.489 217.789 109.921 215.21 111.425 212.364C112.387 213.043 113.526 213.601 113.753 214.959Z" fill="#073042"/>
</svg>
