<svg viewBox="0 0 409 409" fill="none" xmlns="http://www.w3.org/2000/svg">
<path d="M398.712 408.663H11.5158C10.0688 406.452 11.0865 404.29 11.7782 402.207C14.8392 392.92 19.2359 384.183 22.8534 375.119C25.0531 369.612 27.3959 364.163 29.8818 358.772C30.7246 356.944 31.1857 354.614 33.8571 354.32C37.8142 356.72 41.3625 359.737 44.3678 363.256C52.9863 372.797 63.9423 377.409 76.544 378.299C79.9708 378.546 83.4054 378.887 86.7845 379.349C97.8199 380.843 108.45 379.094 118.667 375.254C128.716 371.469 136.229 364.187 142.518 355.624C144.236 353.239 143.814 349.915 145.937 347.673C147.527 345.558 147.655 343.006 147.885 340.518C149.292 325.244 151.01 309.979 150.318 294.595C150.262 293.418 150.191 292.21 151.01 291.168C153.156 290.373 153.617 292.082 153.737 293.354C154.818 305.209 163.142 310.909 172.914 314.114C190.644 319.926 209.073 322.525 227.717 323.479C232.448 323.718 236.869 322.319 241.321 321.15C247.157 319.615 253.175 320.856 259.043 319.647C264.346 318.558 269.752 317.978 273.489 313.358C273.682 313.173 273.928 313.055 274.193 313.021C274.458 312.986 274.727 313.038 274.96 313.167C276.9 314.972 276.431 317.294 276.184 319.528C275.095 329.427 275.771 339.341 275.803 349.247C275.854 350.78 276.358 352.262 277.25 353.509C278.148 350.877 277.631 348.548 277.822 346.353C277.981 344.533 277.727 342.537 279.993 341.702C281.806 342.497 281.845 344.087 281.917 345.678C282.139 347.914 282.139 350.167 281.917 352.404C280.462 361.794 285.097 367.582 292.762 371.931C304.021 378.35 316.46 382.43 329.334 383.928C341.547 385.399 353.727 385.677 365.772 381.845C372.928 379.571 378.716 375.485 384.226 370.714C384.67 370.23 385.185 369.814 385.752 369.482C388.185 369.315 388.932 371.191 389.481 372.893C392.804 382.902 396.485 392.769 399.213 402.994C399.698 404.854 400.27 406.89 398.712 408.663Z" fill="#6DD58C"/>
<path d="M33.5391 354.686C26.0416 372.614 17.3993 390.074 11.5079 408.655H7.53254C5.14735 408.655 1.83194 409.585 0.639345 408.392C-0.55325 407.2 0.265665 406.667 0.384924 401.507C0.504184 396.347 9.92568 366.612 15.4911 356.809C21.1122 346.846 24.69 336.049 28.9277 325.515C29.2106 324.849 29.2861 324.114 29.1442 323.404C29.0024 322.695 28.6498 322.045 28.1326 321.54C23.2986 315.72 21.303 308.985 20.834 301.432C20.3967 294.42 19.9435 287.471 20.6034 280.459C20.8817 277.541 18.7588 276.046 16.3895 275.426C8.31966 273.287 5.13145 266.839 2.25332 259.986C1.12433 256.344 1.45826 252.679 2.02275 249.014C2.44414 247.869 3.14379 246.812 3.08814 245.524C6.98395 237.517 12.3109 230.417 17.606 223.349C18.1784 222.554 21.303 222.165 17.9399 220.829C13.4156 217.835 9.22081 214.37 5.42563 210.493C0.933518 206.001 0.798357 200.531 4.77367 195.522C8.93092 190.044 13.5313 184.917 18.5283 180.193C21.1679 177.808 21.5336 175.264 20.3649 172.02C14.0922 154.598 10.513 136.321 9.75077 117.82C9.36119 108.725 8.16064 99.6771 7.04755 90.6452C6.82439 89.0642 6.69695 87.4712 6.66592 85.8748C6.61027 73.8296 6.58642 61.7764 6.66592 49.7233C6.71363 42.7824 8.25605 41.6693 15.0379 41.1207C29.1503 39.9678 43.2627 39.6419 57.4228 39.5305C71.3841 39.3874 85.0592 41.391 98.8297 43.1083C109.165 44.3963 118.873 47.7515 128.812 50.3752C134.214 51.7614 139.885 51.7093 145.261 50.2241C158.044 46.9643 171.015 44.4923 184.1 42.8221C195.342 41.3274 206.545 39.459 217.771 37.7973C225.451 36.6604 233.076 37.36 240.693 38.1869C241.778 38.3818 242.894 38.2988 243.938 37.9456C244.982 37.5925 245.92 36.9808 246.664 36.1674C249.653 33.1621 252.531 30.0931 255.37 26.9447C270.404 9.91444 297.15 0 301.611 0C306.071 0 328.81 22.0869 336.888 31.5322C343.375 39.1171 349.887 46.8213 354.435 55.9168C357.074 61.204 360.262 66.2526 362.989 71.4841C367.688 80.532 371.393 90.0171 375.623 99.3114C382.461 114.251 387.096 130.025 393.035 145.306C394.283 148.486 395.531 151.762 395.69 155.244C395.969 161.12 399.88 165.429 402.186 170.406C404.158 174.667 406.4 182.976 406.527 183.683C406.654 184.391 410.232 204.824 407.441 218.666C407.195 219.883 405.653 221.552 404.993 223.127C401.693 226.029 401.145 229.718 402.56 233.566C405.454 241.437 404.993 249.706 405.74 257.815C406.312 264.096 403.124 269.32 399.698 274.193C397.583 277.199 397.662 279.878 399.698 282.526C401.978 285.486 403.063 289.195 402.735 292.917C402.553 294.773 402.62 296.645 402.933 298.483C404.714 306.529 396.136 314.13 387.915 313.104C386.213 312.889 384.552 312.396 382.492 312.627C383.391 316.865 384.981 320.848 386.253 324.919C388.082 332.368 391.206 339.373 393.568 346.648C396.97 357.166 399.491 367.947 403.069 378.41C404.182 382.386 407.41 393.008 407.41 395.989C407.41 398.502 407.29 403.145 407.457 406.723C407.537 408.44 407.139 408.909 405.414 408.758C403.18 408.567 400.914 408.71 398.664 408.71C395.619 395.385 390.952 382.584 386.158 369.824C384.385 369.235 384.003 367.661 383.51 366.151C379.296 353.096 374.248 340.335 369.899 327.328C369.589 326.745 369.235 326.187 368.841 325.658C367.132 320.951 364.548 316.562 363.633 311.546C363.029 307.952 364.039 304.533 364.778 301.098C365.422 298.133 367.06 296.121 370.344 295.994C373.301 295.652 375.981 296.893 378.764 297.521C383.59 298.61 386.945 296.01 386.531 291.16C386.285 288.338 386.007 285.428 384.321 282.939C382.85 278.678 382.779 274.297 385.911 271.013C390.88 265.79 390.896 259.342 391.318 252.965C391.534 248.616 391.516 244.258 391.262 239.91C392.057 235.712 392.24 231.586 390.745 227.428C389.521 224.033 389.871 220.376 389.592 216.822C389.902 215.088 389.234 213.498 388.909 211.845C388.511 209.873 388.312 207.869 390.841 207.034C392.884 206.947 393.377 209.086 394.816 209.825C396.183 211.089 397.384 211.527 397.662 209.03C398.006 206.801 398.006 204.533 397.662 202.304C396.239 194.636 394.082 187.123 391.222 179.867C390.876 179.311 390.49 178.779 390.069 178.277C387.811 172.998 384.122 168.53 381.666 163.354C381.178 162.308 380.815 161.208 380.584 160.078C380.147 158.567 379.94 156.961 378.899 155.697C375.179 151.253 372.522 146.018 371.131 140.392C369.652 138.357 369.938 135.701 368.746 133.571C367.577 128.8 366.679 123.982 365.685 119.188C360.835 98.572 352.511 79.3712 339.949 62.4045C329.247 47.8469 316.438 35.102 303.336 22.6832C301.046 20.5126 298.613 20.1549 295.711 21.5144C286.417 25.8714 277.671 30.9518 270.532 38.5288C268.059 41.1525 266.556 43.4105 269.299 46.6384C269.864 47.3957 270.145 48.3269 270.094 49.2701C269.498 51.9971 266.437 53.4521 266.501 56.688C266.501 57.65 264.41 57.9363 263.082 58.0476C251.363 56.9822 239.572 57.3002 227.868 56.0599C225.173 55.7737 222.653 56.855 220.045 57.2207C211.896 57.1333 203.794 58.0158 195.684 58.5723C184.792 60.9575 173.764 62.5476 162.721 63.9946C161.036 64.2738 159.367 64.6401 157.72 65.0918C153.681 65.7835 149.833 67.2226 145.866 68.1846C143.91 68.6617 143.48 69.568 143.679 71.5557C144.053 75.6821 141.572 77.6061 137.517 76.7077C135.967 76.3415 134.516 75.6415 133.264 74.6564C117.935 63.0167 99.8712 58.7552 81.4575 55.5749C78.8974 55.1376 76.1545 55.0025 74.302 52.7843C74.0714 52.1721 74.4451 51.1941 73.1571 51.1941C69.6508 51.3213 66.2559 49.9061 62.7179 50.3991C62.0773 50.5492 61.4106 50.5492 60.77 50.3991C57.4864 49.2065 54.4095 49.3496 51.6347 51.6791C43.7397 51.6155 35.8766 51.8302 28.0929 53.3965C22.8932 54.438 22.8137 54.4777 21.7324 59.7172C20.7226 64.6784 21.6529 69.7032 20.9373 74.6644C21.3587 79.1565 21.0327 83.6566 21.1917 88.1805C21.9073 108.129 23.3782 127.981 29.1424 147.254C30.3191 151.189 32.2034 154.854 33.4278 158.758C34.5329 162.28 36.6637 165.365 37.8404 168.871C38.8024 171.742 39.8837 174.54 40.2255 177.617C40.8139 183.302 39.3748 187.627 33.6822 190.155C29.6512 191.944 27.2024 195.904 23.7598 198.543C23.0891 199.172 22.4721 199.855 21.9152 200.587C20.508 202.447 20.8896 203.624 23.0601 204.474C25.7554 205.532 28.3314 206.86 31.0108 208.012C41.124 212.282 41.9906 215.168 36.4013 224.748C33.1415 230.314 29.0311 235.331 25.7156 240.872C22.6149 245.388 21.0407 250.596 18.9656 255.573C17.9558 258.006 18.727 259.866 20.826 261.401C23.5441 263.254 26.4201 264.863 29.4206 266.211C33.6822 268.294 35.6698 271.498 35.4949 276.34C35.3836 279.385 34.7714 282.359 34.6442 285.388C34.2387 295.072 35.8686 304.287 40.8775 312.706C41.0206 312.778 40.6708 313.167 41.124 313.056C42.7141 310.035 44.0578 306.839 47.0949 304.907C50.0446 305.511 52.6603 307.697 56.0314 306.386C56.7231 306.115 57.383 307.038 57.6215 307.864C57.9475 310.591 56.2461 312.635 55.0932 314.766C48.8758 326.358 42.9288 338.085 37.4349 350.035C36.5762 351.887 35.964 354.089 33.5391 354.686Z" fill="#073042"/>
<path d="M370.272 324.982C375.043 335.032 378.223 345.654 381.952 356.125C383.542 360.601 385.339 365.037 386.205 369.76C385.983 372.185 384.011 373.171 382.413 374.53C372.824 382.728 361.479 386.003 349.147 386.544C329.724 387.403 311.263 383.737 294.01 374.618C291.313 373.215 288.768 371.536 286.417 369.609C282.243 366.127 279.325 362.08 280.017 356.005C280.533 351.442 280.064 346.767 280.017 342.148C279.581 341.746 279.231 341.261 278.986 340.722C278.742 340.182 278.608 339.599 278.593 339.007C278.251 333.625 278.542 328.221 279.46 322.907C279.514 322.386 279.685 321.883 279.961 321.437C280.236 320.991 280.608 320.613 281.05 320.331C291.847 327.487 304.64 327.216 316.653 329.76C324.5 331.422 332.554 331.732 340.592 332.249C349.99 332.853 358.505 329.768 366.933 326.246C368.062 325.785 369.008 324.982 370.272 324.982Z" fill="#5AB67E"/>
<path d="M33.5391 354.686C40.6072 338.689 48.6453 323.169 56.906 307.777C57.2001 306.847 57.1524 305.567 58.7505 305.956C62.5748 309.137 64.9997 313.43 68.0448 317.222C77.4266 328.91 89.3684 334.563 104.475 334.809C117.291 335.016 127.969 330.834 137.311 322.462C138.381 321.475 139.536 320.584 140.761 319.798C143.099 318.343 144.371 316.483 144.307 313.637C144.307 312.11 144.371 310.377 146.43 309.908C146.852 310.124 147.204 310.456 147.446 310.864C147.688 311.272 147.81 311.739 147.798 312.213C148.942 323.344 148.481 334.388 147.472 345.455C147.376 346.512 147.424 347.586 146.605 348.421C140.57 367.256 126.212 376.065 108.068 380.04C94.2262 383.038 80.408 380.994 66.725 378.45C57.6772 376.773 50.14 371.891 43.7477 365.204C41.0445 362.374 38.7308 359.027 34.9145 357.389C33.8332 356.904 33.7537 355.719 33.5391 354.686Z" fill="#5AB67E"/>
<path d="M274.698 313.255C272.448 319.997 266.111 319.782 260.856 321.206C254.948 322.796 248.596 320.959 242.752 322.843C229.069 327.264 215.537 324.434 201.957 322.517C190.826 320.927 179.831 318.789 169.272 314.821C162.705 312.349 158.086 307.451 154.007 301.997C152.608 300.128 152.329 297.878 152.194 295.636C152.099 294.086 152.52 292.456 151.399 291.049C149.738 289.236 149.809 286.811 149.102 284.688C149.102 278.487 147.583 272.436 147.321 266.267C147.726 263.373 148.457 260.582 150.453 258.316C152.234 256.305 150.612 253.252 152.647 251.335C155.748 250.31 155.565 253.593 157.06 254.683C158.717 258.194 160.835 261.47 163.357 264.422C172.214 276.555 184.164 284.402 197.974 289.864C210.274 294.698 223.17 295.581 236.137 295.716C246.258 295.819 255.958 292.893 265.698 290.5C269.164 289.65 272.551 288.536 276.033 287.781C277.305 287.503 278.601 286.986 279.834 287.924C282.06 291.589 279.611 294.961 278.983 298.387C278.713 299.874 278.363 301.385 278.14 302.903C277.131 305.058 277.242 307.459 276.598 309.701C276.208 310.933 276.169 312.46 274.698 313.255Z" fill="#6DD58C"/>
<path d="M274.698 313.255C274.575 309.595 275.345 305.961 276.94 302.665C277.997 300.765 278.909 298.787 279.667 296.749C280.096 295.62 280.462 294.364 281.79 294.11C283.276 293.832 283.801 295.056 284.254 296.185C284.652 297.179 285.845 297.608 286.067 298.737C286.139 305.622 284.676 312.253 283.086 318.908C282.981 319.224 282.805 319.511 282.57 319.747C282.335 319.983 282.049 320.161 281.734 320.267C279.921 327.423 280.494 334.841 280.033 342.148C279.158 346.186 279.842 350.297 279.46 354.352C279.357 355.465 279.651 357.007 278.093 357.278C276.534 357.548 275.707 356.204 275.246 354.996C274.093 352.142 273.942 349.096 273.847 346.059C273.523 335.117 273.807 324.166 274.698 313.255Z" fill="#073042"/>
<path d="M150.747 284.561C151.63 286.636 151.026 288.862 151.399 290.985C151.399 296.384 151.264 301.79 151.471 307.181C151.972 320.562 150.286 333.736 148.155 346.886C148.028 347.681 147.996 348.659 147.511 349.128C146.39 350.209 147.122 348.429 146.613 348.413C147.209 336.177 146.685 323.933 146.613 311.697C147.965 310.639 148.744 311.641 149.356 312.285C148.561 304.191 148.99 295.827 149.094 287.479C149.051 286.884 149.186 286.289 149.48 285.77C149.774 285.251 150.215 284.831 150.747 284.561Z" fill="#073042"/>
<path d="M19.4904 74.7359C19.1326 68.6537 19.8243 62.6033 20.0311 56.5369C20.1265 53.6668 21.9233 52.9115 24.3562 52.3549C33.4002 50.3992 42.667 49.6744 51.9051 50.2003C58.5121 49.6278 65.0555 50.3355 71.583 51.2657C72.6404 51.4167 73.674 51.4485 74.3259 52.4583C86.6176 54.9309 99.0286 56.9345 110.994 60.7985C119.12 63.4222 126.212 68.0733 133.256 72.7244C135.013 73.8852 136.73 75.1812 138.821 75.6185C139.998 75.8649 141.254 75.9206 142.105 74.8234C142.474 74.3417 142.659 73.7448 142.628 73.139C142.598 72.5333 142.353 71.9581 141.938 71.5159C139.362 68.2403 141.246 67.3896 144.252 66.7456C148.497 65.7994 152.687 64.583 156.909 63.4858C163.381 62.2137 168.39 64.1696 173.224 68.9161C182.566 78.0832 188.481 88.9994 192.305 101.283C192.751 102.401 192.788 103.64 192.409 104.781C191.081 107.89 188.433 108.184 185.492 108.248C171.785 108.558 158.07 108.391 144.371 108.168C137.017 108.049 130.06 108.629 123.294 112.056C116.719 115.395 109.356 116.747 102.344 118.941C91.8968 122.209 81.1794 124.658 71.7499 130.565C70.7217 131.128 69.54 131.345 68.3789 131.185C66.3117 131.011 65.6518 129.349 64.8806 127.814C59.7286 117.566 55.5227 106.896 50.8875 96.4253C46.2522 85.9543 40.7981 76.0955 35.5348 66.0459C35.3579 65.6055 35.0662 65.2205 34.6901 64.9311C34.3139 64.6416 33.8671 64.4583 33.3961 64.4001C29.6752 65.8074 29.54 69.7509 27.6716 72.47C24.5391 76.7077 23.1875 77.0734 19.4904 74.7359Z" fill="#6DD58C"/>
<path d="M67.8539 130.653C79.446 123.283 92.6361 120.237 105.516 116.143C113.546 113.591 122.157 112.279 129.424 107.445C130.839 106.499 132.683 106.507 134.433 106.515C143.687 106.515 152.981 105.99 162.18 106.69C170.385 107.31 178.487 105.735 186.62 106.57C189.085 106.825 190.5 105.338 192.186 104.114C194.571 104.066 195.08 106.093 195.962 107.612C201.528 117.208 201.528 117.089 211.808 112.78C214.829 111.516 217.453 108.717 221.238 109.599C225.539 114.592 230.079 115.634 236.423 113.265C237.299 112.959 238.07 112.412 238.65 111.688C239.229 110.964 239.593 110.091 239.699 109.17C241.289 100.552 244.644 100.965 250.559 101.895C255.878 102.73 259.409 102.046 261.412 96.8467C263.066 96.1152 264.163 97.117 265.26 98.1029C266.831 99.5155 268.502 100.812 270.261 101.983C272.813 103.692 275.445 104.559 278.45 103.128C279.031 102.801 279.679 102.614 280.345 102.582C281.01 102.551 281.674 102.675 282.283 102.945C283.515 103.851 284.668 104.424 286.258 103.422C288.921 101.712 291.465 102.349 293.342 104.654C295.067 106.769 297.166 107.302 299.655 107.198C303.106 106.993 306.561 107.536 309.784 108.789C315.651 111.174 321.781 110.267 327.832 110.379C331.274 110.45 334.725 110.196 338.167 110.442C344.639 110.903 350.348 114.306 356.637 115.539C357.39 115.819 358.047 116.31 358.529 116.954C361.097 119.609 363.872 120.667 367.14 118.115C367.696 123.275 370.232 128.029 370.32 133.3C369.31 136.361 368.094 136.838 364.81 135.622C359.746 133.738 354.848 131.464 349.863 129.389C347.891 128.594 345.824 127.798 343.693 128.132C336.903 129.094 330.026 128.713 323.228 129.436C318.76 129.913 314.324 128.832 309.816 129.564C303.527 130.581 297.039 128.721 290.917 129.436C280.732 130.629 270.587 130.025 260.442 130.605C259.38 130.683 258.35 131.001 257.429 131.535C254.392 133.207 250.927 133.935 247.475 133.626C241.305 133.197 235.803 135.439 230.365 137.864C228.972 138.62 227.447 139.101 225.873 139.279C213.938 139.645 201.992 139.316 190.095 138.293C189.57 138.293 190.143 138.484 189.713 138.238C183.353 134.588 175.736 135.948 169.105 133.364C165.424 131.925 162.681 128.912 158.944 127.369C155.82 125.963 152.466 125.136 149.046 124.928C145.615 124.808 142.218 124.203 138.956 123.131C135.796 122.022 132.341 122.099 129.233 123.346C126.593 124.451 123.914 124.69 121.131 124.936C114.031 125.564 106.995 126.526 100.277 129.222C91.9682 132.577 83.0476 134.35 75.1526 138.826C73.9203 139.526 72.5687 139.104 71.3284 138.524C68.6251 136.544 66.5341 134.318 67.8539 130.653Z" fill="#6DD58C"/>
<path d="M367.068 118.138C365.478 123.155 362.648 123.942 358.322 119.236C355.357 115.992 351.962 116.055 348.488 115.26C347.693 115.101 346.619 115.372 346.182 114.934C341.539 110.323 335.719 112.494 330.368 112.096C327.593 111.938 324.811 111.938 322.036 112.096C317.385 112.279 312.813 112.009 308.44 110.204C305.863 109.168 303.085 108.73 300.315 108.924C296.808 109.122 293.58 109.114 291.569 105.163C290.488 103.016 288.333 103.326 286.663 105.235C286.214 105.83 285.577 106.256 284.856 106.443C284.134 106.631 283.37 106.569 282.688 106.268C281.297 105.688 281.376 104.447 281.734 103.215C281.533 102.715 281.488 102.166 281.605 101.64C281.721 101.113 281.993 100.635 282.386 100.265C288.333 94.1912 286.56 87.1151 284.771 80.2139C283.428 74.9347 280.462 70.3075 277.759 65.6007C276.685 63.6051 275 61.1165 279.071 60.1465C284.692 60.8939 289.406 64.0026 294.487 66.1572C295.823 66.7217 297.071 67.485 298.462 68.0256C293.899 63.3506 287.22 59.4628 277.48 55.6544C274.078 54.3346 270.325 53.3726 269.156 49.1349C269.084 48.8815 268.985 48.6363 268.862 48.4035C264.624 42.043 264.624 42.043 269.943 36.557C277.751 28.511 287.498 23.5021 297.54 18.9464C298.263 18.6026 299.068 18.4688 299.864 18.5602C300.66 18.6516 301.413 18.9644 302.04 19.4632C303.67 20.5948 305.204 21.8579 306.627 23.2397C318.458 35.0066 330.122 46.9723 340.41 60.0988C350.022 72.3667 356.51 86.4631 361.876 101.045C363.994 106.618 365.729 112.329 367.068 118.138Z" fill="#6DD58C"/>
<path d="M281.734 320.252L285.113 298.149C284.571 297.079 284.395 295.861 284.612 294.682C287.904 280.57 292.261 266.927 301.054 255.08C305.029 249.682 310.094 248.33 316.685 249.117C329.406 250.652 336.379 259.453 343.153 268.723C345.458 272.071 348.106 275.156 350.245 278.646C355.15 286.636 357.877 295.724 362.966 303.627C364.508 306.012 363.848 309.288 365.2 311.895L370.256 324.974C369.962 327.017 368.332 327.646 366.734 328.353C355.858 333.124 344.719 334.666 332.729 333.434C317.035 331.844 301.658 328.926 286.29 325.602C282.831 324.855 281.456 323.591 281.734 320.252Z" fill="#5AB67E"/>
<path d="M22.6228 197.971C25.9679 193.346 30.3958 189.611 35.5188 187.094C37.5462 186.069 38.2299 184.661 38.5003 182.443C39.2953 176.17 36.7829 170.772 34.4693 165.278C33.6742 163.457 32.9905 161.62 32.259 159.784C34.2467 158.194 34.2546 156.262 33.3085 154.107C32.0841 151.308 31.7184 148.263 31.0028 145.361C30.5337 143.453 30.2793 141.386 32.0205 139.796C34.4057 139.796 34.4057 141.855 35.002 143.318C37.0214 148.176 37.2123 153.654 40.0427 158.241C41.097 160.067 42.2599 161.827 43.5251 163.513C44.3201 164.483 45.0516 165.357 46.4588 164.952C48.049 164.332 48.049 162.916 47.9774 161.636C47.6276 154.258 51.2372 152.191 57.6136 150.418C59.0044 150.144 60.3451 149.659 61.5889 148.979C67.4167 150.569 71.2648 146.467 75.4389 143.819C84.1846 138.301 93.3278 134.278 103.695 133.388C106.733 133.117 109.523 130.677 112.441 131.297C120.726 133.022 128.819 130.263 137.191 130.915C144.085 131.265 150.602 134.163 155.478 139.049C156.599 140.122 158.253 140.639 158.754 142.34C158.61 143.787 157.553 144.328 156.368 144.622C144.442 147.564 132.58 150.744 120.75 154.028C112.95 151.491 105.063 151.563 97.653 154.878C88.6608 158.909 79.4858 162.781 72.6482 170.454C66.0731 177.84 60.5553 185.687 59.1322 195.792C58.7187 198.798 57.5023 201.62 57.3035 204.697C57.1047 207.774 54.1948 208.672 51.8971 209.873C47.882 210.453 44.5348 208.283 40.9491 207.146C35.5503 205.553 30.2421 203.669 25.0478 201.501C23.7041 200.873 21.6052 200.467 22.6228 197.971Z" fill="#6DD58C"/>
<path d="M158.682 142.316C156.297 141.434 154.429 139.756 152.425 138.341C149.141 136.051 146.263 131.655 141.119 132.776C140.607 132.942 140.063 132.991 139.529 132.919C131.475 130.732 123.421 134.27 115.375 132.919C114.332 132.675 113.251 132.643 112.195 132.823C101.628 135.463 90.577 136.727 80.9408 142.118C76.9458 144.421 73.0836 146.948 69.3727 149.687C66.3912 151.833 63.9901 151.937 61.3584 149.543C57.232 149.957 55.4511 146.848 53.5429 144.137C52.6952 142.847 52.0666 141.426 51.6825 139.931C51.1782 138.004 51.1618 135.982 51.6348 134.048C52.7161 129.476 55.9599 127.973 59.9512 130.438C62.5828 132.06 65.4212 133.571 67.5838 135.956C68.5537 137.013 69.5714 138.174 71.3047 137.546C72.3223 137.649 73.3321 138.484 74.3498 137.729C82.9682 131.416 93.789 130.573 103.211 126.137C106.661 124.547 110.962 124.801 114.818 123.927C119.915 122.774 125.21 123.457 130.306 121.231C133.248 119.943 137.2 120.341 140.698 121.971C144.959 123.958 149.897 122.591 154.333 123.974C158.77 125.358 163.079 127.003 166.824 130.208C169.71 132.704 173.621 133.483 177.454 133.531C180.92 133.571 184.347 133.404 187.217 135.916C187.718 136.363 188.367 136.606 189.038 136.6C198.737 135.415 208.358 140.44 218.089 136.997C218.703 136.729 219.388 136.673 220.037 136.838C226.119 139.454 230.874 135.447 236.002 133.587C239.748 132.286 243.716 131.745 247.674 131.996C250.647 132.124 253.47 131.806 256.046 130.16C257.898 128.975 259.981 128.856 262.136 128.761C271.215 128.371 280.367 129.897 289.391 127.433C291.283 126.916 293.541 127.822 295.632 127.989C301.937 128.49 308.265 127.369 314.459 127.592C320.366 127.798 326.218 126.526 332.157 127.536C335.997 128.188 339.829 126.057 343.884 126.336C348.226 126.723 352.42 128.111 356.136 130.39C359.587 132.362 363.729 132.489 367.028 134.898C368.197 135.757 369.517 134.66 370.209 133.348C371.799 135.193 371.306 137.808 372.538 139.796C372.689 143.93 369.851 142.595 368.046 141.927C363.697 140.337 359.412 138.572 354.904 137.474C350.563 136.417 346.564 134.215 341.928 134.079C339.968 133.959 338.002 133.98 336.045 134.143C331.744 134.636 327.466 135.916 323.061 134.708C321.745 134.452 320.381 134.619 319.166 135.185C317.682 135.777 316.085 136.032 314.491 135.932C300.124 134.835 285.757 136.155 271.398 136.266C265.038 136.314 258.55 137.665 252.174 138.739C249.845 139.269 247.669 140.328 245.813 141.831C244.439 142.872 242.864 143.615 241.187 144.013C239.51 144.411 237.769 144.456 236.074 144.145C239.405 144.717 242.975 143.398 246.131 145.465C247.721 146.49 249.534 147.238 248.667 149.687C246.974 151.324 245.002 150.72 243.102 150.315C241.202 149.909 239.246 149.591 237.322 149.225C229.323 146.188 221.27 146.419 213.192 148.884C212.397 149.246 211.536 149.441 210.663 149.456C207.483 149.003 204.223 148.502 201.679 151.308C196.909 153.487 191.876 155.165 187.591 158.345C186.621 158.599 185.651 158.989 184.657 158.44C183.067 156.111 182.216 153.312 179.545 151.65C177.954 150.672 178.67 148.852 179.497 147.389C180.92 144.9 181.087 142.428 179.282 140.042C177.692 138.921 176.293 140.671 174.766 140.329C171.387 140.535 167.976 139.86 164.645 140.853C164.12 141.116 163.691 141.537 163.174 141.815C161.695 142.404 160.288 143.247 158.682 142.316Z" fill="#6DD58C"/>
<path d="M261.921 97.1806C261.126 99.6453 260.975 102.746 259.345 104.392C257.405 106.332 254.734 103.637 252.301 103.406C251.649 103.342 250.981 103.358 250.329 103.35C243.348 103.231 243.173 103.191 241.504 109.671C240.653 113.002 239.119 114.736 235.652 115.403C232.285 116.004 228.859 116.209 225.443 116.016C221.341 115.841 221.412 112.207 220.474 109.472C220.096 109.208 219.775 108.87 219.529 108.48C219.284 108.089 219.118 107.654 219.043 107.198C214.391 90.6249 206.56 75.1142 195.986 61.53C195.056 60.3294 193.816 59.0255 195.239 57.34C203.301 55.3126 211.57 56.0679 219.743 55.5272C222.586 54.9929 225.512 55.1064 228.305 55.8593C231.098 56.6123 233.686 57.9853 235.875 59.8762C243.285 65.871 248.309 73.4877 253.12 81.3906C255.472 85.3795 258.03 89.2435 260.784 92.9668C261.69 94.1832 263.01 95.4076 261.921 97.1806Z" fill="#6DD58C"/>
<path d="M393.138 240.109C393.727 248.147 392.884 256.122 392.041 264.096C391.817 266.186 390.829 268.12 389.266 269.526C385.37 273.239 383.844 277.692 386.086 282.947C386.722 285.078 385.498 286.668 383.764 286.716C376.744 286.93 369.732 288.21 362.703 287.042C360.549 286.247 359.523 284.434 358.458 282.605C354.299 275.299 349.95 268.119 344.655 261.56C341.698 258.022 338.398 254.81 335.115 251.574C333.898 250.381 332.57 249.189 332.729 247.241C333.723 244.212 336.275 243.107 338.963 243.345C348.718 244.22 357.663 240.491 366.981 238.877C373.047 237.827 377.531 233.494 383.136 231.554C384.257 231.165 385.267 230.489 386.372 230.052C391 228.215 392.661 229.352 392.733 234.234C392.804 236.174 392.319 238.177 393.138 240.109Z" fill="#6DD58C"/>
<path d="M261.921 97.1806C255.926 89.7785 251.116 81.5894 246.242 73.4559C241.965 66.3003 235.414 61.6412 229.029 56.7596C226.35 54.7242 222.828 56.1633 219.759 55.4875C226.302 54.2313 232.933 54.748 239.46 55.1297C247.753 55.6147 256.157 54.8117 264.346 56.4097C268.202 56.2905 272.106 55.9565 275.771 57.5467C277.433 58.2702 279.802 58.5008 279.333 61.3153C277.29 61.2755 277.616 62.2614 278.347 63.5017C279.937 66.2129 281.44 69.0194 283.173 71.659C287.148 77.7413 287.435 84.9048 288.556 91.6946C289.025 94.5569 286.441 97.6894 284.429 100.265C283.634 101.299 282.664 102.213 281.766 103.175C274.777 106.992 271.517 106.356 264.736 99.8758L261.921 97.1806Z" fill="#194E4F"/>
<path d="M195.263 57.3241C198.825 62.5397 202.538 67.6599 205.925 72.9868C211.633 81.9551 215.617 91.7662 219.282 101.697C220.27 104.16 220.678 106.818 220.474 109.464C215.744 113.782 209.606 115.26 203.905 117.558C201.52 118.512 199.85 116.763 198.682 114.934C196.416 111.388 194.325 107.731 192.154 104.114C188.672 98.0711 187.432 91.0904 183.822 85.032C179.481 77.7651 173.788 71.8419 167.722 66.0936C164.462 63.0088 160.702 63.6528 156.957 63.4461C166.498 61.8957 176.038 60.2658 185.579 58.8347C188.815 58.3577 191.94 57.1889 195.263 57.3241Z" fill="#194E4F"/>
<path d="M150.747 284.561V317.54C149.054 315.076 149.324 312.293 146.597 311.697L145.961 310.019C143.989 308.882 144.371 306.91 144.164 305.114C142.932 293.243 142.24 281.325 140.555 269.511C141.087 265.098 138.026 261.56 137.494 257.442C135.904 251.677 132.819 246.907 127.667 243.695C125.011 242.033 122.101 242.24 119.239 243.202C111.082 245.937 104.371 251.081 97.653 256.209C93.4869 259.572 90.4975 263.985 87.1503 268.072C78.2694 279.6 69.317 291.073 61.7082 303.492C60.9529 304.716 60.1181 305.996 58.4803 306.163L56.9458 307.753C56.4926 307.594 55.8009 307.165 55.618 307.324C51.8972 310.504 49.6551 308.071 47.4766 305.28C46.0216 303.134 47.572 301.48 48.5261 299.866C52.891 292.456 57.7886 285.388 62.7339 278.352C66.7092 273.621 70.3585 268.692 74.1987 263.882C77.0053 260.582 79.7005 257.195 82.5548 253.943C84.4429 251.927 86.5495 250.127 88.8358 248.577C92.2625 243.854 97.3668 241.349 102.177 238.439C108.537 235.712 114.707 232.31 122.054 232.874C126.9 233.286 131.62 234.636 135.951 236.849C138.058 237.883 139.179 239.863 140.642 241.532C145.412 248.879 149.292 256.559 149.07 265.662C149.348 271.983 151.065 278.177 150.747 284.561Z" fill="#073042"/>
<path d="M63.7992 278.964C59.1879 286.119 54.5606 293.275 49.9969 300.431C49.019 301.973 48.2875 303.666 47.4527 305.296C45.4571 308.143 44.1691 311.458 41.6965 313.994C41.6042 314.112 41.4865 314.207 41.3522 314.272C41.2179 314.337 41.0706 314.371 40.9213 314.371C40.772 314.371 40.6246 314.337 40.4903 314.272C40.356 314.207 40.2383 314.112 40.1461 313.994C32.9349 304.318 32.275 293.196 33.3881 281.834C34.5886 269.542 34.9782 271.069 24.8332 265.837C15.3878 260.987 14.8551 259.564 19.3949 249.936C20.9851 246.493 22.448 242.908 24.9604 239.918L25.4295 240.292C25.7588 240.871 25.8952 241.539 25.819 242.2C25.4533 246.812 26.0814 247.766 30.4145 249.403C34.7476 251.041 39.0648 250.127 43.3979 250.342C45.1152 250.429 46.8326 250.183 48.5579 250.342C50.3218 250.905 52.2203 250.886 53.9722 250.286C54.6346 249.957 55.3895 249.863 56.1122 250.021C56.8349 250.178 57.4823 250.578 57.9476 251.153C59.1163 252.584 58.7426 254.142 57.8521 255.557C57.224 256.567 56.5323 257.513 56.5085 258.737C55.5783 262.522 53.3759 265.694 51.5473 269.073C49.1621 273.494 49.9572 275.386 54.8866 276.881C56.5595 277.269 58.2737 277.451 59.9909 277.421C61.3743 277.533 62.869 277.541 63.7992 278.964Z" fill="#6DD58C"/>
<path d="M248.445 149.424C246.298 146.244 242.879 145.695 239.492 145.536C236.71 145.409 233.927 145.433 231.263 144.582C230.635 144.383 229.888 144.105 230.198 143.27C230.325 143.058 230.498 142.876 230.705 142.738C230.911 142.601 231.145 142.511 231.391 142.475C232.558 142.239 233.761 142.239 234.929 142.475C238.904 143.771 242.028 142.475 245.201 140.09C247.857 138.111 251.006 136.9 254.304 136.592C263.599 135.614 272.805 134.064 282.243 134.286C290.615 134.485 299.09 133.07 307.375 133.849C314.101 134.485 320.581 131.925 327.251 133.467C328.929 133.857 330.917 133.213 332.698 132.776C340.791 130.804 348.225 133.459 355.754 135.797C360.302 137.204 364.858 138.54 369.143 140.647C370.487 141.307 371.918 142.078 372.538 139.788C374.184 145.107 376.172 150.219 380.203 154.314C380.875 155.051 381.383 155.923 381.692 156.871C382 157.82 382.102 158.824 381.991 159.816C380.203 163.123 377.674 162.36 375.305 160.794C373.074 159.36 371.11 157.55 369.501 155.443C368.172 153.803 366.607 152.37 364.858 151.189C356.271 144.829 346.118 143.175 335.933 141.752C333.27 141.378 330.773 142.738 328.245 143.429C324.469 144.463 320.78 144.924 316.963 143.636C315.9 143.253 314.77 143.086 313.641 143.145C312.512 143.203 311.406 143.487 310.388 143.978C308.003 145.171 305.339 145.385 302.827 146.149C300.442 146.387 299.726 143.652 297.373 143.421C293.286 143.024 289.422 142.539 285.797 145.226C283.815 146.601 281.419 147.247 279.015 147.055C273.092 146.657 267.598 148.55 261.762 149.861C261.993 151.595 264.243 152.437 263.71 154.362C263.461 154.703 263.13 154.976 262.748 155.157C260.093 155.271 257.445 154.818 254.979 153.83C252.513 152.842 250.286 151.34 248.445 149.424Z" fill="#6DD58C"/>
<path d="M391.437 207.814C389.497 207.814 389.95 209.11 390.173 210.199C390.57 212.194 390.968 214.174 391.421 216.178C385.696 219.143 380.696 223.222 375.273 226.657C371.974 228.748 368.722 230.632 364.683 230.632C363.618 230.625 362.563 230.836 361.582 231.252C348.861 236.746 335.552 234.353 322.409 234.051C319.767 233.94 317.14 233.586 314.562 232.993C310.428 232.119 307.065 230.473 305.475 226.275C305.22 224.995 304.465 223.715 305.514 222.451C305.917 222.215 306.374 222.087 306.841 222.08C307.308 222.073 307.768 222.187 308.178 222.411C315.333 226.18 323.173 224.566 330.678 225.591C333.922 226.036 337.261 225.44 340.537 226.084C343.296 226.625 345.689 225.353 348.098 224.287C350.316 223.301 352.288 223.325 354.347 224.955C357.392 227.34 358.529 227.054 361.018 223.731C365.788 216.814 371.465 210.549 376.418 203.751C377.282 202.032 377.671 200.114 377.544 198.194C377.417 196.275 376.778 194.424 375.695 192.835C370.924 185.385 366.472 177.601 357.901 173.674C354.371 172.083 352.662 168.728 350.515 165.81C346.325 162.336 341.109 161.151 336.204 159.307C334.327 158.607 331.91 158.377 331.64 155.602C333.031 152.318 335.615 151.523 339.002 151.587C353.409 151.841 364.85 157.947 373.985 168.824C376.847 172.227 379.892 175.423 382.524 179.096C387.867 186.546 389.123 195.363 392.208 203.56C392.765 205.126 393.162 206.669 391.437 207.814Z" fill="#6DD58C"/>
<path d="M306.484 225.798C307.128 227.25 308.151 228.503 309.444 229.424C310.738 230.346 312.256 230.903 313.839 231.037C329.788 233.24 345.729 235.53 361.383 229.447C370.574 230.497 375.862 222.618 383.367 219.795C384.726 219.286 385.458 217.847 386.293 216.615C387.803 214.444 389.529 213.983 391.413 216.233C391.572 224.184 393.933 232.047 393.13 240.085C391.699 238.042 392.407 235.72 392.335 233.526C392.248 230.6 390.745 230.02 388.455 231.014C384.659 232.538 380.976 234.331 377.436 236.38C374.348 238.418 370.899 239.848 367.275 240.594C357.853 242.311 348.782 246.096 338.875 244.975C337.743 244.782 336.578 244.995 335.588 245.577C334.597 246.159 333.844 247.072 333.461 248.155C331.871 249.022 330.336 248.465 328.953 247.702C322.672 244.288 315.534 242.777 308.408 243.353C306.723 243.456 304.958 243.544 303.487 242.367C303.169 242.049 302.939 241.654 302.818 241.221C302.697 240.788 302.689 240.331 302.795 239.894C303.368 237.684 305.045 235.689 304.099 233.176C304.783 230.791 303.9 228.207 305.228 225.949C305.384 225.776 305.597 225.666 305.828 225.638C306.059 225.61 306.292 225.667 306.484 225.798Z" fill="#6DD58C"/>
<path d="M302.541 145.425C308.106 142.666 313.672 139.86 320.183 142.714C322.569 143.755 324.954 142.714 327.108 141.855C335.17 138.723 342.89 140.718 350.706 142.841C356.691 144.326 362.317 146.997 367.251 150.696C370.121 152.922 371.799 156.158 374.605 158.393C376.871 160.189 379.034 161.907 381.992 159.808C382.699 163.091 384.886 165.643 386.619 168.331C388.515 171.262 390.161 174.347 391.54 177.554C392.335 179.056 392.129 180.408 390.618 181.235C388.964 182.125 387.915 180.996 387.016 179.788C383.916 175.637 380.179 172.068 378.565 166.733C377.77 164.212 373.794 163.465 371.481 161.644C369.891 160.436 367.951 159.943 366.074 159.347C359.157 151.96 350.173 150.044 340.561 148.399C331.569 146.864 323.737 150.164 315.405 151.468C310.555 150.863 305.864 149.877 302.35 146.045L302.541 145.425Z" fill="#6DD58C"/>
<path d="M315.198 150.267C320.764 147.604 326.981 146.602 332.817 146.029C338.653 145.457 345.029 147.015 351.032 148.542C357.329 150.132 362.902 152.875 366.933 158.21C373.374 161.668 378.605 167.01 381.928 173.523C382.723 175.033 384.067 176.21 385.156 177.538C388.026 181.044 390.491 184.693 391.079 189.408C391.731 194.663 394.363 199.45 395.189 204.697C395.531 206.883 396.183 209.197 393.909 210.875C392.806 210.125 391.953 209.061 391.461 207.822C390.228 199.545 387.358 191.833 383.82 184.28C380.576 177.347 375.138 172.076 370.01 166.788C362.552 159.14 353.313 154.171 342.254 153.36C338.398 153.081 334.781 153.002 331.767 155.88C331.465 156.235 331.07 156.498 330.625 156.639C330.181 156.779 329.706 156.792 329.255 156.675C324.848 155.797 320.572 154.354 316.534 152.382C315.707 152 314.976 151.404 315.198 150.267Z" fill="#6DD58C"/>
<path d="M22.6229 197.971C24.5549 200.61 27.8147 200.746 30.4781 201.771C37.5542 204.49 44.8529 206.661 52.0562 209.046C57.081 208.394 58.7744 209.984 57.9158 214.556C55.8884 218.038 52.4378 220.026 49.4006 222.411C48.3231 223.115 47.3828 224.01 46.6259 225.051C42.6767 229.311 37.9484 232.776 32.6964 235.259C30.0647 236.468 28.6018 238.829 26.3359 240.371C25.9637 240.462 25.5719 240.426 25.2228 240.268L24.8968 239.934C28.8721 233.073 33.7061 226.744 37.2282 219.612C39.4544 215.12 39.0012 213.634 34.5409 211.519C30.4808 209.595 26.3862 207.739 22.2572 205.953C17.3596 203.83 17.2403 203.433 20.8579 199.593C21.4144 199.004 22.0346 198.503 22.6229 197.971Z" fill="#6DD58C"/>
<path d="M32.1796 139.931C32.2326 144.857 33.2678 149.722 35.2247 154.242C36.8704 158.313 36.1549 159.688 32.2591 159.76C26.8685 148.581 23.9825 136.703 22.4162 124.459C20.3093 107.978 18.743 91.4323 19.4904 74.736C22.7819 75.046 25.8032 74.887 26.6459 70.7606C28.236 72.0009 28.0373 73.6706 27.9419 75.4436C27.6238 81.2396 26.8685 86.9958 26.7334 92.8157C26.4897 105.768 28.1916 118.683 31.782 131.13C32.5373 133.905 34.0321 136.91 32.1796 139.931Z" fill="#6DD58C"/>
<path d="M345.562 260.534C352.463 267.928 356.86 276.976 362.019 285.523C365.458 289.093 368.454 293.065 370.94 297.354C368.412 297.139 367.012 298.149 366.647 300.804C366.13 304.509 364.111 308.023 365.216 311.935C360.445 302.307 355.675 292.695 350.905 283.058C348.519 278.185 345.005 274.074 342 269.622C342.692 268.183 341.857 266.815 341.809 265.416C341.753 262.753 342.429 260.693 345.562 260.534Z" fill="#073042"/>
<path d="M393.878 210.875C394.005 206.621 393.584 202.479 391.683 198.567C391.114 197.379 390.754 196.101 390.618 194.791C389.521 183.747 382.23 176.162 375.997 167.886C373.32 164.349 370.274 161.108 366.909 158.218C370.026 159.013 372.475 161.279 375.249 162.495C378.62 163.958 381.459 164.61 381.228 169.396C381.117 171.726 383.327 174.167 385.728 175.542C386.737 176.164 387.529 177.084 387.994 178.174C388.416 179.056 388.28 180.654 389.632 180.559C391.222 180.432 391.477 178.969 391.548 177.561C396.374 186.474 398.449 196.182 399.761 206.096C399.855 207.409 399.731 208.728 399.395 210C399.077 211.535 398.728 213.395 396.867 213.594C395.229 213.769 394.546 212.163 393.878 210.875Z" fill="#6DD58C"/>
<path d="M370.94 297.354C365.828 295.04 364.023 290.198 362.011 285.555C366.345 287.034 370.646 285.054 374.995 285.428C377.491 285.642 380.02 285.332 382.54 285.372C384.345 285.372 385.649 284.879 386.086 282.987C387.393 285.591 388.202 288.417 388.471 291.319C388.624 292.506 388.486 293.713 388.068 294.835C387.651 295.957 386.966 296.96 386.073 297.757C385.181 298.555 384.107 299.123 382.946 299.413C381.785 299.703 380.57 299.706 379.407 299.421C376.561 298.833 373.762 298.022 370.94 297.354Z" fill="#6DD58C"/>
<path d="M279.341 61.3391C276.789 58.6359 273.203 58.8108 269.983 57.9522C268.107 57.4513 266.063 57.5387 264.354 56.4336C264.99 56.2587 266.501 56.362 265.817 55.4398C263.432 52.188 265.594 51.4644 268.035 50.6217C268.52 50.4468 268.83 49.6676 269.164 49.1747C271.788 51.9653 275.246 53.2613 278.705 54.5016C286.66 57.4216 294.048 61.7017 300.537 67.151C301.483 67.9461 303.145 68.7889 302.048 70.2518C301.253 71.3013 299.838 70.5301 298.772 69.9974C292.42 66.8489 285.972 63.8913 279.341 61.3391Z" fill="#073042"/>
<path d="M74.3258 52.4742L51.905 50.2162C54.2902 48.0059 56.9378 48.6897 59.7762 48.9441C65.5483 49.4688 71.3682 49.5642 77.2198 51.218C76.4168 52.0607 74.9221 51.3929 74.3258 52.4742Z" fill="#6A2826"/>
<path d="M58.4485 306.163C66.3991 292.241 75.9399 279.409 86.22 267.109C88.804 265.742 91.3641 266.179 93.8209 267.396C97.0504 268.901 100.597 269.6 104.157 269.431C114.182 269.304 124.033 268.588 133.614 265.026C138.726 263.118 140.388 264.088 142.033 268.652C144.072 282.353 145.37 296.154 145.921 309.995C145.77 310.638 145.709 311.299 145.738 311.959C146.621 316.602 144.466 319.282 140.801 322.088C133.534 327.654 126.49 333.696 117.259 335.286C97.3827 338.713 80.6864 335.525 67.3691 318.963C64.165 314.948 60.142 311.339 58.4485 306.163Z" fill="#5AB67E"/>
<path d="M279.5 287.877C274.038 290.659 267.987 291.558 262.159 293.068C251.688 295.787 241.13 297.982 230.15 297.322C214.615 296.384 199.485 294.03 185.77 286.056C176.348 280.578 167.785 274.13 161.759 264.78C161.186 261.083 162.403 259.389 165.925 259.604C173.47 260.065 180.928 260.065 188.362 258.292C192.337 257.338 194.873 259.087 197.171 263.261C197.966 265.209 198.356 267.316 199.27 269.232C201.655 274.209 206.004 274.869 209.494 270.56C211.861 267.702 213.683 264.433 214.869 260.916C216.086 257.131 216.459 252.965 219.576 250.016C223.909 244.752 229.705 245.031 235.549 245.969C239.627 246.621 243.905 245.46 247.761 246.764C256.507 249.698 265.554 248.354 274.411 249.475C278.387 249.976 282.29 249.101 286.194 248.354C291.052 247.424 292.658 248.863 292.682 253.848C292.928 257.322 290.996 260.208 289.844 263.222C287.458 269.654 285.359 276.205 283.308 282.756C282.656 284.824 282.195 287.233 279.5 287.877Z" fill="#5AB67E"/>
<path d="M279.5 287.876C282.108 280.331 284.676 272.77 287.347 265.249C288.619 261.679 290.098 258.181 291.482 254.651C292.418 250.364 294.947 246.593 298.558 244.1C300.259 243.512 301.364 241.715 303.376 241.715C314.117 240.491 324.262 242.081 333.469 248.076C337.945 251.773 342.437 255.454 345.554 260.479C343.169 262.291 342.374 264.454 343.908 267.284C345.013 269.336 344.496 270.329 342.024 269.534C340.298 267.443 338.43 265.456 336.872 263.253C331.418 255.509 323.872 251.645 314.61 250.373C309.49 249.674 305.944 251.614 302.931 255.382C296.117 263.897 292.348 273.875 289.12 284.092C287.657 288.727 286.441 293.434 285.145 298.109C282.895 298.3 282.553 296.519 281.83 294.603C283.165 298.84 277.767 300.089 278.538 303.786C278.641 304.271 278.061 304.891 277.568 304.414C277.075 303.937 277.155 303.221 276.972 302.609C277.019 297.592 279.238 292.901 279.5 287.876Z" fill="#073042"/>
<path d="M196.018 264.756C193.76 259.628 192.234 258.777 186.708 260.351C179.982 262.275 173.192 261.822 166.402 261.242C163.222 260.964 161.99 261.886 161.751 264.804C159.732 261.719 156.599 259.294 156.186 255.263C155.088 251.351 155.756 249.761 159.573 248.903C165.48 247.527 171.586 247.408 177.589 246.517C181.222 245.993 184.943 246.112 188.608 245.444C193.18 244.649 195.39 246.47 195.525 251.073C195.693 253.58 196.204 256.052 197.044 258.419C197.6 260.662 198.133 262.912 196.018 264.756Z" fill="#5AB67E"/>
<path d="M195.279 259.127C193.553 256.742 194.571 254.015 194.412 251.455C194.158 247.392 192.886 246.47 188.982 246.986C181.182 248.02 173.351 248.759 165.527 249.642C163.834 249.833 162.156 250.222 160.463 250.318C157.283 250.493 156.042 252.234 156.185 255.239C154.444 254.444 154.826 251.987 153.093 251.16C152.68 250.919 152.341 250.569 152.112 250.149C151.884 249.728 151.775 249.253 151.797 248.775C151.868 247.591 151.797 246.39 151.884 245.205C152.107 241.914 153.641 239.902 157.068 239.195C162.252 238.121 167.547 238.121 172.763 237.239C177.978 236.356 183.051 235.188 188.123 233.82C190.58 233.613 192.758 234.615 194.953 235.474C195.975 235.803 196.852 236.473 197.44 237.372C198.027 238.27 198.289 239.343 198.181 240.411C197.68 245.897 196.765 251.351 196.678 256.877C196.639 257.336 196.492 257.779 196.249 258.17C196.005 258.561 195.673 258.889 195.279 259.127Z" fill="#5AB67E"/>
<path d="M152.997 248.855C153.024 249.618 153.053 250.384 153.085 251.153C152.934 254.738 154.078 258.61 150.159 261.242C148.871 262.108 149.149 264.088 148.998 265.631C146.756 257.529 143.926 249.666 139.505 242.455C138.432 239.974 139.6 238.018 141.357 236.603C143.679 234.727 144.538 232.286 145.15 229.551C145.785 226.881 146.582 224.253 147.535 221.68C147.964 220.423 148.275 218.738 150.358 219.596C151.153 221.004 151.312 222.61 151.685 224.144C151.248 231.181 150.58 238.217 151.94 245.229C152.274 246.47 152.218 247.805 152.997 248.855Z" fill="#6DD58C"/>
<path d="M32.1794 139.931C26.9559 122.495 23.8551 104.765 25.0875 86.487C25.4452 81.2316 26.0972 76.0001 26.614 70.7606C28.6255 67.7553 29.4921 63.8913 33.0778 62.0149C39.6994 73.4134 45.7184 85.1514 51.1099 97.1806C55.4112 106.658 59.2354 116.342 63.8309 125.692C64.292 126.638 64.7929 127.568 65.2302 128.53C65.755 129.691 65.9617 130.915 64.9201 131.821C63.8786 132.728 62.6622 132.362 61.6842 131.559C60.4451 130.566 59.0651 129.762 57.5897 129.174C55.2045 128.188 53.3997 128.983 52.4535 131.313C50.7839 135.415 50.5772 139.502 53.0975 143.414C53.4792 144.582 54.5128 145.322 55.0534 146.379C56.1108 148.43 56.0234 150.537 53.8051 151.475C48.0727 153.861 47.4446 158.695 47.4446 163.902C47.5795 164.957 47.2939 166.022 46.6496 166.868C42.4675 166.383 40.9728 162.956 39.0726 159.959C35.5982 154.489 35.1768 147.985 33.0222 142.062C32.736 141.37 32.4498 140.655 32.1794 139.931Z" fill="#337762"/>
<path d="M51.9846 143.946C49.2814 140.019 49.1065 135.845 50.8079 131.511C52.6127 126.924 55.2205 126.025 59.49 128.538C61.1358 129.508 62.6703 130.613 64.7136 131.925C64.2763 128.745 62.6305 126.598 61.589 124.237C52.9625 104.646 44.5269 84.9764 34.1036 66.2288C33.4134 64.9326 33.0607 63.4834 33.078 62.0149C35.4632 62.643 36.0833 64.8215 37.1567 66.5786C47.3255 83.2749 54.5527 101.45 62.4476 119.267C64.1491 123.1 66.0493 126.836 67.8541 130.621C68.4345 133.205 69.9371 135.328 71.3285 137.498C70.8117 141.171 69.0069 140.066 67.4406 138.389C65.2004 135.803 62.5847 133.567 59.6808 131.758C55.0615 129.102 53.2647 130.056 52.8989 135.447C52.8035 136.886 52.8989 138.341 52.8989 139.78C52.8989 141.219 54.5288 143.111 51.9846 143.946Z" fill="#073042"/>
<path d="M149.825 219.437C148.545 220.972 149.149 222.983 148.465 224.725C146.422 229.98 146.351 236.158 140.928 239.775C140.181 240.276 139.974 241.588 139.513 242.526C134.234 235.967 122.499 232.58 114.262 235.371C110.159 236.77 106.16 238.455 102.113 240.014C94.7589 241.826 89.3206 237.366 83.4849 234.289C76.3293 230.505 70.2709 225.241 64.8804 219.183C63.7037 217.847 62.0182 217.315 60.428 216.734C59.1082 216.257 57.5022 216.178 56.7866 214.627C58.6948 209.817 54.1311 210.493 52.064 209.062C57.5579 206.621 55.761 200.905 57.3909 196.77C59.0923 192.405 59.8874 187.635 60.8971 183.024C61.5968 179.843 64.8724 178.993 66.2638 176.345C69.1729 170.645 73.6643 165.905 79.1995 162.694C88.7402 157.128 98.0027 150.688 110.064 150.768C113.904 150.768 117.076 151.706 120.471 152.692C120.71 154.688 119.032 155.077 117.8 155.554C114.294 156.985 111.566 159.386 108.951 162.018C107.257 163.719 106.271 165.556 106.629 167.989C106.526 168.375 106.501 168.778 106.558 169.174C109.11 176.599 103.727 180.98 100.308 186.291C96.8896 191.602 92.2306 195.975 87.81 200.467C86.2199 202.057 85.0114 204.005 85.1306 206.454C84.7172 210.899 80.5511 213.196 78.4124 217.641C82.181 215.12 84.1527 211.829 87.3886 210.04C91.3083 208.45 94.1785 205.659 96.675 202.312C97.7244 200.905 99.0204 198.988 101.199 200.094C103.123 201.064 102.972 203.17 102.892 205.031C102.813 206.891 102.423 208.617 101.103 209.738C98.6308 211.853 97.6529 214.588 97.0486 217.585C96.9276 217.961 96.7478 218.315 96.516 218.634C95.856 219.43 94.6396 220.225 95.3234 221.29C96.0071 222.355 97.2713 221.711 98.1617 221.218C103.56 218.197 108.259 214.54 111.757 209.189C113.626 206.343 116.798 204.299 119.525 202.081C119.846 201.833 120.213 201.65 120.604 201.543C120.996 201.437 121.405 201.409 121.807 201.46C122.21 201.512 122.598 201.643 122.95 201.845C123.302 202.047 123.611 202.316 123.858 202.638C125.17 204.228 124.82 205.818 123.469 207.273C121.465 209.393 119.408 211.452 117.299 213.451C116.432 214.246 115.494 215.041 115.335 216.305C115.208 217.323 114.643 218.412 115.693 219.255C116.742 220.097 117.593 219.628 118.658 219.31C123.715 217.816 127.682 214.635 131.475 211.201C133.916 208.99 136.166 208.338 139.235 210.406C143.393 213.212 146.875 211.503 147.933 206.526C148.481 203.958 147.933 201.143 149.427 198.806C150.381 197.287 151.192 194.83 153.792 197.001C154.643 198.965 154.031 200.976 153.617 202.821C152.655 207.186 151.487 211.503 151.455 216.019C151.463 217.394 151.129 218.642 149.825 219.437Z" fill="#6DD58C"/>
<path d="M105.349 167.703C104.252 165.659 104.745 163.982 106.319 162.36C110.024 158.559 113.666 154.719 119.128 153.439C119.612 153.241 120.064 152.973 120.471 152.644C133.017 148.502 145.858 145.489 158.634 142.308L162.61 140.718C164.327 139.414 166.323 139.995 168.223 139.923C171.212 140.559 172.548 143.048 173.955 145.314C174.517 146.47 175.39 147.448 176.476 148.136C178.105 149.575 179.378 151.316 181.484 152.35C184.045 153.614 184.625 156.325 184.553 159.092C183.798 161.477 181.691 162.447 179.664 163.346C176.058 164.933 172.372 166.331 168.62 167.536C165.17 168.617 162.101 170.676 158.539 171.463C144.904 176.075 131.372 181.004 117.752 185.655C116.509 186.108 115.226 186.443 113.92 186.657C108.219 187.452 105.349 184.534 107.059 179.064C108.41 174.85 106.78 171.368 105.349 167.703Z" fill="#073042"/>
<path d="M51.9844 143.946C53.185 142.77 52.6523 141.203 52.9147 139.82C54.632 144.034 57.685 147.079 61.398 149.543C61.9704 151.627 60.7778 151.929 59.0685 152.151C51.2371 153.089 49.5833 155.013 49.5277 162.789C49.5277 164.793 50.2432 167.432 46.6019 166.9C44.3439 159.219 46.4587 153.972 53.4474 150.307C54.9182 149.512 55.0375 148.947 54.0914 147.675C53.3124 146.477 52.6087 145.232 51.9844 143.946Z" fill="#073042"/>
<path d="M168.127 166.224C171.753 164.833 175.418 163.537 178.98 161.994C180.712 161.104 182.377 160.092 183.965 158.965C184.331 158.726 184.426 158.074 185.054 158.226L187.217 157.43C189.324 161.772 193.577 161.406 197.37 162.026C202.434 162.821 207.459 163.974 212.611 164.149C216.952 164.292 221.476 164.363 225.571 163.409C233.521 161.549 241.83 161.628 249.59 158.862C252.396 157.86 255.338 158.202 258.232 158.122C260.824 158.051 262.493 157.089 262.74 154.33L263.535 154.226C265.308 153.28 266.787 154.099 268.258 155.021C269.051 155.717 269.909 156.338 270.818 156.874C276.073 160.34 276.256 164.522 271.128 168.18C267.073 171.074 262.215 172.155 257.477 173.284C254.119 173.98 250.896 175.218 247.936 176.949C245.506 178.581 242.702 179.572 239.786 179.827C236.336 180.042 234.157 183.294 230.763 183.668C230.366 183.7 229.967 183.646 229.593 183.509C229.22 183.372 228.881 183.154 228.6 182.873C226.676 180.789 224.927 181.624 223.106 183.016C221.969 183.89 220.8 184.773 219.25 184.812C213.374 185.655 207.65 186.148 201.679 184.486C196.392 183.016 192.138 179.851 187.773 177.14C183.591 174.564 179.25 174.023 174.758 173.435C172.373 173.117 169.988 172.894 168.183 171.121C166.688 169.611 165.615 167.878 168.127 166.224Z" fill="#5AB67E"/>
<path d="M262.732 154.29C263.328 154.998 263.901 155.721 264.521 156.405C265.96 157.995 265.26 158.901 263.495 158.941C254.225 159.124 245.392 162.121 236.233 163.115C230.118 163.791 224.132 165.294 217.898 165.699C213.317 165.88 208.729 165.613 204.199 164.904C199.914 164.348 195.645 163.425 191.319 162.924C186.994 162.423 186.31 161.541 187.217 157.415C190.644 152.986 196.01 152.223 200.733 150.259C203.699 148.558 207.093 148.454 210.274 147.874L212.659 147.77C220.742 145.862 229.159 145.862 237.242 147.77C241.098 147.405 244.589 149.504 248.373 149.4C253.422 150.426 257.659 153.59 262.732 154.29Z" fill="#5AB67E"/>
<path d="M185.062 158.218L183.973 158.957C184.633 155.777 182.884 153.845 180.395 152.342C178.741 151.348 177.08 150.37 175.418 149.384C173.629 147.611 174.138 146.156 176.094 144.996C177.021 144.525 177.894 143.951 178.694 143.286C180.133 141.696 178.598 139.025 180.681 137.665C182.271 141.283 182.407 144.964 180.538 148.438C179.743 149.933 179.536 150.505 181.198 151.38C183.862 152.787 184.967 155.276 185.062 158.218Z" fill="#6DD58C"/>
<path d="M180.681 137.673C180.626 139.987 181.397 142.38 179.958 144.55C175.983 144.081 172.461 142.324 168.827 140.885L162.634 140.782C162.896 140.472 165.44 140.496 165.702 140.186C169.28 139.724 171.451 140.186 175.402 139.168C176.881 137.713 178.726 137.49 180.681 137.673Z" fill="#073042"/>
<path d="M237.282 147.794C229.115 146.854 220.866 146.854 212.699 147.794C213.319 147.333 213.899 146.546 214.559 146.475C221.32 145.694 228.148 145.71 234.905 146.522C235.724 146.61 236.487 147.349 237.282 147.794Z" fill="#6DD58C"/>
<path d="M210.322 147.882C207.205 148.963 204.08 150.044 200.781 150.267C203.373 147.134 206.95 147.937 210.322 147.882Z" fill="#6DD58C"/>
<path d="M175.386 139.136C171.467 140.726 167.388 139.494 163.405 139.828C167.324 138.341 171.395 139.462 175.386 139.136Z" fill="#6DD58C"/>
<path d="M25.811 240.109C27.4012 236.595 30.8358 235.386 33.8332 233.462C38.0232 230.767 41.7362 227.325 45.6558 224.2C49.7186 221.664 53.3043 223.707 55.4192 226.585C61.4219 234.758 70.2869 238.98 78.2534 244.49C80.7976 246.247 83.4213 247.527 86.6811 247.241C87.9611 247.13 90.243 246.684 89.3843 249.507L75.1288 264.756C72.3779 262.371 69.0625 260.781 66.2082 258.515C63.823 256.654 61.573 255.645 59.0526 258.372C58.1145 259.381 56.7311 260.161 55.1886 259.167C55.0853 257.386 55.8644 255.923 56.7788 254.476C57.2558 253.721 57.8044 252.814 57.1922 251.948C56.58 251.081 55.6021 251.335 54.6957 251.574C52.5401 252.043 50.3271 252.19 48.1285 252.011C47.6912 250.27 49.0984 249.682 50.1559 249.054C52.2946 247.781 52.4139 246.533 50.776 244.649C47.6832 241.087 43.366 239.155 39.9075 236.094C39.0011 235.299 37.9039 235.8 36.9419 236.309C34.6044 237.533 32.1238 238.455 29.7864 239.72C28.5222 240.372 27.2581 241.365 25.811 240.109Z" fill="#6DD58C"/>
<path d="M89.3684 249.467C89.1458 249.157 88.8516 248.545 88.7164 248.577C80.9566 250.604 76.2896 244.665 70.6208 241.469C64.3954 237.962 58.6948 233.844 54.5128 227.738C52.6762 225.074 49.2097 223.858 45.6399 224.16C48.8678 220.415 53.0022 217.736 56.7708 214.619C64.1013 214.087 67.8301 219.549 71.9803 224.049C74.3034 226.54 77.0626 228.585 80.1218 230.083C84.4231 232.278 88.2155 235.307 92.7792 237.239C95.872 238.567 99.0761 238.829 102.105 239.958C97.6927 242.916 93.2562 245.818 89.3684 249.467Z" fill="#6DD58C"/>
<path d="M142.073 268.66C140.332 265.575 137.899 265.042 134.719 266.434C129.726 268.62 124.272 270.52 119.104 270.552C110.215 270.608 100.976 273.359 92.3262 268.676C90.5373 267.706 88.2713 267.61 86.228 267.086C89.1032 262.614 92.6481 258.611 96.7388 255.215C98.3289 254.261 100.11 254.047 101.589 255.08C106.359 258.451 111.758 256.98 116.87 256.877C122.388 256.875 127.882 256.159 133.216 254.746C134.235 254.406 135.339 254.42 136.349 254.785C137.359 255.15 138.216 255.845 138.782 256.758C140.534 260.514 141.646 264.537 142.073 268.66Z" fill="#5AB67E"/>
<path d="M138.75 256.805C136.301 256.01 134.035 256.479 131.499 256.996C125.639 258.189 119.652 259.071 113.594 258.666C112.688 258.578 111.774 258.629 110.883 258.817C109.347 259.204 107.745 259.255 106.187 258.966C104.63 258.676 103.153 258.053 101.859 257.139C100.324 256.146 98.6786 255.176 96.7466 255.255C102.637 249.767 109.452 245.366 116.878 242.256C124.168 239.227 129.225 240.737 133.94 247.026C136.174 249.912 138.289 252.973 138.75 256.805Z" fill="#5AB67E"/>
<path d="M55.1569 259.191C56.5006 258.642 57.8601 258.054 58.687 256.805C60.6428 253.832 63.0519 254.309 65.4212 256.01C67.9574 257.847 70.3983 259.795 73.2446 261.17C74.6678 261.862 75.1607 263.245 75.1289 264.804C71.7543 269.842 67.9646 274.589 63.7992 278.996C60.1101 279.147 56.4131 279.489 52.8353 278.145C48.2796 276.428 47.1347 273.756 49.3529 269.511C51.1816 265.98 53.2169 262.594 55.1569 259.191Z" fill="#6DD58C"/>
<path d="M25.8111 240.109C29.0788 238.471 32.4419 237.016 35.5745 235.156C38.2141 233.566 40.003 233.343 42.3484 235.951C45.0198 238.948 49.1621 240.292 51.8892 243.456C55.1171 247.153 54.982 248.457 50.4024 250.612C49.5974 251.039 48.817 251.512 48.0649 252.027C43.708 252.027 39.3192 252.027 34.9941 252.083C33.2741 252.099 31.5657 251.799 29.9534 251.2C23.2272 248.751 22.281 246.581 25.183 240.308C25.3843 240.218 25.595 240.152 25.8111 240.109Z" fill="#6DD58C"/>
<path d="M267.534 155.832L263.559 154.179C262.175 153.169 260.784 152.183 259.425 151.149C258.789 150.665 258.208 150.044 258.478 149.146C258.608 148.767 258.861 148.442 259.197 148.223C259.532 148.004 259.932 147.903 260.331 147.937C266.644 147.802 272.503 144.527 278.999 145.401C281.821 145.783 284.342 144.217 286.822 143.016C289.364 141.727 292.246 141.264 295.064 141.692C297.882 142.119 300.496 143.416 302.541 145.401L302.398 145.608C300.235 147.429 298.176 146.013 296.117 145.385C292.618 144.304 292.07 144.59 291.346 148.216C291.283 148.477 291.243 148.743 291.227 149.011C291.14 155.125 289.128 159.458 282.012 159.482C280.581 159.482 279.42 160.666 278.323 161.628C276.98 162.209 275.564 162.058 274.769 160.953C272.925 158.385 270.007 157.423 267.534 155.832Z" fill="#6DD58C"/>
<path d="M351.676 164.578C354.506 170.819 361.455 172.529 365.589 176.957C371.95 183.795 379.646 190.426 378.891 201.35C378.803 202.646 379.137 204.037 377.849 204.975C375.774 202.685 373.93 203.163 371.854 205.166C369.255 207.678 367.362 210.732 365.12 213.482C363.928 214.961 362.934 216.973 360.413 216.384C358.966 215.12 360.207 213.451 359.801 211.853C356.096 214.317 354.236 218.293 351.056 221.059C349.283 222.65 347.7 225.035 344.695 223.508C343.781 221.513 345.434 220.63 346.492 219.589C351.262 214.818 354.824 209.03 359.364 204.053C360.103 203.258 360.891 202.185 360.294 200.642C358.187 200.73 357.154 202.391 356.017 203.727C351.994 208.45 348.806 213.832 344.56 218.372C342.636 220.431 343.598 222.125 344.83 223.938C344.258 226.148 342.533 226.283 340.744 226.116C338.358 225.893 336.951 224.415 336.132 222.284C333.994 216.718 334.001 216.718 328.182 218.372C321.662 220.209 315.532 219.795 309.466 216.233C305.817 214.087 304.059 210.843 302.43 207.488C297.604 197.43 295.107 186.649 293.31 175.685C293.052 173.334 293.082 170.961 293.398 168.617C295.997 166.311 298.422 168.188 300.72 169.126C310.491 173.101 320.008 177.697 329.875 181.481C332.833 182.61 335.774 183.866 338.931 184.248C344.043 184.868 346.301 182.602 345.172 177.633C343.797 171.384 348.416 168.394 351.676 164.578Z" fill="#6DD58C"/>
<path d="M351.676 164.578C351.962 167.281 350.555 169.237 348.495 170.605C346.071 172.243 345.792 174.198 346.587 176.774C348.543 183.135 345.864 186.426 339.161 185.934C336.523 185.673 333.945 184.983 331.529 183.89C320.186 179.12 308.84 174.349 297.492 169.579C296.292 169.078 295.107 168.323 293.731 168.498C292.467 169.857 291.084 169.444 289.685 168.792C287.236 167.591 284.684 166.621 282.132 165.612C280.39 164.499 277.703 164.3 277.87 161.302C278.037 158.305 280.056 157.733 282.394 157.375C288.882 156.381 288.882 156.381 289.311 150.275C289.891 141.927 290.686 141.442 298.589 144.455C299.814 144.924 301.11 145.194 302.366 145.56C306.461 147.587 310.764 149.165 315.198 150.267C320.555 152.575 326.084 154.46 331.736 155.904C335.79 157.335 339.853 158.734 343.884 160.221C346.741 161.151 349.388 162.631 351.676 164.578Z" fill="#073042"/>
<path d="M282.648 164.435C285.177 165.278 287.943 165.58 289.915 167.663C292.873 174.445 294.63 181.592 296.276 188.756C297.959 195.532 300.3 202.128 303.264 208.45C304.744 211.55 305.813 214.829 306.444 218.205C306.699 219.748 307.184 221.385 305.649 222.618L306.444 225.798H305.649C302.835 225.202 303.073 222.618 302.421 220.686C301.118 216.79 299.36 213.53 294.789 212.624C292.205 212.091 291.394 212.87 291.426 215.263C291.536 216.44 291.456 217.627 291.187 218.778C290.806 219.962 290.631 221.513 288.691 221.059C286.632 218.976 287.522 216.289 287.323 213.904C286.528 204.117 284.063 194.95 277.782 187.142C276.621 184.806 275.208 182.604 273.569 180.575C272.622 180.511 272.424 181.203 272.153 181.775C267.383 192 257.318 192.111 250.011 191.459C248.683 191.332 247.435 190.775 247.165 189.169C247.419 187.047 248.993 186.323 250.766 186.14C252.738 185.933 254.678 185.552 256.61 185.178C260.863 184.383 264.894 183.517 267.184 178.818C268.902 175.296 272.066 173.348 276.622 173.864C281.177 174.381 282.028 173.149 281.885 168.53C281.805 167.13 281.384 165.604 282.648 164.435Z" fill="#5AB67E"/>
<path d="M305.713 222.618C304.338 212.83 299.83 204.037 297.015 194.711C294.582 186.644 292.083 178.603 289.518 170.589C289.184 169.539 288.937 168.53 289.915 167.671L293.755 168.553C294.3 169.03 294.727 169.626 295.003 170.295C295.279 170.964 295.396 171.688 295.346 172.409C294.932 186.395 299.377 199.132 306.087 211.057C309.696 217.474 321.447 219.732 329.096 216.289C333.866 214.134 336.832 215.78 337.476 221.155C337.699 222.999 338.494 224.12 340.163 224.637C341.833 225.154 343.59 225.361 344.568 223.301C349.712 222.435 351.795 217.895 354.665 214.492C356.025 212.902 357.845 211.797 359.022 210.04C359.167 209.814 359.357 209.621 359.581 209.473C359.804 209.325 360.057 209.225 360.321 209.181C360.586 209.137 360.857 209.149 361.116 209.216C361.376 209.283 361.619 209.404 361.829 209.571C363.013 210.366 362.624 211.391 362.051 212.345C361.336 213.594 360.342 214.731 360.58 216.321C362.481 219.501 358.545 221.091 358.466 224.001C359.905 224.462 361.439 222.824 362.831 224.001C359.531 229.082 357.726 229.479 353.075 225.838C351.851 224.876 350.865 224.478 349.569 225.432C347.072 227.277 344.202 227.317 341.252 227.452C332.507 227.849 323.833 226.657 315.111 226.553C311.557 226.466 308.56 224.621 305.713 222.618Z" fill="#6DD58C"/>
<path d="M362.839 223.961C360.644 224.613 358.76 228.438 356.478 225.838C354.745 223.89 357.512 221.664 358.712 219.716C359.396 218.611 359.984 217.442 360.612 216.297C364.325 213.117 366.178 208.418 369.803 205.166C370.915 204.068 372.083 203.027 373.302 202.049C374.462 201.254 375.886 200.459 377.277 201.366C378.668 202.272 377.857 203.751 377.849 204.991L362.839 223.961Z" fill="#F00F20"/>
<path d="M305.665 233.749C305.729 235.984 305.203 238.197 304.139 240.165C303.884 240.077 303.527 240.014 303.447 239.815C300.871 233.391 295.361 235.164 290.504 235.188C287.124 235.188 283.666 236.189 280.43 234.393C280.123 234.14 279.915 233.787 279.842 233.396C279.77 233.004 279.837 232.6 280.033 232.254C282.418 228.43 284.366 224.303 288.468 221.847C290.305 221.727 292.006 221.004 293.867 220.861C301.523 220.264 304.075 222.276 305.172 229.924C305.371 231.173 304.902 232.54 305.665 233.749Z" fill="#5AB67E"/>
<path d="M280.239 233.749C286.703 233.526 293.175 233.319 299.639 233.081C300.43 232.982 301.229 233.183 301.878 233.646C302.528 234.108 302.98 234.797 303.145 235.577C303.574 237.08 303.813 238.63 304.139 240.165L303.344 241.755C302.604 243.568 300.887 244.236 299.369 245.134C298.963 241.882 297.087 241.159 294.065 241.691C289.16 242.486 284.215 243.138 279.285 243.822C276.526 244.204 273.72 244.45 271.979 241.437C271.486 239.195 273.171 238.193 274.515 236.992C276.28 235.617 277.258 232.954 280.239 233.749Z" fill="#5AB67E"/>
<path d="M305.665 233.749C304.83 231.268 304.027 228.772 303.153 226.307C302 223.031 299.4 222.117 296.236 222.244C293.604 222.347 290.965 222.506 288.333 222.642C287.768 221.751 288.333 221.33 289.041 221.004C290.575 218.428 289.708 215.605 289.796 212.902C289.875 210.382 290.734 209.849 293.238 210.318C299.726 211.542 303.439 215.128 304.314 221.727C304.632 223.123 305.087 224.484 305.673 225.79C305.663 228.446 305.66 231.098 305.665 233.749Z" fill="#5AB67E"/>
<path d="M195.279 259.127C195.072 256.67 195.136 246.549 196.567 240.364C197.036 238.344 196.312 237.183 194.134 236.794C192.083 236.444 190.079 235.816 188.06 235.307C186.78 234.44 185.563 235.386 184.323 235.434C182.826 235.558 181.32 235.359 179.906 234.851C178.492 234.344 177.203 233.54 176.126 232.492C171.705 227.722 168.08 222.57 166.951 215.995C165.798 211.121 165.249 206.303 166.426 201.27C168.215 193.638 173.248 188.549 179.044 183.906C181.429 183.437 184.116 181.982 185.619 185.441C185.857 189.114 183.87 192.048 182.136 194.981C180.277 198.172 178.816 201.579 177.787 205.126C175.355 213.292 178.726 221.028 186.342 224.733C189.672 226.382 193.329 227.262 197.044 227.309C205.146 227.372 206.513 229.431 204.12 237.382C201.393 246.454 201.989 255.669 203.214 264.875C203.563 267.523 204.859 268.851 207.404 266.577C209.789 265.448 210.632 262.896 212.476 261.29C214.321 259.684 214.647 259.835 215.927 261.735C214.678 265.647 212.977 269.32 210.051 272.277C205.177 277.215 199.938 276.07 197.585 269.566C196.549 266.151 195.778 262.661 195.279 259.127Z" fill="#073042"/>
<path d="M272.201 240.856C274.308 242.574 276.646 242.622 279.245 242.192C285.423 241.167 291.641 240.372 297.842 239.465C298.423 239.33 299.031 239.376 299.585 239.596C300.139 239.816 300.613 240.201 300.943 240.697C302.302 242.773 299.504 243.504 299.408 245.126C296.386 247.977 293.717 251.18 291.458 254.667C291.458 249.101 291.458 249.101 285.956 250.23C279.476 251.592 272.796 251.716 266.27 250.596C265.088 250.456 263.897 250.41 262.708 250.461C257.976 250.479 253.257 249.975 248.636 248.958C241.48 247.304 233.983 247.32 226.596 247.368C223.75 247.368 222.2 250.111 219.862 251.272C218.272 248.195 219.862 239.998 222.454 238.249C224.307 236.985 226.247 237.454 228.179 238.002C237.012 240.387 245.94 241.858 255.139 241.66C259.093 241.539 263.032 241.119 266.922 240.403C268.735 240.061 270.579 239.314 272.201 240.856Z" fill="#5AB67E"/>
<path d="M272.201 240.856C256.705 245.516 241.401 243.592 226.255 239.219C223.48 238.424 222.47 238.765 222.025 241.604C221.524 244.84 220.618 248.012 219.886 251.216L215.911 261.743C213.764 260.153 213.2 262.395 212.277 263.333C210.934 264.724 210.441 266.855 208.58 267.857C207.539 266.688 207.785 265.368 208.294 264.128C211.53 256.002 213.351 247.432 215.982 239.147C218.304 231.817 220.013 230.886 227.614 232.19C233.466 233.192 239.421 233.335 245.265 234.416C246.185 234.485 247.078 234.756 247.88 235.212C248.099 235.845 248.51 236.396 249.056 236.786C249.601 237.176 250.255 237.387 250.925 237.39C254.657 237.66 258.404 237.612 262.128 237.247C262.78 237.39 262.557 236.738 262.533 237.247C262.533 237.318 262.398 237.247 262.144 237.247C261.19 237.247 260.212 237.096 259.759 236.229C258.963 234.814 260.148 234.13 261.023 233.367C264.1 232.007 267.208 230.799 270.667 231.045C273.935 232.031 276.232 233.757 275.525 237.652C274.92 239.314 273.211 239.712 272.201 240.856Z" fill="#073042"/>
<path d="M176.762 231.363C180.061 234.019 184.387 233.701 188.06 235.267C179.155 238.32 169.948 239.505 160.598 240.276C153.188 240.88 153.125 241.365 152.997 248.839C152.55 248.599 152.17 248.25 151.892 247.825C151.615 247.4 151.448 246.912 151.407 246.406C150.763 242.137 149.571 237.923 150.612 233.534C151.065 231.578 151.892 229.893 153.856 229.408C158.626 228.239 163.357 227.022 168.294 227.412C171.489 227.71 174.481 229.107 176.762 231.363Z" fill="#5AB67E"/>
<path d="M179.179 185.202C169.455 193.407 165.44 203.624 168.207 216.21C163.596 214.5 159.93 217.513 155.891 218.666C154.301 219.111 153.769 220.511 152.942 221.687C152.115 222.864 151.821 224.502 149.865 224.176C149.865 222.586 149.849 220.983 149.817 219.366C149.078 211.415 151.845 203.997 152.997 196.309C152.581 195.976 152.273 195.527 152.11 195.02C151.947 194.512 151.938 193.968 152.083 193.455C153.832 185.504 155.192 177.498 158.587 170.032L168.127 166.152C167.69 169.42 169.153 171.44 172.961 171.527C181.612 171.726 188.608 175.582 195.764 179.994C201.027 183.238 207.284 185.146 213.875 183.691C215.811 183.275 217.81 183.239 219.759 183.588C220.427 185.973 218.534 186.88 217.056 187.794C210.29 191.952 203.301 191.65 196.328 188.358C191.583 186.035 187.331 182.817 183.806 178.881C182.916 181.799 181.81 184.137 179.179 185.202Z" fill="#5AB67E"/>
<path d="M149.865 224.208C151.455 217.251 157.696 216.257 163.007 214.158C165.265 213.268 167.062 214.063 168.207 216.233C170.393 221.664 172.556 227.102 176.762 231.387C169.495 227.786 162.037 229.32 154.675 230.799C151.423 231.451 150.771 234.456 150.7 237.366C150.596 240.411 151.892 243.345 151.495 246.43C148.99 240.912 150.143 235.06 149.904 229.336C149.785 227.643 149.857 225.925 149.865 224.208Z" fill="#5AB67E"/>
<path d="M158.618 170.104C158.974 170.736 159.184 171.44 159.232 172.163C159.28 172.887 159.165 173.612 158.897 174.286C156.003 181.394 155.088 189.034 153.029 196.373C151.981 197.19 151.145 198.247 150.592 199.455C150.038 200.663 149.783 201.986 149.849 203.314C149.817 205.162 149.571 207 149.117 208.792C148.593 211.089 147.209 213.109 145.078 213.109C142.693 213.109 139.64 214.349 137.827 211.519C136.444 209.356 135.084 209.929 133.677 211.352C132.27 212.775 130.242 213.403 129.384 214.731C127.046 218.34 123.31 218.817 119.843 220.105C117.84 220.861 115.51 222.077 114.103 219.851C112.695 217.625 113.578 215.041 115.558 213.125C117.744 211.018 119.994 208.974 122.173 206.86C123.151 205.913 124.144 204.649 123.007 203.417C122.76 203.137 122.451 202.919 122.104 202.78C121.758 202.641 121.383 202.586 121.011 202.618C120.639 202.651 120.28 202.77 119.962 202.967C119.645 203.164 119.378 203.432 119.183 203.751C117.108 207.281 113.411 209.125 110.994 212.497C107.815 216.878 103.537 220.344 98.591 222.546C97.0009 223.238 95.0927 225.186 93.765 223.111C92.5167 221.163 93.5265 219.016 95.7924 217.863C96.7544 218.905 97.5256 220.32 99.2509 218.738C107.607 211.018 114.89 202.336 122.093 193.526C120.105 193.717 118.913 195.069 117.601 196.269C111.28 202.137 105.818 208.784 100.221 215.351C99.084 216.679 98.1458 218.603 95.7844 217.911C96.4603 214.452 96.7624 210.843 100.205 208.648C100.495 208.378 100.727 208.05 100.885 207.687C101.044 207.323 101.126 206.93 101.127 206.534C101.183 204.657 102.344 202.026 100.404 201.127C98.8136 200.396 97.9073 202.94 96.8975 204.252C94.4036 207.326 91.2265 209.777 87.6191 211.407C86.4822 209.404 87.9928 208.179 89.0344 206.883C91.5945 203.703 94.4249 200.698 97.1599 197.629C98.1731 196.62 98.9121 195.37 99.3066 193.995C95.5298 196.843 92.089 200.11 89.0503 203.735C87.7066 205.277 86.6174 207.36 83.9857 206.915C83.5325 202.24 86.522 199.203 89.5511 196.579C92.8586 193.709 95.1643 190.219 97.8516 186.911C100.348 183.85 101.421 179.756 104.888 177.474C105.407 177.171 105.793 176.684 105.969 176.109C106.144 175.534 106.096 174.914 105.834 174.373C105.118 172.187 105.444 169.945 105.381 167.719C109.356 170.772 110.048 174.803 108.808 179.39C107.329 184.852 108.887 186.617 114.484 184.956C120.805 183.103 126.919 180.567 133.176 178.5C141.636 175.709 149.889 172.187 158.618 170.104Z" fill="#6DD58C"/>
<path d="M83.9619 206.899C87.7544 202.884 91.4753 198.79 95.3631 194.878C97.0486 193.184 99.4736 189.917 101.318 191.61C103.783 193.876 100.189 196.182 98.7501 198.074C95.2518 202.67 90.7994 206.462 87.6192 211.399C85.4964 213.554 83.3974 215.732 81.2587 217.855C80.0661 219.032 78.635 221.036 76.9971 219.581C75.1764 217.99 77.0528 216.249 78.0784 214.81C79.9866 212.123 82.4831 209.897 83.9619 206.899Z" fill="#E9101E"/>
<path d="M168.819 140.877C173.081 140.424 176.921 141.259 179.95 144.543C179.244 145.463 178.205 146.068 177.056 146.228C174.758 146.363 174.734 147.699 175.41 149.408C172.612 147.031 171.347 143.461 168.819 140.877Z" fill="#073042"/>
<path d="M282.648 164.435C283.117 166.621 283.602 168.808 284.04 171.002C284.405 172.871 283.324 173.968 281.869 174.842C281.142 175.323 280.32 175.642 279.459 175.779C278.598 175.917 277.717 175.868 276.876 175.637C272.249 174.047 269.18 177.148 268.178 180.13C266.214 185.997 261.365 185.552 257.214 186.784C255.03 187.291 252.801 187.579 250.56 187.643C249.964 187.629 249.377 187.779 248.861 188.076C248.345 188.373 247.92 188.807 247.634 189.328C246.6 190.664 245.153 190.744 243.658 190.529C240.109 190.068 236.648 189.084 233.386 187.611C231.454 186.705 229.554 185.592 230.119 182.88C241.249 176.735 253.271 172.775 265.396 169.134C267.585 168.62 269.608 167.555 271.271 166.041C274.634 162.686 274.451 160.579 270.269 158.027C269.26 157.407 268.107 157.009 267.526 155.856C271.597 156.548 274.356 159.688 277.862 161.422L282.648 164.435Z" fill="#5AB67E"/>
<path d="M230.127 182.865C232.202 186.53 236.121 186.744 239.54 187.834C242.142 188.745 244.87 189.246 247.626 189.32C255.863 191.793 264.322 189.662 268.926 184.089C270.131 182.521 270.978 180.708 271.406 178.778C271.653 177.88 271.915 176.894 273.052 176.846C273.998 176.798 274.284 177.705 274.642 178.38C276.01 180.925 277.361 183.477 278.713 186.021C277.345 187.42 276.105 185.576 274.737 185.838C274.356 187.206 275.747 188.621 274.602 189.933C262.112 199.362 248.763 199.267 234.913 193.487C234.416 193.305 233.938 193.078 233.482 192.811C228.131 189.336 223.535 189.098 217.795 193.304C209.725 199.227 200.82 196.619 192.671 192.35C189.737 190.815 186.374 189.432 184.832 185.989C183.329 182.968 181.087 185.282 179.171 185.194C180.825 182.809 182.653 180.662 181.691 177.323C181.174 175.534 182.534 175.319 183.798 176.25C184.603 176.93 185.336 177.692 185.985 178.524C189.488 182.492 193.834 185.626 198.706 187.699C206.203 190.879 213.708 189.503 219.767 183.644C220.514 183.111 221.293 182.626 221.993 182.054C226.533 178.19 226.795 178.205 230.127 182.865Z" fill="#073042"/>
<path d="M344.552 223.286C343.312 223.119 341.729 224.081 340.919 222.578C340.108 221.075 341.26 220.097 342.071 219.056C346.468 213.435 350.817 207.758 355.293 202.224C356.995 200.133 359.539 196.794 361.94 198.79C364.818 201.175 361.463 204.053 359.722 206.112C354.8 211.948 350.698 218.531 344.56 223.294L344.552 223.286Z" fill="#F00E20"/>
<path d="M342.978 197.899C343.51 198.05 344.321 198.042 344.695 198.44C345.363 199.14 344.806 199.935 344.305 200.539C339.426 206.422 333.64 211.489 327.164 215.55C326.162 216.17 324.85 216.496 323.912 215.351C323.189 214.476 323.729 213.459 324.318 212.831C329.263 207.551 334.121 202.153 340.593 198.623C341.361 198.302 342.16 198.06 342.978 197.899Z" fill="#E90B1E"/>
<path d="M274.586 189.456C274.474 189.081 274.293 188.731 274.054 188.422C272.511 187.102 271.382 185.385 273.028 183.763C275.087 181.736 276.073 184.248 277.337 185.353C277.765 185.633 278.231 185.85 278.721 185.997C281.654 188.422 283.388 191.706 284.699 195.132C287.88 203.433 290.066 211.956 289.033 220.98L288.325 222.618C286.186 226.728 283.078 230.123 280.231 233.749L275.461 237.724C273.72 235.999 273.64 232.826 270.69 232.158C270.712 231.559 270.88 230.974 271.179 230.455C271.479 229.935 271.9 229.497 272.408 229.177C281.479 221.91 281.289 212.481 278.713 202.471C277.918 199.378 276.327 196.579 275.27 193.606C274.785 192.27 273.958 190.99 274.586 189.456Z" fill="#073042"/>
<path d="M274.586 189.456C279.897 197.502 282.426 206.255 281.647 215.947C281.042 223.453 277.003 228.549 270.707 232.166L261.118 234.75C258.526 236.269 255.831 237.565 252.762 237.47C251.275 237.422 249.582 237.708 248.445 236.182C240.184 235.458 231.892 235.005 223.742 233.359C220.864 232.779 219.6 233.852 218.837 236.412C216.388 244.607 213.883 252.785 211.323 260.948C210.562 263.318 209.654 265.639 208.604 267.897C208.27 268.405 206.402 271.435 204.223 270.703C202.045 269.972 201.886 267.634 201.528 265.726C199.747 256.265 199.739 246.835 202.26 237.477C202.601 236.205 203.055 234.957 203.357 233.677C204.271 229.511 203.571 228.716 199.381 228.954C188.251 229.575 179.791 224.979 176.269 216.528C173.924 210.906 175.378 205.564 177.613 200.435C179.759 195.506 182.431 190.799 184.872 185.997C187.296 186.164 188.847 187.961 190.691 189.177C201.902 196.754 210.568 196.77 221.548 188.804C223.933 187.07 225.754 186.919 228.306 188.398C233.505 191.288 239.074 193.455 244.859 194.838C254.034 197.223 262.35 195.689 270.245 190.664C271.557 189.805 272.845 188.867 274.586 189.456Z" fill="#FE9D9C"/>
<path d="M248.445 236.182L261.118 234.75C261.118 235.196 259.679 235.895 261.174 236.03C262.477 236.012 263.775 235.854 265.046 235.561C265.841 235.466 266.747 235.267 267.065 236.213C267.423 237.279 266.485 237.485 265.737 237.7C260.244 239.29 254.71 239.894 249.041 238.495C247.181 238.002 247.268 237.303 248.445 236.182Z" fill="#073042"/>
<path d="M95.8165 217.847C101.517 211.487 107.178 205.031 112.95 198.71C115.266 196.003 117.941 193.625 120.901 191.642C122.062 190.919 123.477 190.235 124.55 191.213C125.91 192.445 124.55 193.701 123.755 194.6C116.011 203.21 108.744 212.282 100.245 220.233C100.068 220.429 99.858 220.593 99.6248 220.718C98.2573 221.282 97.0329 223.23 95.4349 221.87C94.0435 220.686 95.6734 219.207 95.8324 217.847H95.8165Z" fill="#EE0C1E"/>
<path d="M118.802 218.722C116.798 218.722 116.067 217.863 116.862 216.448C117.705 214.964 118.731 213.591 119.915 212.361C125.019 207.034 129.972 201.549 135.816 196.977C136.921 196.118 138.249 194.711 139.624 195.92C141 197.128 139.99 198.583 139.139 199.815C134.295 206.745 128.254 212.755 121.298 217.561C120.508 218.032 119.671 218.421 118.802 218.722Z" fill="#EA0E1F"/>
</svg>
