<svg viewBox="0 0 396 409" fill="none" xmlns="http://www.w3.org/2000/svg">
<g clip-path="url(#clip0_9_78)">
<path d="M34.6323 250.188C29.8881 249.643 26.3884 247.543 24.5218 242.877C22.9664 238.911 23.8996 236.733 28.1771 235.877C32.1354 235.139 36.1959 235.139 40.1542 235.877C42.3318 236.189 45.5205 237.122 46.6093 234.866C47.7759 232.455 44.8983 230.822 43.1873 229.422C40.6208 227.322 40.3097 225.223 41.243 221.956C45.5983 207.102 49.6425 192.091 55.1643 177.626C55.7865 176.07 56.4865 174.592 57.1864 173.037C70.2523 123.262 104.706 89.0422 105.483 88.1867C109.372 83.7537 112.094 83.5981 116.061 87.9534C121.116 93.4753 124.149 100.242 127.726 106.697C129.982 110.741 131.926 115.018 134.026 119.218C135.504 122.251 137.448 125.129 138.926 128.162C142.65 135.259 145.923 142.584 148.725 150.094C150.825 155.694 150.903 155.771 156.736 155.849C157.644 155.797 158.554 155.823 159.458 155.927C162.413 156.316 162.413 158.338 162.024 160.516C160.547 168.059 160.236 175.603 160.158 183.303C160.111 185.7 160.603 188.077 161.6 190.258C162.596 192.439 164.07 194.368 165.913 195.902C169.491 199.013 172.601 199.091 176.257 195.98C180.845 192.091 182.556 186.492 184.034 181.048C185.963 174.33 186.777 167.341 186.445 160.36C186.289 157.871 187.301 156.705 189.711 156.549C196.011 157.094 202.311 157.56 208.533 158.571C210.866 159.893 210.555 161.993 210.166 164.015C208.766 170.704 208.999 177.392 210.01 184.081C210.866 189.68 213.199 194.113 218.565 196.602C224.398 199.324 229.22 197.691 231.553 191.702C234.898 183.07 236.064 174.204 233.731 165.104C232.409 159.738 232.487 159.66 237.931 158.571C241.353 157.871 244.852 158.26 248.352 158.182C250.919 158.105 252.708 157.094 253.719 154.527C262.507 132.206 276.428 112.841 290.039 93.3975C292.605 89.8199 295.716 86.709 298.516 83.3648C301.704 79.6317 304.971 79.1651 308.782 81.3427C334.058 100.63 352.879 177.081 354.512 186.103C356.146 195.124 353.657 203.991 354.901 212.934C355.757 219.312 358.09 224.289 365.167 225.845C367.811 226.389 371.467 226.622 371.778 230.2C372.089 234.322 371.389 238.522 367.889 241.477C366.723 242.5 365.341 243.244 363.845 243.655C349.457 247.31 338.958 256.798 328.381 266.52C314.381 279.43 304.271 295.218 294.161 311.006C293.305 312.406 291.827 313.495 291.75 315.361C291.361 318.006 290.427 320.339 287.861 321.661C280.861 331.849 272.229 340.56 263.674 349.348C260.718 352.381 257.607 355.103 252.863 355.492C249.752 355.726 246.797 357.359 245.864 361.247C245.247 363.226 244.412 365.13 243.375 366.925C241.43 370.736 238.086 370.891 235.597 367.469C234.173 365.476 233.071 363.272 232.331 360.936C231.553 358.681 230.153 357.748 227.898 359.225C221.365 363.425 213.977 365.992 207.055 369.569C204.255 371.047 202.155 373.458 200.133 375.713C197.8 378.357 196.4 377.658 195.078 374.935C192.526 369.826 188.761 365.42 184.112 362.103C183.256 361.481 182.323 360.159 181.079 361.092C180.068 361.87 180.456 363.27 180.845 364.358C181.468 366.38 181.701 368.325 179.601 369.491C177.346 370.736 175.946 368.636 175.401 367.236C172.213 358.992 164.824 358.759 157.902 357.67C151.914 356.737 146.003 355.492 140.17 354.092C136.281 353.159 132.782 351.215 128.582 351.215C125.86 351.215 123.371 349.581 121.66 347.326C118.083 342.426 113.105 338.693 109.45 333.794C108.283 332.238 108.517 329.905 106.417 329.049C103.306 326.561 102.917 322.672 101.284 319.406C94.7788 306.083 86.4554 293.729 76.5519 282.697C66.5192 270.486 54.6199 260.609 40.1542 253.999C38.4432 252.832 36.3433 251.821 34.6323 250.188Z" fill="#FED2A3"/>
<path d="M74.2187 192.48C71.8077 195.513 68.619 194.269 65.8192 193.647C63.1749 193.025 61.775 190.925 61.775 187.892C61.775 181.592 64.0304 167.36 64.4193 166.426C67.5302 158.882 78.7295 136.328 80.7516 132.206C83.9383 126.012 87.8832 120.239 92.4953 115.018C93.2422 113.976 93.9178 112.885 94.5174 111.752C96.6951 108.097 99.3393 106.152 100.661 102.341C101.984 98.5305 104.083 94.4086 106.65 94.7196C107.618 94.8067 108.512 95.2722 109.138 96.015C109.764 96.7577 110.072 97.7177 109.994 98.6861C108.439 100.164 109.294 101.875 109.605 103.43C112.522 117.61 114.393 131.985 115.205 146.439C115.411 150.944 115.852 155.435 116.527 159.893C116.76 161.527 117.072 163.549 115.516 164.56C113.805 165.649 112.327 164.093 111.005 163.16C107.896 160.826 104.353 159.134 100.584 158.182C98.1727 157.638 95.9173 157.638 94.2063 159.66C92.4953 161.682 93.0397 164.015 94.1286 166.193C94.5896 166.972 95.005 167.777 95.3729 168.604C96.384 170.782 95.8396 172.337 93.3508 172.415C85.418 172.726 81.0627 177.626 77.874 184.081C77.1721 185.471 76.3931 186.821 75.5408 188.125C74.7631 189.525 73.5965 190.769 74.2187 192.48Z" fill="#FE9E9A"/>
<path d="M358.945 408.767H37.7432C35.9544 405.578 34.4767 402.234 32.8435 398.89C32.2991 397.801 31.5991 396.634 32.3768 395.312C35.5655 394.068 38.9875 393.99 42.254 393.834C56.4087 393.057 69.1634 388.001 81.0627 380.613C92.1369 373.95 100.758 363.882 105.639 351.915C106.877 348.672 107.636 345.266 107.894 341.804C108.828 339.082 107.894 336.438 107.272 333.794C106.883 332.16 105.95 330.683 106.728 328.894C108.594 327.883 108.828 329.594 109.372 330.527C113.105 337.216 119.405 341.649 124.071 347.482C124.622 348.128 125.3 348.655 126.062 349.029C126.825 349.404 127.656 349.618 128.504 349.659C135.581 350.048 141.803 353.626 148.803 354.637C154.403 355.492 160.002 356.581 165.602 357.67C169.879 358.525 173.146 360.236 175.09 364.125C175.329 364.594 175.616 365.037 175.946 365.447C176.879 366.536 177.579 368.558 179.445 367.78C181.079 367.08 180.379 365.292 180.223 363.97C180.068 362.647 179.757 360.936 181.312 360.159C182.867 359.381 184.112 360.314 185.201 361.17C189.486 364.367 193.061 368.419 195.7 373.069C197.567 376.335 198.266 376.569 200.755 373.769C204.411 369.647 209.077 367.236 213.977 365.136C218.263 363.297 222.444 361.22 226.498 358.914C230.542 356.581 232.098 357.125 233.964 361.403C234.73 363.328 235.723 365.156 236.92 366.847C238.864 369.258 240.886 369.18 242.519 366.536C243.664 364.662 244.628 362.682 245.397 360.625C246.486 357.514 248.586 355.337 251.696 354.87C259.785 353.703 264.296 347.715 269.273 342.349C275.262 335.893 281.483 329.672 286.461 322.361C286.648 322.095 286.891 321.873 287.173 321.712C287.456 321.55 287.77 321.453 288.094 321.428C288.38 321.504 288.646 321.64 288.874 321.828C289.102 322.016 289.287 322.251 289.416 322.517C285.605 332.627 290.35 341.571 294.705 349.659C307.304 372.68 326.903 387.224 352.568 393.368C356.068 394.223 359.879 392.745 363.145 394.768C363.612 399.978 360.734 404.178 358.945 408.767Z" fill="#D0916E"/>
<path d="M342.613 173.892C339.969 162.693 337.713 151.416 334.68 140.372C332.58 132.751 329.858 125.284 323.948 119.529C328.769 122.096 334.058 121.862 339.269 121.785C340.358 121.785 341.602 121.474 342.535 122.485C342.38 122.485 342.302 122.562 342.146 122.562C333.436 122.562 333.436 122.562 336.547 131.04C343.002 148.927 346.579 167.593 350.546 186.181C347.357 188.358 347.279 184.936 346.657 183.614C345.024 180.503 343.935 177.159 342.613 173.892Z" fill="#FDD4B5"/>
<path d="M321.536 79.4761C318.737 75.6653 313.37 72.3988 311.97 71.7766C304.582 68.6657 295.638 68.5879 289.883 74.8875C278.839 86.8646 270.284 99.7749 261.029 114.007C259.707 116.496 246.874 135.317 243.686 143.405C243.489 144.039 243.08 144.586 242.528 144.954C241.976 145.322 241.313 145.49 240.653 145.428C238.708 145.272 185.045 145.505 160.702 144.339C159.924 144.417 158.602 144.65 158.602 144.105C158.447 140.917 153.936 131.428 151.447 130.34C147.636 128.006 142.503 130.34 139.003 126.684C138.226 125.907 137.604 127.151 138.07 128.162C141.959 136.717 145.925 145.194 149.192 154.06C149.465 155.012 150.07 155.834 150.898 156.376C151.726 156.918 152.721 157.145 153.703 157.016C155.491 156.938 157.28 156.782 159.147 156.705C159.591 156.44 160.12 156.357 160.624 156.471C167.157 157.716 173.846 157.949 180.456 158.105C183.567 158.182 186.445 157.016 189.556 157.56C196.011 158.182 202.466 158.727 208.844 159.349C210.469 160.128 212.251 160.527 214.054 160.516C222.22 160.516 230.464 160.827 238.553 159.349C242.053 159.271 245.552 159.116 249.052 159.193C252.085 159.271 253.796 157.949 254.885 155.149C265.229 129.329 280.861 106.697 298.36 85.3869C302.56 80.2539 305.593 83.3648 310.026 85.3869C314.459 87.409 333.436 124.118 333.902 126.295C334.991 130.962 337.169 135.317 338.491 139.906C342.768 155.071 345.957 170.548 349.613 185.947C351.708 192.768 352.962 199.82 353.346 206.946C353.89 216.901 356.145 225.611 367.811 227.711C368.32 227.849 368.796 228.087 369.211 228.411C369.786 228.719 370.264 229.18 370.594 229.743C370.923 230.305 371.091 230.948 371.078 231.6C370.767 236.033 369.6 240.077 365.167 242.255C362.834 243.421 360.345 244.121 357.934 245.055C353.035 246.766 348.213 248.632 344.091 251.899C323.092 268.231 306.604 288.53 293.149 311.395C292.372 312.717 291.283 313.962 291.594 315.673C291.707 316.063 291.96 316.398 292.304 316.613C292.648 316.828 293.06 316.909 293.46 316.839C295.016 316.372 295.871 314.973 296.805 313.806C299.527 310.384 302.171 306.884 305.515 304.084C308.237 301.129 310.959 298.174 313.37 294.985C323.17 281.608 335.613 271.264 349.613 262.631C353.579 260.22 357.545 257.421 362.289 256.954C367.578 256.41 372.867 256.798 378.155 256.798C380.566 256.798 382.122 257.965 382.51 260.376C383.91 268.775 385.155 277.33 384.921 285.808C384.533 300.273 381.422 314.506 379.711 328.894C379.724 329.414 379.698 329.934 379.633 330.449C375.533 350.776 370.261 370.849 363.845 390.568C363.378 392.046 362.523 393.445 362.989 395.079C362.367 399.901 358.867 403.945 358.945 409H369.833C373.178 404.489 374.189 399.045 375.589 393.912C379.555 379.991 383.599 366.147 388.266 352.459C392.103 341.202 394.609 329.534 395.732 317.695C395.81 316.372 395.654 314.973 395.81 313.65C395.732 300.896 394.954 272.586 394.721 272.042C393.509 265.111 391.899 258.256 389.899 251.51C388.81 248.166 386.555 245.288 383.677 243.966C381.344 242.799 381.499 241.71 382.122 240.233C383.755 236.5 383.521 232.844 382.355 229.033C381.566 226.264 380.101 223.733 378.092 221.67C376.083 219.607 373.592 218.075 370.844 217.212C368.745 216.512 368.356 215.734 368.122 213.868C367.422 208.657 368.122 203.213 366.1 198.158C363.378 191.236 362.367 183.925 361.356 176.692C359.49 163.704 355.757 151.338 351.401 139.05C350.157 135.628 347.979 132.517 347.357 129.017C342.302 113.696 326.747 86.6313 321.536 79.4761Z" fill="#6A2825"/>
<path d="M32.299 395.545C33.6212 400.134 37.6654 403.634 37.7431 408.767H20.6331C18.8443 404.645 16.7445 400.523 15.889 396.09C14.6446 389.868 12.3892 383.957 10.7559 377.813C6.63398 362.181 2.2787 346.626 1.57874 330.372C1.4232 326.872 0.801013 323.45 0.801013 319.95C0.801013 316.295 -0.287808 312.639 0.101056 308.906C0.334375 297.707 -0.5989 286.508 0.72324 275.308C1.26765 269.942 6.78953 259.987 8.34499 257.421C9.43381 255.554 11.8448 253.065 12.3892 252.365C14.6446 249.721 17.9888 247.232 13.9446 242.799C12.0781 240.699 12.3892 236.655 11.767 233.467C11.067 230.122 12.778 228.489 15.8112 227.556C20.1665 226.156 24.7551 226.389 29.2659 225.845C31.9102 225.534 32.7657 224.756 32.8435 221.878C33.0693 214.823 34.1665 207.822 36.1099 201.035C39.2986 189.836 42.1762 178.481 45.8315 167.437C61.775 119.296 96.0728 82.9759 96.695 81.576C98.7171 78.6206 99.6504 96.8195 99.106 98.6083C98.7171 99.8526 81.0627 126.451 80.3627 127.54C71.0648 141.843 63.5433 157.226 57.9641 173.348C52.4178 187.42 47.7935 201.839 44.1205 216.512C44.022 217.155 43.8389 217.783 43.5761 218.379C41.1652 223.278 41.3985 227.478 46.0648 230.978C47.1537 231.833 48.0092 233.155 47.4648 234.711C46.8426 236.422 45.2093 236.733 43.6539 236.966C42.2248 237.122 40.7801 237.043 39.3764 236.733C36.9659 236.294 34.5092 236.163 32.0657 236.344C29.3437 236.5 26.3883 236.577 25.2995 239.766C24.5995 241.866 27.7882 246.921 30.1992 248.01C31.7546 248.71 33.5434 248.71 34.7878 249.954C35.3322 252.676 33.2323 252.521 31.6769 252.443C29.3962 252.261 27.1029 252.313 24.8328 252.599C22.033 252.988 20.0109 253.687 21.2553 257.187C21.3367 257.503 21.351 257.832 21.2975 258.153C21.2439 258.475 21.1235 258.782 20.9442 259.054C13.8669 267.92 11.1448 278.186 10.9115 289.23C10.6911 301.997 11.4451 314.763 13.1669 327.416C13.5558 338.46 16.1223 349.115 19.0776 359.692C22.1886 371.047 25.8439 382.168 31.5991 392.59C32.1473 393.473 32.393 394.51 32.299 395.545Z" fill="#6A2825"/>
<path d="M342.613 173.892C342.846 177.081 343.313 180.27 343.313 183.459C343.318 184.712 343.044 185.951 342.511 187.085C341.978 188.219 341.199 189.221 340.232 190.017C339.264 190.814 338.131 191.385 336.915 191.69C335.7 191.995 334.431 192.026 333.202 191.78C332.628 191.692 332.08 191.479 331.596 191.157C331.112 190.834 330.705 190.41 330.403 189.914C328.692 186.958 327.058 183.925 325.425 180.892C325.736 178.637 323.947 177.626 322.703 176.303C319.825 172.726 316.092 171.559 311.659 172.104C307.693 172.57 306.526 171.326 306.837 167.282C307.048 165.864 307.177 164.436 307.226 163.004C306.837 158.727 304.193 157.327 300.616 159.504C298.315 160.985 296.289 162.854 294.627 165.026C293.849 165.96 292.838 167.36 291.438 166.66C290.038 165.96 290.661 164.326 290.972 163.16C293.616 150.794 294.16 138.039 296.649 125.673C298.593 116.574 301.549 107.785 303.338 98.6083C303.726 96.7417 304.66 94.8752 303.726 92.9308C304.582 91.4532 304.66 86.4757 308.782 92.9308C312.904 99.386 331.18 126.84 332.969 132.051C337.247 144.417 339.891 157.093 342.691 169.77C342.924 171.17 343.624 172.57 342.613 173.892Z" fill="#FD9F9A"/>
<path d="M104.55 91.2976C102.761 93.7086 100.973 96.1973 99.106 98.6083C98.4061 99.5416 97.8616 101.097 96.1506 100.008C96.1506 99.1527 96.1506 98.375 96.2284 97.5195C97.0061 92.2309 96.3062 86.6313 96.9284 81.3427C97.1617 80.8761 106.883 74.1098 112.794 74.6542C116.372 74.9653 119.327 77.2207 121.893 79.1651C126.561 84.7014 130.775 90.6054 134.493 96.8195C134.882 101.408 136.126 105.919 134.882 110.508C134.259 112.996 135.037 115.329 135.426 117.74C135.582 119.063 135.97 121.396 133.248 119.607C128.971 111.519 124.616 103.43 120.338 95.4196C118.783 92.542 116.605 90.2088 114.427 87.7978C111.939 85.1536 109.761 84.8425 107.428 87.7978C106.417 88.8867 104.993 89.7422 104.55 91.2976Z" fill="#6E2525"/>
<path d="M132.937 118.993C133.559 118.915 134.882 120.081 134.259 118.915C131.693 114.015 133.871 109.349 134.415 104.605C134.726 102.038 134.493 99.4716 134.57 96.9051C135.97 99.7049 143.514 113.704 145.225 118.293C146.859 122.648 152.303 130.581 153.003 131.67C150.281 131.592 145.536 129.103 142.659 130.27C141.026 130.97 139.937 129.336 139.081 127.936C138.381 126.692 138.459 127.003 138.226 128.481C136.515 125.518 134.547 121.785 132.937 118.993Z" fill="#6E2525"/>
<path d="M293.46 316.139C297.038 311.939 300.071 307.195 304.426 303.618C306.137 305.406 305.515 307.506 305.204 309.528C303.96 318.395 303.649 327.261 305.438 336.127C305.723 338.036 306.412 339.863 307.458 341.485C308.503 343.108 309.883 344.489 311.504 345.537C316.715 349.115 322.003 352.615 327.447 355.803C333.125 359.148 339.113 359.303 344.946 357.048C357.001 352.381 368.122 346.237 375.978 335.427C376.85 334.15 377.605 332.796 378.233 331.383C378.777 330.294 378.855 328.738 380.566 328.661C380.1 336.36 377.766 343.671 375.9 350.981C372.633 363.892 369.6 376.88 365.167 389.401C364.545 391.19 363.689 392.979 362.912 394.768C346.346 395.545 332.658 388.468 319.592 379.291C311.551 373.658 304.484 366.749 298.671 358.836C292.449 350.437 289.339 340.482 286.694 330.449C285.839 327.261 288.483 325.161 288.872 322.439C289.612 319.864 291.237 317.633 293.46 316.139Z" fill="#C0D8DE"/>
<path d="M32.2991 395.545C27.1661 387.69 24.0551 378.98 21.022 370.191C17.6778 360.392 15.4223 350.359 13.4002 340.249C12.6225 336.205 12.5447 332.083 12.1559 327.961C12.4098 327.938 12.6646 327.992 12.8868 328.117C13.109 328.242 13.288 328.432 13.4002 328.661C20.3998 341.182 30.6658 350.593 43.0317 357.359C50.9646 361.714 59.6751 364.203 69.1634 362.803C77.874 361.481 83.707 356.814 87.6734 349.193C92.3398 340.249 93.6619 330.916 92.1842 320.961C91.6398 317.228 91.0954 313.339 91.7953 309.451C92.6509 308.751 93.273 309.373 93.6619 309.995C99.6504 320.183 105.406 330.449 108.517 341.96C108.361 352.537 103.228 361.247 96.6173 368.636C82.2293 384.657 63.6416 393.212 41.9429 394.845L32.2991 395.545Z" fill="#C0D8DE"/>
<path d="M108.672 341.882C105.328 334.649 102.061 327.416 98.5616 320.261C96.695 316.528 94.284 313.028 92.1842 309.373C91.8221 309.235 91.4911 309.027 91.2107 308.76C90.9302 308.493 90.7059 308.172 90.5509 307.817C84.1855 297.194 76.5316 287.398 67.7635 278.653C66.9857 277.797 66.1302 276.942 66.1302 275.697C67.1413 273.131 68.4634 273.986 69.7856 275.386C72.1188 277.875 74.5297 280.286 77.6406 281.919C89.851 295.452 99.8837 310.306 106.183 327.494C106.386 327.95 106.62 328.392 106.883 328.816C107.505 333.171 110.539 337.138 108.672 341.882Z" fill="#6A2825"/>
<path d="M293.46 316.139C291.905 318.239 290.427 320.339 288.872 322.439C288.639 322.128 288.327 321.894 288.094 321.583C289.416 319.483 290.272 316.217 291.516 314.117C291.905 314.661 292.838 316.139 293.46 316.139Z" fill="#6A2725"/>
<path d="M380.644 328.661C374.189 343.826 361.201 351.37 346.968 357.359C339.813 360.392 332.891 360.47 325.97 356.192C320.137 352.615 314.459 348.804 308.937 344.915C304.349 341.649 304.66 336.205 303.649 331.305C301.782 321.972 304.66 312.873 304.427 303.618C313.137 293.741 320.681 282.852 331.025 274.375C339.249 267.501 348.224 261.578 357.779 256.721C360.112 255.554 362.523 255.476 364.934 255.476C369.056 255.476 373.256 255.787 377.378 255.476C381.5 255.165 383.21 256.798 383.755 260.687C385.855 276.164 386.632 291.563 383.677 307.04C382.355 314.273 381.655 321.505 380.644 328.661Z" fill="#FEFEFE"/>
<path d="M66.4414 275.931C75.1519 285.341 84.0958 294.596 90.3954 305.951C91.0176 307.04 91.562 308.206 92.1842 309.373C93.1952 317.461 94.7507 325.627 93.5841 333.638C91.9509 345.382 88.14 356.426 76.163 361.87C67.2969 365.914 58.1974 364.436 49.4091 361.325C36.9654 356.892 27.5549 348.493 19.1554 338.693C16.2778 335.349 13.0114 332.471 12.1559 327.883C9.97822 313.417 8.73386 298.718 9.97822 284.252C10.756 274.919 12.9336 265.276 20.5553 258.432C22.9663 254.854 26.2328 253.532 30.5103 254.232C39.379 255.722 47.7415 259.382 54.8532 264.887C57.5752 266.909 60.1418 269.009 62.7083 271.186C64.2637 272.431 65.897 273.761 66.4414 275.931Z" fill="#FEFEFE"/>
<path d="M66.4413 275.931C61.5416 271.731 56.7975 267.298 51.4312 263.72C46.3902 260.343 40.8538 257.771 35.0211 256.098C29.8103 254.543 24.8328 254.465 20.5553 258.432C19.0776 252.676 19.0776 252.754 25.5328 251.588C27.3701 251.121 29.2951 251.121 31.1324 251.588C32.299 251.899 34.0878 252.443 34.5544 250.266C46.687 255.01 57.653 261.62 66.9857 270.72C70.6411 274.297 74.6075 277.719 77.4851 281.997C73.3631 281.919 71.341 278.653 69.0078 276.086C67.9968 274.842 67.4524 273.831 66.4413 275.931Z" fill="#6A2825"/>
<path d="M141.959 233C146.547 229.345 150.747 225.145 156.114 222.345C166.068 217.212 176.723 215.112 187.612 213.557C197.745 212.151 208.058 212.786 217.943 215.423C228.053 218.067 236.064 224.212 242.441 232.222C250.219 241.944 255.896 252.91 258.152 265.353C261.34 282.775 258.54 298.874 246.408 312.406C233.964 326.25 218.176 332.938 199.666 334.105C183.645 335.193 169.257 330.527 156.269 321.661C146.936 315.284 138.77 307.662 134.493 296.696C132.339 291.164 131.003 285.348 130.526 279.43C129.826 270.253 129.515 260.998 132.859 252.21C134.259 248.477 136.515 245.055 137.759 241.322C138.77 238.366 140.792 235.877 141.959 233Z" fill="#FEFEFE"/>
<path d="M141.959 233C134.726 240.077 125.393 243.888 117.149 249.332C113.183 251.976 109.294 254.854 104.861 256.643C101.828 257.887 98.6394 259.132 95.9951 255.865C94.0508 253.376 94.8285 249.488 97.6283 246.377C98.4061 245.521 99.106 244.666 99.8837 243.81C100.506 243.421 100.739 242.721 101.284 242.255C102.376 241.358 103.415 240.397 104.395 239.377C105.406 238.366 106.417 237.511 107.505 236.577C112.95 232.3 118.005 227.945 119.327 226.311C118.005 224.834 103.617 219.467 100.817 217.29C98.9505 215.812 97.5506 214.179 98.3283 211.69C99.106 209.201 101.284 209.435 103.228 209.512C116.372 210.212 128.038 215.268 138.926 222.189C142.814 224.756 142.97 228.878 141.959 233Z" fill="#3D2020"/>
<path d="M298.282 213.012C298.282 215.89 296.183 217.601 293.538 218.69C290.427 219.934 287.161 220.867 283.972 221.878C281.172 222.812 280.395 224.056 283.117 226.234C286.539 228.956 289.883 231.911 293.227 234.711C295.483 236.577 296.027 238.522 294.316 241.088C293.149 242.799 292.372 244.744 291.361 246.532C289.105 250.421 286.15 251.432 282.261 248.943C278.684 246.61 275.417 243.888 271.995 241.322C267.173 237.588 261.885 234.555 256.674 231.444C254.071 229.992 251.877 227.905 250.297 225.378C248.119 221.801 248.586 219.467 252.241 217.29C255.531 215.441 259.204 214.376 262.974 214.179C272.773 213.323 282.572 212.701 291.827 208.89C295.483 207.49 298.205 209.279 298.282 213.012Z" fill="#3C2021"/>
<path d="M158.991 156.705C160.78 155.46 162.724 156.005 164.591 156.16C172.29 156.782 179.99 156.86 187.612 156.938C188.24 157.039 188.845 157.25 189.4 157.56C188.156 157.871 187.067 157.871 187.301 159.893C188.123 170.654 186.084 181.44 181.39 191.158C179.29 195.591 176.023 199.713 170.579 199.402C165.135 199.091 162.024 194.736 160.158 190.069C157.902 184.47 158.913 178.481 159.302 172.726C159.613 168.293 159.38 163.626 161.169 159.349C162.102 157.101 160.547 156.86 158.991 156.705Z" fill="#AC6D61"/>
<path d="M208.766 159.271H238.475C237.741 159.501 236.985 159.657 236.22 159.738C233.809 159.738 233.342 160.827 234.12 163.004C237.231 171.793 236.142 180.581 233.575 189.291C232.175 194.113 230.231 198.78 224.009 198.935C221.072 198.993 218.189 198.142 215.753 196.499C213.317 194.857 211.447 192.503 210.399 189.758C207.288 181.125 207.521 172.259 209.077 163.315C209.388 161.838 209.777 160.516 208.766 159.271Z" fill="#AD6D61"/>
<path d="M74.2964 188.669C75.9296 184.858 77.7184 181.125 80.3627 178.014C83.5514 174.126 87.5178 171.17 92.9619 171.404C95.1395 171.482 95.5284 170.859 94.3618 168.993C92.1842 165.726 90.2399 162.227 93.273 158.727C96.3839 155.071 100.428 157.016 104.083 158.182C107.25 159.331 110.197 161.015 112.794 163.16C113.416 163.704 114.194 164.637 115.127 164.171C116.216 163.704 115.749 162.538 115.594 161.76C114.038 147.605 113.494 133.373 111.316 119.296C110.383 113.385 109.683 107.552 108.128 101.719C107.817 100.397 106.572 97.9861 109.994 98.6861C112.872 107.863 114.194 117.274 115.127 126.762C116.372 139.906 118.316 152.972 118.86 166.115C118.938 167.204 119.56 168.682 118.316 169.304C117.072 169.926 116.138 168.837 115.205 168.215C111.239 165.804 107.817 162.46 103.461 160.671C100.895 159.582 97.8616 157.716 95.6062 160.593C93.3508 163.471 95.8395 166.115 97.4727 168.604C98.4838 170.159 101.361 171.093 100.584 173.037C99.8059 174.981 97.395 172.959 95.6062 173.193C89.6177 173.97 84.8735 176.692 81.5293 181.825C79.7405 184.625 78.3406 187.736 76.0074 190.225C74.0631 190.925 73.752 190.225 74.2964 188.669Z" fill="#6F2423"/>
<path d="M297.582 125.673C295.172 139.128 294.394 152.894 291.361 166.893C294.549 164.404 296.105 161.138 299.06 159.271C301.238 157.949 303.26 156.316 305.749 157.716C308.237 159.116 308.393 161.682 308.315 164.171C308.237 166.348 306.604 168.682 308.082 170.548C309.715 172.726 312.204 170.704 314.304 170.937C318.348 171.326 321.848 172.57 323.947 176.303C324.025 177.703 323.248 177.47 322.392 177.081C318.503 173.115 313.915 172.57 308.86 174.204C307.615 174.592 306.215 175.448 305.204 174.515C303.882 173.348 304.893 171.87 305.438 170.548C306.352 168.385 306.543 165.985 305.982 163.704C305.049 159.971 303.027 159.271 300.149 161.76C297.894 163.704 295.949 165.96 293.849 168.059C292.838 169.071 291.827 170.393 290.272 169.848C288.716 169.304 288.872 167.515 288.95 166.115C289.193 158.776 290.026 151.467 291.438 144.261C293.305 146.983 291.594 150.016 292.216 152.194C291.905 144.572 294.16 136.717 295.56 128.706C295.537 127.548 295.483 125.673 297.582 125.673Z" fill="#6A2825"/>
<path d="M297.582 125.673C294.783 131.428 295.327 137.884 293.616 143.872C292.943 146.751 292.655 149.706 292.76 152.66C292.748 154.06 292.19 155.399 291.205 156.394C291.361 152.349 291.438 148.305 291.205 144.261C291.127 136.795 293.616 129.795 295.327 122.718C297.816 112.685 299.682 102.497 303.726 92.9308C306.06 93.2419 305.36 94.9529 305.049 96.1195C302.638 105.997 300.071 115.882 297.582 125.673Z" fill="#6A2825"/>
<path d="M322.314 177.081C322.936 176.926 323.559 176.926 323.87 176.303C325.503 177.47 327.058 178.637 325.503 180.97C324.414 179.655 323.403 178.326 322.314 177.081Z" fill="#6A2825"/>
<path d="M74.2965 188.669C74.452 189.525 74.7631 190.225 75.8519 190.225C75.9297 191.391 74.6853 191.625 74.2965 192.48C71.4189 191.158 73.8843 189.914 74.2965 188.669Z" fill="#6F2423"/>
<path d="M372.167 292.185C372.011 294.363 372.244 296.54 371.622 298.718C368.667 308.906 364.701 311.473 354.201 309.606C343.391 307.74 337.869 302.918 336.78 293.585C335.925 285.885 339.502 279.664 345.568 275.231C350.857 271.42 356.845 270.331 362.601 274.22C368.9 278.497 372.711 284.174 372.167 292.185Z" fill="#FE9D9C"/>
<path d="M19.9332 289.774C20.0109 282.852 24.9884 275.542 30.8214 273.753C34.5453 272.552 38.5563 272.576 42.2656 273.821C45.9749 275.067 49.1872 277.469 51.4312 280.675C57.8086 289.541 56.9531 296.696 48.4758 306.418C42.0207 313.806 39.6875 314.195 31.3658 309.062C24.2107 304.707 19.7776 298.648 19.9332 289.774Z" fill="#FE9C9B"/>
<path d="M212.732 313.961C202.855 315.672 192.978 316.295 183.101 314.584C179.368 313.728 175.79 312.328 172.057 311.473C157.824 305.718 149.814 294.985 147.403 280.052C146.703 275.542 148.025 271.031 149.269 266.676C151.15 260.34 153.678 254.216 156.813 248.399C157.669 246.688 158.68 244.977 159.613 243.266C160.858 240.933 162.491 240.388 164.513 242.333L167.079 244.666C173.923 250.81 181.545 251.51 189.556 246.843C190.573 246.286 191.537 245.635 192.433 244.899C194.922 242.721 197.1 242.877 199.589 245.055C204.255 249.177 210.01 250.654 215.999 251.276C221.054 251.743 225.331 250.11 228.52 245.832C230.931 242.566 231.864 242.644 234.431 245.755C237.386 249.41 239.33 253.61 241.353 257.809C245.008 270.875 243.841 283.474 237.153 295.218C233.031 302.451 226.731 307.273 218.954 310.228C216.412 311.274 213.816 312.182 211.177 312.95C211.643 313.339 212.32 313.425 212.732 313.961Z" fill="#FD9E9C"/>
<path d="M240.575 257.965C238.319 253.61 236.064 249.254 232.875 245.444C232.098 244.51 231.553 243.733 230.309 245.21C223.232 253.299 214.832 254.621 204.255 249.41C201.222 247.932 198.811 244.355 195.933 244.199C193.056 244.044 190.567 247.777 187.456 249.177C179.29 252.91 170.346 250.81 163.813 243.11C161.946 240.933 161.402 241.477 160.469 243.577C159.691 245.366 158.602 246.921 157.669 248.632C156.658 249.254 156.114 251.121 154.636 250.188C153.469 249.488 153.936 248.166 154.48 247.155C157.047 242.333 160.935 238.133 161.324 232.222C161.329 231.924 161.394 231.63 161.515 231.358C161.636 231.086 161.81 230.841 162.028 230.638C162.246 230.434 162.502 230.277 162.782 230.175C163.062 230.073 163.36 230.029 163.657 230.045C165.057 230.2 164.902 231.6 164.902 232.533C164.824 239.688 168.79 244.044 175.09 246.066C181.934 248.321 187.923 245.988 192.511 240.699C194.844 238.055 195.7 237.511 198.733 240.544C204.955 246.843 213.043 249.177 221.909 247.232C226.265 246.299 227.742 243.655 226.965 239.3C226.806 238.401 226.728 237.49 226.731 236.577C226.731 235.022 227.976 234.633 228.676 235.644C235.986 246.221 246.719 255.01 246.874 269.32C246.952 273.053 247.419 276.864 246.175 280.519C243.686 281.375 243.375 279.664 243.141 277.953C242.779 274.387 242.649 270.802 242.753 267.22C242.597 263.954 242.286 260.765 240.575 257.965Z" fill="#3A1A1B"/>
<path d="M154.403 247.077C153.936 250.888 155.802 249.643 157.669 248.554C154.636 255.243 151.525 261.854 149.658 269.087C145.77 284.019 151.603 295.296 162.413 304.862C165.291 307.429 168.324 309.84 172.213 310.851C172.213 312.25 171.513 312.017 170.657 311.551C148.803 304.24 139.159 284.174 147.092 262.398C148.924 257.024 151.378 251.882 154.403 247.077Z" fill="#3A1A1B"/>
<path d="M240.575 257.965C242.908 260.065 242.908 262.942 243.064 265.742C243.219 269.709 242.986 273.675 243.841 277.564C244.152 279.119 244.386 280.364 246.175 280.441C245.786 294.596 234.664 308.751 221.132 312.328C218.41 313.028 215.61 313.417 212.81 314.039C211.799 313.961 210.788 313.884 209.31 313.728C211.643 311.784 214.132 311.006 216.543 310.228C232.798 305.251 241.43 290.863 242.286 275.231C242.519 269.32 242.208 263.565 240.575 257.965Z" fill="#3A1A1B"/>
<path d="M170.657 311.551C171.202 311.317 171.668 311.084 172.213 310.851C175.946 311.706 179.757 312.484 183.101 314.584C178.668 314.661 174.624 313.425 170.657 311.551Z" fill="#3A1A1B"/>
<path d="M115.967 2.72205C131.032 2.72205 136.429 8.94388 136.429 18.2766C136.429 29.3982 128.901 43.6306 123.332 51.4857C118.588 50.599 116.131 48.0792 116.131 43.9261C116.131 35.7755 125.463 21.9864 125.463 13.9836C125.463 10.4293 123.659 8.3528 116.784 8.3528C95.9951 8.3528 80.9305 27.3294 80.9305 38.8942C80.9305 60.2429 133.155 59.6518 133.155 90.3332C133.155 110.788 110.072 122.352 88.2956 122.352C69.1401 122.352 50.8013 113.455 50.8013 95.2252C50.8013 79.2117 64.7148 74.6153 76.0152 74.6153C68.9768 81.2882 65.3759 88.7 65.3759 95.2252C65.3759 105.336 74.0554 114.497 91.041 114.497C105.779 114.497 121.326 107.677 121.326 94.4863C121.326 70.0267 68.2768 69.7312 68.2768 42.3007C68.3313 25.9995 86.989 2.72205 115.967 2.72205Z" fill="#073042" stroke="#073042" stroke-width="7" stroke-miterlimit="10"/>
<path d="M154.605 110.344C154.605 109.007 156.572 108.859 158.532 108.859C179.158 108.415 192.916 91.9587 192.916 78.6206C192.916 72.6943 190.131 67.6469 183.746 67.6469C172.617 67.6624 160.99 82.4393 157.062 90.481C147.73 119.832 143.312 150.965 133.979 150.965C131.358 150.965 127.594 148.632 127.431 147.255C141.181 111.379 142.822 103.967 149.371 57.5675C149.697 55.2343 149.861 54.161 153.298 54.161C160.01 54.161 162.958 58.0497 162.958 62.0161C162.958 64.0926 162.141 69.2801 160.663 75.953C166.722 67.5069 175.891 59.053 187.347 59.053C197.986 59.053 205.849 66.1692 205.849 76.8396C205.849 92.1064 189.805 114.171 166.068 114.171C159.03 114.202 154.605 112.273 154.605 110.344Z" fill="#073042" stroke="#073042" stroke-width="7" stroke-miterlimit="10"/>
<path d="M225.985 82.9215C225.005 87.9612 224.18 93.032 224.18 96.8584C224.18 103.975 226.965 107.086 231.219 107.086C239.408 107.086 248.897 95.2252 254.955 83.5126L258.883 85.4413C249.55 103.08 237.596 113.906 224.989 113.906C214.677 113.906 211.239 106.79 211.239 98.1961C211.239 69.1401 250.857 2.72983 263.3 2.72983C267.391 2.72983 270.012 9.99382 270.175 14.5902C270.191 27.7727 250.872 65.1348 225.985 82.9215ZM228.932 73.7287C247.435 55.491 262.662 26.1395 262.662 16.1768C258.564 16.2157 238.265 46.8971 228.932 73.7287Z" fill="#073042" stroke="#073042" stroke-width="7" stroke-miterlimit="10"/>
<path d="M279.205 63.3538C279.205 68.3935 262.344 85.7368 262.344 98.7871C262.344 105.165 264.965 106.642 269.709 106.642C277.074 106.642 285.917 100.864 295.374 83.9636L297.831 86.2968C290.14 103.788 277.859 113.867 264.272 113.867C254.613 113.867 249.861 107.941 249.861 100.646C249.861 89.3766 261.978 58.9907 274.258 58.9907C276.872 59.053 279.205 60.5384 279.205 63.3538ZM275.441 41.2663C275.425 36.5533 282.463 32.6646 288.538 32.6646C292.426 32.6646 295.537 34.0023 295.537 38.1554C295.537 42.3085 289.479 47.0526 283.583 47.0526C279.516 47.0448 275.425 45.2716 275.425 41.2663H275.441Z" fill="#073042" stroke="#073042" stroke-width="7" stroke-miterlimit="10"/>
<path d="M344.192 66.0214C331.258 67.2036 320.946 67.8024 311.286 67.8024C306.705 77.5863 302.77 87.9612 302.77 97.5972C302.77 105.748 305.554 108.719 311.613 108.719C322.415 108.719 334.859 99.0827 343.375 83.6681L345.67 85.1536C336.99 102.792 321.933 116.263 306.215 116.263C296.556 116.263 290.171 111.223 290.171 100.708C290.171 92.7053 293.935 79.8028 299.177 66.908C297.229 66.6386 295.311 66.1908 293.445 65.5703V60.9817C296.883 61.425 298.85 61.5728 301.3 61.7595C310.633 40.7063 323.403 20.9909 330.768 20.9909C332.899 20.9909 335.349 22.6241 335.349 25.2917C335.349 31.218 323.395 45.5983 314.226 62.2028C326.18 62.2028 334.688 62.055 344.184 61.1684L344.192 66.0214Z" fill="#073042" stroke="#073042" stroke-width="7" stroke-miterlimit="10"/>
</g>
<defs>
<clipPath id="clip0_9_78">
<rect width="395.81" height="409" fill="white"/>
</clipPath>
</defs>
</svg>
