<svg viewBox="0 0 511 411" fill="none" xmlns="http://www.w3.org/2000/svg">
<g clip-path="url(#clip0_0_1)">
<path d="M454.51 410.83H46.51C42.88 407.83 38.51 406.04 34.51 403.83C26.9013 399.56 20.865 392.959 17.29 385C14.79 379.71 15.51 376.92 20.19 373.34C26.04 368.86 32.64 365.68 39.38 362.79C45.22 360.28 45.27 360.28 43.27 354.46C42.5354 352.422 42.2655 350.245 42.48 348.09C42.6945 345.934 43.3881 343.853 44.51 342C47.75 338.71 52.25 338.28 56.32 337C60.39 335.72 62.06 333.71 61.32 329.38C60.07 322 58.32 314.72 57.18 307.38C54.1 287.38 49.83 267.51 50.03 247.09C50.09 241.54 52.3 236.36 52.03 230.83C52.3754 224.009 53.1671 217.218 54.4 210.5C55.2522 207.43 55.8311 204.292 56.13 201.12C58.6334 183.476 62.2642 166.01 67 148.83C69.56 139.177 72.27 129.563 75.13 119.99C78.13 109.99 84.64 102.22 92.76 96.53C96.64 93.81 103.3 94.16 108.05 97.31C134.29 114.7 160.52 132.11 183.2 154.2C185.226 156.178 187.41 157.987 189.73 159.61C191.959 161.082 193.841 163.022 195.245 165.294C196.649 167.567 197.541 170.118 197.86 172.77C201.43 184.08 202.47 195.89 204.76 207.45C206.54 216.45 208.48 225.35 211.76 233.92C212.594 236.092 213.597 238.195 214.76 240.21C217.83 245.52 221.81 250.21 228.47 249.08C235.13 247.95 240.03 243.54 242.47 236.93C245.69 228.21 243.24 219.76 240.67 211.55C236.16 197.12 231.23 182.81 226.73 168.37C225.9 165.72 224.51 162.99 227.02 160.43C236.56 155.83 246.92 153.43 256.75 149.6C263.15 147.09 269.32 143.7 276.38 143.1C278.87 143.89 279.24 146.1 279.77 148.19C284.77 168.08 292.7 186.96 300.18 205.99C301.185 208.462 302.557 210.767 304.25 212.83C307.89 217.35 312.53 220.37 318.51 219.23C321.413 218.777 324.128 217.51 326.339 215.575C328.55 213.64 330.166 211.117 331 208.3C333 202.3 332 196.42 330.16 190.67C326.046 178.366 320.803 166.469 314.5 155.13C311.02 148.7 307.5 142.31 303.73 136.01C302.29 133.58 301.01 131.01 301.48 128.01C310.15 93.73 322.07 60.55 335.36 27.83C337.029 24.0163 339.119 20.4006 341.59 17.05C343.96 13.63 347.01 12.91 350.71 14.84C360.46 19.9 370.71 24.3 379.32 31.12C388.75 38.55 396.66 47.59 404.23 56.93C424.88 82.41 441.16 110.67 457.1 139.17C457.752 140.474 458.511 141.722 459.37 142.9C459.544 143.166 459.786 143.381 460.071 143.524C460.355 143.666 460.672 143.73 460.99 143.71C461.723 140.99 462.795 138.373 464.18 135.92C466.38 132.57 467.89 128.85 469.86 125.38C473.05 119.75 477.56 119.2 481.79 124.19C488.17 131.72 491.68 140.69 493.79 150.19C495.5 157.81 496.79 165.53 499.1 173.02C500.63 177.96 502.68 182.02 508.8 181.86C509.46 181.86 509.99 182.41 510.51 182.86V355.86C503.74 360.54 495.83 361.62 488 362.96C486.454 363.03 484.923 363.289 483.44 363.73C485.767 365.71 488.204 367.556 490.74 369.26C496.64 373.26 498.96 378.69 497.5 385.59C496.903 388.968 495.382 392.114 493.105 394.679C490.827 397.244 487.883 399.128 484.6 400.12C479.696 401.7 474.626 402.707 469.49 403.12C463.37 403.64 458.28 405.88 454.51 410.83Z" fill="#6DD58C"/>
<path d="M196.69 172.74C196.15 166.27 191.37 162.93 187.09 158.92C162.51 135.83 135.09 116.47 107.01 97.83C103.58 95.56 95.42 96.41 92.07 98.9C82.66 105.9 77.59 115.33 74.49 126.46C67.67 151 61 175.46 57.41 200.73C57.15 201.73 53.34 230.64 53.34 230.64C49.85 241.42 50.85 252.64 50.05 263.64C49.45 271.94 48.72 280.23 49.05 288.57C49.18 292.4 49.39 296.2 49.74 300.02C51.2367 314.476 49.5051 329.084 44.67 342.79C43.67 347.79 43.18 352.55 46.01 357.29C47.9 360.47 44.93 361.75 42.66 362.69C36.2 365.38 29.81 368.16 23.94 372.03C15.6 377.52 15.3 379.42 20.51 388.14C25.72 396.86 33.51 402.23 42.37 406.43C44.37 407.35 46.55 407.95 46.57 410.73H17.51C10.11 404.31 3.84999 397 0.999992 387.35C0.349992 383.04 -1.37001 378.62 2.21999 374.72C4.75999 364.66 12.79 359.83 21.31 356.1C25.72 354.1 26.91 351.68 26.48 347.33C25.7497 338.875 26.6597 330.359 29.16 322.25C32.2084 312.218 33.1882 301.672 32.04 291.25C30.47 278.13 31.78 265 33.57 251.93C35.19 240.06 34.1 227.93 36.57 216.16C38.87 204.97 40.71 193.69 43.29 182.54C45.29 173.873 47.4133 165.207 49.66 156.54C55.2 135.17 62 114.2 72.58 94.66C74.9547 90.5403 77.9728 86.8268 81.52 83.66C82.6943 82.7236 84.1304 82.175 85.63 82.09C93.63 80.8 101.71 81.49 109.7 81.98C113.12 82.19 116.56 84.11 119.7 85.75C127.25 89.63 134.78 93.55 142.15 97.82C161.85 109.22 177.32 125.6 193.91 140.68C197.11 143.59 200.31 146.49 203.47 149.44C205.3 151.15 207.37 151.84 209.14 149.83C211.41 147.25 214.45 146.83 217.37 145.68C225.37 142.51 233.09 138.68 240.98 135.18C249.89 131.28 258.79 127.3 267.86 123.8C272.78 121.9 277.47 119.48 282.66 118.04C287.05 116.82 289.4 112.37 289.15 107.72C288.57 96.89 294.15 87.92 297.55 78.34C300.05 71.4 303.29 64.74 306.09 57.9C311.52 44.61 317.4 31.49 323.5 18.5C326.94 11.17 332.32 4.9 339.98 2.09C348.116 -0.872595 357.066 -0.683532 365.07 2.62C370.07 4.62 374.29 7.77 378.46 11.04C383.438 16.8563 388.865 22.2729 394.69 27.24C403.04 34.41 410.19 42.76 417.77 50.69C427.06 60.43 434.42 71.55 441.77 82.77C448.77 93.44 453.95 105.05 460.4 116.43C464.63 110.06 470.02 105.74 477.87 106.89C481.319 107.39 484.621 108.623 487.554 110.507C490.486 112.391 492.981 114.881 494.87 117.81C499.87 125.21 504.87 132.69 506.15 141.86C506.379 142.633 506.716 143.37 507.15 144.05C508.9 145.05 508.66 146.86 508.8 148.49C508.88 149.49 508.8 150.58 508.8 151.62C509.11 154.39 507.8 157.49 510.45 159.8V182.8C501.59 183.3 501.21 183.02 498.17 174.69C495.3 166.83 494.31 158.53 492.47 150.43C490.47 141.43 487.06 132.92 481.32 125.58C476.99 120.05 473.79 120.44 470.58 126.58C468.74 130.09 467.66 134.03 464.74 136.93C463.34 137.77 462.74 139.4 461.34 140.29C459.52 141.45 457.84 142 456.34 139.84C449.15 127.67 441.92 115.53 434.77 103.33C422.43 82.5682 408.156 63.0181 392.14 44.94C382.51 33.94 370.74 26.04 357.64 19.94C355.98 19.16 354.32 18.38 352.72 17.5C345.37 13.5 345.01 13.41 340.58 20.5C334.79 29.73 331.4 40.07 327.69 50.2C320 71.27 312.69 92.51 306.1 114C304.69 118.59 303.72 123.32 302.54 128C298.86 137.62 288.79 143.75 276.41 143.9L227.61 161C218.71 166.3 208.74 169.24 199.49 173.77C198.33 174.29 197.2 174.27 196.69 172.74Z" fill="#073042"/>
<path d="M454.51 410.83C455.51 405.89 460.73 402.44 468.28 401.83C473.735 401.431 479.128 400.425 484.36 398.83C490.97 396.77 494.92 391.96 496.36 385.41C497.74 379.17 495.85 373.97 490.01 370.51C487.352 368.828 484.798 366.988 482.36 365C481.678 364.529 481.204 363.812 481.04 363C481.04 362 482.1 361.89 482.93 361.9C492.6 362.07 501.44 358.43 510.51 355.9C510.51 373.23 510.45 390.57 510.58 407.9C510.58 410.4 510.02 410.98 507.51 410.97C489.84 410.77 472.18 410.83 454.51 410.83Z" fill="#6DD58C"/>
<path d="M324.51 277.77C353.61 276.92 369.62 291.46 380.63 313.53C387.56 327.42 390.15 342.04 385.34 356.87C377.81 380.09 362.58 395.68 337.94 400.87C329.698 402.642 321.346 403.851 312.94 404.49C304.796 404.993 296.676 403.169 289.53 399.23C281.444 394.992 274.031 389.58 267.53 383.17C258.53 374.4 254.53 363.65 253.53 351.31C251.81 331.11 257.82 313.66 270.83 298.4C276.62 291.62 284.67 288.4 292.54 285.04C303.51 280.36 314.87 276.57 324.51 277.77Z" fill="#073042" fill-opacity="0.188235"/>
<path d="M120.51 222.89C112.28 224.95 109.42 231.45 107.57 238.7C105.45 246.99 103.52 255.33 99.91 263.17C96.47 270.66 86.83 271.68 82.3 268.75C78.68 266.4 77.63 262.42 76.92 258.95C74.06 245.07 71.4 231.26 73.18 216.72C74.46 206.29 73.96 195.46 75.84 185.12C77.38 176.64 76.97 168.05 78.84 159.59C80.24 153.25 81.51 146.83 82.51 140.33C84.02 130.58 87.64 121.7 94.51 114.39C95.51 113.34 96.67 110.59 98.51 113.77C97.99 116.52 100.01 118.34 101.12 120.4C113.77 143.86 124.12 168.4 134.12 193.05C136.47 200.11 139.4 206.97 141.12 214.21C141.65 216.36 143.62 219.01 141.32 220.61C139.02 222.21 137.13 219.55 135.15 218.49C134.28 218.02 133.51 217.37 132.63 216.92C127.21 214.23 123.9 214.92 120.38 219.06C119.13 220.59 119.32 221.64 120.51 222.89Z" fill="#073042" fill-opacity="0.631373"/>
<path d="M148.22 339.37C146.4 316.91 167.38 294.9 190.42 299.18C219.94 304.66 236.35 334.69 217.05 362.18C216.05 363.67 214.74 365.02 213.66 366.49C197.82 388.1 164.83 382.06 153.34 359.81C149.82 353 146.68 346.48 148.22 339.37Z" fill="#073042"/>
<path d="M377.61 250.43C377.092 242.351 378.822 234.285 382.61 227.13C386.61 219.19 392.29 213.9 401.91 213.66C409.01 213.48 416.05 211.34 423.22 213.19C447.8 219.52 452.78 245.74 448.13 261.72C442.13 282.39 425.62 287.5 410.24 288.27C404.07 288.58 398.05 285.47 393.24 281.68C383.46 273.92 375.86 264.58 377.61 250.43Z" fill="#073042"/>
<path d="M276.51 143.83C280.88 142.44 285.32 141.21 289.61 139.61C295.43 137.44 299.35 133.01 302.61 127.93C302.13 131.93 304.54 134.93 306.37 138C314.938 152.263 322.425 167.148 328.77 182.53C331.99 190.53 335.07 198.67 332.58 207.66C330.58 214.82 325.87 219.35 318.88 220.66C311.54 222.03 305.99 218.15 302.19 212.1C296.03 202.29 293.02 191.1 288.95 180.41C284.76 169.41 280.45 158.41 278.25 146.74C278.18 146.16 277.989 145.601 277.689 145.1C277.389 144.599 276.988 144.166 276.51 143.83Z" fill="#194E4F"/>
<path d="M196.69 172.74C200.61 172.89 203.62 170.42 207 169.06C213.85 166.31 220.37 162.73 227.6 160.96C226.28 162.36 226.51 163.74 227.11 165.51C232.24 180.76 237.46 195.99 242.18 211.38C244.85 220.08 247.1 229 243.66 238.19C240.22 247.38 229.09 253.06 221.32 249.19C217.03 247.07 214.73 243.19 212.71 239.19C206.97 227.79 204.81 215.36 202.52 202.97C200.67 192.83 199.51 182.63 196.69 172.74Z" fill="#194E4F"/>
<path d="M358.51 31.77C357.01 30.65 357.37 29.2 357.62 28.14C376.62 43.79 390.77 64.14 407.56 82.14C422.46 98.07 432.41 116.88 442.1 136.01C443.966 139.739 444.798 143.9 444.51 148.06C444.43 149.52 444.26 150.75 442.44 150.83C440.7 148.7 438.1 148.38 435.71 148C429.85 147.08 426.24 143.69 423.89 138.47C422.762 135.7 421.34 133.058 419.65 130.59C414.58 123.73 410.92 123.06 403.65 127.64C398.53 130.32 397.76 130.16 395.51 124.88C391.88 116.34 388.97 107.52 385.38 98.95C382.46 91.9233 379.423 84.94 376.27 78C376.011 77.5822 375.787 77.1441 375.6 76.69C374.833 73.9203 373.777 71.2389 372.45 68.69C369.64 61.05 367.07 53.33 364.45 45.62C363.15 40.73 362.13 35.69 358.51 31.77Z" fill="#073042" fill-opacity="0.631373"/>
<path d="M44.62 342.88C44.04 339.5 44.84 336.19 45.76 333.05C49.21 321.17 48.92 309.21 47.82 297.05C46.68 284.46 47.74 271.85 48.92 259.27C49.49 253.16 50.07 247.05 50.4 240.93C50.6 237.23 51.21 233.76 53.4 230.68C54.08 236.07 51.66 241.05 51.4 246.38C50.81 261.24 54.24 275.64 55.82 290.24C57.31 304.05 61.12 317.45 63.17 331.16C63.71 334.75 62.54 336.89 58.99 337.81C54 339.09 49.06 340.23 44.62 342.88Z" fill="#6DD58C"/>
<path d="M376.57 76.77C380.57 82.85 382.95 89.77 385.74 96.38C389.59 105.55 393.34 114.78 396.54 124.18C398.08 128.71 400.02 128.93 403.44 126.66C404.18 129.45 401.97 130.41 400.25 131.53C395.96 134.33 395.86 134.92 399.5 138.84C399.5 140.48 398.81 142.02 397.2 142.17C395.1 142.37 395.34 140.17 395 138.92C393 131.27 388.15 124.72 386.29 117.01C386.582 115.877 386.526 114.681 386.13 113.58C382.13 104.58 381.05 94.71 377.13 85.69C375.95 83 374.28 79.89 376.57 76.77Z" fill="#073042"/>
<path d="M399.51 138.83C396.44 140.72 396.3 137.97 395.92 136.32C395.48 134.45 394.35 131.98 397.69 131.32C398.967 131.081 400.163 130.526 401.169 129.705C402.176 128.883 402.96 127.823 403.45 126.62C409.88 121.72 414.16 122.08 419.35 127.85C421.475 130.172 423.12 132.89 424.19 135.85C426.57 142.66 431.04 146.5 438.33 147.17C440.21 147.35 443.03 147.32 442.49 150.73C439.67 150.73 436.84 150.96 434.03 150.78C432.363 150.705 430.745 150.191 429.341 149.29C427.936 148.389 426.794 147.134 426.03 145.65C423.672 141.445 421.085 137.372 418.28 133.45C412.66 125.81 405.54 126.6 401.28 135.15C400.63 136.44 400.07 137.65 399.51 138.83Z" fill="#073042"/>
<path d="M376.57 76.77C376.49 83.96 381.06 89.77 382.26 96.61C383.26 102.11 385.15 107.3 386.91 112.55C387.46 114.18 388.02 115.74 386.29 117.01C376.66 93.6 370.06 69.24 363.51 44.83C363.29 44.41 363.18 43.91 363.71 43.76C364.61 43.5 365.06 44.11 365.34 44.86L373.6 68.67C374.67 71.34 375.15 74.23 376.6 76.76L376.57 76.77Z" fill="#073042"/>
<path d="M133.4 193C129.18 183.11 125 173.2 120.72 163.33C113.92 147.65 106.43 132.317 98.25 117.33C97.66 116.24 95.02 114.71 98.51 113.82C108.34 129.33 115.02 146.39 122.51 163.02C126.67 172.23 131.18 181.31 134.38 190.93C133.76 191.44 134.32 192.57 133.4 193Z" fill="#073042"/>
<path d="M133.4 193L134.4 190.9C139.07 203.31 144.69 215.43 145.9 229.24C142.83 224.56 137.97 222.43 133.42 219.87C133.86 218.32 131.49 217.34 132.55 215.66L141.36 220.72C139.6 210.74 135.51 202.14 133.4 193Z" fill="#073042"/>
<path d="M132.51 215.66C131.42 217.35 137.11 217.66 133.38 219.87C128.26 217.4 124.56 221.05 120.45 222.87C119.29 222.49 117.6 223.56 116.98 221.94C116.5 220.69 117.81 219.94 118.56 219.12C123.72 213.47 127.32 212.58 132.51 215.66Z" fill="#073042"/>
<path d="M456.42 139.83C460.28 141.96 461.81 137.33 464.8 136.93C463.24 139.77 461.95 142.71 462.36 146.88C458.76 145 457.51 142.49 456.42 139.83Z" fill="#073042"/>
<path d="M365.34 44.89C364.73 44.65 364.14 43.89 363.51 44.89L358.51 31.79C363.6 34.7 364 40 365.34 44.89Z" fill="#073042"/>
<path d="M332.18 332.1C330.98 331.96 328.94 332.21 327.4 331.45C322.51 329.03 320.1 330.77 317.95 335.45C314.583 342.56 309.411 348.663 302.95 353.15C291.38 361.42 272.19 352.78 270.71 338.7C270.47 336.41 270.89 333.95 273.09 333.14C275.09 332.41 276.29 334.68 277.09 336.14C281.09 343.14 286.56 346.88 294.98 346.28C297.725 346.15 300.404 345.4 302.817 344.086C305.23 342.771 307.313 340.926 308.91 338.69C312.461 334.282 315.407 329.419 317.67 324.23C318.94 321.08 320.67 320.47 323.84 321.59C334.26 325.2 342.7 322.39 349.39 313.59C352.39 309.59 352.25 305.27 351.27 300.76C350.89 298.98 350.13 296.87 352.4 295.99C354.31 295.25 355.96 296.55 357.15 297.99C365.45 308.06 364.31 318.51 353.15 325.99C347.12 330 340.1 331.78 332.18 332.1Z" fill="#073042"/>
</g>
<defs>
<clipPath id="clip0_0_1">
<rect width="510.58" height="410.97" fill="white"/>
</clipPath>
</defs>
</svg>
