<svg xmlns="http://www.w3.org/2000/svg" viewBox="0 0 526.08 572.82"><defs><style>.cls-1{fill:#ffd5a6;}.cls-2{fill:#fff;}.cls-3{fill:#d4946f;}.cls-4{fill:#402223;}.cls-5{fill:#6c2a28;}.cls-6{fill:#912322;}.cls-7{fill:#b07365;}.cls-8{fill:#ffa19c;}</style></defs><title>Billa (Light Version)</title><g id="Layer_2" data-name="Layer 2"><g id="Default"><path class="cls-1" d="M318.08,96.13c-47.82-31.72-129,16-144.71,24.73C132.1,95.93,78.55,56.71,59.61,70.93,26.7,95.63,76.45,271.6,17,322.62,62.51,390,22.12,503.5,35.76,572H503.18c-6.55-10.5-53.57-157.35-53.57-161.28S488.22,387,490.76,384s1.62-21.52.46-27.53c9,.23,27.53-56.45,26.84-63.62s-16-5.78-14.58-8.79,6-36.72,8.1-52.26c-30.25,9.28-59.15-71-77.49-81.61,5.66-28.28-5.19-49-11.47-56.42-6.42,2.88-11.28,9.4-14.39,15.41-10.34-32.51-94.75-101-104.89-101-6.41,0-52.32,44.32-42.62,78.95"/><path class="cls-2" d="M181,567.32c-4.5-53.65-20.33-118.72-25.6-127.52,11-10.41,40.11-32.26,17-57.75,18.61-17.8-.4-52.6-30.75-52.2,37.63-32-12.54-66.84-45.32-13.2-6.07-21.19-45.61-75.07-63,64.93l-.55,98.64L181,567.32"/><path class="cls-3" d="M479.59,572H181.07c-2.54-27.3-3.27-32.73-3.27-32.73l-6.56-39-11.32-48-4.55-12.46s1.89-6.32,12.18-10.37,26.91-5.91,19.24,22.81c10,2,51.43-2.32,54.82-7.26C237,453.18,239,466.3,239,466.3c38.91-5.61,50.14-31.71,59.32-31.4S413.63,419,420,419C422.33,427.38,478.84,559.24,479.59,572Z"/><path class="cls-3" d="M38.23,448.65C35.46,493.43,29,538.2,35.76,572H181.37c-1.64-17.41-17.54-120.22-19.77-113.85C154,479.88,74,487.23,38.23,448.65"/><path class="cls-2" d="M425.54,291.41c-4.89,32.44-26.86,54.74-62.3,58.3-40.43,4.06-59-21.89-62.08-57.78-2.87-33.11,23.22-64.71,58.46-64.71S430.91,255.79,425.54,291.41Z"/><path class="cls-4" d="M267.74,263a13.29,13.29,0,0,1,4.76,5.93,24.25,24.25,0,0,1,1.94,7.57,33.78,33.78,0,0,1-2.34,15.39,37.31,37.31,0,0,1-40.74,23,41.31,41.31,0,0,1-14.66-5.45,42.84,42.84,0,0,1-5.9-4.43q-.68-.6-1.34-1.22a16,16,0,0,1-1.28-1.27q-1.21-1.33-2.34-2.7a44.43,44.43,0,0,1-4-5.88,37.84,37.84,0,0,1-2.87-6.64,68.48,68.48,0,0,1,7,1c1.13.15,2.19.36,3.25.54.54.08,1,.21,1.55.31s1,.16,1.56.23c1,.16,2,.33,3,.52s2,.26,2.9.42c1.88.35,3.72.44,5.46.71a66.48,66.48,0,0,0,9.54.18,34.87,34.87,0,0,0,7.78-1.37,34.22,34.22,0,0,0,7.13-3.09,46,46,0,0,0,7.29-5.24,54.86,54.86,0,0,0,7-7.58c.55-.72,1.1-1.5,1.61-2.29l.78-1.23.71-1.28A20.68,20.68,0,0,0,267.74,263Z"/><path class="cls-4" d="M438.38,182.53a14.65,14.65,0,0,1,5.09,4.22,25.19,25.19,0,0,1,1.88,2.72,31.28,31.28,0,0,1,1.49,2.91A33.34,33.34,0,0,1,449.59,205a35.29,35.29,0,0,1-2.21,13.26,31.49,31.49,0,0,1-8.58,12.61c-.53.46-1.07.91-1.61,1.35s-1.19.83-1.79,1.23a26.58,26.58,0,0,1-3.87,2.08c-.34.15-.67.3-1,.44l-1.06.35c-.71.23-1.41.46-2.13.65a35.36,35.36,0,0,1-4.33.71c-1.42.06-2.84.06-4.23,0s-2.68-.38-4-.64-2.44-.74-3.62-1.15-2.19-1-3.25-1.55l-.78-.41-.72-.47-1.4-1-1.36-1c-.43-.34-.82-.73-1.22-1.09-.8-.73-1.58-1.48-2.3-2.25s-1.35-1.63-2-2.46a33.06,33.06,0,0,1-3.2-5.35,30.08,30.08,0,0,1-2.07-6,59.11,59.11,0,0,1,6.2.42c1,.05,1.91.17,2.84.25.47,0,.9.11,1.34.17s.89.06,1.34.08c.87.06,1.72.14,2.53.23s1.62,0,2.39.1l1.13.06,1.09,0h1.55l.48-.06a13.49,13.49,0,0,0,5.64-1.31,18.53,18.53,0,0,0,2.88-2.12,25.8,25.8,0,0,0,3.79-4.18,70.26,70.26,0,0,0,4.26-6.66c1.43-2.52,2.88-5.26,4.3-8.27.73-1.51,1.38-3.08,2.06-4.78A38.16,38.16,0,0,0,438.38,182.53Z"/><path class="cls-4" d="M399.46,257.94c2.49,3.66,10.56,35.66-32.91,28.93-9.86,21.64-37.73,24.08-45.3-2.51-5.43,41.34,45.94,34,48.9,10.22,12.51,2.08,29.48,3.09,36.7-4.92C416.16,279.3,417.33,259.86,399.46,257.94Z"/><path class="cls-5" d="M260.73,87.13a39.22,39.22,0,0,1-2.59-15.21,59.35,59.35,0,0,1,2.47-15.55,107.76,107.76,0,0,1,13.46-28.52,131.63,131.63,0,0,1,9.43-12.81C285.21,13,287,11,288.92,9a57.61,57.61,0,0,1,6.47-5.86,22.4,22.4,0,0,1,2.29-1.5,13.33,13.33,0,0,1,1.64-.8l.56-.21c.19-.07.35-.13.65-.21a10,10,0,0,1,1.94-.37,10.13,10.13,0,0,1,2.09,0l.74.1.6.11a16.36,16.36,0,0,1,1.83.52,21.64,21.64,0,0,1,2.55,1.07,68.58,68.58,0,0,1,7.4,4.44c4.51,2.94,8.73,6,12.88,9.07,8.28,6.22,16.22,12.73,24,19.44s15.33,13.66,22.68,20.89A308.32,308.32,0,0,1,398.4,78.52a153.18,153.18,0,0,1,9.6,12.8c1.51,2.27,3,4.64,4.29,7.16a50.93,50.93,0,0,1,3.57,8.27l-14.73-1.25A52.75,52.75,0,0,1,408.19,95a37.83,37.83,0,0,1,4.91-4.7,29.68,29.68,0,0,1,6.25-3.84L424.88,84l3.86,4.62a50.8,50.8,0,0,1,5,7.26,67.27,67.27,0,0,1,3.73,7.52,77.47,77.47,0,0,1,4.76,15.82,82,82,0,0,1,1.42,16.35,89.78,89.78,0,0,1-1.73,16.2l-3.84-8.49a26.46,26.46,0,0,1,4.27,3.16,43,43,0,0,1,3.19,3.2c1.91,2.13,3.56,4.25,5.11,6.37,3.09,4.24,5.81,8.46,8.47,12.68,5.3,8.42,10.28,16.77,15.52,24.79,2.62,4,5.3,7.92,8.09,11.65a103.79,103.79,0,0,0,8.77,10.42A38.9,38.9,0,0,0,501,223a14.26,14.26,0,0,0,4.4,1.47,9.15,9.15,0,0,0,3.84-.3l11.93-3.34-1.66,12.08c-1.61,11.71-3.21,23.44-5,35.22-.45,2.95-.9,5.9-1.4,8.88-.25,1.49-.51,3-.81,4.55-.15.78-.3,1.56-.5,2.43l-.16.68c-.07.26-.1.43-.2.77l-.14.47-.07.23-.15.42c-.1.28-.24.62-.34.85a6,6,0,0,0,.32-.83,6.54,6.54,0,0,0,.25-1.13,6.88,6.88,0,0,0,.06-1.42,7.23,7.23,0,0,0-.24-1.51,7.46,7.46,0,0,0-.51-1.35,6.55,6.55,0,0,0-.32-.57c-.11-.18-.19-.3-.3-.45a6.38,6.38,0,0,0-1.81-1.71,3.28,3.28,0,0,0-.67-.35c.14.05.74.21,1.38.35,1.32.3,2.95.64,4.74,1.16a23.17,23.17,0,0,1,6.19,2.69,14.36,14.36,0,0,1,3.65,3.33,12.66,12.66,0,0,1,2.4,5.48,13.16,13.16,0,0,1,.17,1.53c0,.49,0,.92,0,1.25,0,.7-.08,1.24-.14,1.76-.12,1-.27,1.88-.43,2.73-.32,1.68-.68,3.23-1.06,4.76-.76,3.05-1.6,6-2.48,8.93-1.77,5.84-3.71,11.58-5.83,17.28s-4.42,11.36-7.14,17a84.36,84.36,0,0,1-4.71,8.61,35,35,0,0,1-3.45,4.61,18.26,18.26,0,0,1-2.92,2.65,12.77,12.77,0,0,1-2.57,1.43,10.74,10.74,0,0,1-4.31.81l8.06-9.51c.31,1.68.48,3.07.63,4.49s.26,2.77.36,4.14c.19,2.74.3,5.45.31,8.23a71.38,71.38,0,0,1-.41,8.73c-.09.79-.23,1.65-.42,2.58a17,17,0,0,1-1.12,3.55l-.33.66a7.48,7.48,0,0,1-.43.74c-.19.3-.4.58-.62.86a8.89,8.89,0,0,1-.77.87,14.49,14.49,0,0,1-1.63,1.37c-.78.57-1.39,1-2,1.37-2.42,1.55-4.66,2.85-6.92,4.18L479,400.62c-4.45,2.57-8.87,5.12-13.15,7.73-2.13,1.3-4.19,2.7-6.08,4.08l-2.63,1.91c-.38.27-.7.55-.83.61s-.05,0,.14-.27a6.39,6.39,0,0,0,.54-1,6.86,6.86,0,0,0,.43-1.32c0-.16.07-.33.09-.5s.06-.42.07-.63,0-.54,0-.55v-.23c0-.15,0-.3,0-.45l0-.22,0-.12v.1l0,.17c0,.22.09.48.15.77l.39,1.75.88,3.66,1.88,7.42c2.57,9.93,5.24,19.87,7.93,29.81l8.18,29.79q4.08,14.9,8.26,29.78l8.49,29.72c1.44,4.95,2.9,9.88,4.42,14.8q1.15,3.69,2.34,7.36a60.87,60.87,0,0,0,2.72,7.22,61.2,61.2,0,0,1-3.53-6.9c-1.08-2.35-2.11-4.72-3.13-7.09-2-4.75-4-9.52-6-14.3-3.91-9.56-7.67-19.17-11.4-28.79s-7.41-19.27-11.07-28.92-7.2-19.34-10.76-29-7.07-19.4-10.51-29.18l-2.56-7.37L443,416.67l-.62-2c-.1-.33-.21-.7-.32-1.11l-.08-.3-.1-.42-.09-.43,0-.24,0-.34c0-.23-.05-.46-.07-.69l0-.35s0-.46,0-.67,0-.55.08-.75.07-.41.11-.61a9.15,9.15,0,0,1,.59-1.78,10.88,10.88,0,0,1,1-1.81,15.59,15.59,0,0,1,1.42-1.72,22.58,22.58,0,0,1,2.07-1.93,38.81,38.81,0,0,1,3.62-2.64c2.36-1.52,4.68-2.85,6.94-4.23,4.52-2.76,9-5.35,13.49-7.93l6.65-3.85c2.18-1.27,4.4-2.57,6.31-3.8.46-.3.92-.6,1.18-.8.09-.06.25-.22-.14.15-.07.06-.38.41-.46.5a4,4,0,0,0-.34.47l-.19.32a2.15,2.15,0,0,0-.11.23c-.17.4-.05.13,0-.14s.14-.75.19-1.23a56.69,56.69,0,0,0,.29-6.7c0-2.38-.11-4.81-.27-7.21-.08-1.2-.18-2.39-.31-3.55s-.28-2.31-.43-3.16l8.06-9.51a5.26,5.26,0,0,0-2.16.37,3.17,3.17,0,0,0-.64.34c-.11.09.1-.07.33-.35a19.87,19.87,0,0,0,1.83-2.5,69.19,69.19,0,0,0,3.78-6.95c2.4-5,4.56-10.3,6.56-15.66s3.85-10.84,5.51-16.31c.82-2.73,1.6-5.47,2.27-8.16.33-1.34.64-2.66.87-3.89.11-.61.21-1.2.27-1.65,0-.22,0-.41,0-.45s0,0,0,.14a2.79,2.79,0,0,0,0,.43,3.47,3.47,0,0,0,.63,1.46,2.17,2.17,0,0,0,.37.39,8.61,8.61,0,0,0-1.94-.75c-1-.31-2.31-.58-3.88-.93-.81-.19-1.64-.37-2.9-.79a12.54,12.54,0,0,1-2.69-1.24,9.34,9.34,0,0,1-2.64-2.44c-.13-.19-.25-.35-.38-.57s-.27-.46-.39-.7a8.65,8.65,0,0,1-.61-1.6,8.81,8.81,0,0,1-.29-1.79,9.17,9.17,0,0,1,.07-1.69,9.65,9.65,0,0,1,.31-1.4,10.3,10.3,0,0,1,.42-1.09,2.41,2.41,0,0,0-.14.33l-.05.16v0l0-.06s.05-.21.08-.3l.09-.39c.13-.57.26-1.24.39-1.91.26-1.35.5-2.76.74-4.18.48-2.84.92-5.74,1.36-8.63,1.75-11.6,3.34-23.29,5-35l10.27,8.74a25.25,25.25,0,0,1-10.69.85,30.17,30.17,0,0,1-9.5-3.07,54.18,54.18,0,0,1-13.64-10.5,119.39,119.39,0,0,1-10.15-12c-3.07-4.11-5.93-8.29-8.67-12.48-5.48-8.38-10.53-16.86-15.67-25-2.57-4.07-5.16-8.08-7.85-11.75-1.34-1.83-2.71-3.57-4.07-5.09a18.32,18.32,0,0,0-3.59-3.24l-5-2.83,1.11-5.67a73.78,73.78,0,0,0,1.42-13.27,66,66,0,0,0-1.14-13.17,61.5,61.5,0,0,0-3.77-12.54,51.34,51.34,0,0,0-2.86-5.76,35.29,35.29,0,0,0-3.38-4.95l9.39,2.14a17.44,17.44,0,0,0-5.69,4.5,36.94,36.94,0,0,0-4.87,7.29l-8.84,17-5.89-18.29a50.17,50.17,0,0,0-6-11.46,137.54,137.54,0,0,0-8.59-11.45A292.76,292.76,0,0,0,366,67.1c-7.07-7-14.41-13.68-21.93-20.19S328.84,34.09,321,28.16C317,25.22,313,22.32,309,19.8a52.6,52.6,0,0,0-5.75-3.1l-.94-.39c-.09,0-.11,0,0,0l.14,0,.27,0a6.7,6.7,0,0,0,1.14,0,5.11,5.11,0,0,0,1-.19l.2-.07.11-.05c.07,0,0-.05-.08,0a6.27,6.27,0,0,0-1,.45A41.86,41.86,0,0,0,298.8,20c-1.85,1.4-3.69,2.91-5.48,4.49A136.31,136.31,0,0,0,283,34.7c-6.51,7.2-12.49,15-16.81,23.8a62.17,62.17,0,0,0-5,13.77A40.13,40.13,0,0,0,260.73,87.13Z"/><path class="cls-5" d="M181,567.32c-.92-5.38-1.81-10.74-2.84-16.08s-2-10.67-3.12-16c-2.23-10.62-4.55-21.2-7.1-31.72s-5.22-21-8.11-31.38c-1.47-5.18-3-10.35-4.58-15.43-.8-2.54-1.65-5-2.54-7.49-.44-1.22-.91-2.41-1.38-3.54-.23-.52-.47-1.15-.7-1.58-.11-.22-.23-.5-.33-.68s-.18-.29-.26-.44l-2.33-4.4,3.39-3.35c2.2-2.17,4.28-4.1,6.29-6.07s3.93-3.92,5.72-5.92a50.36,50.36,0,0,0,8.64-12.43,19.27,19.27,0,0,0,1.66-12.32c-.86-3.91-3.27-7.81-6.61-11.37l-5-5.29,5.35-5.32A15.91,15.91,0,0,0,172,364.89a25,25,0,0,0-4.49-13.49,30.83,30.83,0,0,0-11.18-10,30.51,30.51,0,0,0-14.53-3.53l-22,.23,16.73-14.26a39.22,39.22,0,0,0,7.48-8.17,18,18,0,0,0,3.22-8.54,9,9,0,0,0-2.22-6.74,12.41,12.41,0,0,0-7.18-3.74,21.25,21.25,0,0,0-9.79.78,35.84,35.84,0,0,0-9.85,5,53.41,53.41,0,0,0-8.78,7.91,84.12,84.12,0,0,0-7.46,9.8l-8.25,12.62-3.63-14.23a41.49,41.49,0,0,0-2.75-7.34,54.48,54.48,0,0,0-4-7,35.81,35.81,0,0,0-5-6,16.14,16.14,0,0,0-5.56-3.63,7.75,7.75,0,0,0-5.32-.05,15.45,15.45,0,0,0-5.54,3.9c-3.55,3.73-6.5,8.77-9,14a145.52,145.52,0,0,0-6.45,16.5c-1.89,5.67-3.54,11.45-5.08,17.28s-3,11.72-4.26,17.63-2.54,11.86-3.8,17.82c.27-6.08.72-12.14,1.25-18.22s1.3-12.12,2.17-18.18c1.81-12.1,4.19-24.19,8.53-36a79.68,79.68,0,0,1,3.84-8.8,46.09,46.09,0,0,1,5.47-8.47,25.46,25.46,0,0,1,8.82-7,18.31,18.31,0,0,1,12.48-.93,27.05,27.05,0,0,1,10,5.47,47.4,47.4,0,0,1,7.18,7.53,62.21,62.21,0,0,1,5.46,8.46,54.12,54.12,0,0,1,4.09,9.48l-11.88-1.61a75.71,75.71,0,0,1,18.94-22.36,47.9,47.9,0,0,1,13.77-7.5,36.15,36.15,0,0,1,16.67-1.71,29.61,29.61,0,0,1,8.63,2.62,26,26,0,0,1,7.61,5.64,24.25,24.25,0,0,1,5.07,8.35,25.25,25.25,0,0,1,1.41,9.52,29.24,29.24,0,0,1-1.79,8.9,36.89,36.89,0,0,1-3.81,7.56,54.86,54.86,0,0,1-10.45,11.66l-5.26-14a45.4,45.4,0,0,1,22.25,5.36,46.71,46.71,0,0,1,16.88,15.36A39.75,39.75,0,0,1,187.58,365a31.78,31.78,0,0,1-2.63,12.27,30.89,30.89,0,0,1-7.27,10.24l.38-10.61a47.94,47.94,0,0,1,6,8.39,35.09,35.09,0,0,1,3.78,10.3,31,31,0,0,1,.06,11.22A37.08,37.08,0,0,1,184.43,417a62.62,62.62,0,0,1-11.63,15.51c-2.18,2.19-4.42,4.25-6.65,6.21l-6.48,5.64,1.06-7.75.7,1.36c.2.43.34.78.51,1.18.35.8.56,1.46.84,2.2.49,1.41.92,2.79,1.32,4.15.8,2.72,1.52,5.42,2.19,8.11,1.36,5.38,2.54,10.74,3.63,16.12,2.2,10.75,4,21.54,5.62,32.36s2.88,21.67,3.8,32.56c.45,5.44.87,10.89,1.16,16.34S181,561.87,181,567.32Z"/><path class="cls-6" d="M138.82,303.26c-7,8.58-13.83,17.13-20.48,25.78s-13.05,17.39-19,26.28c-3,4.46-5.87,8.92-8.51,13.49a141.06,141.06,0,0,0-7.24,13.74,66,66,0,0,0-4.81,13.65,30.07,30.07,0,0,0-.78,6.22,13.85,13.85,0,0,0,.75,4.89,9.16,9.16,0,0,0,2.09,3.33,14.27,14.27,0,0,0,3.92,2.69,41.17,41.17,0,0,0,12.51,3.22,112.89,112.89,0,0,0,14.88.56c2.56-.06,5.13-.18,7.73-.37q1.94-.14,3.9-.31l2-.17,1.74-.18a35.08,35.08,0,0,0,12.14-3.38,14.25,14.25,0,0,0,3.9-2.86,8.3,8.3,0,0,0,1.9-3.23,7.63,7.63,0,0,0,.12-3.87,12.73,12.73,0,0,0-2-4.4,20.08,20.08,0,0,0-9.32-6.89l-27.28-10.55,27.79-3.56a24,24,0,0,0,13.05-6.52,17.32,17.32,0,0,0,4.08-5.75,6.9,6.9,0,0,0,.15-5.48,11.21,11.21,0,0,0-5.11-4.79,35.4,35.4,0,0,0-8.3-3,106.89,106.89,0,0,0-18.84-2.29,76.68,76.68,0,0,1,19.42-2.67,37.62,37.62,0,0,1,10.31,1.38,22.61,22.61,0,0,1,5.25,2.27,16.16,16.16,0,0,1,4.73,4.26,15,15,0,0,1,2.7,6.31,17.83,17.83,0,0,1-.13,6.65,27.41,27.41,0,0,1-5.12,10.89,35.81,35.81,0,0,1-19.22,12.94l.51-14.12a34.27,34.27,0,0,1,18,10.41,27.94,27.94,0,0,1,5.8,9.95,25.06,25.06,0,0,1-4.25,23.77,32.55,32.55,0,0,1-8.68,7.56,42.76,42.76,0,0,1-9.52,4.24,62.64,62.64,0,0,1-9.48,2.17c-.78.12-1.56.22-2.34.32l-2.13.24q-2.13.22-4.28.39-4.3.36-8.67.51a107.35,107.35,0,0,1-17.91-.72,72.59,72.59,0,0,1-9.36-1.81,46.06,46.06,0,0,1-9.63-3.71,33.41,33.41,0,0,1-9.21-7,27.42,27.42,0,0,1-6-10.79,32.84,32.84,0,0,1-1.14-11.35,47.21,47.21,0,0,1,1.81-10,82.83,82.83,0,0,1,7.35-16.79,148.48,148.48,0,0,1,9.56-14.47c3.44-4.54,7-8.94,10.74-13.13a276.42,276.42,0,0,1,23.72-23.57A246.39,246.39,0,0,1,138.82,303.26Z"/><path class="cls-7" d="M248.48,89.38a134,134,0,0,1,15.08-.24c1.27,0,2.54.1,3.81.17s2.55.12,3.82.3l7.66,1c2.55.45,5.09,1,7.67,1.56l1.93.43c.64.17,1.27.37,1.9.55l3.82,1.15c1.26.43,2.56.76,3.8,1.29l3.76,1.54c1.25.54,2.51,1,3.75,1.63l3.67,1.92,3.73,1.91q1.83,1.07,3.72,2.11c1.24.72,2.56,1.35,3.78,2.16s2.43,1.64,3.64,2.5a33.17,33.17,0,0,1,6.5,6.09,19.92,19.92,0,0,1,1.39,1.76c.41.63.82,1.27,1.2,1.93.77,1.3,1.48,2.64,2.13,4s1.09,2.86,1.57,4.29c.22.73.46,1.45.67,2.17l.3,1.09.21,1.13a37.51,37.51,0,0,1,.73,9.09c0,.76-.1,1.53-.16,2.28a17.9,17.9,0,0,1-.26,2.25c-.3,1.51-.68,3-1.1,4.47-.24.73-.44,1.45-.73,2.17s-.64,1.43-1,2.14a27.64,27.64,0,0,1-2.5,4.08,2,2,0,0,1-2.75.41l-.13-.1-.12-.1c-1.25-1.09-2.36-2.13-3.34-3.13-.51-.5-1-1-1.43-1.47l-1.47-1.38c-.93-.91-1.82-1.77-2.62-2.62s-1.76-1.62-2.56-2.4c-1.5-1.59-3.21-3-4.56-4.4-.17-.18-.35-.35-.51-.53l-.57-.5c-.38-.33-.73-.67-1.09-1l-1-1a13.61,13.61,0,0,0-1-1,38.58,38.58,0,0,1-6.91-8.81q-.78-1.25-1.53-2.59c-.51-.88-1.16-1.68-1.76-2.52s-1.24-1.67-1.89-2.49-1.47-1.49-2.23-2.22l-2.31-2.18c-.81-.69-1.68-1.33-2.52-2l-2.54-2.06c-.84-.71-1.8-1.27-2.7-1.92-3.57-2.68-7.48-5-11.46-7.44l-6.18-3.35c-1-.6-2.1-1.09-3.18-1.6s-2.15-1-3.23-1.55l-3.26-1.58c-1.1-.51-2.22-.93-3.34-1.41-2.23-1-4.49-1.91-6.76-2.95l-.11,0a1.53,1.53,0,0,1,.57-2.92Z"/><path class="cls-7" d="M188.11,109.5c4.15,1.64,8.26,3.36,12.29,5.24,2,.91,4,1.88,6,2.83l6,3c3.95,2.08,7.89,4.2,11.75,6.54,1.9,1.21,3.85,2.33,5.73,3.62s3.77,2.54,5.63,3.88,3.81,2.62,5.81,3.91,4,2.59,6,4.05c1,.75,1.89,1.53,2.79,2.35a21.58,21.58,0,0,1,2.52,2.65,29.14,29.14,0,0,1,4,6.32c.54,1.17,1.07,2.32,1.52,3.53s.83,2.51,1.17,3.78c.17.64.35,1.26.48,1.91s.24,1.34.34,2c.19,1.35.37,2.67.43,4a33,33,0,0,1-.74,8.33,24.3,24.3,0,0,1-3.34,8.1,2.07,2.07,0,0,1-2.85.64l-.09-.06c-5.13-3.22-8.76-5.71-12.2-8a95.44,95.44,0,0,1-9.21-6.91,30.76,30.76,0,0,1-3.8-4c-.53-.73-1.1-1.49-1.63-2.29s-1-1.65-1.46-2.51l-2.88-5.34A53.11,53.11,0,0,0,219,152c-2.53-3.24-5.13-6.51-7.83-9.78-1.3-1.68-2.66-3.31-4-5s-2.68-3.36-4.09-5c-5.47-6.71-11.19-13.34-16.68-20.36h0a1.55,1.55,0,0,1,1.79-2.4Z"/><path class="cls-5" d="M35,572.18a131.76,131.76,0,0,1-3.5-15.68c-.88-5.29-1.56-10.63-2-16s-.72-10.7-.9-16.05-.3-10.7-.24-16c.06-10.67.34-21.31.6-31.89l.19-7.93.25-7.9q.23-7.89.35-15.74c.14-10.46.06-20.87-.48-31.15a261.83,261.83,0,0,0-2.84-30.35,153.17,153.17,0,0,0-7.19-28.58,124.27,124.27,0,0,0-5.65-13.11,94.22,94.22,0,0,0-7.22-12L0,320.86l8.65-8A47.07,47.07,0,0,0,15,305.74a61.37,61.37,0,0,0,5.21-8.51,96.61,96.61,0,0,0,7.25-20c3.64-14.3,5.27-29.75,6-45.38s.69-31.61.39-47.7S33,151.76,33,135.18c0-8.29.15-16.67.69-25.25s1.39-17.35,4-26.87a51.49,51.49,0,0,1,6.71-15.17,35.77,35.77,0,0,1,3.16-4,31,31,0,0,1,4.15-3.7A27.92,27.92,0,0,1,62.2,55.54a34.88,34.88,0,0,1,9.57-.71A51.3,51.3,0,0,1,79.84,56a85.1,85.1,0,0,1,13.65,4.38c4.21,1.71,8.18,3.6,12,5.56s7.6,4,11.23,6.16C124,76.35,131,80.82,137.93,85.34s13.66,9.11,20.4,13.66l20.09,13.51-9.78-.18L177.3,108q4.41-2.17,8.88-4.24,8.94-4.13,18.12-7.77A229.77,229.77,0,0,1,242.15,84.5a160.39,160.39,0,0,1,19.68-2.92,116.53,116.53,0,0,1,20,.13c13.24,1.16,26.49,5.59,36.72,13.76l.05,0a.8.8,0,0,1-.94,1.29,61.26,61.26,0,0,0-17.23-7.72,77.91,77.91,0,0,0-18.76-2.69,110.84,110.84,0,0,0-19,1.18A157.52,157.52,0,0,0,244,91.46a246.75,246.75,0,0,0-35.91,13c-11.67,5.19-23,11.14-34.09,17.47l-.63.36-.64-.38c-13.95-8.42-27.57-17.3-41.43-25.77-6.93-4.23-13.9-8.37-21-12.25A185.53,185.53,0,0,0,88.43,73.54,72.31,72.31,0,0,0,77,70.09a27.83,27.83,0,0,0-11.5-.28,13.26,13.26,0,0,0-5,2.24,16.77,16.77,0,0,0-3.78,4.1,36.58,36.58,0,0,0-4.49,10.77c-2,7.7-2.72,15.79-3.17,23.84s-.46,16.18-.39,24.29c.17,16.23.81,32.48,1.13,48.75s.32,32.58-.6,48.88-2.79,32.62-7.09,48.49a110.8,110.8,0,0,1-8.9,23,67.3,67.3,0,0,1-15.28,19.5l.25-1.85A115.7,115.7,0,0,1,32,350.71a167,167,0,0,1,6.72,31.23c2.58,21.15,2.14,42.47.91,63.61s-3.45,42.21-4.84,63.29c-.69,10.54-1.16,21.09-1.06,31.63a177.3,177.3,0,0,0,2.8,31.41.8.8,0,0,1-1.55.38Z"/><path class="cls-8" d="M119,143.25C78.31,98.58,75.56,90.86,59.57,90.86c-12,0,2.09,142,15,142S96.16,222.44,97.5,216s12.91-14.33,12.91-14.33l3.86-4.13-23.14-38,21.21-.28,24.51,16.49S127.24,146.75,119,143.25Z"/><path class="cls-5" d="M84.06,105.82a81.86,81.86,0,0,1,7.74,5.05l3.71,2.72,3.58,2.85q7.06,5.81,13.54,12.21c2.17,2.13,4.26,4.33,6.36,6.55s4.09,4.53,6.07,6.91,3.91,4.82,5.8,7.48q1.4,2,2.79,4.29l.71,1.24c.23.41.49.93.72,1.39s.51,1.11.75,1.68c.06.16.12.28.19.47l.21.63c.13.42.26.85.37,1.28l7,26.53L120,170.89a23.71,23.71,0,0,0-3.11-1.78c-1.21-.59-2.52-1.13-3.87-1.63a43.19,43.19,0,0,0-8.25-2.28,27,27,0,0,0-3.79-.47,12.66,12.66,0,0,0-2.69.13c-.26,0-.44.06-.38,0a5.13,5.13,0,0,0,.55-.51,4.11,4.11,0,0,0,.74-1.22c.15-.4.15-.69.1-.72s-.16.72,0,1.71a25.41,25.41,0,0,0,1.1,3.57,67.7,67.7,0,0,0,4.1,8.38c3.29,5.75,7.14,11.63,11.08,17.52l4.44,6.64L114.66,203c-2,1-4,2-5.91,3a34.92,34.92,0,0,0-5.07,3.23,11.58,11.58,0,0,0-3.61,4.29c-.16.46-.4.91-.57,1.4s-.34,1-.44,1.54-.22,1.08-.28,1.64l-.18,1.73,0,.2a.58.58,0,0,1-1.15.08A18,18,0,0,1,97,213a15,15,0,0,1,2.92-6.58,30.85,30.85,0,0,1,5-5.07c1.79-1.51,3.67-2.88,5.55-4.23l-.14,1.37a173.74,173.74,0,0,1-13.85-16.72,69.68,69.68,0,0,1-5.71-9.34,33.69,33.69,0,0,1-2.08-5.17,16.39,16.39,0,0,1-.76-5.71A8.41,8.41,0,0,1,90.39,156a11.07,11.07,0,0,1,5.31-2.68,29.34,29.34,0,0,1,11.19.07,53.6,53.6,0,0,1,10.58,3.1,40.49,40.49,0,0,1,9.68,5.4l-1.77,1.1a18.1,18.1,0,0,0-1.61-3.8c-.69-1.27-1.42-2.54-2.21-3.78-1.55-2.49-3.21-4.94-4.9-7.35-3.4-4.83-7-9.56-10.61-14.23S98.65,124.59,94.89,120,87.25,111,83.2,106.66a.59.59,0,0,1,.72-.92Z"/></g></g></svg>